<?xml version="1.0" encoding="utf-8"?>
<!-- Generator: Adobe Illustrator 16.0.4, SVG Export Plug-In . SVG Version: 6.00 Build 0)  -->
<!DOCTYPE svg PUBLIC "-//W3C//DTD SVG 1.1//EN" "http://www.w3.org/Graphics/SVG/1.1/DTD/svg11.dtd">
<svg version="1.1" id="Layer_1" xmlns="http://www.w3.org/2000/svg" xmlns:xlink="http://www.w3.org/1999/xlink" x="0px" y="0px"
	 width="50px" height="50px" viewBox="0 0 50 50" enable-background="new 0 0 50 50" xml:space="preserve">
<path stroke="#ddddff" d="M40.75,25c0,0.414-0.336,0.75-0.75,0.75h-3.289l1.8,1.799c0.294,0.293,0.294,0.769,0,1.062
	c-0.146,0.146-0.338,0.22-0.53,0.22c-0.191,0-0.383-0.072-0.529-0.22l-2.86-2.86h-8.84v8.84l2.858,2.861
	c0.293,0.293,0.293,0.768,0,1.061c-0.146,0.146-0.338,0.22-0.529,0.22s-0.385-0.073-0.53-0.22l-1.799-1.799v3.289
	c0,0.414-0.336,0.75-0.75,0.75s-0.75-0.336-0.75-0.75v-3.289l-1.8,1.799c-0.293,0.294-0.768,0.294-1.061,0
	c-0.293-0.293-0.293-0.768,0-1.061l2.86-2.859v-8.84h-8.84l-2.86,2.858c-0.146,0.146-0.338,0.22-0.53,0.22s-0.384-0.072-0.53-0.22
	c-0.293-0.293-0.293-0.769,0-1.062l1.799-1.799H10c-0.414,0-0.75-0.335-0.75-0.75s0.336-0.75,0.75-0.75h3.289l-1.8-1.8
	c-0.293-0.293-0.293-0.768,0-1.061c0.293-0.293,0.768-0.293,1.061,0l2.86,2.86h8.84v-8.84l-2.859-2.86
	c-0.293-0.293-0.293-0.768,0-1.061c0.293-0.293,0.768-0.293,1.061,0l1.799,1.799V9.999c0-0.414,0.336-0.75,0.75-0.75
	s0.75,0.336,0.75,0.75v3.289l1.8-1.8c0.293-0.293,0.768-0.293,1.061,0c0.294,0.293,0.294,0.768,0,1.061l-2.859,2.86v8.84h8.84
	l2.86-2.859c0.293-0.293,0.769-0.293,1.062,0s0.293,0.768,0,1.061l-1.8,1.799h3.289C40.414,24.25,40.75,24.585,40.75,25z
	 M34.329,28.545c0-0.414-0.336-0.75-0.75-0.75h-5.783v5.783c0,0.414,0.336,0.75,0.75,0.75s0.75-0.336,0.75-0.75v-3.222l3.752,3.752
	c0.146,0.146,0.338,0.22,0.53,0.22c0.191,0,0.384-0.072,0.529-0.22c0.293-0.293,0.293-0.769,0-1.062l-3.752-3.752h3.223
	C33.993,29.295,34.329,28.959,34.329,28.545z M15.671,21.455c0,0.414,0.336,0.75,0.75,0.75h5.783v-5.783
	c0-0.414-0.336-0.75-0.75-0.75s-0.75,0.336-0.75,0.75v3.222l-3.752-3.752c-0.293-0.293-0.768-0.293-1.061,0s-0.293,0.768,0,1.061
	l3.752,3.752h-3.222C16.007,20.705,15.671,21.041,15.671,21.455z M22.066,33.912v-5.229l0,0v-0.75h-5.979
	c-0.414,0-0.75,0.336-0.75,0.75s0.336,0.75,0.75,0.75h3.418l-3.615,3.613c-0.293,0.293-0.293,0.769,0,1.062
	c0.146,0.146,0.338,0.22,0.53,0.22s0.384-0.072,0.53-0.22l3.615-3.614v3.418c0,0.414,0.336,0.75,0.75,0.75
	S22.066,34.326,22.066,33.912z M27.934,16.087v5.978h5.979c0.414,0,0.75-0.336,0.75-0.75s-0.336-0.75-0.75-0.75h-3.418l3.614-3.614
	c0.293-0.293,0.293-0.768,0-1.061s-0.769-0.293-1.062,0l-3.614,3.614v-3.417c0-0.414-0.336-0.75-0.75-0.75
	S27.934,15.673,27.934,16.087z"/>
</svg>
