<?xml version="1.0" encoding="utf-8"?>
<!-- Generator: Adobe Illustrator 16.0.4, SVG Export Plug-In . SVG Version: 6.00 Build 0)  -->
<!DOCTYPE svg PUBLIC "-//W3C//DTD SVG 1.1//EN" "http://www.w3.org/Graphics/SVG/1.1/DTD/svg11.dtd">
<svg version="1.1" id="Layer_1" xmlns="http://www.w3.org/2000/svg" xmlns:xlink="http://www.w3.org/1999/xlink" x="0px" y="0px"
	 width="50px" height="50px" viewBox="0 0 50 50" enable-background="new 0 0 50 50" xml:space="preserve">
<path stroke="#ddddff" d="M13.646,31.857h4.494v4.494c0,0.414-0.336,0.75-0.75,0.75s-0.75-0.336-0.75-0.75v-2.994h-2.994
	c-0.414,0-0.75-0.336-0.75-0.75S13.232,31.857,13.646,31.857z M37.104,17.391c0-0.414-0.336-0.75-0.75-0.75h-2.994v-2.993
	c0-0.414-0.336-0.75-0.75-0.75s-0.75,0.335-0.75,0.75v4.493h4.494C36.768,18.141,37.104,17.805,37.104,17.391z M13.822,17.965
	l4.496-0.001v-4.496c0-0.414-0.336-0.75-0.75-0.75s-0.75,0.336-0.75,0.75v2.996l-2.996,0.001c-0.414,0-0.75,0.336-0.75,0.75
	S13.408,17.965,13.822,17.965z M36.531,31.68h-4.497l0.001,4.497c0,0.415,0.336,0.75,0.75,0.75s0.75-0.336,0.75-0.75l-0.001-2.997
	h2.997c0.414,0,0.75-0.336,0.75-0.75S36.945,31.68,36.531,31.68z M40.75,24.999c0,0.414-0.336,0.75-0.75,0.75h-3.289l1.801,1.8
	c0.293,0.293,0.293,0.768,0,1.061c-0.146,0.146-0.339,0.221-0.531,0.221c-0.191,0-0.383-0.073-0.529-0.221l-2.86-2.859h-1.907
	l-6.933,6.932v1.908l2.858,2.86c0.293,0.293,0.293,0.768,0,1.062c-0.146,0.146-0.338,0.219-0.529,0.219s-0.385-0.072-0.53-0.219
	l-1.799-1.8v3.289c0,0.414-0.336,0.75-0.75,0.75s-0.75-0.336-0.75-0.75v-3.289l-1.8,1.8c-0.293,0.293-0.768,0.293-1.061,0
	s-0.293-0.768,0-1.061l2.859-2.86v-1.909l-6.93-6.931h-1.91l-2.86,2.86c-0.146,0.146-0.338,0.22-0.53,0.22
	c-0.191,0-0.384-0.073-0.529-0.22c-0.293-0.293-0.293-0.769,0-1.062l1.8-1.799H10c-0.414,0-0.75-0.336-0.75-0.75
	s0.336-0.75,0.75-0.75h3.289l-1.801-1.8c-0.293-0.293-0.293-0.768,0-1.061c0.294-0.293,0.769-0.293,1.062,0l2.86,2.86h1.91
	l6.93-6.929V15.41l-2.859-2.86c-0.293-0.293-0.293-0.768,0-1.061s0.769-0.293,1.062,0l1.799,1.799V9.999
	c0-0.414,0.336-0.75,0.75-0.75s0.75,0.336,0.75,0.75v3.289l1.8-1.8c0.293-0.293,0.768-0.293,1.061,0s0.293,0.768,0,1.061
	l-2.859,2.86v1.911l6.928,6.929h1.912l2.86-2.86c0.293-0.293,0.769-0.293,1.062,0s0.293,0.768,0,1.061l-1.801,1.799h3.289
	C40.414,24.249,40.75,24.585,40.75,24.999z M30.561,25.749L31.309,25l-0.75-0.751l-4.809-4.808L25,18.691l-0.75,0.75l-4.809,4.808
	l-0.75,0.75l0.75,0.75l4.809,4.81l0.751,0.75l0.749-0.748L30.561,25.749z M36.189,30.21c0-0.414-0.336-0.75-0.75-0.75H29.46v5.979
	c0,0.414,0.336,0.75,0.75,0.75s0.75-0.336,0.75-0.75V30.96h4.479C35.854,30.96,36.189,30.624,36.189,30.21z M36.188,19.789
	c0-0.414-0.336-0.75-0.75-0.75H30.96V14.56c0-0.414-0.336-0.75-0.75-0.75s-0.75,0.336-0.75,0.75v5.979h5.978
	C35.854,20.539,36.188,20.203,36.188,19.789z M13.803,19.789c0,0.414,0.336,0.75,0.75,0.75h5.979V14.56
	c0-0.414-0.336-0.75-0.75-0.75s-0.75,0.336-0.75,0.75v4.479h-4.479C14.139,19.039,13.803,19.375,13.803,19.789z M13.805,30.21
	c0,0.414,0.336,0.75,0.75,0.75h4.477v4.478c0,0.414,0.336,0.75,0.75,0.75s0.75-0.336,0.75-0.75V29.46h-5.977
	C14.141,29.46,13.805,29.796,13.805,30.21z"/>
</svg>
