<?xml version="1.0" encoding="utf-8"?>
<!-- Generator: Adobe Illustrator 16.0.4, SVG Export Plug-In . SVG Version: 6.00 Build 0)  -->
<!DOCTYPE svg PUBLIC "-//W3C//DTD SVG 1.1//EN" "http://www.w3.org/Graphics/SVG/1.1/DTD/svg11.dtd">
<svg version="1.1" id="Layer_1" xmlns="http://www.w3.org/2000/svg" xmlns:xlink="http://www.w3.org/1999/xlink" x="0px" y="0px"
	 width="50px" height="50px" viewBox="0 0 50 50" enable-background="new 0 0 50 50" xml:space="preserve">
<path stroke="#ddddff" d="M39.872,26.48l-7.725,2.068l-2.463-1.422l2.627-0.704c0.268-0.071,0.426-0.346,0.354-0.612
	c-0.072-0.266-0.344-0.426-0.612-0.354l-3.594,0.962L26.001,25l2.46-1.42l3.592,0.963c0.044,0.012,0.087,0.017,0.13,0.017
	c0.221,0,0.424-0.147,0.483-0.371c0.071-0.267-0.087-0.541-0.354-0.612l-2.627-0.704l2.465-1.422l7.723,2.069
	c0.043,0.012,0.086,0.017,0.129,0.017c0.221,0,0.423-0.147,0.482-0.371c0.072-0.267-0.086-0.541-0.354-0.612l-6.757-1.81
	l3.019-1.742l2.948,0.791c0.044,0.012,0.087,0.017,0.13,0.017c0.221,0,0.424-0.147,0.483-0.371c0.071-0.267-0.087-0.541-0.354-0.612
	l-1.983-0.532l2.198-1.269c0.238-0.138,0.32-0.444,0.183-0.683c-0.138-0.24-0.444-0.321-0.683-0.183l-2.196,1.268l0.53-1.98
	c0.072-0.267-0.086-0.541-0.354-0.612c-0.268-0.069-0.541,0.087-0.613,0.354l-0.789,2.947l-3.018,1.743l1.811-6.755
	c0.071-0.267-0.086-0.541-0.354-0.612c-0.27-0.07-0.541,0.086-0.613,0.354l-2.068,7.721l-2.465,1.423l0.705-2.626
	c0.07-0.267-0.088-0.541-0.354-0.612c-0.271-0.07-0.54,0.087-0.613,0.354l-0.963,3.592l-2.458,1.416v-2.839l2.63-2.631
	c0.195-0.195,0.195-0.512,0-0.707c-0.194-0.195-0.512-0.195-0.707,0l-1.923,1.924v-2.847l5.652-5.653
	c0.195-0.195,0.195-0.512,0-0.707c-0.195-0.195-0.512-0.195-0.707,0l-4.945,4.946v-3.484l2.158-2.158
	c0.195-0.195,0.195-0.512,0-0.707s-0.512-0.195-0.707,0l-1.451,1.451V8.186c0-0.276-0.225-0.5-0.5-0.5s-0.5,0.224-0.5,0.5v2.536
	L23.05,9.271c-0.195-0.195-0.512-0.195-0.707,0s-0.195,0.512,0,0.707l2.158,2.158v3.484l-4.945-4.946
	c-0.195-0.195-0.512-0.195-0.707,0c-0.195,0.195-0.195,0.512,0,0.707l5.652,5.653v2.847l-1.923-1.924
	c-0.195-0.195-0.513-0.195-0.707,0c-0.195,0.195-0.195,0.512,0,0.707l2.63,2.631v2.839l-2.459-1.42l-0.963-3.592
	c-0.072-0.267-0.344-0.424-0.613-0.354c-0.267,0.071-0.425,0.346-0.354,0.612l0.703,2.626l-2.465-1.423l-2.067-7.721
	c-0.072-0.267-0.343-0.424-0.613-0.354c-0.267,0.071-0.425,0.346-0.354,0.612l1.812,6.755l-3.019-1.743l-0.789-2.947
	c-0.071-0.268-0.342-0.424-0.612-0.354c-0.267,0.071-0.425,0.346-0.354,0.612l0.531,1.981l-2.195-1.268
	c-0.238-0.136-0.545-0.056-0.684,0.183c-0.139,0.239-0.057,0.545,0.184,0.683l2.197,1.269l-1.984,0.532
	c-0.267,0.071-0.424,0.346-0.354,0.612c0.061,0.224,0.264,0.371,0.482,0.371c0.044,0,0.087-0.005,0.131-0.017l2.949-0.791
	l3.018,1.742l-6.757,1.81c-0.269,0.071-0.427,0.346-0.354,0.612C9.578,23.386,9.78,23.533,10,23.533
	c0.043,0,0.086-0.005,0.129-0.017l7.724-2.069l2.463,1.422l-2.627,0.704c-0.267,0.071-0.424,0.346-0.354,0.612
	c0.061,0.224,0.264,0.371,0.482,0.371c0.043,0,0.086-0.005,0.131-0.017l3.592-0.963l2.46,1.42l-2.459,1.42l-3.595-0.962
	c-0.262-0.072-0.539,0.087-0.611,0.354c-0.07,0.267,0.087,0.541,0.354,0.611l2.627,0.704l-2.465,1.423l-7.723-2.068
	c-0.261-0.07-0.54,0.086-0.611,0.354C9.444,27.1,9.603,27.373,9.87,27.443l6.757,1.811l-3.019,1.743l-2.947-0.79
	c-0.268-0.071-0.54,0.086-0.613,0.354c-0.07,0.268,0.087,0.541,0.354,0.612l1.982,0.531l-2.197,1.269
	c-0.238,0.139-0.32,0.444-0.183,0.684c0.093,0.16,0.261,0.25,0.433,0.25c0.086,0,0.172-0.021,0.25-0.067l2.197-1.269l-0.531,1.98
	c-0.07,0.268,0.088,0.541,0.354,0.612c0.043,0.012,0.086,0.017,0.129,0.017c0.222,0,0.423-0.146,0.483-0.371l0.789-2.947
	l3.017-1.741l-1.812,6.755c-0.07,0.268,0.088,0.541,0.354,0.611c0.044,0.013,0.087,0.018,0.13,0.018
	c0.221,0,0.424-0.146,0.482-0.371l2.068-7.721l2.465-1.424l-0.703,2.627c-0.07,0.267,0.088,0.541,0.354,0.611
	c0.043,0.012,0.086,0.018,0.129,0.018c0.222,0,0.423-0.146,0.483-0.371l0.962-3.592l2.459-1.42V28.7l-2.63,2.631
	c-0.195,0.194-0.195,0.512,0,0.707c0.195,0.194,0.512,0.194,0.707,0l1.926-1.919v2.846l-5.652,5.654
	c-0.195,0.195-0.195,0.512,0,0.707s0.512,0.195,0.707,0l4.945-4.947v3.485l-2.158,2.157c-0.195,0.195-0.195,0.513,0,0.707
	c0.195,0.195,0.512,0.195,0.707,0l1.451-1.451v2.537c0,0.275,0.225,0.5,0.5,0.5s0.5-0.225,0.5-0.5v-2.537l1.451,1.451
	c0.098,0.099,0.226,0.146,0.354,0.146c0.129,0,0.256-0.049,0.354-0.146c0.194-0.194,0.194-0.512,0-0.707l-2.159-2.157v-3.485
	l4.945,4.947c0.098,0.098,0.226,0.146,0.354,0.146c0.129,0,0.256-0.05,0.354-0.146c0.195-0.195,0.195-0.512,0-0.707l-5.652-5.654
	v-2.846l1.923,1.924c0.099,0.098,0.226,0.146,0.354,0.146c0.127,0,0.256-0.049,0.354-0.146c0.195-0.195,0.195-0.512,0-0.707
	l-2.631-2.631v-2.839l2.459,1.42l0.962,3.592c0.062,0.224,0.263,0.371,0.483,0.371c0.041,0,0.086-0.005,0.129-0.017
	c0.268-0.071,0.426-0.347,0.354-0.612l-0.703-2.626l2.463,1.422l2.068,7.723c0.061,0.223,0.264,0.37,0.483,0.37
	c0.043,0,0.086-0.005,0.13-0.017c0.268-0.071,0.425-0.346,0.354-0.612l-1.812-6.756l3.021,1.743l0.789,2.947
	c0.061,0.223,0.262,0.371,0.482,0.371c0.042,0,0.086-0.006,0.129-0.018c0.268-0.07,0.426-0.346,0.354-0.611l-0.53-1.981l2.196,1.269
	c0.08,0.045,0.166,0.067,0.25,0.067c0.172,0,0.342-0.089,0.434-0.25c0.139-0.239,0.057-0.545-0.184-0.683l-2.196-1.27l1.981-0.531
	c0.268-0.07,0.426-0.346,0.354-0.611c-0.072-0.268-0.343-0.426-0.613-0.354l-2.946,0.79l-3.02-1.743l6.757-1.81
	c0.269-0.071,0.427-0.346,0.354-0.612C40.412,26.568,40.138,26.41,39.872,26.48z"/>
</svg>
