<?xml version="1.0" encoding="utf-8"?>
<!-- Generator: Adobe Illustrator 16.0.4, SVG Export Plug-In . SVG Version: 6.00 Build 0)  -->
<!DOCTYPE svg PUBLIC "-//W3C//DTD SVG 1.1//EN" "http://www.w3.org/Graphics/SVG/1.1/DTD/svg11.dtd">
<svg version="1.1" id="Layer_1" xmlns="http://www.w3.org/2000/svg" xmlns:xlink="http://www.w3.org/1999/xlink" x="0px" y="0px"
	 width="50px" height="50px" viewBox="0 0 50 50" enable-background="new 0 0 50 50" xml:space="preserve">
<path stroke="#ddddff" d="M40.004,24.25h-2.43l1.368-1.368c0.293-0.293,0.293-0.768,0-1.061c-0.294-0.293-0.769-0.293-1.062,0l-2.429,2.429h-2.439
	l3.118-3.119c0.293-0.293,0.293-0.768,0-1.061s-0.768-0.293-1.061,0l-4.106,4.107v-4.389c0-0.414-0.336-0.75-0.75-0.75h-4.461V18.87
	l4.351-4.351c0.293-0.293,0.293-0.768,0-1.061s-0.768-0.293-1.061,0l-3.29,3.29v-2.449l2.179-2.179c0.293-0.293,0.293-0.768,0-1.061
	s-0.768-0.293-1.061,0l-1.118,1.118v-2.18c0-0.414-0.336-0.75-0.75-0.75s-0.75,0.336-0.75,0.75v2.68l-1.618-1.618
	c-0.293-0.293-0.768-0.293-1.061,0s-0.293,0.768,0,1.061l2.679,2.679v1.949l-3.29-3.29c-0.293-0.293-0.768-0.293-1.061,0
	s-0.293,0.768,0,1.061l4.351,4.351v0.168h-4.461c-0.414,0-0.75,0.336-0.75,0.75v4.389l-4.106-4.107
	c-0.293-0.293-0.768-0.293-1.061,0s-0.293,0.768,0,1.061l3.118,3.119h-2.439l-2.429-2.429c-0.293-0.293-0.768-0.293-1.062,0
	c-0.293,0.293-0.293,0.768,0,1.061l1.368,1.368h-2.43c-0.414,0-0.75,0.336-0.75,0.75s0.336,0.75,0.75,0.75h2.43l-1.368,1.367
	c-0.293,0.292-0.293,0.768,0,1.061c0.146,0.146,0.339,0.221,0.53,0.221s0.384-0.073,0.53-0.221l2.429-2.428h2.439l-3.118,3.119
	c-0.293,0.293-0.293,0.768,0,1.061c0.146,0.146,0.338,0.221,0.53,0.221c0.191,0,0.384-0.073,0.529-0.221l4.106-4.106v4.389
	c0,0.414,0.336,0.75,0.75,0.75h4.461v0.168l-4.352,4.351c-0.293,0.293-0.293,0.769,0,1.062c0.294,0.293,0.769,0.293,1.062,0
	l3.29-3.29v1.949l-2.679,2.679c-0.293,0.293-0.293,0.769,0,1.062s0.768,0.293,1.061,0l1.618-1.618v2.68
	c0,0.414,0.336,0.75,0.75,0.75s0.75-0.336,0.75-0.75v-2.18l1.118,1.118c0.146,0.146,0.338,0.22,0.529,0.22
	c0.192,0,0.385-0.073,0.53-0.22c0.293-0.293,0.293-0.769,0-1.062l-2.179-2.179v-2.449l3.29,3.291
	c0.146,0.146,0.338,0.221,0.53,0.221c0.191,0,0.384-0.074,0.529-0.221c0.293-0.293,0.293-0.768,0-1.061l-4.351-4.352v-0.168h4.461
	c0.414,0,0.75-0.336,0.75-0.75v-4.389l4.106,4.107c0.146,0.146,0.338,0.219,0.529,0.219c0.192,0,0.384-0.072,0.53-0.219
	c0.293-0.294,0.293-0.769,0-1.062l-3.118-3.119h2.439l2.429,2.429c0.146,0.146,0.338,0.221,0.53,0.221
	c0.191,0,0.384-0.073,0.529-0.221c0.293-0.293,0.293-0.768,0-1.061l-1.367-1.368h2.43c0.414,0,0.75-0.336,0.75-0.75
	S40.418,24.25,40.004,24.25z M29.465,29.461h-3.711h-1.5h-3.711V25.75v-1.5v-3.711h3.711h1.5h3.711v3.711v1.5V29.461z M36.544,35.48
	c0.293,0.293,0.293,0.768,0,1.061c-0.146,0.146-0.339,0.22-0.53,0.22s-0.384-0.073-0.529-0.22l-2.611-2.611
	c-0.293-0.294-0.293-0.769,0-1.062c0.294-0.293,0.768-0.292,1.061,0L36.544,35.48z M17.55,32.868c0.293,0.293,0.293,0.768,0,1.062
	l-2.613,2.611c-0.146,0.146-0.339,0.22-0.529,0.22c-0.192,0-0.385-0.073-0.53-0.22c-0.293-0.293-0.293-0.768,0-1.061l2.613-2.612
	C16.783,32.574,17.258,32.575,17.55,32.868z M13.877,15.212c-0.292-0.293-0.292-0.768,0.001-1.061
	c0.294-0.293,0.768-0.292,1.062,0.001l2.609,2.614c0.292,0.293,0.292,0.768-0.001,1.061c-0.146,0.146-0.339,0.219-0.53,0.219
	s-0.384-0.073-0.53-0.22L13.877,15.212z M32.87,17.832c-0.293-0.293-0.293-0.768,0-1.061l2.615-2.611
	c0.293-0.293,0.768-0.292,1.061,0.001s0.293,0.768,0,1.061l-2.615,2.611c-0.146,0.146-0.339,0.219-0.529,0.219
	C33.208,18.052,33.017,17.979,32.87,17.832z"/>
</svg>
