<?xml version="1.0" encoding="utf-8"?>
<!-- Generator: Adobe Illustrator 16.0.4, SVG Export Plug-In . SVG Version: 6.00 Build 0)  -->
<!DOCTYPE svg PUBLIC "-//W3C//DTD SVG 1.1//EN" "http://www.w3.org/Graphics/SVG/1.1/DTD/svg11.dtd">
<svg version="1.1" id="Layer_1" xmlns="http://www.w3.org/2000/svg" xmlns:xlink="http://www.w3.org/1999/xlink" x="0px" y="0px"
	 width="50px" height="50px" viewBox="0 0 50 50" enable-background="new 0 0 50 50" xml:space="preserve">
<path stroke="#ddddff" d="M32.475,29.604l1.967,7.34c0.036,0.133-0.043,0.271-0.177,0.306c-0.022,0.006-0.043,0.009-0.065,0.009
	c-0.11,0-0.211-0.072-0.242-0.186l-2.096-7.821l-6.613-3.817v7.635l5.726,5.729c0.098,0.098,0.098,0.256,0,0.354
	c-0.05,0.05-0.113,0.074-0.178,0.074c-0.063,0-0.128-0.024-0.177-0.074l-5.372-5.373v3.937c0,0.138-0.112,0.25-0.25,0.25
	s-0.25-0.112-0.25-0.25v-3.937l-5.372,5.373c-0.098,0.099-0.256,0.099-0.354,0c-0.098-0.098-0.098-0.256,0-0.354l5.726-5.729v-7.635
	l-6.613,3.817l-2.096,7.821c-0.03,0.111-0.131,0.186-0.242,0.186c-0.021,0-0.043-0.003-0.065-0.009
	c-0.133-0.035-0.212-0.173-0.177-0.306l1.967-7.34l-3.408,1.969c-0.04,0.021-0.083,0.033-0.125,0.033
	c-0.086,0-0.17-0.045-0.216-0.125c-0.069-0.119-0.028-0.272,0.091-0.342l3.408-1.969l-7.339-1.966
	c-0.134-0.035-0.213-0.173-0.177-0.306c0.036-0.135,0.175-0.211,0.306-0.178l7.823,2.096L24.5,25l-6.613-3.816l-7.822,2.094
	c-0.021,0.007-0.043,0.01-0.064,0.01c-0.11,0-0.211-0.073-0.242-0.186c-0.036-0.134,0.043-0.271,0.177-0.307l7.339-1.966
	l-3.407-1.968c-0.12-0.069-0.161-0.223-0.091-0.342c0.068-0.119,0.222-0.158,0.341-0.093l3.407,1.968l-1.967-7.338
	c-0.036-0.134,0.043-0.271,0.177-0.307c0.137-0.035,0.271,0.043,0.307,0.177l2.096,7.82l6.614,3.817V16.93l-5.726-5.728
	c-0.098-0.099-0.098-0.257,0-0.354c0.098-0.098,0.256-0.098,0.354,0l5.372,5.373v-3.936c0-0.139,0.112-0.25,0.25-0.25
	s0.25,0.111,0.25,0.25v3.936l5.372-5.373c0.099-0.098,0.256-0.098,0.354,0c0.098,0.098,0.098,0.256,0,0.354l-5.726,5.728v7.635
	l6.614-3.817l2.096-7.82c0.036-0.134,0.175-0.211,0.308-0.177c0.133,0.035,0.212,0.173,0.177,0.307l-1.967,7.338l3.407-1.968
	c0.118-0.067,0.271-0.028,0.341,0.093c0.068,0.119,0.027,0.271-0.091,0.342l-3.407,1.968l7.339,1.966
	c0.134,0.035,0.213,0.173,0.177,0.307c-0.03,0.111-0.131,0.186-0.242,0.186c-0.021,0-0.043-0.003-0.063-0.01l-7.822-2.094L25.5,25
	l6.612,3.816l7.823-2.094c0.133-0.035,0.27,0.043,0.306,0.176c0.036,0.134-0.043,0.271-0.177,0.307l-7.339,1.966l3.407,1.968
	c0.12,0.069,0.161,0.223,0.092,0.342c-0.046,0.08-0.131,0.125-0.217,0.125c-0.042,0-0.085-0.01-0.125-0.032L32.475,29.604z
	 M24,14.412v-2.24l-0.937-0.541V9.396L25,8.279l1.937,1.117v2.234l-0.938,0.541v2.24l4.092-4.092c0.195-0.195,0.195-0.512,0-0.707
	c-0.194-0.195-0.512-0.195-0.707,0l-1.447,1.447V8.818L25,7.124l-2.937,1.694v2.242l-1.448-1.447c-0.195-0.195-0.512-0.195-0.707,0
	c-0.195,0.195-0.195,0.512,0,0.707L24,14.412z M25.999,17.242l5.777-5.779l1.557,0.898l-2.115,7.894l-5.219,3.015V17.242z
	 M26.999,21.536l3.361-1.938l1.809-6.752l-0.229-0.133l-4.941,4.943V21.536z M35.608,17.721v-1.082l1.937-1.117l1.938,1.119v2.234
	l-1.938,1.118l-0.937-0.541l-1.94,1.121l5.59,1.497c0.043,0.012,0.088,0.018,0.131,0.018c0.221,0,0.423-0.146,0.481-0.37
	c0.071-0.268-0.087-0.541-0.354-0.612l-1.979-0.53l1.944-1.121v-3.39l-2.938-1.697l-1.941,1.121l0.529-1.978
	c0.071-0.268-0.087-0.54-0.354-0.612c-0.265-0.063-0.541,0.088-0.612,0.354l-1.499,5.592L35.608,17.721z M32.218,21.986L40.11,24.1
	v1.799l-7.894,2.113L26.999,25L32.218,21.986z M32.36,23.061L28.999,25l3.36,1.939l6.751-1.809v-0.264L32.36,23.061z M40.258,27.93
	l-5.589,1.497l1.938,1.121l0.937-0.541l1.938,1.118l-0.002,2.236l-1.937,1.117l-1.937-1.117v-1.082l-1.941-1.121l1.498,5.592
	c0.061,0.225,0.262,0.371,0.482,0.371c0.043,0,0.086-0.006,0.13-0.018c0.267-0.071,0.425-0.346,0.354-0.611l-0.529-1.98l1.943,1.122
	l2.937-1.694l0.002-3.393l-1.944-1.121l1.98-0.529c0.267-0.072,0.425-0.347,0.354-0.613C40.799,28.018,40.526,27.861,40.258,27.93z
	 M31.217,29.745l2.116,7.894l-1.556,0.898l-5.778-5.779v-6.025L31.217,29.745z M32.169,37.154l-1.81-6.752l-3.36-1.938v3.88
	l4.942,4.943L32.169,37.154z M25.999,35.588v2.24l0.938,0.541v2.234L25,41.721l-1.937-1.117v-2.234L24,37.828v-2.243l-4.092,4.095
	c-0.195,0.195-0.195,0.512,0,0.707c0.195,0.195,0.512,0.195,0.707,0l1.448-1.449v2.244L25,42.876l2.937-1.694v-2.242l1.447,1.447
	c0.195,0.195,0.513,0.195,0.707,0c0.195-0.195,0.195-0.512,0-0.707L25.999,35.588z M24,32.758l-5.777,5.779l-1.557-0.898
	l2.116-7.894L24,26.73V32.758z M23,28.464l-3.36,1.938l-1.81,6.752l0.229,0.133L23,32.344V28.464z M14.392,32.279v1.082
	l-1.937,1.117l-1.936-1.117l-0.002-2.236l1.938-1.118l0.937,0.541l1.938-1.121L9.741,27.93c-0.266-0.066-0.541,0.088-0.612,0.354
	c-0.071,0.268,0.087,0.541,0.354,0.613l1.98,0.529l-1.944,1.121l0.002,3.393l2.936,1.694l1.944-1.122l-0.53,1.98
	c-0.071,0.267,0.087,0.54,0.354,0.611c0.043,0.012,0.087,0.018,0.13,0.018c0.221,0,0.423-0.146,0.482-0.371l1.498-5.592
	L14.392,32.279z M17.782,28.014L9.889,25.9v-1.799l7.892-2.113L23,25.001L17.782,28.014z M17.64,26.939L21,25l-3.361-1.939
	l-6.75,1.809v0.264L17.64,26.939z M9.61,22.088c0.043,0,0.086-0.006,0.13-0.018l5.59-1.497l-1.94-1.121l-0.937,0.541l-1.937-1.118
	v-2.234l1.937-1.119l1.937,1.117v1.082l1.94,1.122l-1.499-5.592c-0.071-0.267-0.346-0.418-0.612-0.354
	c-0.267,0.072-0.425,0.347-0.354,0.613l0.53,1.977l-1.942-1.12l-2.937,1.696v3.391l1.944,1.121l-1.979,0.529
	c-0.267,0.072-0.425,0.347-0.354,0.613C9.188,21.939,9.39,22.088,9.61,22.088z M18.781,20.255l-2.115-7.894l1.557-0.898L24,17.242
	v6.025L18.781,20.255z M17.83,12.846l1.809,6.752L23,21.536v-3.88l-4.941-4.943L17.83,12.846z"/>
</svg>
