<?xml version="1.0" encoding="utf-8"?>
<!-- Generator: Adobe Illustrator 16.0.4, SVG Export Plug-In . SVG Version: 6.00 Build 0)  -->
<!DOCTYPE svg PUBLIC "-//W3C//DTD SVG 1.1//EN" "http://www.w3.org/Graphics/SVG/1.1/DTD/svg11.dtd">
<svg version="1.1" id="Layer_1" xmlns="http://www.w3.org/2000/svg" xmlns:xlink="http://www.w3.org/1999/xlink" x="0px" y="0px"
	 width="50px" height="50px" viewBox="0 0 50 50" enable-background="new 0 0 50 50" xml:space="preserve">
<path stroke="#ddddff" d="M22.734,28.121L17.755,33.1c-0.127,0.127-0.293,0.189-0.459,0.189s-0.333-0.062-0.459-0.189
	c-0.254-0.254-0.254-0.666,0-0.919l4.979-4.979c0.254-0.254,0.665-0.254,0.919,0S22.988,27.867,22.734,28.121z M27.257,22.678
	c0.127,0.127,0.293,0.189,0.459,0.189s0.333-0.062,0.459-0.189l4.979-4.979c0.254-0.253,0.254-0.665,0-0.919s-0.666-0.254-0.92,0
	l-4.979,4.978C27.003,22.013,27.003,22.423,27.257,22.678z M21.815,22.678c0.127,0.127,0.293,0.189,0.459,0.189
	s0.333-0.062,0.459-0.189c0.254-0.255,0.254-0.665,0-0.92l-4.979-4.978c-0.254-0.254-0.665-0.254-0.919,0s-0.254,0.666,0,0.919
	L21.815,22.678z M28.176,27.202c-0.254-0.254-0.665-0.254-0.919,0s-0.254,0.665,0,0.919l4.979,4.979
	c0.127,0.127,0.293,0.189,0.459,0.189s0.332-0.062,0.459-0.189c0.254-0.254,0.254-0.666,0-0.919L28.176,27.202z M34.227,25.589
	h-3.884l4.673,4.675c0.254,0.254,0.254,0.665,0,0.919c-0.127,0.127-0.293,0.189-0.459,0.189s-0.332-0.062-0.459-0.189l-5.593-5.594
	h-2.858v2.389l5.828,5.828c0.254,0.253,0.254,0.665,0,0.919c-0.127,0.127-0.293,0.189-0.459,0.189s-0.332-0.062-0.459-0.189
	l-4.908-4.908v4.474l3.274,3.275l-3.925,3.925l-3.925-3.925l3.275-3.275v-4.003l-4.438,4.438c-0.254,0.254-0.665,0.254-0.919,0
	c-0.254-0.254-0.254-0.666,0-0.919l5.357-5.357v-2.858H21.96l-5.592,5.593c-0.127,0.127-0.293,0.189-0.459,0.189
	s-0.333-0.062-0.459-0.189c-0.254-0.254-0.254-0.665,0-0.919l4.672-4.674h-4.353l-3.335,3.335l-3.925-3.925l3.925-3.925l3.215,3.215
	h4.474l-4.673-4.674c-0.254-0.254-0.254-0.665,0-0.919c0.254-0.254,0.665-0.254,0.919,0l5.593,5.593h2.387v-2.858l-5.356-5.357
	c-0.254-0.254-0.254-0.665,0-0.919c0.254-0.254,0.665-0.254,0.919,0l4.438,4.437V15.71l-3.275-3.274L25,8.51l3.925,3.926
	L25.65,15.71v4.354l4.908-4.908c0.254-0.254,0.666-0.254,0.92,0s0.254,0.666,0,0.919l-5.828,5.828v2.388h2.857l5.594-5.593
	c0.254-0.254,0.664-0.254,0.918,0s0.254,0.665,0,0.919l-4.672,4.674h4.004l3.215-3.215l3.925,3.925l-3.925,3.925L34.227,25.589z
	 M35.477,25l0.59,0.59l1.496,1.496l1.496-1.496l0.59-0.59l-0.709-0.71l-1.377-1.376l-1.375,1.376L35.477,25z M14.517,25l-0.71-0.71
	l-1.376-1.376l-1.376,1.376L10.345,25l0.59,0.59l1.496,1.496l1.497-1.496L14.517,25z M25.646,36.128l-0.65-0.649l-0.65,0.649
	l-1.436,1.438l1.436,1.436l0.65,0.65l0.65-0.65l1.436-1.436L25.646,36.128z M25.646,13.87l1.436-1.436l-1.436-1.438l-0.65-0.649
	l-0.65,0.649l-1.436,1.438l1.436,1.436l0.65,0.65L25.646,13.87z"/>
</svg>
