<?xml version="1.0" encoding="utf-8"?>
<!-- Generator: Adobe Illustrator 16.0.4, SVG Export Plug-In . SVG Version: 6.00 Build 0)  -->
<!DOCTYPE svg PUBLIC "-//W3C//DTD SVG 1.1//EN" "http://www.w3.org/Graphics/SVG/1.1/DTD/svg11.dtd">
<svg version="1.1" id="Layer_1" xmlns="http://www.w3.org/2000/svg" xmlns:xlink="http://www.w3.org/1999/xlink" x="0px" y="0px"
	 width="50px" height="50px" viewBox="0 0 50 50" enable-background="new 0 0 50 50" xml:space="preserve">
<path stroke="#ddddff" d="M39.871,26.48l-7.724,2.068l-1.944-1.123v-4.853l1.945-1.124l7.724,2.069c0.043,0.012,0.087,0.017,0.13,0.017
	c0.221,0,0.423-0.147,0.481-0.371c0.071-0.267-0.087-0.541-0.354-0.612l-6.757-1.81l6.439-3.718
	c0.239-0.138,0.321-0.444,0.184-0.683c-0.14-0.24-0.446-0.322-0.684-0.183l-6.438,3.718l1.81-6.755
	c0.071-0.267-0.087-0.541-0.354-0.612c-0.265-0.071-0.541,0.086-0.612,0.354l-2.069,7.721l-1.946,1.124L25.5,19.281v-2.247
	l5.651-5.653c0.195-0.195,0.195-0.512,0-0.707c-0.194-0.195-0.512-0.195-0.707,0L25.5,15.62V8.185c0-0.276-0.224-0.5-0.5-0.5
	s-0.5,0.224-0.5,0.5v7.435l-4.945-4.946c-0.195-0.195-0.512-0.195-0.707,0c-0.195,0.195-0.195,0.512,0,0.707l5.652,5.653v2.247
	l-4.203,2.426l-1.947-1.124l-2.069-7.721c-0.072-0.267-0.343-0.426-0.612-0.354c-0.267,0.071-0.425,0.346-0.354,0.612l1.81,6.755
	l-6.438-3.718c-0.239-0.139-0.545-0.057-0.683,0.183c-0.138,0.239-0.056,0.545,0.183,0.683l6.44,3.718l-6.757,1.81
	c-0.267,0.071-0.425,0.346-0.354,0.612c0.06,0.224,0.262,0.371,0.482,0.371c0.043,0,0.086-0.005,0.13-0.017l7.723-2.069l1.946,1.124
	v4.853l-1.945,1.123l-7.723-2.067c-0.264-0.071-0.541,0.086-0.612,0.354s0.087,0.541,0.354,0.611l6.757,1.811l-6.44,3.719
	c-0.239,0.137-0.321,0.443-0.183,0.683c0.093,0.161,0.261,0.25,0.434,0.25c0.085,0,0.171-0.021,0.25-0.067l6.44-3.718l-1.811,6.755
	c-0.071,0.268,0.087,0.541,0.354,0.612c0.043,0.012,0.087,0.017,0.13,0.017c0.221,0,0.422-0.146,0.482-0.371l2.069-7.721
	l1.946-1.124l4.201,2.428v2.247l-5.652,5.654c-0.195,0.195-0.195,0.512,0,0.707c0.195,0.195,0.512,0.195,0.707,0l4.945-4.947v7.436
	c0,0.276,0.224,0.5,0.5,0.5s0.5-0.224,0.5-0.5v-7.436l4.944,4.947c0.099,0.098,0.227,0.146,0.354,0.146s0.256-0.05,0.354-0.146
	c0.195-0.195,0.195-0.512,0-0.707L25.5,32.965v-2.247l4.202-2.426l1.945,1.124l2.069,7.721c0.06,0.225,0.262,0.371,0.482,0.371
	c0.043,0,0.086-0.005,0.13-0.017c0.267-0.071,0.425-0.347,0.354-0.612l-1.811-6.755l6.439,3.718c0.079,0.045,0.165,0.067,0.25,0.067
	c0.173,0,0.341-0.089,0.435-0.25c0.138-0.239,0.056-0.545-0.184-0.683l-6.439-3.719l6.757-1.81c0.267-0.071,0.425-0.347,0.354-0.612
	C40.413,26.57,40.139,26.409,39.871,26.48z M25.5,29.564L25,29.854l-0.5-0.289l-3.202-1.85l-0.5-0.289v-0.578v-3.697v-0.579
	l0.5-0.288l3.203-1.849l0.5-0.289l0.5,0.289l3.203,1.849l0.5,0.288v0.579v3.697v0.578l-0.5,0.289L25.5,29.564z"/>
</svg>
