<?xml version="1.0" encoding="utf-8"?>
<!-- Generator: Adobe Illustrator 16.0.4, SVG Export Plug-In . SVG Version: 6.00 Build 0)  -->
<!DOCTYPE svg PUBLIC "-//W3C//DTD SVG 1.1//EN" "http://www.w3.org/Graphics/SVG/1.1/DTD/svg11.dtd">
<svg version="1.1" id="Layer_1" xmlns="http://www.w3.org/2000/svg" xmlns:xlink="http://www.w3.org/1999/xlink" x="0px" y="0px"
	 width="50px" height="50px" viewBox="0 0 50 50" enable-background="new 0 0 50 50" xml:space="preserve">
<path stroke="#ddddff" d="M40.005,24.25h-2.43l1.368-1.368c0.293-0.293,0.293-0.768,0-1.062c-0.294-0.293-0.769-0.293-1.062,0l-2.429,2.43h-2.439
	l3.118-3.118c0.293-0.293,0.293-0.768,0-1.062c-0.293-0.293-0.768-0.293-1.061,0l-3.473,3.473c-0.58-2.624-2.687-4.678-5.339-5.179
	l3.844-3.845c0.293-0.293,0.293-0.768,0-1.061s-0.768-0.293-1.061,0l-3.29,3.29V14.3l2.179-2.179c0.293-0.293,0.293-0.768,0-1.061
	s-0.768-0.293-1.061,0l-1.118,1.117v-2.18c0-0.414-0.336-0.75-0.75-0.75s-0.75,0.336-0.75,0.75v2.68l-1.618-1.617
	c-0.293-0.293-0.768-0.293-1.061,0s-0.293,0.768,0,1.061l2.679,2.679v1.949l-3.29-3.29c-0.293-0.293-0.768-0.293-1.062,0
	c-0.293,0.293-0.293,0.768,0,1.061l3.845,3.845c-2.652,0.501-4.759,2.555-5.339,5.179l-3.473-3.473
	c-0.293-0.293-0.768-0.293-1.061,0c-0.293,0.294-0.293,0.769,0,1.062l3.118,3.118h-2.439l-2.429-2.43
	c-0.293-0.293-0.769-0.293-1.062,0c-0.293,0.294-0.293,0.769,0,1.062l1.368,1.368h-2.43c-0.414,0-0.75,0.336-0.75,0.75
	s0.336,0.75,0.75,0.75h2.43l-1.368,1.367c-0.293,0.293-0.293,0.768,0,1.061c0.146,0.146,0.339,0.221,0.53,0.221
	s0.384-0.073,0.53-0.221l2.429-2.428h2.439l-3.118,3.118c-0.293,0.293-0.293,0.769,0,1.062c0.146,0.146,0.338,0.219,0.53,0.219
	c0.191,0,0.384-0.072,0.529-0.219l3.473-3.473c0.579,2.624,2.687,4.678,5.339,5.18l-3.845,3.844c-0.293,0.293-0.293,0.768,0,1.061
	s0.769,0.293,1.062,0l3.29-3.29V35.2l-2.679,2.679c-0.293,0.293-0.293,0.768,0,1.061s0.768,0.293,1.061,0l1.618-1.617v2.68
	c0,0.414,0.336,0.75,0.75,0.75s0.75-0.336,0.75-0.75v-2.18l1.118,1.117c0.146,0.146,0.338,0.221,0.529,0.221
	c0.192,0,0.385-0.073,0.53-0.221c0.293-0.293,0.293-0.768,0-1.061L25.75,35.7v-2.449l3.29,3.29c0.146,0.146,0.338,0.221,0.53,0.221
	c0.191,0,0.384-0.074,0.529-0.221c0.293-0.293,0.293-0.768,0-1.061l-3.844-3.844c2.652-0.502,4.759-2.556,5.339-5.18l3.473,3.473
	c0.146,0.146,0.338,0.219,0.529,0.219c0.192,0,0.384-0.072,0.53-0.219c0.293-0.293,0.293-0.769,0-1.062l-3.118-3.118h2.439
	l2.429,2.43c0.146,0.146,0.338,0.219,0.53,0.219c0.191,0,0.384-0.072,0.529-0.219c0.293-0.293,0.293-0.769,0-1.062l-1.367-1.368
	h2.43c0.414,0,0.75-0.336,0.75-0.75S40.419,24.25,40.005,24.25z M25.755,30.182c-0.247,0.036-0.493,0.076-0.75,0.076
	s-0.503-0.04-0.75-0.076c-2.295-0.332-4.1-2.137-4.432-4.432c-0.031-0.211-0.062-0.423-0.065-0.643
	c-0.001-0.037-0.011-0.07-0.011-0.107s0.01-0.07,0.011-0.107c0.005-0.22,0.034-0.432,0.065-0.643c0.332-2.295,2.137-4.1,4.432-4.432
	c0.247-0.036,0.493-0.076,0.75-0.076s0.503,0.04,0.75,0.076c2.295,0.332,4.1,2.137,4.432,4.432c0.031,0.211,0.062,0.423,0.065,0.643
	c0.001,0.037,0.011,0.07,0.011,0.107s-0.01,0.07-0.011,0.107c-0.005,0.22-0.034,0.432-0.065,0.643
	C29.854,28.045,28.05,29.85,25.755,30.182z M36.545,35.479c0.293,0.293,0.293,0.769,0,1.062c-0.146,0.146-0.338,0.22-0.53,0.22
	c-0.191,0-0.384-0.072-0.529-0.22l-2.611-2.61c-0.293-0.293-0.293-0.769,0-1.062s0.768-0.293,1.061,0L36.545,35.479z M17.551,32.868
	c0.293,0.293,0.293,0.768,0,1.062l-2.613,2.61c-0.146,0.146-0.339,0.22-0.529,0.22c-0.192,0-0.385-0.072-0.53-0.22
	c-0.293-0.293-0.293-0.769,0-1.062l2.613-2.61C16.784,32.575,17.259,32.575,17.551,32.868z M13.878,15.212
	c-0.292-0.294-0.292-0.769,0.001-1.062c0.294-0.293,0.77-0.291,1.062,0l2.609,2.615c0.292,0.293,0.292,0.769-0.001,1.062
	c-0.146,0.146-0.339,0.219-0.53,0.219s-0.385-0.073-0.53-0.22L13.878,15.212z M32.871,17.832c-0.293-0.293-0.293-0.77,0-1.061
	l2.615-2.611c0.294-0.294,0.769-0.292,1.061,0c0.293,0.293,0.293,0.77,0,1.061l-2.615,2.611c-0.146,0.146-0.339,0.22-0.529,0.22
	C33.209,18.052,33.018,17.979,32.871,17.832z"/>
</svg>
