<?xml version="1.0" encoding="utf-8"?>
<!-- Generator: Adobe Illustrator 16.0.4, SVG Export Plug-In . SVG Version: 6.00 Build 0)  -->
<!DOCTYPE svg PUBLIC "-//W3C//DTD SVG 1.1//EN" "http://www.w3.org/Graphics/SVG/1.1/DTD/svg11.dtd">
<svg version="1.1" id="Layer_1" xmlns="http://www.w3.org/2000/svg" xmlns:xlink="http://www.w3.org/1999/xlink" x="0px" y="0px"
	 width="50px" height="50px" viewBox="0 0 50 50" enable-background="new 0 0 50 50" xml:space="preserve">
<path stroke="#ddddff" d="M16.396,17.104c-0.195-0.194-0.195-0.512,0-0.707c0.194-0.194,0.512-0.194,0.707,0l3.84,3.84
	c0.195,0.195,0.195,0.513,0,0.707c-0.098,0.099-0.227,0.146-0.354,0.146s-0.256-0.049-0.354-0.146L16.396,17.104z M18.105,23.75
	h5.645v-5.932l-3.7-3.701c-0.194-0.195-0.512-0.195-0.707,0c-0.194,0.195-0.194,0.512,0,0.707l3.407,3.408v4.518h-4.229
	l-3.554-3.552c-0.194-0.195-0.512-0.195-0.706,0c-0.195,0.194-0.195,0.512,0,0.706L18.105,23.75z M10.917,23.75h3.655l-2.079-2.077
	c-0.195-0.194-0.513-0.194-0.707,0c-0.195,0.195-0.195,0.513,0,0.707l0.37,0.37h-1.239c-0.276,0-0.5,0.225-0.5,0.5
	S10.64,23.75,10.917,23.75z M25,18.008l5.817-5.818c0.195-0.194,0.195-0.512,0-0.707c-0.195-0.194-0.512-0.194-0.707,0L25,16.594
	l-5.109-5.111c-0.195-0.194-0.513-0.194-0.707,0c-0.195,0.195-0.195,0.513,0,0.707L25,18.008z M27.25,22.75v-4.518l3.406-3.408
	c0.195-0.195,0.195-0.512,0-0.707s-0.512-0.195-0.707,0l-3.699,3.701v5.932h5.645l3.846-3.846c0.195-0.194,0.195-0.512,0-0.706
	c-0.195-0.195-0.512-0.195-0.707,0L31.48,22.75H27.25z M37.506,21.673l-2.078,2.077h3.654c0.277,0,0.5-0.225,0.5-0.5
	s-0.223-0.5-0.5-0.5h-1.238l0.369-0.37c0.195-0.194,0.195-0.512,0-0.707C38.02,21.479,37.701,21.479,37.506,21.673z M12.493,28.327
	l2.079-2.077h-3.655c-0.276,0-0.5,0.225-0.5,0.5s0.224,0.5,0.5,0.5h1.239l-0.37,0.37c-0.195,0.194-0.195,0.512,0,0.707
	c0.098,0.098,0.226,0.146,0.354,0.146C12.267,28.473,12.396,28.425,12.493,28.327z M28.184,11.643c-0.195-0.194-0.514-0.194-0.707,0
	l-0.227,0.227v-0.952c0-0.276-0.225-0.5-0.5-0.5s-0.5,0.224-0.5,0.5v3.366l1.934-1.934C28.377,12.154,28.377,11.838,28.184,11.643z
	 M23.75,14.282v-3.366c0-0.275-0.225-0.5-0.5-0.5s-0.5,0.225-0.5,0.5v0.952l-0.227-0.226c-0.194-0.195-0.512-0.195-0.707,0
	c-0.194,0.194-0.194,0.512,0,0.707L23.75,14.282z M29.049,20.936c0.1,0.104,0.229,0.154,0.361,0.154
	c0.123,0,0.248-0.046,0.346-0.139l4.008-3.84c0.197-0.191,0.205-0.508,0.016-0.707c-0.191-0.198-0.508-0.207-0.707-0.016
	l-4.008,3.84C28.865,20.42,28.857,20.736,29.049,20.936z M20.943,29.057c-0.195-0.195-0.512-0.195-0.707,0l-3.84,3.84
	c-0.195,0.195-0.195,0.513,0,0.707c0.098,0.099,0.226,0.146,0.354,0.146s0.256-0.049,0.354-0.146l3.84-3.84
	C21.138,29.568,21.138,29.252,20.943,29.057z M31.895,26.25H26.25v5.932l3.699,3.701c0.098,0.098,0.227,0.146,0.355,0.146
	c0.127,0,0.256-0.049,0.354-0.146c0.195-0.195,0.195-0.512,0-0.707l-3.408-3.408V27.25h4.23l3.553,3.552
	c0.195,0.195,0.512,0.195,0.707,0c0.195-0.194,0.195-0.512,0-0.706L31.895,26.25z M33.117,25l4.906-4.906
	c0.195-0.195,0.195-0.512,0-0.707s-0.512-0.195-0.707,0L31.703,25l5.613,5.613c0.098,0.098,0.227,0.146,0.354,0.146
	c0.129,0,0.256-0.049,0.355-0.146c0.195-0.195,0.195-0.512,0-0.707L33.117,25z M29.764,29.057c-0.195-0.195-0.512-0.195-0.707,0
	s-0.195,0.512,0,0.707l3.84,3.84c0.098,0.099,0.227,0.146,0.354,0.146c0.129,0,0.256-0.049,0.355-0.146
	c0.193-0.194,0.193-0.512,0-0.707L29.764,29.057z M39.082,26.25h-3.654l2.078,2.077c0.1,0.098,0.227,0.146,0.355,0.146
	c0.127,0,0.256-0.049,0.354-0.146c0.195-0.195,0.195-0.513,0-0.707l-0.369-0.37h1.238c0.275,0,0.5-0.225,0.5-0.5
	S39.359,26.25,39.082,26.25z M25,31.992l-5.816,5.818c-0.195,0.194-0.195,0.512,0,0.707c0.194,0.194,0.512,0.194,0.707,0L25,33.406
	l5.11,5.111c0.098,0.098,0.227,0.146,0.354,0.146c0.129,0,0.258-0.05,0.355-0.146c0.195-0.195,0.195-0.513,0-0.707L25,31.992z
	 M22.75,27.25v4.518l-3.407,3.408c-0.194,0.195-0.194,0.512,0,0.707c0.099,0.098,0.226,0.146,0.354,0.146
	c0.128,0,0.256-0.049,0.354-0.146l3.7-3.701V26.25h-5.644l-3.846,3.846c-0.195,0.194-0.195,0.512,0,0.706
	c0.194,0.195,0.512,0.195,0.706,0l3.554-3.552H22.75z M21.816,38.357c0.195,0.194,0.513,0.194,0.707,0l0.227-0.227v0.952
	c0,0.276,0.225,0.5,0.5,0.5s0.5-0.224,0.5-0.5v-3.368l-1.934,1.936C21.622,37.846,21.622,38.162,21.816,38.357z M12.683,19.387
	c-0.195-0.195-0.513-0.195-0.707,0c-0.195,0.195-0.195,0.512,0,0.707L16.881,25l-4.905,4.906c-0.195,0.195-0.195,0.512,0,0.707
	c0.098,0.098,0.226,0.146,0.354,0.146s0.256-0.049,0.354-0.146L18.296,25L12.683,19.387z M26.25,35.716v3.368
	c0,0.275,0.225,0.5,0.5,0.5s0.5-0.225,0.5-0.5v-0.952l0.227,0.226c0.193,0.195,0.512,0.195,0.707,0c0.193-0.194,0.193-0.512,0-0.707
	L26.25,35.716z"/>
</svg>
