<?xml version="1.0" encoding="utf-8"?>
<!-- Generator: Adobe Illustrator 16.0.4, SVG Export Plug-In . SVG Version: 6.00 Build 0)  -->
<!DOCTYPE svg PUBLIC "-//W3C//DTD SVG 1.1//EN" "http://www.w3.org/Graphics/SVG/1.1/DTD/svg11.dtd">
<svg version="1.1" id="Layer_1" xmlns="http://www.w3.org/2000/svg" xmlns:xlink="http://www.w3.org/1999/xlink" x="0px" y="0px"
	 width="50px" height="50px" viewBox="0 0 50 50" enable-background="new 0 0 50 50" xml:space="preserve">
<path stroke="#ddddff" d="M37.191,32.697c0,0.414-0.336,0.75-0.75,0.75h-2.994v2.994c0,0.414-0.336,0.75-0.75,0.75s-0.75-0.336-0.75-0.75v-4.494
	h4.494C36.855,31.947,37.191,32.283,37.191,32.697z M13.736,18.228h4.494v-4.494c0-0.414-0.336-0.75-0.75-0.75
	s-0.75,0.336-0.75,0.75v2.994h-2.994c-0.414,0-0.75,0.336-0.75,0.75S13.322,18.228,13.736,18.228z M12.809,32.52
	c0,0.414,0.336,0.75,0.75,0.75h2.996v2.996c0,0.414,0.336,0.75,0.75,0.75c0.414,0,0.75-0.336,0.75-0.75V31.77h-4.496
	C13.145,31.77,12.809,32.105,12.809,32.52z M37.016,17.304c0-0.414-0.336-0.75-0.75-0.75H33.27v-2.996c0-0.414-0.336-0.75-0.75-0.75
	s-0.75,0.336-0.75,0.75v4.496h4.496C36.68,18.054,37.016,17.717,37.016,17.304z M40.75,25c0,0.414-0.336,0.75-0.75,0.75h-3.289
	l1.8,1.799c0.294,0.293,0.294,0.77,0,1.062c-0.146,0.145-0.338,0.219-0.53,0.219c-0.191,0-0.383-0.072-0.529-0.219l-2.86-2.861
	h-2.875c-0.157,1.42-0.759,2.703-1.659,3.721h5.385c0.414,0,0.75,0.336,0.75,0.75s-0.336,0.75-0.75,0.75h-4.479v4.479
	c0,0.414-0.336,0.75-0.75,0.75s-0.75-0.336-0.75-0.75v-5.385c-1.015,0.895-2.296,1.494-3.711,1.65v2.875l2.858,2.861
	c0.293,0.293,0.293,0.768,0,1.061c-0.146,0.146-0.338,0.221-0.529,0.221s-0.385-0.074-0.53-0.221l-1.799-1.801V40
	c0,0.414-0.336,0.75-0.75,0.75s-0.75-0.336-0.75-0.75v-3.289l-1.8,1.801c-0.293,0.293-0.768,0.293-1.061,0s-0.293-0.768,0-1.061
	l2.86-2.861v-2.875c-1.415-0.156-2.695-0.756-3.71-1.648v5.383c0,0.414-0.336,0.75-0.75,0.75s-0.75-0.336-0.75-0.75v-4.479h-4.479
	c-0.414,0-0.75-0.336-0.75-0.75s0.336-0.75,0.75-0.75h5.383c-0.899-1.018-1.501-2.301-1.659-3.721H15.41l-2.86,2.859
	c-0.146,0.146-0.338,0.221-0.53,0.221s-0.384-0.074-0.53-0.221c-0.293-0.293-0.293-0.768,0-1.061l1.799-1.799H10
	c-0.414,0-0.75-0.336-0.75-0.75s0.336-0.75,0.75-0.75h3.289l-1.8-1.8c-0.293-0.293-0.293-0.769,0-1.062
	c0.293-0.293,0.768-0.293,1.061,0l2.86,2.86h2.875c0.157-1.415,0.756-2.696,1.651-3.711h-5.375c-0.414,0-0.75-0.336-0.75-0.75
	s0.336-0.75,0.75-0.75h4.479v-4.479c0-0.414,0.336-0.75,0.75-0.75s0.75,0.336,0.75,0.75v5.375c1.015-0.895,2.295-1.492,3.71-1.648
	v-2.876l-2.859-2.86c-0.293-0.293-0.293-0.768,0-1.061s0.768-0.293,1.061,0l1.799,1.8V10c0-0.414,0.336-0.75,0.75-0.75
	s0.75,0.336,0.75,0.75v3.289l1.8-1.8c0.293-0.294,0.768-0.294,1.061,0c0.293,0.293,0.293,0.768,0,1.061l-2.859,2.86v2.876
	c1.415,0.157,2.696,0.756,3.711,1.649V14.56c0-0.414,0.336-0.75,0.75-0.75s0.75,0.336,0.75,0.75v4.479h4.479
	c0.414,0,0.75,0.336,0.75,0.75s-0.336,0.75-0.75,0.75h-5.375c0.895,1.016,1.494,2.296,1.65,3.711h2.875l2.86-2.859
	c0.293-0.293,0.768-0.293,1.062,0c0.293,0.293,0.293,0.769,0,1.062l-1.8,1.799h3.289C40.414,24.25,40.75,24.585,40.75,25z
	 M30.184,24.25c-0.332-2.295-2.138-4.1-4.434-4.432c-0.247-0.036-0.493-0.076-0.75-0.076s-0.503,0.04-0.75,0.076
	c-2.295,0.332-4.101,2.137-4.433,4.432c-0.036,0.247-0.076,0.493-0.076,0.75s0.04,0.502,0.076,0.75
	c0.332,2.295,2.137,4.1,4.433,4.432c0.247,0.035,0.493,0.076,0.75,0.076s0.503-0.041,0.75-0.076
	c2.295-0.332,4.102-2.137,4.434-4.432c0.035-0.248,0.075-0.494,0.075-0.75S30.218,24.497,30.184,24.25z"/>
</svg>
