<?xml version="1.0" encoding="utf-8"?>
<!-- Generator: Adobe Illustrator 16.0.4, SVG Export Plug-In . SVG Version: 6.00 Build 0)  -->
<!DOCTYPE svg PUBLIC "-//W3C//DTD SVG 1.1//EN" "http://www.w3.org/Graphics/SVG/1.1/DTD/svg11.dtd">
<svg version="1.1" id="Layer_1" xmlns="http://www.w3.org/2000/svg" xmlns:xlink="http://www.w3.org/1999/xlink" x="0px" y="0px"
	 width="50px" height="50px" viewBox="0 0 50 50" enable-background="new 0 0 50 50" xml:space="preserve">
<path stroke="#ddddff" d="M28.224,20.856l4.895-4.895c0.254-0.254,0.665-0.254,0.919,0s0.254,0.665,0,0.919l-4.895,4.895
	c-0.127,0.127-0.293,0.19-0.459,0.19s-0.333-0.063-0.459-0.19C27.97,21.521,27.97,21.11,28.224,20.856z M20.603,21.522
	c0.127,0.127,0.293,0.19,0.459,0.19s0.333-0.063,0.459-0.19c0.254-0.253,0.254-0.665,0-0.919l-4.642-4.642
	c-0.254-0.254-0.665-0.254-0.919,0c-0.254,0.253-0.254,0.665,0,0.919L20.603,21.522z M21.775,28.225
	c-0.254-0.255-0.665-0.255-0.919,0l-4.896,4.895c-0.254,0.254-0.254,0.665,0,0.919c0.127,0.127,0.293,0.19,0.459,0.19
	s0.333-0.063,0.459-0.19l4.896-4.896C22.029,28.889,22.029,28.479,21.775,28.225z M29.003,28.086c-0.254-0.254-0.665-0.254-0.919,0
	s-0.254,0.666,0,0.919l5.033,5.032c0.127,0.127,0.293,0.189,0.459,0.189s0.333-0.062,0.459-0.189c0.254-0.254,0.254-0.666,0-0.919
	L29.003,28.086z M34.288,25.65h-2.51l2.586,2.586c0.254,0.255,0.254,0.666,0,0.92c-0.127,0.127-0.293,0.189-0.459,0.189
	s-0.333-0.062-0.459-0.189l-3.36-3.359l-2.964,1.327l-1.266,2.829l3.161,3.161c0.254,0.253,0.254,0.665,0,0.919
	c-0.253,0.254-0.665,0.254-0.919,0l-2.449-2.448v2.708l3.272,3.273l-3.925,3.925l-3.923-3.925l3.275-3.277v-2.705L21.9,34.033
	c-0.127,0.127-0.293,0.189-0.459,0.189s-0.333-0.062-0.459-0.189c-0.254-0.254-0.254-0.665,0-0.919l3.161-3.161l-1.269-2.829
	l-2.963-1.327l-3.36,3.36c-0.128,0.126-0.294,0.19-0.46,0.19c-0.165,0-0.332-0.063-0.46-0.19c-0.253-0.255-0.253-0.666,0-0.919
	l2.59-2.588h-2.513l-3.274,3.275L8.51,25.001l3.925-3.924l3.274,3.274h2.514l-2.587-2.588c-0.255-0.254-0.255-0.665,0-0.919
	c0.254-0.254,0.664-0.254,0.919,0l3.359,3.359l2.962-1.327l1.268-2.829l-3.161-3.161c-0.254-0.254-0.254-0.665,0-0.919
	c0.254-0.254,0.665-0.254,0.919,0l2.449,2.449v-2.705l-3.275-3.277l3.923-3.925l3.925,3.925l-3.272,3.273v2.708l2.449-2.449
	c0.254-0.254,0.665-0.254,0.919,0s0.254,0.665,0,0.919l-3.161,3.161l1.266,2.829l2.963,1.327l3.361-3.36
	c0.254-0.254,0.665-0.254,0.919,0s0.254,0.666,0,0.919l-2.588,2.588h2.512l3.275-3.274l3.925,3.924l-3.925,3.925L34.288,25.65z
	 M35.478,25l0.649,0.65l1.438,1.437l1.437-1.437l0.65-0.65l-0.65-0.65l-1.437-1.436l-1.438,1.436L35.478,25z M14.52,25l-0.65-0.65
	l-1.437-1.436l-1.438,1.436L10.346,25l0.649,0.65l1.438,1.437l1.437-1.437L14.52,25z M24.35,13.873l0.647,0.648l0.652-0.652
	l1.435-1.435l-1.435-1.435l-0.652-0.652l-0.647,0.648l-1.438,1.438L24.35,13.873z M25.649,36.131l-0.652-0.652l-0.647,0.648
	l-1.438,1.438l1.438,1.438l0.647,0.647l0.652-0.651l1.435-1.435L25.649,36.131z M28.685,25l-1.451-0.65l-1.095-0.49l-0.489-1.092
	l-0.65-1.453l-0.648,1.45l-0.491,1.096l-1.094,0.49l-1.452,0.65l1.452,0.649l1.094,0.49l0.491,1.096l0.648,1.449l0.65-1.453
	l0.489-1.092l1.095-0.49L28.685,25z"/>
</svg>
