<?xml version="1.0" encoding="utf-8"?>
<!-- Generator: Adobe Illustrator 16.0.4, SVG Export Plug-In . SVG Version: 6.00 Build 0)  -->
<!DOCTYPE svg PUBLIC "-//W3C//DTD SVG 1.1//EN" "http://www.w3.org/Graphics/SVG/1.1/DTD/svg11.dtd">
<svg version="1.1" id="Layer_1" xmlns="http://www.w3.org/2000/svg" xmlns:xlink="http://www.w3.org/1999/xlink" x="0px" y="0px"
	 width="50px" height="50px" viewBox="0 0 50 50" enable-background="new 0 0 50 50" xml:space="preserve">
<path stroke="#ddddff" d="M40.941,22.152L40.941,22.152c-0.695,0.01-1.343,0.291-1.827,0.789c-0.413,0.425-0.651,0.967-0.709,1.548h-5.093
	l4.192-4.192c0.195-0.195,0.195-0.512,0-0.707c-0.194-0.195-0.512-0.195-0.707,0l-4.899,4.899h-3.018l-1.509-2.614l1.511-2.616
	l6.689-1.792c0.267-0.071,0.425-0.346,0.354-0.612c-0.071-0.267-0.346-0.423-0.612-0.354l-5.724,1.533l2.551-4.417
	c0.333,0.149,0.687,0.249,1.053,0.249c0.91,0,1.766-0.485,2.233-1.266c0.733-1.23,0.33-2.829-0.898-3.564
	c-1.188-0.711-2.856-0.284-3.565,0.898c-0.607,1.021-0.426,2.288,0.353,3.111l-2.592,4.49l-1.535-5.727
	c-0.071-0.268-0.345-0.424-0.612-0.354c-0.267,0.071-0.425,0.346-0.354,0.612l1.793,6.693l-1.51,2.614h-3.019l-1.509-2.614
	l1.793-6.69c0.071-0.267-0.087-0.541-0.354-0.612c-0.265-0.069-0.54,0.087-0.612,0.354l-1.534,5.725l-2.559-4.432
	c0.917-0.8,1.175-2.165,0.544-3.258c-0.69-1.195-2.351-1.644-3.55-0.951c-0.601,0.347-1.031,0.907-1.21,1.578
	c-0.179,0.671-0.088,1.371,0.259,1.972c0.463,0.802,1.327,1.3,2.254,1.3c0.284,0,0.562-0.063,0.829-0.154l2.566,4.445l-5.724-1.534
	c-0.265-0.07-0.541,0.087-0.612,0.354c-0.071,0.267,0.087,0.541,0.354,0.612l6.69,1.792l1.51,2.615l-1.508,2.614h-3.019
	l-4.899-4.899c-0.195-0.195-0.512-0.195-0.707,0c-0.195,0.195-0.195,0.512,0,0.707l4.192,4.192h-5.187
	c-0.324-1.07-1.318-1.86-2.518-1.86l0,0c-1.431,0.022-2.579,1.206-2.559,2.638c0.021,1.411,1.188,2.561,2.599,2.561h0.039
	c1.33-0.021,2.402-1.045,2.534-2.338h5.09l-4.19,4.19c-0.195,0.195-0.195,0.512,0,0.707c0.098,0.098,0.226,0.146,0.354,0.146
	c0.128,0,0.256-0.05,0.354-0.146l4.897-4.897h3.021l1.508,2.615l-1.507,2.61l-6.694,1.795c-0.267,0.071-0.425,0.346-0.354,0.612
	c0.072,0.268,0.347,0.427,0.612,0.354l5.728-1.536l-2.549,4.416c-1.159-0.504-2.635-0.071-3.29,1.023
	c-0.356,0.596-0.459,1.294-0.289,1.968c0.17,0.673,0.591,1.24,1.188,1.596c0.403,0.241,0.862,0.368,1.33,0.368
	c0.91,0,1.766-0.484,2.234-1.266c0.356-0.596,0.458-1.295,0.289-1.969c-0.11-0.438-0.337-0.824-0.639-1.143l2.592-4.49l1.534,5.723
	c0.06,0.224,0.262,0.371,0.482,0.371c0.043,0,0.086-0.005,0.13-0.018c0.267-0.07,0.425-0.346,0.354-0.611l-1.793-6.688l1.51-2.615
	h3.017l1.51,2.613l-1.793,6.69c-0.071,0.267,0.087,0.541,0.354,0.611c0.043,0.013,0.087,0.018,0.13,0.018
	c0.222,0,0.423-0.147,0.482-0.371l1.534-5.725l2.559,4.433c-0.387,0.336-0.667,0.778-0.802,1.286
	c-0.18,0.67-0.087,1.371,0.259,1.972c0.463,0.802,1.327,1.299,2.253,1.299c0.454,0,0.903-0.12,1.297-0.348
	c0.602-0.348,1.031-0.907,1.211-1.578c0.181-0.671,0.088-1.372-0.259-1.973c-0.604-1.047-1.957-1.522-3.09-1.154l-2.562-4.438
	l5.727,1.536c0.268,0.074,0.541-0.086,0.612-0.354s-0.088-0.541-0.354-0.612l-6.692-1.794l-1.508-2.612l1.509-2.615h3.021
	l4.895,4.898c0.099,0.098,0.227,0.146,0.354,0.146s0.256-0.05,0.354-0.146c0.195-0.195,0.195-0.512,0-0.707l-4.188-4.191h5.185
	c0.323,1.07,1.312,1.861,2.479,1.861h0.04c1.433-0.022,2.58-1.207,2.559-2.638C43.557,23.3,42.393,22.152,40.941,22.152z
	 M31.822,10.448c0.292-0.488,0.807-0.779,1.376-0.779c0.021,0,0.041,0.008,0.062,0.008c0.265,0.011,0.525,0.081,0.755,0.218
	c0.061,0.036,0.111,0.081,0.166,0.123c0.621,0.49,0.803,1.374,0.388,2.07c-0.39,0.651-1.23,0.929-1.933,0.673
	c-0.09-0.033-0.178-0.071-0.262-0.121c-0.223-0.133-0.395-0.314-0.523-0.52C31.539,11.626,31.503,10.982,31.822,10.448z
	 M15.622,11.945c-0.213-0.369-0.27-0.8-0.159-1.213c0.068-0.252,0.198-0.474,0.369-0.66c0.109-0.119,0.231-0.229,0.375-0.311
	c0.142-0.082,0.296-0.134,0.454-0.169c0.113-0.025,0.228-0.045,0.343-0.045c0.571,0,1.103,0.306,1.387,0.799
	c0.353,0.612,0.249,1.358-0.197,1.859c-0.11,0.124-0.236,0.238-0.388,0.325c-0.151,0.088-0.315,0.139-0.482,0.169
	C16.673,12.819,15.958,12.53,15.622,11.945z M9.017,27.325v-0.497c-0.799,0-1.462-0.601-1.575-1.372
	c-0.01-0.068-0.023-0.134-0.024-0.204c-0.004-0.276,0.069-0.534,0.191-0.763c0.266-0.501,0.786-0.851,1.406-0.86
	c0.61,0,1.141,0.352,1.41,0.86c0.114,0.216,0.188,0.457,0.19,0.715c0.001,0.097-0.009,0.192-0.024,0.285
	c-0.125,0.748-0.767,1.326-1.55,1.338L9.017,27.325L9.017,27.325z M18.35,38.319c0.105,0.415,0.042,0.846-0.177,1.212
	c-0.292,0.487-0.807,0.778-1.376,0.778c-0.021,0-0.041-0.008-0.062-0.008c-0.265-0.011-0.525-0.081-0.754-0.218
	c-0.06-0.036-0.112-0.08-0.166-0.123c-0.277-0.217-0.478-0.513-0.565-0.86c-0.104-0.414-0.042-0.844,0.178-1.21
	c0.292-0.488,0.806-0.779,1.375-0.779c0.191,0,0.376,0.048,0.554,0.114c0.09,0.034,0.181,0.063,0.264,0.113
	c0.218,0.13,0.393,0.311,0.525,0.521C18.234,38.001,18.308,38.152,18.35,38.319z M32.986,37.232c0.571,0,1.103,0.307,1.387,0.8
	c0.214,0.369,0.271,0.801,0.16,1.213c-0.068,0.252-0.199,0.474-0.371,0.662c-0.108,0.118-0.23,0.226-0.375,0.309
	c-0.142,0.082-0.296,0.13-0.452,0.162c-0.658,0.134-1.39-0.154-1.731-0.747c-0.354-0.611-0.249-1.357,0.195-1.858
	c0.111-0.125,0.237-0.237,0.39-0.325c0.148-0.087,0.312-0.139,0.479-0.173C32.772,37.254,32.878,37.232,32.986,37.232z
	 M26.507,27.604h-0.578h-1.863h-0.578l-0.288-0.5l-0.932-1.615l-0.288-0.5l0.289-0.5l0.931-1.614l0.289-0.5h0.578h1.864h0.577
	l0.289,0.5l0.933,1.614l0.289,0.5l-0.289,0.5l-0.934,1.616L26.507,27.604z M39.571,25.489c-0.114-0.216-0.187-0.457-0.19-0.715
	c-0.001-0.097,0.009-0.191,0.023-0.285c0.052-0.318,0.198-0.614,0.428-0.851c0.298-0.307,0.697-0.479,1.15-0.486
	c0.796,0,1.458,0.599,1.572,1.37c0.01,0.068,0.022,0.135,0.023,0.205c0.004,0.276-0.068,0.533-0.188,0.762
	c-0.265,0.501-0.78,0.851-1.386,0.86l-0.023,0.497v-0.497C40.369,26.35,39.84,25.998,39.571,25.489z"/>
</svg>
