<?xml version="1.0" encoding="utf-8"?>
<!-- Generator: Adobe Illustrator 16.0.4, SVG Export Plug-In . SVG Version: 6.00 Build 0)  -->
<!DOCTYPE svg PUBLIC "-//W3C//DTD SVG 1.1//EN" "http://www.w3.org/Graphics/SVG/1.1/DTD/svg11.dtd">
<svg version="1.1" id="Layer_1" xmlns="http://www.w3.org/2000/svg" xmlns:xlink="http://www.w3.org/1999/xlink" x="0px" y="0px"
	 width="50px" height="50px" viewBox="0 0 50 50" enable-background="new 0 0 50 50" xml:space="preserve">
<path stroke="#ddddff" d="M35.818,20.034l4.312,1.155c0.268,0.072,0.425,0.347,0.354,0.613c-0.062,0.223-0.264,0.37-0.483,0.37
	c-0.043,0-0.086-0.006-0.13-0.017L35.559,21c-0.267-0.072-0.425-0.346-0.354-0.613C35.277,20.122,35.55,19.969,35.818,20.034z
	 M25.963,22.467v-4.828c0-0.133,0.053-0.26,0.146-0.354l5.226-5.225c0.161-0.162,0.408-0.193,0.604-0.08l0.869,0.502
	c0.196,0.113,0.292,0.345,0.233,0.562l-1.914,7.137c-0.035,0.129-0.118,0.237-0.233,0.303l-4.182,2.414
	c-0.077,0.045-0.164,0.067-0.25,0.067s-0.173-0.022-0.25-0.067C26.059,22.811,25.963,22.646,25.963,22.467z M26.963,21.602
	l3.252-1.877l1.762-6.566l-0.206-0.118l-4.808,4.808V21.602z M39.871,27.843l-4.312,1.156c-0.267,0.071-0.425,0.347-0.354,0.612
	c0.061,0.224,0.263,0.371,0.482,0.371c0.044,0,0.087-0.006,0.131-0.018l4.312-1.156c0.268-0.072,0.425-0.346,0.354-0.613
	C40.412,27.932,40.143,27.775,39.871,27.843z M15.291,18.113c0.061,0.224,0.263,0.371,0.483,0.371c0.042,0,0.086-0.006,0.129-0.018
	c0.268-0.072,0.426-0.346,0.354-0.611l-1.154-4.312c-0.071-0.266-0.344-0.42-0.611-0.354c-0.269,0.071-0.426,0.346-0.354,0.611
	L15.291,18.113z M26.463,14.002c0.128,0,0.256-0.049,0.354-0.146l3.157-3.155c0.195-0.195,0.195-0.513,0-0.707
	c-0.194-0.195-0.512-0.195-0.707,0l-3.157,3.155c-0.195,0.195-0.195,0.513,0,0.707C26.207,13.953,26.335,14.002,26.463,14.002z
	 M34.71,31.885c-0.072-0.267-0.348-0.42-0.612-0.354c-0.268,0.072-0.426,0.346-0.354,0.611l1.155,4.312
	c0.061,0.225,0.263,0.371,0.482,0.371c0.043,0,0.086-0.006,0.129-0.018c0.269-0.072,0.426-0.346,0.354-0.611L34.71,31.885z
	 M26.816,36.143c-0.195-0.194-0.513-0.194-0.707,0c-0.195,0.195-0.195,0.512,0,0.707l3.156,3.158
	c0.099,0.098,0.227,0.146,0.354,0.146s0.256-0.049,0.354-0.146c0.195-0.195,0.195-0.512,0-0.707L26.816,36.143z M34.099,18.468
	c0.043,0.011,0.086,0.017,0.129,0.017c0.222,0,0.424-0.146,0.483-0.371l1.154-4.312c0.07-0.267-0.087-0.54-0.354-0.612
	c-0.261-0.064-0.54,0.088-0.611,0.354l-1.154,4.312C33.673,18.122,33.831,18.396,34.099,18.468z M39.374,24.016
	c0.219,0.059,0.371,0.256,0.371,0.482v1.004c0,0.227-0.152,0.425-0.371,0.482l-7.14,1.912c-0.042,0.012-0.087,0.018-0.13,0.018
	c-0.087,0-0.173-0.021-0.25-0.066l-4.182-2.414c-0.154-0.09-0.25-0.254-0.25-0.434s0.096-0.344,0.25-0.434l4.184-2.414
	c0.115-0.065,0.253-0.082,0.38-0.051L39.374,24.016z M38.745,24.882l-6.567-1.76L28.924,25l3.252,1.878l6.569-1.76V24.882
	L38.745,24.882z M23.892,17.285c0.095,0.094,0.146,0.221,0.146,0.354v4.828c0,0.18-0.096,0.344-0.25,0.434
	c-0.077,0.045-0.164,0.066-0.25,0.066s-0.173-0.021-0.25-0.066l-4.182-2.414c-0.115-0.065-0.198-0.176-0.233-0.303l-1.914-7.138
	c-0.059-0.219,0.037-0.45,0.233-0.562l0.869-0.502c0.195-0.115,0.442-0.084,0.604,0.078L23.892,17.285z M23.039,17.846l-4.808-4.807
	l-0.206,0.118l1.762,6.565l3.252,1.877V17.846z M33.04,36.954c0.058,0.219-0.037,0.448-0.232,0.562L31.94,38.02
	c-0.078,0.045-0.165,0.067-0.252,0.067c-0.129,0-0.257-0.05-0.354-0.146l-5.226-5.228c-0.095-0.094-0.146-0.221-0.146-0.354v-4.827
	c0-0.179,0.096-0.345,0.25-0.433c0.154-0.091,0.346-0.091,0.5,0l4.182,2.414c0.115,0.064,0.198,0.174,0.233,0.303L33.04,36.954z
	 M31.975,36.844l-1.76-6.566L26.963,28.4v3.754l4.808,4.809L31.975,36.844z M24.039,27.533v4.828c0,0.133-0.053,0.26-0.146,0.354
	l-5.226,5.225c-0.097,0.098-0.225,0.146-0.354,0.146c-0.086,0-0.172-0.021-0.25-0.066l-0.867-0.502
	c-0.196-0.113-0.291-0.345-0.233-0.562l1.912-7.137c0.035-0.129,0.118-0.237,0.232-0.303l4.183-2.414c0.154-0.091,0.346-0.091,0.5,0
	C23.943,27.189,24.039,27.354,24.039,27.533z M23.039,28.398l-3.252,1.877l-1.76,6.566l0.204,0.118l4.808-4.808V28.398z
	 M10.627,24.016l7.138-1.912c0.126-0.033,0.265-0.017,0.379,0.051l4.185,2.414c0.154,0.089,0.25,0.254,0.25,0.433
	s-0.096,0.345-0.25,0.433l-4.182,2.414c-0.077,0.045-0.163,0.067-0.25,0.067c-0.044,0-0.088-0.006-0.13-0.017l-7.14-1.912
	c-0.219-0.059-0.371-0.258-0.371-0.483v-1.004C10.256,24.271,10.409,24.073,10.627,24.016z M11.256,25.118l6.569,1.76L21.078,25
	l-3.254-1.878l-6.567,1.76V25.118L11.256,25.118z M20.734,9.992c-0.195-0.195-0.513-0.195-0.707,0c-0.195,0.195-0.195,0.512,0,0.707
	l3.157,3.156c0.099,0.098,0.227,0.146,0.354,0.146s0.256-0.049,0.354-0.146c0.195-0.195,0.195-0.513,0-0.707L20.734,9.992z
	 M23.185,36.143l-3.157,3.158c-0.195,0.195-0.195,0.512,0,0.707c0.098,0.098,0.226,0.146,0.354,0.146s0.256-0.049,0.354-0.146
	l3.157-3.158c0.195-0.195,0.195-0.512,0-0.707C23.699,35.948,23.38,35.947,23.185,36.143z M14.313,29.982
	c0.221,0,0.423-0.147,0.482-0.371c0.071-0.268-0.087-0.541-0.354-0.612l-4.312-1.156c-0.269-0.065-0.541,0.089-0.613,0.354
	c-0.07,0.268,0.087,0.541,0.354,0.613l4.312,1.155C14.227,29.977,14.27,29.982,14.313,29.982z M10,22.174
	c0.043,0,0.086-0.006,0.13-0.017l4.312-1.156c0.267-0.071,0.425-0.347,0.354-0.612c-0.072-0.267-0.342-0.42-0.613-0.354
	l-4.312,1.155c-0.268,0.072-0.425,0.347-0.354,0.613C9.578,22.025,9.78,22.174,10,22.174z M15.904,31.529
	c-0.263-0.063-0.54,0.089-0.612,0.354l-1.155,4.312c-0.07,0.268,0.087,0.541,0.354,0.613c0.043,0.01,0.086,0.017,0.129,0.017
	c0.221,0,0.423-0.147,0.482-0.371l1.155-4.312C16.33,31.876,16.171,31.604,15.904,31.529z"/>
</svg>
