<?xml version="1.0" encoding="utf-8"?>
<!-- Generator: Adobe Illustrator 16.0.4, SVG Export Plug-In . SVG Version: 6.00 Build 0)  -->
<!DOCTYPE svg PUBLIC "-//W3C//DTD SVG 1.1//EN" "http://www.w3.org/Graphics/SVG/1.1/DTD/svg11.dtd">
<svg version="1.1" id="Layer_1" xmlns="http://www.w3.org/2000/svg" xmlns:xlink="http://www.w3.org/1999/xlink" x="0px" y="0px"
	 width="50px" height="50px" viewBox="0 0 50 50" enable-background="new 0 0 50 50" xml:space="preserve">
<path stroke="#ddddff" d="M17.546,16.747c0-0.276,0.224-0.5,0.5-0.5l1.901,0.001l0.95-1.648c0.139-0.239,0.441-0.321,0.684-0.183
	c0.239,0.138,0.321,0.444,0.184,0.683l-1.238,2.148l-2.479-0.001C17.77,17.247,17.546,17.021,17.546,16.747z M31.956,32.754
	l-2.479-0.002L28.238,34.9c-0.139,0.239-0.057,0.545,0.184,0.684c0.079,0.045,0.165,0.066,0.25,0.066c0.173,0,0.341-0.09,0.435-0.25
	l0.948-1.646l1.901,0.002c0.276,0,0.5-0.225,0.5-0.5C32.456,32.979,32.232,32.754,31.956,32.754z M29.476,17.249h2.48
	c0.276,0,0.5-0.224,0.5-0.5s-0.224-0.5-0.5-0.5h-1.902l-0.952-1.648c-0.138-0.241-0.443-0.321-0.683-0.183s-0.321,0.444-0.183,0.683
	L29.476,17.249z M20.523,32.754h-2.479c-0.276,0-0.5,0.224-0.5,0.5c0,0.275,0.224,0.5,0.5,0.5h1.903l0.952,1.646
	c0.093,0.16,0.261,0.25,0.433,0.25c0.085,0,0.172-0.021,0.25-0.066c0.239-0.14,0.321-0.444,0.183-0.685L20.523,32.754z
	 M14.125,27.332c0.079,0.045,0.165,0.066,0.25,0.066c0.173,0,0.341-0.09,0.434-0.25l1.237-2.146l-1.24-2.148
	c-0.138-0.241-0.443-0.322-0.683-0.183c-0.239,0.138-0.321,0.444-0.183,0.683l0.95,1.648l-0.949,1.647
	C13.804,26.888,13.886,27.193,14.125,27.332z M35.875,22.67c-0.237-0.137-0.545-0.056-0.683,0.183L33.953,25l1.24,2.148
	c0.092,0.161,0.261,0.25,0.433,0.25c0.085,0,0.171-0.021,0.25-0.066c0.239-0.139,0.321-0.444,0.183-0.684L35.108,25l0.949-1.647
	C36.196,23.115,36.114,22.809,35.875,22.67z M40.497,33.947c-0.092,0.16-0.261,0.25-0.433,0.25c-0.086,0-0.172-0.021-0.25-0.066
	l-0.98-0.566l-2.137,1.232c-0.077,0.043-0.164,0.066-0.25,0.066s-0.173-0.021-0.25-0.066l-2.385-1.377
	c-0.153-0.088-0.25-0.254-0.25-0.433l-0.001-2.466l-2.281-1.318l-4.112-0.447L25.5,32.541v2.638l2.135,1.231
	c0.154,0.09,0.25,0.254,0.25,0.434l0.001,2.754c0,0.179-0.096,0.344-0.25,0.433L25.5,41.26v1.135c0,0.275-0.224,0.5-0.5,0.5
	s-0.5-0.225-0.5-0.5V41.26l-2.136-1.231c-0.154-0.089-0.25-0.254-0.25-0.433l0.001-2.754c0-0.178,0.096-0.344,0.25-0.432
	l2.135-1.232v-2.637l-1.668-3.785l-4.112,0.447l-2.282,1.317l0.003,2.464c0,0.18-0.096,0.344-0.25,0.434l-2.388,1.379
	c-0.077,0.043-0.164,0.066-0.25,0.066s-0.173-0.021-0.25-0.066l-2.136-1.233l-0.983,0.567c-0.078,0.045-0.165,0.068-0.25,0.068
	c-0.172,0-0.341-0.09-0.433-0.25c-0.139-0.24-0.057-0.546,0.183-0.684l0.983-0.568l0.001-2.464c0-0.179,0.096-0.344,0.25-0.433
	l2.387-1.379c0.154-0.088,0.347-0.088,0.5,0l2.134,1.232l2.281-1.318L20.662,25l-2.442-3.337l-2.28-1.317l-2.137,1.233
	c-0.077,0.044-0.164,0.067-0.25,0.067s-0.173-0.022-0.25-0.067l-2.385-1.377c-0.155-0.089-0.25-0.255-0.25-0.434l0.002-2.464
	l-0.984-0.568c-0.238-0.138-0.32-0.444-0.183-0.683c0.138-0.239,0.445-0.32,0.683-0.183l0.984,0.568l2.133-1.233
	c0.153-0.089,0.346-0.09,0.5,0l2.387,1.379c0.154,0.089,0.25,0.255,0.25,0.433l-0.001,2.463l2.281,1.318l4.112,0.447L24.5,17.46
	v-2.636l-2.137-1.232c-0.154-0.089-0.25-0.254-0.25-0.434l0.002-2.755c0-0.178,0.096-0.343,0.25-0.433L24.5,8.738V7.605
	c0-0.276,0.224-0.5,0.5-0.5s0.5,0.224,0.5,0.5v1.135l2.135,1.231c0.154,0.089,0.25,0.254,0.25,0.434l-0.002,2.755
	c0,0.178-0.096,0.343-0.25,0.433L25.5,14.825v2.637l1.668,3.784l4.112-0.447l2.282-1.317l-0.003-2.464
	c0-0.179,0.096-0.344,0.25-0.434l2.388-1.378c0.153-0.089,0.346-0.089,0.5,0l2.136,1.233l0.983-0.568
	c0.237-0.138,0.545-0.057,0.683,0.183c0.139,0.239,0.057,0.545-0.183,0.683l-0.984,0.568v2.464c0,0.179-0.096,0.344-0.25,0.433
	l-2.387,1.378c-0.077,0.044-0.164,0.067-0.25,0.067c-0.087,0-0.174-0.022-0.25-0.067l-2.133-1.233l-2.282,1.318l-2.442,3.337
	l2.442,3.336l2.282,1.318l2.133-1.23c0.153-0.088,0.344-0.088,0.5,0l2.388,1.375c0.154,0.09,0.25,0.255,0.25,0.435l-0.002,2.462
	l0.983,0.568C40.554,33.402,40.636,33.709,40.497,33.947z M14.938,19.77l0.499-0.289v-0.578l0.001-1.598l-1.886-1.09l-1.384,0.8
	l-0.499,0.289v0.578l-0.002,1.599l1.885,1.088L14.938,19.77z M26.549,27.684l2.585,0.281l1.232,0.134l-0.732-1L28.098,25
	l1.536-2.098l0.732-1l-1.232,0.134l-2.585,0.281L25.5,19.938L25,18.805l-0.5,1.134l-1.049,2.379l-2.585-0.281l-1.232-0.134l0.732,1
	L21.902,25l-1.536,2.098l-0.732,1l1.232-0.134l2.585-0.281l1.049,2.379l0.5,1.134l0.5-1.134L26.549,27.684z M34.562,18.902v0.577
	l0.5,0.289l1.383,0.8l1.887-1.089V17.88v-0.578l-0.499-0.289l-1.386-0.8l-1.888,1.089L34.562,18.902z M23.113,12.872L24.5,13.67
	l0.5,0.288l0.5-0.289l1.383-0.799l0.002-2.178L25.5,9.896l-0.502-0.289L24.5,9.894l-1.385,0.8L23.113,12.872z M15.438,31.099v-0.577
	l-0.5-0.289l-1.383-0.799l-1.887,1.089l-0.001,1.599v0.578l0.5,0.288l1.386,0.8l1.888-1.088L15.438,31.099z M26.885,37.131
	L25.5,36.332L25,36.043l-0.5,0.289l-1.385,0.799l-0.001,2.176l1.386,0.798l0.501,0.289l0.499-0.287l1.386-0.798L26.885,37.131z
	 M38.332,32.119l0.001-1.597l-1.888-1.087l-1.382,0.797l-0.501,0.289v0.577l0.001,1.601l1.884,1.086l1.386-0.8l0.498-0.286
	L38.332,32.119z"/>
</svg>
