<?xml version="1.0" encoding="utf-8"?>
<!-- Generator: Adobe Illustrator 16.0.4, SVG Export Plug-In . SVG Version: 6.00 Build 0)  -->
<!DOCTYPE svg PUBLIC "-//W3C//DTD SVG 1.1//EN" "http://www.w3.org/Graphics/SVG/1.1/DTD/svg11.dtd">
<svg version="1.1" id="Layer_1" xmlns="http://www.w3.org/2000/svg" xmlns:xlink="http://www.w3.org/1999/xlink" x="0px" y="0px"
	 width="50px" height="50px" viewBox="0 0 50 50" enable-background="new 0 0 50 50" xml:space="preserve">
<path stroke="#ddddff" d="M40,24.5h-5.925l3.722-3.723c0.195-0.195,0.195-0.512,0-0.707c-0.195-0.195-0.512-0.195-0.707,0l-4.43,4.43h-6.454
	l1.86-1.861l3.125-0.002c0.276,0,0.5-0.224,0.5-0.5c0-0.276-0.224-0.5-0.5-0.5l0,0l-2.123,0.001l6.891-6.891
	c0.195-0.195,0.195-0.512,0-0.707c-0.195-0.195-0.512-0.195-0.707,0l-6.891,6.89v-2.124c0-0.276-0.223-0.5-0.5-0.5
	c-0.275,0-0.5,0.224-0.5,0.5v3.124L25.5,23.792v-6.448l4.428-4.434c0.195-0.196,0.195-0.512,0-0.708
	c-0.195-0.194-0.512-0.195-0.707,0L25.5,15.929V10c0-0.276-0.224-0.5-0.5-0.5s-0.5,0.224-0.5,0.5v5.925l-3.723-3.722
	c-0.195-0.195-0.512-0.195-0.707,0c-0.195,0.195-0.195,0.512,0,0.707l4.43,4.43v6.454l-1.862-1.862l-0.002-3.125
	c0-0.276-0.224-0.5-0.5-0.5l0,0c-0.276,0-0.5,0.224-0.5,0.5l0.001,2.123l-6.891-6.891c-0.195-0.195-0.512-0.195-0.707,0
	c-0.195,0.195-0.195,0.512,0,0.707l6.89,6.89h-2.123c-0.276,0-0.5,0.224-0.5,0.5c0,0.276,0.224,0.5,0.5,0.5h3.123l1.863,1.864
	h-6.448l-4.434-4.428c-0.195-0.194-0.512-0.195-0.708,0c-0.195,0.196-0.195,0.512,0,0.708l3.726,3.72H10c-0.276,0-0.5,0.224-0.5,0.5
	s0.224,0.5,0.5,0.5h5.925l-3.722,3.723c-0.195,0.195-0.195,0.512,0,0.707c0.098,0.098,0.226,0.146,0.354,0.146
	s0.256-0.049,0.354-0.146l4.43-4.43h6.452l-1.862,1.861l-3.124,0.003c-0.276,0-0.5,0.224-0.5,0.5s0.224,0.5,0.5,0.5l0,0l2.122-0.001
	l-6.89,6.89c-0.195,0.195-0.195,0.513,0,0.707c0.098,0.099,0.226,0.146,0.354,0.146s0.256-0.049,0.354-0.146l6.89-6.89v2.123
	c0,0.277,0.224,0.5,0.5,0.5c0.276,0,0.5-0.223,0.5-0.5V28.07l1.863-1.864v6.45l-4.428,4.434c-0.195,0.196-0.195,0.512,0,0.708
	c0.195,0.194,0.512,0.195,0.708,0l3.72-3.728V40c0,0.275,0.224,0.5,0.5,0.5s0.5-0.225,0.5-0.5v-5.925l3.723,3.722
	c0.098,0.098,0.227,0.146,0.354,0.146s0.256-0.049,0.354-0.146c0.194-0.195,0.194-0.512,0-0.707L25.5,32.66v-6.452l1.861,1.862
	l0.002,3.123c0,0.275,0.224,0.5,0.5,0.5c0.275,0,0.5-0.225,0.5-0.5V29.07l6.89,6.891c0.099,0.098,0.226,0.146,0.354,0.146
	c0.127,0,0.254-0.049,0.352-0.147c0.195-0.194,0.195-0.512,0-0.707l-6.891-6.89h2.125c0.277,0,0.5-0.225,0.5-0.5
	c0-0.276-0.223-0.5-0.5-0.5h-3.125L26.206,25.5h6.45l4.434,4.428c0.098,0.098,0.227,0.146,0.354,0.146
	c0.129,0,0.257-0.049,0.354-0.146c0.195-0.195,0.195-0.512,0-0.707L34.07,25.5H40c0.275,0,0.5-0.224,0.5-0.5S40.275,24.5,40,24.5z"
	/>
</svg>
