<?xml version="1.0" encoding="utf-8"?>
<!-- Generator: Adobe Illustrator 16.0.4, SVG Export Plug-In . SVG Version: 6.00 Build 0)  -->
<!DOCTYPE svg PUBLIC "-//W3C//DTD SVG 1.1//EN" "http://www.w3.org/Graphics/SVG/1.1/DTD/svg11.dtd">
<svg version="1.1" id="Layer_1" xmlns="http://www.w3.org/2000/svg" xmlns:xlink="http://www.w3.org/1999/xlink" x="0px" y="0px"
	 width="50px" height="50px" viewBox="0 0 50 50" enable-background="new 0 0 50 50" xml:space="preserve">
<path stroke="#ddddff" d="M40,24.5h-3.188l1.603-1.602c0.194-0.195,0.194-0.513,0-0.707c-0.194-0.195-0.513-0.195-0.707,0l-2.31,2.309h-3.486
	c-0.11-1.537-0.721-2.936-1.673-4.033l5.721-5.721c0.194-0.195,0.194-0.512,0-0.707s-0.512-0.195-0.707,0l-5.721,5.721
	c-1.099-0.951-2.496-1.562-4.032-1.672v-3.229l2.307-2.308c0.194-0.194,0.194-0.512,0-0.706c-0.195-0.195-0.513-0.195-0.707,0
	l-1.6,1.6V10c0-0.275-0.225-0.5-0.5-0.5s-0.5,0.225-0.5,0.5v3.445l-1.602-1.6c-0.195-0.195-0.512-0.195-0.707,0
	c-0.195,0.194-0.195,0.512,0,0.706l2.309,2.308v3.229c-1.536,0.11-2.934,0.721-4.032,1.672l-5.721-5.721
	c-0.195-0.195-0.513-0.195-0.707,0s-0.194,0.512,0,0.707l5.722,5.721c-0.953,1.1-1.562,2.496-1.674,4.033h-2.972l-2.31-2.307
	c-0.195-0.195-0.512-0.195-0.707,0s-0.195,0.512,0,0.707l1.602,1.6H10c-0.275,0-0.5,0.225-0.5,0.5s0.225,0.5,0.5,0.5h3.702
	L12.1,27.102c-0.195,0.195-0.195,0.513,0,0.707c0.099,0.099,0.227,0.146,0.354,0.146s0.256-0.049,0.354-0.146l2.308-2.309h2.972
	c0.11,1.536,0.721,2.934,1.672,4.032l-5.72,5.72c-0.194,0.195-0.194,0.512,0,0.707c0.099,0.098,0.226,0.146,0.354,0.146
	c0.127,0,0.256-0.049,0.354-0.146l5.72-5.72c1.099,0.952,2.496,1.562,4.033,1.673v3.23l-2.306,2.309
	c-0.195,0.195-0.195,0.512,0,0.707c0.098,0.098,0.226,0.146,0.354,0.146s0.256-0.05,0.354-0.146l1.598-1.6V40
	c0,0.275,0.225,0.5,0.5,0.5s0.5-0.225,0.5-0.5v-3.443l1.602,1.603c0.195,0.194,0.512,0.194,0.707,0c0.195-0.195,0.195-0.513,0-0.707
	l-2.309-2.31v-3.229c1.537-0.11,2.936-0.722,4.033-1.673l5.72,5.72c0.099,0.099,0.226,0.146,0.354,0.146
	c0.127,0,0.256-0.049,0.354-0.146c0.195-0.194,0.195-0.512,0-0.707l-5.72-5.72c0.95-1.1,1.562-2.496,1.672-4.032H35.4l2.308,2.306
	c0.099,0.098,0.226,0.146,0.354,0.146c0.127,0,0.256-0.05,0.354-0.146c0.195-0.195,0.195-0.514,0-0.707l-1.602-1.6H40
	c0.275,0,0.5-0.225,0.5-0.5S40.275,24.5,40,24.5z M30.912,25.5c-0.105,1.262-0.605,2.411-1.378,3.326
	c-0.216,0.255-0.452,0.49-0.707,0.707c-0.915,0.773-2.065,1.273-3.327,1.379c-0.165,0.014-0.331,0.025-0.5,0.025
	s-0.335-0.013-0.5-0.025c-1.262-0.105-2.412-0.605-3.327-1.379c-0.255-0.217-0.491-0.452-0.707-0.707
	c-0.772-0.915-1.272-2.064-1.378-3.326c-0.014-0.165-0.025-0.331-0.025-0.5s0.013-0.335,0.025-0.5
	c0.105-1.262,0.605-2.412,1.379-3.327c0.217-0.255,0.452-0.491,0.707-0.707c0.915-0.772,2.064-1.272,3.326-1.378
	c0.165-0.014,0.331-0.025,0.5-0.025s0.335,0.013,0.5,0.025c1.262,0.105,2.411,0.605,3.326,1.378c0.255,0.216,0.49,0.452,0.707,0.707
	c0.773,0.915,1.273,2.065,1.379,3.327V25.5z"/>
<path stroke="#ddddff" d="M29.672,24.499c-0.1-0.918-0.457-1.75-1.008-2.434c-0.211-0.26-0.445-0.496-0.707-0.705
	c-0.683-0.551-1.515-0.907-2.432-1.006c-0.166-0.02-0.329-0.051-0.5-0.051s-0.334,0.031-0.5,0.051
	c-0.917,0.099-1.749,0.455-2.432,1.006c-0.262,0.209-0.496,0.445-0.707,0.705c-0.551,0.684-0.908,1.516-1.008,2.434
	c-0.019,0.166-0.051,0.329-0.051,0.5s0.032,0.334,0.051,0.5c0.1,0.917,0.455,1.75,1.006,2.431c0.211,0.262,0.447,0.496,0.707,0.707
	c0.684,0.553,1.516,0.91,2.434,1.008c0.166,0.02,0.329,0.053,0.5,0.053s0.334-0.033,0.5-0.053c0.918-0.098,1.75-0.455,2.434-1.008
	c0.26-0.211,0.496-0.445,0.707-0.707c0.551-0.682,0.906-1.514,1.006-2.431V24.499z M28.672,25.499
	c-0.088,0.644-0.338,1.23-0.713,1.724c-0.203,0.27-0.439,0.504-0.707,0.709c-0.494,0.375-1.082,0.625-1.727,0.713
	c-0.165,0.023-0.329,0.053-0.5,0.053s-0.335-0.029-0.5-0.053c-0.645-0.088-1.23-0.338-1.727-0.713
	c-0.268-0.205-0.504-0.439-0.707-0.709c-0.375-0.494-0.625-1.08-0.713-1.724c-0.021-0.165-0.051-0.329-0.051-0.5
	s0.028-0.335,0.051-0.5c0.088-0.645,0.338-1.23,0.715-1.727c0.203-0.267,0.439-0.504,0.707-0.707
	c0.494-0.375,1.08-0.623,1.725-0.711c0.165-0.022,0.329-0.051,0.5-0.051s0.335,0.027,0.5,0.051c0.645,0.088,1.23,0.336,1.725,0.711
	c0.268,0.203,0.504,0.44,0.707,0.707c0.377,0.494,0.627,1.082,0.715,1.727c0.021,0.165,0.051,0.329,0.051,0.5
	S28.693,25.333,28.672,25.499z"/>
</svg>
