<?xml version="1.0" encoding="utf-8"?>
<!-- Generator: Adobe Illustrator 16.0.4, SVG Export Plug-In . SVG Version: 6.00 Build 0)  -->
<!DOCTYPE svg PUBLIC "-//W3C//DTD SVG 1.1//EN" "http://www.w3.org/Graphics/SVG/1.1/DTD/svg11.dtd">
<svg version="1.1" id="Layer_1" xmlns="http://www.w3.org/2000/svg" xmlns:xlink="http://www.w3.org/1999/xlink" x="0px" y="0px"
	 width="50px" height="50px" viewBox="0 0 50 50" enable-background="new 0 0 50 50" xml:space="preserve">
<path stroke="#ddddff" d="M36.357,31.248l-4.043-0.001l-1.351-1.349v-9.804l1.349-1.349h4.047c0.414,0,0.75-0.336,0.75-0.75s-0.336-0.75-0.75-0.75
	h-2.547l2.326-2.326c0.293-0.293,0.293-0.768,0-1.061s-0.768-0.293-1.061,0l-2.325,2.325V13.64c0-0.414-0.336-0.75-0.75-0.75
	s-0.75,0.336-0.75,0.75v4.044L29.9,19.036h-9.799l-1.352-1.352v-4.045c0-0.414-0.336-0.75-0.75-0.75s-0.75,0.336-0.75,0.75v2.545
	l-2.325-2.325c-0.293-0.293-0.768-0.293-1.062,0c-0.293,0.293-0.293,0.768,0,1.061l2.326,2.325h-2.545
	c-0.414,0-0.75,0.335-0.75,0.75c0,0.414,0.336,0.75,0.75,0.75l4.045,0.001l1.352,1.351l-0.001,9.799l-1.351,1.351h-4.045
	c-0.414,0-0.75,0.336-0.75,0.75s0.336,0.75,0.75,0.75h2.545l-2.326,2.326c-0.293,0.293-0.293,0.768,0,1.061
	c0.146,0.146,0.339,0.22,0.531,0.22c0.191,0,0.383-0.072,0.529-0.22l2.325-2.325v2.545c0,0.414,0.336,0.75,0.75,0.75
	s0.75-0.336,0.75-0.75v-4.045l1.351-1.351H29.9l1.352,1.351v4.045c0,0.414,0.336,0.75,0.75,0.75s0.75-0.336,0.75-0.75v-2.545
	l2.325,2.325c0.146,0.146,0.338,0.22,0.53,0.22c0.191,0,0.384-0.072,0.529-0.22c0.293-0.293,0.293-0.768,0-1.061l-2.324-2.325h2.543
	c0.414,0,0.75-0.335,0.75-0.75C37.107,31.584,36.771,31.248,36.357,31.248z M21.604,29.458h-1.062v-1.062l0.001-6.799v-1.061h1.061
	h6.799h1.062v1.059v6.804v1.06h-1.062H21.604z M40.044,24.997c0,0.414-0.336,0.75-0.75,0.75h-5.11l2.416,2.417
	c0.293,0.293,0.293,0.768,0,1.061c-0.146,0.146-0.338,0.221-0.529,0.221c-0.192,0-0.385-0.073-0.53-0.221l-3.697-3.697l-0.53-0.529
	l0.53-0.53l3.697-3.697c0.293-0.293,0.769-0.293,1.062,0s0.293,0.768,0,1.061l-2.418,2.417h5.111
	C39.708,24.247,40.044,24.583,40.044,24.997z M20.775,14.461c-0.293-0.293-0.293-0.768,0-1.061s0.769-0.293,1.062,0l2.417,2.417
	v-5.111c0-0.414,0.336-0.75,0.75-0.75s0.75,0.336,0.75,0.75v5.111L28.17,13.4c0.293-0.293,0.768-0.293,1.061,0s0.293,0.768,0,1.061
	l-3.695,3.697l-0.53,0.53l-0.53-0.53L20.775,14.461z M15.816,25.753h-5.11c-0.414,0-0.75-0.336-0.75-0.75s0.336-0.75,0.75-0.75h5.11
	L13.4,21.836c-0.293-0.293-0.293-0.768,0-1.061s0.768-0.293,1.061,0l3.697,3.697l0.529,0.53l-0.529,0.53l-3.696,3.696
	c-0.146,0.146-0.338,0.22-0.53,0.22c-0.191,0-0.384-0.073-0.529-0.22c-0.293-0.293-0.293-0.769,0-1.062L15.816,25.753z
	 M29.225,35.539c0.293,0.293,0.293,0.768,0,1.061c-0.146,0.146-0.338,0.221-0.531,0.221c-0.191,0-0.383-0.073-0.529-0.221
	l-2.416-2.416v5.11c0,0.414-0.336,0.75-0.75,0.75s-0.75-0.336-0.75-0.75v-5.11L21.832,36.6c-0.293,0.293-0.768,0.293-1.061,0
	s-0.293-0.768,0-1.061l3.695-3.697l0.53-0.529l0.53,0.529v0.001L29.225,35.539z"/>
</svg>
