<?xml version="1.0" encoding="utf-8"?>
<!-- Generator: Adobe Illustrator 16.0.4, SVG Export Plug-In . SVG Version: 6.00 Build 0)  -->
<!DOCTYPE svg PUBLIC "-//W3C//DTD SVG 1.1//EN" "http://www.w3.org/Graphics/SVG/1.1/DTD/svg11.dtd">
<svg version="1.1" id="Layer_1" xmlns="http://www.w3.org/2000/svg" xmlns:xlink="http://www.w3.org/1999/xlink" x="0px" y="0px"
	 width="50px" height="50px" viewBox="0 0 50 50" enable-background="new 0 0 50 50" xml:space="preserve">
<path stroke="#ddddff" d="M40.001,24.25h-6.99l3.118-3.119c0.293-0.293,0.293-0.768,0-1.061c-0.293-0.293-0.768-0.293-1.061,0l-4.18,4.179H29.88
	l-1.535-1.534l4.886-4.885c0.293-0.293,0.293-0.768,0-1.061s-0.769-0.293-1.062,0l-4.885,4.885l-1.534-1.533V18.87l4.352-4.351
	c0.293-0.293,0.293-0.768,0-1.061s-0.769-0.293-1.062,0l-3.29,3.29v-6.75c0-0.414-0.336-0.75-0.75-0.75s-0.75,0.336-0.75,0.75v6.75
	l-3.29-3.29c-0.293-0.293-0.768-0.293-1.061,0s-0.293,0.768,0,1.061l4.351,4.351v1.251l-1.534,1.533l-4.885-4.885
	c-0.293-0.293-0.768-0.293-1.061,0s-0.293,0.768,0,1.061l4.885,4.885l-1.535,1.534h-1.009l-4.179-4.179
	c-0.293-0.293-0.768-0.293-1.061,0c-0.293,0.293-0.293,0.768,0,1.061l3.118,3.119h-6.99c-0.414,0-0.75,0.336-0.75,0.75
	s0.336,0.75,0.75,0.75h6.99l-3.118,3.119c-0.293,0.293-0.293,0.768,0,1.061c0.146,0.146,0.338,0.22,0.53,0.22s0.384-0.073,0.53-0.22
	l4.179-4.18h1.009l1.534,1.535l-4.884,4.885c-0.293,0.293-0.293,0.769,0,1.062c0.146,0.146,0.338,0.22,0.53,0.22
	c0.192,0,0.384-0.072,0.53-0.22l4.884-4.885l1.535,1.534v1.25l-4.351,4.351c-0.293,0.293-0.293,0.769,0,1.062s0.768,0.293,1.061,0
	l3.29-3.291v6.75c0,0.414,0.336,0.75,0.75,0.75s0.75-0.336,0.75-0.75v-6.75l3.29,3.291c0.146,0.146,0.338,0.221,0.53,0.221
	c0.191,0,0.384-0.073,0.529-0.221c0.293-0.293,0.293-0.768,0-1.061l-4.351-4.352v-1.25l1.535-1.533l4.884,4.885
	c0.146,0.146,0.338,0.221,0.529,0.221c0.193,0,0.385-0.074,0.531-0.221c0.293-0.293,0.293-0.768,0-1.061l-4.885-4.885l1.536-1.535
	h1.007l4.18,4.179c0.146,0.146,0.338,0.22,0.529,0.22c0.192,0,0.385-0.072,0.53-0.22c0.293-0.294,0.293-0.769,0-1.062l-3.118-3.119
	h6.995c0.414,0,0.75-0.335,0.75-0.75S40.415,24.25,40.001,24.25z M27.761,25.75l-2.01,2.008L25,28.508l-0.749-0.75l-2.009-2.008
	L21.492,25l0.75-0.75l2.008-2.007l0.75-0.75l0.75,0.75l2.007,2.007L28.508,25L27.761,25.75z"/>
</svg>
