<?xml version="1.0" encoding="utf-8"?>
<!-- Generator: Adobe Illustrator 16.0.4, SVG Export Plug-In . SVG Version: 6.00 Build 0)  -->
<!DOCTYPE svg PUBLIC "-//W3C//DTD SVG 1.1//EN" "http://www.w3.org/Graphics/SVG/1.1/DTD/svg11.dtd">
<svg version="1.1" id="Layer_1" xmlns="http://www.w3.org/2000/svg" xmlns:xlink="http://www.w3.org/1999/xlink" x="0px" y="0px"
	 width="50px" height="50px" viewBox="0 0 50 50" enable-background="new 0 0 50 50" xml:space="preserve">
<path stroke="#ddddff" d="M16.575,15.594c0-0.276,0.224-0.5,0.5-0.5l2.208,0.001l1.103-1.912c0.139-0.24,0.442-0.32,0.684-0.185
	c0.24,0.14,0.322,0.444,0.185,0.685l-1.392,2.412l-2.786-0.001C16.799,16.094,16.575,15.87,16.575,15.594z M32.929,33.907
	l-2.785-0.002l-1.392,2.412c-0.138,0.24-0.056,0.545,0.185,0.685c0.078,0.045,0.164,0.065,0.25,0.065c0.172,0,0.34-0.09,0.434-0.25
	l1.104-1.912l2.207,0.002c0.275,0,0.5-0.225,0.5-0.5C33.431,34.131,33.205,33.907,32.929,33.907z M30.144,16.097h2.785
	c0.276,0,0.5-0.225,0.5-0.5c0-0.277-0.224-0.5-0.5-0.5h-2.207l-1.105-1.914c-0.139-0.24-0.443-0.322-0.684-0.183
	c-0.238,0.138-0.32,0.442-0.183,0.683L30.144,16.097z M19.86,33.907h-2.787c-0.276,0-0.5,0.224-0.5,0.5c0,0.275,0.224,0.5,0.5,0.5
	h2.209l1.105,1.912c0.092,0.16,0.26,0.25,0.432,0.25c0.086,0,0.172-0.021,0.25-0.067c0.24-0.138,0.322-0.442,0.184-0.683
	L19.86,33.907z M12.642,27.599c0.08,0.045,0.166,0.065,0.25,0.065c0.174,0,0.342-0.09,0.435-0.25l1.391-2.412l-1.394-2.413
	c-0.139-0.238-0.445-0.322-0.684-0.184s-0.32,0.443-0.183,0.684l1.104,1.913l-1.104,1.912
	C12.319,27.153,12.401,27.459,12.642,27.599z M37.36,22.405c-0.238-0.137-0.545-0.057-0.684,0.184l-1.393,2.412l1.394,2.413
	c0.093,0.16,0.261,0.25,0.433,0.25c0.086,0,0.172-0.021,0.25-0.067c0.24-0.138,0.322-0.443,0.184-0.683l-1.104-1.913l1.104-1.912
	C37.683,22.851,37.601,22.544,37.36,22.405z M40.498,33.948c-0.093,0.16-0.261,0.25-0.433,0.25c-0.086,0-0.172-0.021-0.25-0.067
	l-0.98-0.565l-2.137,1.232c-0.077,0.044-0.164,0.066-0.25,0.066s-0.174-0.022-0.25-0.067l-2.385-1.376
	c-0.153-0.089-0.25-0.254-0.25-0.434v-0.854h-4.441l-2.225,3.852l0.737,0.426c0.154,0.089,0.25,0.254,0.25,0.433l0.001,2.755
	c0,0.178-0.096,0.344-0.25,0.434l-2.136,1.23v1.133c0,0.276-0.224,0.5-0.5,0.5s-0.5-0.224-0.5-0.5v-1.135l-2.136-1.23
	c-0.154-0.09-0.25-0.256-0.25-0.434l0.001-2.754c0-0.179,0.096-0.344,0.25-0.433l0.739-0.427l-2.225-3.849l-4.441-0.001v0.852
	c0,0.18-0.094,0.345-0.25,0.434l-2.387,1.378c-0.076,0.045-0.164,0.067-0.25,0.067s-0.173-0.022-0.25-0.067l-2.136-1.231
	l-0.983,0.566c-0.078,0.046-0.164,0.067-0.25,0.067c-0.172,0-0.34-0.091-0.433-0.25c-0.14-0.239-0.058-0.546,0.183-0.683
	l0.983-0.567l0.001-2.466c0-0.178,0.096-0.344,0.25-0.433l2.387-1.378c0.154-0.09,0.346-0.09,0.5,0l0.737,0.426l2.222-3.848
	l-2.224-3.85l-0.737,0.427c-0.076,0.045-0.164,0.067-0.25,0.067s-0.173-0.022-0.25-0.067l-2.385-1.377
	c-0.154-0.089-0.25-0.255-0.25-0.433l0.002-2.466l-0.984-0.567c-0.238-0.139-0.32-0.443-0.183-0.684
	c0.138-0.238,0.445-0.32,0.683-0.183l0.983,0.567l2.134-1.233c0.153-0.091,0.346-0.091,0.5,0l2.387,1.379
	c0.154,0.089,0.25,0.254,0.25,0.433v0.85h4.442l2.222-3.846l-0.739-0.427c-0.154-0.09-0.25-0.255-0.25-0.435l0.002-2.754
	c0-0.18,0.096-0.344,0.25-0.434L24.5,8.737V7.604c0-0.276,0.224-0.5,0.5-0.5s0.5,0.224,0.5,0.5v1.135l2.136,1.229
	c0.153,0.091,0.25,0.255,0.25,0.435l-0.002,2.754c0,0.18-0.097,0.345-0.25,0.434l-0.736,0.426l2.225,3.85h4.439v-0.852
	c0-0.18,0.095-0.345,0.25-0.434l2.387-1.378c0.154-0.091,0.346-0.091,0.5,0l2.136,1.233l0.983-0.568
	c0.238-0.139,0.545-0.057,0.683,0.183c0.14,0.239,0.058,0.546-0.183,0.683l-0.984,0.568v2.465c0,0.18-0.096,0.344-0.25,0.434
	l-2.387,1.378c-0.077,0.045-0.164,0.067-0.25,0.067c-0.088,0-0.174-0.022-0.25-0.067l-0.736-0.427l-2.222,3.85l2.223,3.85
	l0.735-0.425c0.154-0.09,0.344-0.089,0.5-0.001l2.388,1.375c0.154,0.09,0.25,0.256,0.25,0.434l-0.002,2.465l0.983,0.566
	C40.556,33.403,40.637,33.709,40.498,33.948z M38.333,32.121l0.001-1.599l-1.888-1.086l-0.734,0.424l-0.347,0.199l-0.302,0.174
	l-0.5,0.289v0.576v0.321v0.429v0.851l1.885,1.088l1.387-0.8l0.497-0.287L38.333,32.121z M34.597,20.653l-0.533-0.309l-2.28,1.317
	L29.34,25l2.443,3.339l2.282,1.316l0.531-0.307L32.084,25L34.597,20.653z M26.886,37.133l-0.764-0.44l-0.338-0.195l-0.283-0.164
	l-0.5-0.289l-0.5,0.288l-0.279,0.162l-0.349,0.2l-0.757,0.438l-0.001,2.176l1.386,0.799l0.501,0.289l0.499-0.287l1.386-0.799
	L26.886,37.133z M23.114,12.871l0.738,0.426l0.369,0.213l0.279,0.161l0.5,0.288l0.5-0.289l0.282-0.163l0.364-0.211l0.735-0.425
	l0.002-2.177l-1.384-0.799l-0.502-0.289l-0.498,0.289l-1.385,0.799L23.114,12.871z M29.636,27.101l-1.537-2.1l1.537-2.1l0.731-0.998
	l-1.232,0.134l-2.585,0.28l-1.049-2.379l-0.5-1.133l-0.5,1.133l-1.049,2.379l-2.585-0.28l-1.232-0.134l0.731,0.998l1.537,2.1
	l-1.537,2.1l-0.731,0.998l1.232-0.134l2.585-0.28l1.049,2.379l0.5,1.133l0.5-1.133l1.049-2.379l2.585,0.28l1.232,0.134
	L29.636,27.101z M37.834,17.017l-1.386-0.802l-1.887,1.089v0.848v0.433l0.002,0.319v0.578l0.498,0.289l0.281,0.162l0.369,0.213
	l0.732,0.424l1.888-1.09v-1.599v-0.577L37.834,17.017z M26.033,14.519l-0.532,0.306v2.637l1.668,3.783l4.113-0.446l2.281-1.316
	l-0.002-0.613h-5.019L26.033,14.519z M16.438,18.866v0.613l2.281,1.317l4.113,0.446l1.668-3.782v-2.636l-0.531-0.307l-2.509,4.348
	H16.438z M14.289,20.146l0.37-0.215l0.279-0.162l0.5-0.287v-0.578v-0.325v-0.422v-0.851l-1.886-1.091l-1.385,0.802l-0.498,0.287
	v0.578l-0.002,1.6l1.885,1.088L14.289,20.146z M15.408,29.351l0.53,0.307l2.28-1.317l2.443-3.338l-2.443-3.339l-2.28-1.316
	l-0.531,0.309l2.511,4.349L15.408,29.351z M12.168,32.987l1.386,0.8l1.887-1.089v-0.85v-0.428l-0.002-0.322v-0.576l-0.5-0.289
	l-0.293-0.17l-0.354-0.205l-0.733-0.426l-1.888,1.09l-0.001,1.599v0.577L12.168,32.987z M23.972,35.483l0.529-0.306V32.54
	l-1.668-3.783l-4.113,0.446l-2.281,1.317l0.002,0.612l5.021,0.001L23.972,35.483z M33.563,31.135v-0.612l-2.281-1.317l-4.113-0.446
	l-1.668,3.782v2.638l0.531,0.307l2.512-4.351H33.563z"/>
</svg>
