<?xml version="1.0" encoding="utf-8"?>
<!-- Generator: Adobe Illustrator 16.0.4, SVG Export Plug-In . SVG Version: 6.00 Build 0)  -->
<!DOCTYPE svg PUBLIC "-//W3C//DTD SVG 1.1//EN" "http://www.w3.org/Graphics/SVG/1.1/DTD/svg11.dtd">
<svg version="1.1" id="Layer_1" xmlns="http://www.w3.org/2000/svg" xmlns:xlink="http://www.w3.org/1999/xlink" x="0px" y="0px"
	 width="50px" height="50px" viewBox="0 0 50 50" enable-background="new 0 0 50 50" xml:space="preserve">
<path stroke="#ddddff" d="M40.25,33.23l-2.084-1.203v-2.233c0-0.18-0.095-0.344-0.25-0.434L35.732,28.1c-0.154-0.089-0.346-0.089-0.5,0l-1.936,1.117
	l-2.387-1.378l4.005-1.072c0.268-0.071,0.425-0.346,0.354-0.612c-0.071-0.267-0.346-0.425-0.612-0.354l-4.971,1.331L26,25.003
	l3.689-2.13l4.968,1.33c0.043,0.012,0.087,0.017,0.13,0.017c0.221,0,0.423-0.147,0.482-0.371c0.07-0.267-0.087-0.541-0.354-0.612
	l-4.002-1.07l2.383-1.376l1.935,1.115c0.078,0.045,0.164,0.067,0.25,0.067s0.172-0.021,0.25-0.067l2.186-1.261
	c0.155-0.089,0.25-0.255,0.25-0.434l-0.001-2.232l2.085-1.204c0.239-0.138,0.321-0.443,0.184-0.683
	c-0.14-0.24-0.446-0.321-0.684-0.183l-2.086,1.204l-1.933-1.116c-0.154-0.09-0.345-0.09-0.5,0l-2.185,1.26
	c-0.154,0.089-0.25,0.254-0.25,0.433v2.234l-2.385,1.377l1.073-4.003c0.072-0.268-0.087-0.541-0.354-0.612
	c-0.264-0.071-0.541,0.087-0.611,0.354l-1.332,4.969L25.5,24.137V19.88l3.638-3.639c0.194-0.195,0.194-0.513,0-0.707
	c-0.195-0.195-0.513-0.195-0.707,0L25.5,18.465V15.71l1.935-1.115c0.154-0.089,0.25-0.254,0.25-0.433V11.64
	c0-0.179-0.096-0.344-0.25-0.433L25.5,10.088V7.68c0-0.276-0.224-0.5-0.5-0.5s-0.5,0.224-0.5,0.5v2.408l-1.934,1.117
	c-0.155,0.089-0.25,0.254-0.25,0.433v2.522c0,0.179,0.096,0.344,0.25,0.433l1.934,1.114v2.756l-2.93-2.932
	c-0.195-0.194-0.512-0.194-0.707,0c-0.195,0.195-0.195,0.513,0,0.707l3.637,3.64v4.257l-3.688-2.129l-1.332-4.969
	c-0.072-0.268-0.346-0.426-0.612-0.354c-0.267,0.071-0.425,0.346-0.354,0.612l1.073,4.003l-2.386-1.377v-2.233
	c0-0.179-0.095-0.344-0.25-0.433l-2.182-1.26c-0.154-0.09-0.346-0.09-0.5,0l-1.934,1.116l-2.086-1.204
	c-0.24-0.139-0.545-0.058-0.683,0.183c-0.138,0.239-0.056,0.545,0.183,0.683l2.086,1.204l-0.002,2.232
	c0,0.179,0.095,0.344,0.25,0.434l2.184,1.261c0.077,0.044,0.164,0.067,0.25,0.067s0.173-0.021,0.25-0.067l1.934-1.116l2.385,1.377
	l-4.002,1.07c-0.267,0.071-0.425,0.347-0.354,0.612c0.06,0.223,0.262,0.371,0.482,0.371c0.043,0,0.086-0.005,0.13-0.017l4.968-1.33
	L24,25.001l-3.686,2.128l-4.971-1.331c-0.266-0.071-0.541,0.087-0.612,0.354c-0.071,0.268,0.087,0.541,0.354,0.612l4.005,1.072
	l-2.387,1.378l-1.936-1.116c-0.155-0.089-0.346-0.089-0.5,0l-2.183,1.26c-0.155,0.089-0.25,0.254-0.25,0.434l-0.001,2.233
	L9.75,33.228c-0.239,0.139-0.321,0.444-0.183,0.684c0.093,0.16,0.261,0.25,0.434,0.25c0.085,0,0.171-0.021,0.25-0.067l2.086-1.204
	l1.932,1.117c0.077,0.044,0.164,0.067,0.25,0.067s0.173-0.022,0.25-0.067l2.184-1.263c0.154-0.09,0.25-0.254,0.25-0.434v-2.229
	l2.385-1.377l-1.072,4c-0.071,0.267,0.087,0.541,0.354,0.611c0.043,0.013,0.087,0.018,0.13,0.018c0.221,0,0.423-0.147,0.482-0.371
	l1.331-4.966l3.688-2.13v4.257l-3.637,3.639c-0.195,0.195-0.195,0.512,0,0.707c0.195,0.195,0.512,0.195,0.707,0l2.93-2.931v2.756
	l-1.934,1.114c-0.155,0.089-0.25,0.254-0.25,0.433v2.521c0,0.18,0.095,0.345,0.25,0.434l1.934,1.117v2.407
	c0,0.276,0.224,0.5,0.5,0.5s0.5-0.224,0.5-0.5v-2.407l1.935-1.118c0.154-0.089,0.25-0.254,0.25-0.434V35.84
	c0-0.179-0.096-0.344-0.25-0.433L25.5,34.296v-2.755l2.931,2.931c0.098,0.098,0.226,0.146,0.354,0.146s0.256-0.05,0.354-0.146
	c0.194-0.195,0.194-0.512,0-0.707L25.5,30.127V25.87L29.188,28l1.331,4.966c0.06,0.224,0.262,0.371,0.481,0.371
	c0.043,0,0.086-0.005,0.13-0.018c0.268-0.07,0.426-0.346,0.354-0.611l-1.072-4l2.386,1.377v2.229c0,0.18,0.096,0.344,0.25,0.434
	l2.185,1.263c0.078,0.045,0.164,0.067,0.25,0.067s0.173-0.022,0.25-0.067l1.931-1.117l2.086,1.205
	c0.079,0.045,0.165,0.067,0.25,0.067c0.173,0,0.341-0.089,0.435-0.25C40.571,33.674,40.489,33.369,40.25,33.23z M33.797,19.346
	v-1.368l1.685-0.971l1.183,0.684l0.5,0.289v0.577l0.001,1.367l-1.686,0.972l-1.185-0.683l-0.5-0.288v-0.579H33.797z M16.202,19.345
	v0.578l-0.5,0.289l-1.184,0.684l-1.684-0.972l0.001-1.367v-0.577l0.5-0.289l1.184-0.684l1.682,0.971L16.202,19.345L16.202,19.345z
	 M16.203,30.66v1.364l-1.684,0.975l-1.183-0.685l-0.502-0.29V31.45v-1.369l1.683-0.972l1.185,0.685l0.5,0.288L16.203,30.66
	L16.203,30.66z M26.685,36.133v1.945L25.5,38.762L25,39.051l-0.5-0.289l-1.184-0.684v-1.945l1.184-0.682l0.5-0.289l0.5,0.287
	L26.685,36.133z M25,14.843l-0.5-0.289l-1.184-0.682v-1.945l1.184-0.684l0.5-0.289l0.5,0.289l1.185,0.684v1.945L25.5,14.555
	L25,14.843z M37.166,31.45v0.574l-0.502,0.29l-1.182,0.685l-1.685-0.975v-1.363v-0.579l0.499-0.288l1.186-0.685l1.684,0.973V31.45z"
	/>
</svg>
