<?xml version="1.0" encoding="utf-8"?>
<!-- Generator: Adobe Illustrator 16.0.4, SVG Export Plug-In . SVG Version: 6.00 Build 0)  -->
<!DOCTYPE svg PUBLIC "-//W3C//DTD SVG 1.1//EN" "http://www.w3.org/Graphics/SVG/1.1/DTD/svg11.dtd">
<svg version="1.1" id="Layer_1" xmlns="http://www.w3.org/2000/svg" xmlns:xlink="http://www.w3.org/1999/xlink" x="0px" y="0px"
	 width="50px" height="50px" viewBox="0 0 50 50" enable-background="new 0 0 50 50" xml:space="preserve">
<path stroke="#ddddff" d="M40,24.5h-3.302l1.199-1.2c0.195-0.195,0.195-0.512,0-0.707c-0.194-0.195-0.512-0.195-0.707,0L35.285,24.5h-0.509
	l0.822-0.823c0.195-0.195,0.195-0.512,0-0.707c-0.195-0.195-0.512-0.195-0.707,0L33.36,24.5h-1.937l-1.501-3.716l3.426-3.426
	c0.195-0.195,0.195-0.512,0-0.707c-0.195-0.195-0.512-0.195-0.707,0l-3.451,3.452l-3.69-1.565V16.64l1.528-1.53
	c0.195-0.195,0.195-0.512,0-0.707c-0.194-0.195-0.512-0.195-0.707,0L25.5,15.226v-0.51l1.903-1.906c0.195-0.195,0.195-0.512,0-0.707
	c-0.194-0.195-0.512-0.195-0.707,0L25.5,13.3V10c0-0.276-0.224-0.5-0.5-0.5s-0.5,0.224-0.5,0.5v3.3l-1.199-1.199
	c-0.194-0.195-0.512-0.195-0.706,0c-0.195,0.195-0.195,0.512,0,0.707l1.905,1.906v0.509L23.679,14.4
	c-0.195-0.195-0.513-0.195-0.707,0c-0.195,0.195-0.195,0.512,0,0.707l1.528,1.53v1.937l-3.716,1.501l-3.428-3.426
	c-0.194-0.195-0.512-0.195-0.707,0c-0.194,0.195-0.194,0.512,0,0.707l3.453,3.453l-1.565,3.69H16.64l-1.531-1.529
	c-0.195-0.194-0.512-0.195-0.707,0.001c-0.195,0.195-0.195,0.512,0,0.707l0.822,0.821h-0.509l-1.905-1.904
	c-0.195-0.195-0.513-0.195-0.707,0c-0.195,0.195-0.195,0.512,0,0.707L13.3,24.5H10c-0.276,0-0.5,0.224-0.5,0.5s0.224,0.5,0.5,0.5
	h3.302l-1.199,1.2c-0.195,0.195-0.195,0.512,0,0.707c0.098,0.098,0.226,0.146,0.354,0.146s0.256-0.049,0.354-0.146l1.905-1.907
	h0.509l-0.822,0.823c-0.195,0.195-0.195,0.512,0,0.707c0.098,0.098,0.226,0.146,0.354,0.146s0.256-0.049,0.354-0.146l1.533-1.53
	h1.936l1.501,3.717l-3.427,3.426c-0.194,0.195-0.194,0.512,0,0.707c0.099,0.098,0.227,0.146,0.354,0.146s0.257-0.05,0.354-0.146
	l3.451-3.452l3.69,1.565v1.897l-1.528,1.53c-0.195,0.195-0.195,0.512,0,0.707c0.194,0.195,0.512,0.195,0.707,0l0.821-0.823v0.511
	l-1.903,1.905c-0.195,0.194-0.195,0.513,0,0.707c0.098,0.099,0.226,0.146,0.354,0.146s0.256-0.049,0.354-0.146l1.197-1.198V40
	c0,0.275,0.225,0.5,0.5,0.5s0.5-0.225,0.5-0.5v-3.301l1.199,1.199c0.195,0.195,0.512,0.195,0.707,0s0.195-0.512,0-0.707
	l-1.906-1.906v-0.51l0.824,0.824c0.098,0.098,0.227,0.146,0.354,0.146c0.129,0,0.256-0.05,0.354-0.146
	c0.194-0.195,0.194-0.512,0-0.707l-1.531-1.53v-1.937l3.716-1.502l3.428,3.427c0.098,0.099,0.226,0.146,0.354,0.146
	s0.256-0.049,0.354-0.146c0.195-0.194,0.195-0.513,0-0.707l-3.453-3.453l1.566-3.69h1.898l1.531,1.529
	c0.098,0.098,0.226,0.146,0.354,0.146s0.256-0.049,0.354-0.147c0.195-0.194,0.195-0.512,0-0.707L34.776,25.5h0.509l1.905,1.904
	c0.099,0.099,0.227,0.146,0.354,0.146s0.256-0.049,0.354-0.146c0.195-0.194,0.195-0.512,0-0.707L36.7,25.5H40
	c0.276,0,0.5-0.224,0.5-0.5S40.276,24.5,40,24.5z M30.377,25.5l-1.241,2.928l-0.23,0.543l-0.456,0.184l-2.948,1.192l-0.548,0.221
	l-0.452-0.192l-2.928-1.24l-0.545-0.23l-0.184-0.455l-1.191-2.95l-0.223-0.548l0.192-0.452l1.242-2.928l0.229-0.544l0.456-0.184
	l2.948-1.191l0.548-0.221l0.452,0.192l2.928,1.242l0.545,0.231l0.184,0.455l1.191,2.948l0.223,0.548L30.377,25.5z"/>
</svg>
