<?xml version="1.0" encoding="utf-8"?>
<!-- Generator: Adobe Illustrator 16.0.4, SVG Export Plug-In . SVG Version: 6.00 Build 0)  -->
<!DOCTYPE svg PUBLIC "-//W3C//DTD SVG 1.1//EN" "http://www.w3.org/Graphics/SVG/1.1/DTD/svg11.dtd">
<svg version="1.1" id="Layer_1" xmlns="http://www.w3.org/2000/svg" xmlns:xlink="http://www.w3.org/1999/xlink" x="0px" y="0px"
	 width="50px" height="50px" viewBox="0 0 50 50" enable-background="new 0 0 50 50" xml:space="preserve">
<path stroke="#ddddff" d="M40.005,24.25h-6.99l3.118-3.119c0.293-0.293,0.293-0.768,0-1.061s-0.768-0.293-1.061,0l-3.283,3.283l-2.04-2.04
	l6.795-6.794c0.293-0.293,0.293-0.768,0-1.061s-0.769-0.293-1.062,0l-6.795,6.794l-2.158-2.159l3.574-3.575
	c0.293-0.293,0.293-0.768,0-1.061s-0.768-0.293-1.061,0l-3.29,3.29v-6.75c0-0.414-0.336-0.75-0.75-0.75s-0.75,0.336-0.75,0.75v6.75
	l-3.29-3.29c-0.293-0.293-0.768-0.293-1.061,0s-0.293,0.768,0,1.061l3.576,3.576l-2.159,2.159l-6.796-6.795
	c-0.293-0.293-0.768-0.293-1.061,0s-0.293,0.768,0,1.061l6.796,6.795l-2.04,2.04l-3.284-3.284c-0.293-0.293-0.768-0.293-1.061,0
	c-0.293,0.293-0.293,0.768,0,1.061l3.118,3.119h-6.99c-0.414,0-0.75,0.336-0.75,0.75s0.336,0.75,0.75,0.75h6.99l-3.118,3.119
	c-0.293,0.293-0.293,0.768,0,1.061c0.146,0.146,0.338,0.221,0.53,0.221s0.384-0.073,0.53-0.221l3.283-3.283l2.039,2.041L13.46,35.48
	c-0.293,0.293-0.293,0.769,0,1.062c0.146,0.146,0.338,0.22,0.53,0.22s0.384-0.072,0.53-0.22l6.795-6.794l2.159,2.159l-3.575,3.575
	c-0.293,0.293-0.293,0.768,0,1.061s0.768,0.293,1.061,0l3.29-3.29v6.75c0,0.414,0.336,0.75,0.75,0.75s0.75-0.336,0.75-0.75v-6.75
	l3.29,3.291c0.146,0.146,0.338,0.22,0.53,0.22c0.191,0,0.384-0.072,0.529-0.22c0.293-0.293,0.293-0.769,0-1.062l-3.576-3.575
	l2.159-2.159l6.796,6.795c0.146,0.146,0.338,0.221,0.53,0.221s0.384-0.074,0.53-0.221c0.293-0.293,0.293-0.768,0-1.061l-6.797-6.795
	l2.041-2.039l3.283,3.283c0.146,0.146,0.338,0.221,0.53,0.221s0.384-0.073,0.53-0.221c0.293-0.293,0.293-0.768,0-1.061l-3.118-3.119
	h6.99c0.414,0,0.75-0.336,0.75-0.75S40.419,24.25,40.005,24.25z M25.469,30.843l-0.465,0.466l-0.464-0.465l-0.285-0.285l-4.809-4.81
	l-0.165-0.165l-0.585-0.585l0.585-0.585l0.166-0.165l4.808-4.809l0.285-0.285l0.465-0.465l0.465,0.465l0.285,0.285l4.81,4.809
	l0.164,0.165l0.586,0.584l-0.586,0.585l-0.164,0.165l-4.809,4.809L25.469,30.843z"/>
</svg>
