<?xml version="1.0" encoding="utf-8"?>
<!-- Generator: Adobe Illustrator 16.0.4, SVG Export Plug-In . SVG Version: 6.00 Build 0)  -->
<!DOCTYPE svg PUBLIC "-//W3C//DTD SVG 1.1//EN" "http://www.w3.org/Graphics/SVG/1.1/DTD/svg11.dtd">
<svg version="1.1" id="Layer_1" xmlns="http://www.w3.org/2000/svg" xmlns:xlink="http://www.w3.org/1999/xlink" x="0px" y="0px"
	 width="50px" height="50px" viewBox="0 0 50 50" enable-background="new 0 0 50 50" xml:space="preserve">
<path stroke="#ddddff" d="M40.5,25c0,0.275-0.225,0.5-0.5,0.5H25.5V40c0,0.275-0.225,0.5-0.5,0.5s-0.5-0.225-0.5-0.5V25.5H10
	c-0.275,0-0.5-0.225-0.5-0.5s0.225-0.5,0.5-0.5h14.5V10c0-0.275,0.225-0.5,0.5-0.5s0.5,0.225,0.5,0.5v14.5H40
	C40.275,24.5,40.5,24.725,40.5,25z M20.943,29.057c-0.195-0.195-0.512-0.195-0.707,0l-3.84,3.84c-0.195,0.195-0.195,0.513,0,0.707
	c0.098,0.099,0.226,0.146,0.354,0.146s0.256-0.049,0.354-0.146l3.84-3.84C21.139,29.568,21.139,29.252,20.943,29.057z
	 M20.236,20.943c0.098,0.098,0.226,0.146,0.354,0.146s0.256-0.049,0.354-0.146c0.195-0.195,0.195-0.512,0-0.707l-3.84-3.84
	c-0.194-0.195-0.512-0.195-0.707,0c-0.194,0.194-0.194,0.512,0,0.707L20.236,20.943z M29.764,29.057
	c-0.195-0.195-0.512-0.195-0.707,0s-0.195,0.512,0,0.707l3.84,3.84c0.099,0.099,0.227,0.146,0.354,0.146s0.256-0.049,0.354-0.146
	c0.194-0.194,0.194-0.512,0-0.707L29.764,29.057z M28.184,11.643c-0.195-0.194-0.513-0.194-0.707,0l-0.227,0.227v-0.952
	c0-0.276-0.225-0.5-0.5-0.5s-0.5,0.224-0.5,0.5v3.366l1.934-1.934C28.378,12.154,28.378,11.838,28.184,11.643z M35.738,19.904
	c0.195-0.194,0.195-0.512,0-0.706c-0.194-0.195-0.512-0.195-0.706,0l-3.554,3.552H27.25v-4.518l3.407-3.408
	c0.194-0.195,0.194-0.512,0-0.707c-0.195-0.195-0.513-0.195-0.707,0l-3.7,3.701v5.932h5.645L35.738,19.904z M39.083,23.75
	c0.276,0,0.5-0.225,0.5-0.5s-0.224-0.5-0.5-0.5h-1.239l0.37-0.37c0.195-0.194,0.195-0.512,0-0.707c-0.194-0.194-0.512-0.194-0.707,0
	l-2.079,2.077H39.083z M39.083,26.25h-3.655l2.079,2.077c0.099,0.098,0.226,0.146,0.354,0.146c0.127,0,0.256-0.049,0.354-0.146
	c0.195-0.195,0.195-0.513,0-0.707l-0.369-0.37h1.238c0.275,0,0.5-0.225,0.5-0.5S39.359,26.25,39.083,26.25z M31.895,26.25H26.25
	v5.932l3.7,3.701c0.098,0.098,0.226,0.146,0.354,0.146c0.127,0,0.256-0.049,0.354-0.146c0.195-0.195,0.195-0.512,0-0.707
	l-3.407-3.408V27.25h4.229l3.553,3.552c0.195,0.195,0.512,0.195,0.707,0c0.195-0.194,0.195-0.512,0-0.706L31.895,26.25z
	 M26.25,35.716v3.368c0,0.275,0.225,0.5,0.5,0.5s0.5-0.225,0.5-0.5v-0.952l0.227,0.226c0.194,0.195,0.512,0.195,0.707,0
	c0.194-0.194,0.194-0.512,0-0.707L26.25,35.716z M21.816,38.357c0.195,0.194,0.513,0.194,0.707,0l0.227-0.227v0.952
	c0,0.276,0.225,0.5,0.5,0.5s0.5-0.224,0.5-0.5v-3.368l-1.934,1.936C21.622,37.846,21.622,38.162,21.816,38.357z M14.262,30.096
	c-0.195,0.194-0.195,0.512,0,0.706c0.194,0.195,0.512,0.195,0.706,0l3.554-3.552h4.229v4.518l-3.407,3.408
	c-0.194,0.195-0.194,0.512,0,0.707c0.099,0.098,0.226,0.146,0.354,0.146c0.128,0,0.256-0.049,0.354-0.146l3.7-3.701V26.25h-5.644
	L14.262,30.096z M10.917,26.25c-0.276,0-0.5,0.225-0.5,0.5s0.224,0.5,0.5,0.5h1.239l-0.37,0.37c-0.195,0.194-0.195,0.512,0,0.707
	c0.098,0.098,0.226,0.146,0.354,0.146c0.127,0,0.256-0.049,0.354-0.146l2.079-2.077H10.917z M10.917,23.75h3.655l-2.079-2.077
	c-0.195-0.194-0.513-0.194-0.707,0c-0.195,0.195-0.195,0.513,0,0.707l0.37,0.37h-1.239c-0.276,0-0.5,0.225-0.5,0.5
	S10.641,23.75,10.917,23.75z M18.105,23.75h5.645v-5.932l-3.7-3.701c-0.194-0.195-0.512-0.195-0.707,0
	c-0.194,0.195-0.194,0.512,0,0.707l3.407,3.408v4.518h-4.229l-3.554-3.552c-0.194-0.195-0.512-0.195-0.706,0
	c-0.195,0.194-0.195,0.512,0,0.706L18.105,23.75z M23.75,14.282v-3.366c0-0.275-0.225-0.5-0.5-0.5s-0.5,0.225-0.5,0.5v0.952
	l-0.227-0.226c-0.194-0.195-0.512-0.195-0.707,0c-0.194,0.194-0.194,0.512,0,0.707L23.75,14.282z M29.049,20.936
	c0.1,0.104,0.229,0.154,0.361,0.154c0.124,0,0.249-0.046,0.346-0.139l4.008-3.84c0.198-0.191,0.205-0.508,0.016-0.707
	c-0.191-0.198-0.508-0.207-0.707-0.016l-4.008,3.84C28.865,20.42,28.857,20.736,29.049,20.936z"/>
</svg>
