<?xml version="1.0" encoding="utf-8"?>
<!-- Generator: Adobe Illustrator 16.0.4, SVG Export Plug-In . SVG Version: 6.00 Build 0)  -->
<!DOCTYPE svg PUBLIC "-//W3C//DTD SVG 1.1//EN" "http://www.w3.org/Graphics/SVG/1.1/DTD/svg11.dtd">
<svg version="1.1" id="Layer_1" xmlns="http://www.w3.org/2000/svg" xmlns:xlink="http://www.w3.org/1999/xlink" x="0px" y="0px"
	 width="50px" height="50px" viewBox="0 0 50 50" enable-background="new 0 0 50 50" xml:space="preserve">
<g>
	<path stroke="#ddddff" d="M40,24.5h-5.926l3.723-3.723c0.195-0.195,0.195-0.512,0-0.707c-0.195-0.195-0.512-0.195-0.707,0l-4.367,4.368l-1.857-4.595
		l5.097-5.097c0.195-0.195,0.195-0.512,0-0.707c-0.194-0.195-0.512-0.195-0.707,0l-5.13,5.13l-4.53-1.921l4.335-4.339
		c0.194-0.196,0.194-0.512,0-0.708c-0.195-0.194-0.513-0.195-0.707,0L25.5,15.929V10c0-0.276-0.225-0.5-0.5-0.5s-0.5,0.224-0.5,0.5
		v5.925l-3.723-3.722c-0.195-0.195-0.512-0.195-0.707,0c-0.195,0.195-0.195,0.512,0,0.707l4.369,4.37l-4.594,1.858l-5.099-5.098
		c-0.195-0.195-0.513-0.195-0.707,0c-0.194,0.195-0.194,0.512,0,0.707l5.131,5.131l-1.924,4.527l-4.338-4.333
		c-0.195-0.194-0.513-0.195-0.707,0c-0.195,0.196-0.195,0.512,0,0.708l3.726,3.72H10c-0.275,0-0.5,0.224-0.5,0.5s0.225,0.5,0.5,0.5
		h5.926l-3.723,3.723c-0.195,0.195-0.195,0.512,0,0.707c0.098,0.098,0.227,0.146,0.354,0.146c0.129,0,0.256-0.049,0.354-0.146
		l4.37-4.369l1.857,4.594l-5.098,5.099c-0.195,0.195-0.195,0.513,0,0.707c0.098,0.099,0.227,0.146,0.354,0.146
		c0.129,0,0.256-0.049,0.354-0.146l5.13-5.13l4.528,1.92l-4.334,4.339c-0.195,0.196-0.195,0.513,0,0.708
		c0.194,0.194,0.512,0.195,0.707,0l3.72-3.727V40c0,0.275,0.225,0.5,0.5,0.5s0.5-0.225,0.5-0.5v-5.925l3.723,3.722
		c0.098,0.098,0.227,0.146,0.354,0.146s0.256-0.049,0.354-0.146c0.194-0.195,0.194-0.512,0-0.707l-4.369-4.369l4.595-1.859
		l5.099,5.099c0.098,0.099,0.227,0.146,0.354,0.146c0.129,0,0.257-0.049,0.354-0.146c0.195-0.194,0.195-0.512,0-0.707l-5.132-5.132
		l1.924-4.525l4.338,4.334c0.098,0.096,0.225,0.146,0.354,0.146c0.128,0,0.256-0.05,0.354-0.146c0.195-0.197,0.195-0.513,0-0.709
		L34.07,25.5H40c0.275,0,0.5-0.224,0.5-0.5S40.275,24.5,40,24.5z M31.707,25.5l-1.641,3.857l-0.236,0.557l-0.441,0.179L25.5,31.666
		l-0.559,0.227L24.5,31.704l-3.859-1.638l-0.554-0.234l-0.181-0.445L18.334,25.5l-0.227-0.56l0.188-0.44l1.639-3.86l0.236-0.555
		l0.443-0.179l3.887-1.572l0.559-0.226l0.441,0.188l3.861,1.637l0.556,0.236l0.181,0.443l1.57,3.888l0.227,0.56L31.707,25.5z"/>
	<path stroke="#ddddff" d="M29.218,21.49l-0.184-0.455l-0.546-0.231L25.5,19.538l-0.452-0.192L24.5,19.567l-3.009,1.216l-0.454,0.184l-0.23,0.545
		l-1.27,2.988l-0.191,0.452l0.221,0.548l1.219,3.009l0.185,0.457l0.544,0.229l2.986,1.267l0.452,0.192l0.548-0.221l3.011-1.217
		l0.454-0.183l0.23-0.545l1.27-2.989l0.191-0.451L30.436,24.5L29.218,21.49z M29.379,25.5l-0.945,2.227l-0.227,0.534l-0.464,0.188
		L25.5,29.355l-0.538,0.217L24.5,29.376l-2.225-0.942l-0.534-0.228l-0.188-0.465L20.646,25.5l-0.22-0.54l0.195-0.46l0.944-2.226
		l0.228-0.536l0.464-0.188l2.242-0.905l0.538-0.217l0.462,0.196l2.227,0.944l0.537,0.227l0.188,0.463l0.904,2.242l0.219,0.539
		L29.379,25.5z"/>
</g>
</svg>
