<?xml version="1.0" encoding="utf-8"?>
<!-- Generator: Adobe Illustrator 16.0.4, SVG Export Plug-In . SVG Version: 6.00 Build 0)  -->
<!DOCTYPE svg PUBLIC "-//W3C//DTD SVG 1.1//EN" "http://www.w3.org/Graphics/SVG/1.1/DTD/svg11.dtd">
<svg version="1.1" id="Layer_1" xmlns="http://www.w3.org/2000/svg" xmlns:xlink="http://www.w3.org/1999/xlink" x="0px" y="0px"
	 width="50px" height="50px" viewBox="0 0 50 50" enable-background="new 0 0 50 50" xml:space="preserve">
<path stroke="#ddddff" d="M16.521,30.597l2.886-0.001V31.1v0.003l-0.002,2.378c0,0.276-0.225,0.5-0.5,0.5c-0.276,0-0.5-0.224-0.5-0.5l0.001-1.199
	l-3.779,3.683c-0.097,0.095-0.223,0.142-0.349,0.142c-0.13,0-0.261-0.05-0.358-0.15c-0.192-0.198-0.188-0.516,0.01-0.707
	l3.748-3.652h-1.154c-0.276,0-0.5-0.224-0.5-0.5C16.021,30.82,16.244,30.597,16.521,30.597z M17.721,18.404h-1.202
	c-0.275,0-0.5,0.224-0.5,0.5c0,0.276,0.225,0.5,0.5,0.5l2.886-0.001v-2.884c0-0.276-0.225-0.5-0.5-0.5c-0.276,0-0.5,0.224-0.5,0.5
	v1.153l-3.78-3.639c-0.197-0.19-0.514-0.185-0.707,0.014c-0.191,0.199-0.186,0.516,0.014,0.707L17.721,18.404z M33.981,18.903
	c0-0.276-0.225-0.5-0.5-0.5h-1.202l3.791-3.649c0.198-0.191,0.205-0.508,0.014-0.707c-0.192-0.199-0.509-0.204-0.707-0.014
	l-3.78,3.639v-1.154c0-0.276-0.224-0.5-0.5-0.5c-0.275,0-0.5,0.224-0.5,0.5v2.886l2.886-0.001
	C33.758,19.403,33.981,19.179,33.981,18.903z M29.647,24.5c0.019,0.167,0.051,0.329,0.051,0.5s-0.032,0.333-0.051,0.5
	c-0.235,2.186-1.961,3.91-4.146,4.146c-0.166,0.019-0.329,0.052-0.5,0.052s-0.334-0.033-0.5-0.052
	c-2.186-0.234-3.91-1.96-4.146-4.146c-0.019-0.167-0.051-0.329-0.051-0.5s0.032-0.333,0.051-0.5c0.235-2.186,1.961-3.91,4.146-4.146
	c0.166-0.018,0.329-0.051,0.5-0.051s0.334,0.033,0.5,0.051C27.687,20.59,29.411,22.314,29.647,24.5z M28.697,25
	c0-0.171-0.028-0.335-0.052-0.5c-0.224-1.635-1.511-2.921-3.146-3.146c-0.165-0.023-0.329-0.051-0.5-0.051s-0.335,0.028-0.5,0.051
	c-1.635,0.224-2.922,1.51-3.146,3.146c-0.022,0.165-0.052,0.329-0.052,0.5s0.028,0.335,0.052,0.5
	c0.224,1.635,1.511,2.921,3.146,3.146c0.165,0.023,0.329,0.052,0.5,0.052s0.335-0.028,0.5-0.052c1.635-0.224,2.922-1.51,3.146-3.146
	C28.669,25.335,28.697,25.171,28.697,25z M40.001,25.5h-1.247l1.601,1.598c0.195,0.195,0.195,0.512,0,0.708
	c-0.098,0.098-0.226,0.146-0.354,0.146s-0.256-0.05-0.354-0.146L37.339,25.5h-0.297c-0.091,0.481-0.322,0.927-0.678,1.281
	c-0.466,0.466-1.086,0.723-1.746,0.723c-0.659,0-1.279-0.257-1.746-0.723c-0.354-0.354-0.586-0.799-0.678-1.281h-0.281
	c-0.246,3.426-2.986,6.166-6.412,6.412v0.347c0.463,0.09,0.9,0.305,1.243,0.648c0.467,0.466,0.724,1.086,0.724,1.746
	c-0.001,0.66-0.258,1.28-0.724,1.746c-0.345,0.346-0.775,0.574-1.243,0.67v0.269l2.307,2.309c0.195,0.195,0.195,0.513,0,0.707
	c-0.098,0.099-0.226,0.146-0.354,0.146s-0.256-0.049-0.354-0.146l-1.6-1.601V40c0,0.275-0.224,0.5-0.5,0.5s-0.5-0.225-0.5-0.5
	v-1.247l-1.6,1.601c-0.195,0.195-0.513,0.195-0.707,0c-0.195-0.194-0.195-0.512,0-0.707l2.307-2.309v-0.266
	c-0.471-0.097-0.902-0.326-1.249-0.673c-0.963-0.963-0.963-2.529,0-3.492c0.345-0.345,0.785-0.561,1.249-0.649v-0.346
	c-3.426-0.246-6.166-2.986-6.412-6.412h-0.284c-0.092,0.481-0.322,0.925-0.678,1.28c-0.466,0.466-1.086,0.723-1.746,0.723
	c-0.659,0-1.279-0.257-1.746-0.723c-0.354-0.354-0.585-0.799-0.678-1.279H12.66l-2.308,2.309c-0.098,0.099-0.226,0.146-0.354,0.146
	s-0.256-0.049-0.354-0.146c-0.194-0.194-0.194-0.512,0-0.707l1.601-1.602h-1.244c-0.276,0-0.5-0.224-0.5-0.5s0.224-0.5,0.5-0.5
	h1.246l-1.6-1.599c-0.195-0.195-0.195-0.512,0-0.707c0.194-0.195,0.512-0.195,0.706,0l2.308,2.305h0.312
	c0.102-0.456,0.324-0.875,0.662-1.213c0.934-0.931,2.559-0.933,3.492,0c0.337,0.338,0.562,0.757,0.661,1.213h0.301
	c0.246-3.426,2.986-6.166,6.412-6.412v-0.255c-0.471-0.096-0.902-0.326-1.249-0.672c-0.963-0.963-0.963-2.53,0-3.493
	c0.345-0.345,0.785-0.56,1.249-0.65v-0.355l-2.309-2.309c-0.195-0.195-0.195-0.512,0-0.707c0.194-0.195,0.512-0.195,0.707,0
	l1.602,1.601V10c0-0.276,0.224-0.5,0.5-0.5s0.5,0.224,0.5,0.5v1.247l1.598-1.6c0.195-0.196,0.513-0.195,0.707-0.001
	c0.195,0.195,0.195,0.512,0,0.707l-2.305,2.309v0.357c0.463,0.09,0.9,0.305,1.243,0.648c0.467,0.466,0.724,1.086,0.724,1.747
	c-0.001,0.66-0.258,1.28-0.724,1.746c-0.345,0.345-0.775,0.574-1.243,0.67v0.257c3.426,0.246,6.166,2.986,6.412,6.412h0.298
	c0.1-0.455,0.323-0.875,0.661-1.212c0.933-0.931,2.558-0.933,3.492,0c0.337,0.337,0.561,0.756,0.661,1.211h0.312l2.31-2.309
	c0.194-0.195,0.512-0.195,0.706,0c0.195,0.195,0.195,0.512,0,0.707L38.753,24.5h1.248c0.276,0,0.5,0.224,0.5,0.5
	S40.277,25.5,40.001,25.5z M16.851,25.033c0-0.186-0.036-0.365-0.103-0.533c-0.073-0.187-0.182-0.36-0.328-0.506
	c-0.277-0.277-0.646-0.43-1.039-0.43c-0.393,0-0.762,0.153-1.039,0.43c-0.146,0.146-0.255,0.319-0.328,0.506
	c-0.064,0.168-0.103,0.348-0.103,0.533c0,0.162,0.032,0.318,0.082,0.467c0.071,0.212,0.186,0.409,0.349,0.572
	c0.556,0.555,1.523,0.555,2.078,0c0.163-0.163,0.277-0.36,0.349-0.572C16.818,25.351,16.851,25.195,16.851,25.033z M24.501,16.776
	c0.322,0.111,0.678,0.111,1-0.001c0.198-0.068,0.384-0.17,0.536-0.322c0.277-0.277,0.431-0.646,0.431-1.039s-0.152-0.762-0.431-1.04
	c-0.153-0.154-0.338-0.265-0.536-0.337c-0.159-0.058-0.328-0.093-0.503-0.093c-0.173,0-0.339,0.034-0.497,0.091
	c-0.201,0.072-0.387,0.184-0.542,0.339c-0.573,0.573-0.573,1.505,0,2.079C24.113,16.607,24.301,16.708,24.501,16.776z
	 M25.501,33.276c-0.159-0.058-0.328-0.093-0.503-0.093c-0.173,0-0.339,0.035-0.497,0.091c-0.201,0.072-0.387,0.185-0.542,0.34
	c-0.573,0.572-0.573,1.505,0,2.078c0.154,0.154,0.342,0.256,0.542,0.323c0.322,0.111,0.678,0.111,1-0.001
	c0.198-0.069,0.384-0.17,0.536-0.322c0.277-0.276,0.431-0.646,0.431-1.039c0-0.393-0.152-0.762-0.431-1.039
	C25.884,33.46,25.699,33.35,25.501,33.276z M30.938,25c0-0.169-0.012-0.335-0.024-0.5c-0.241-2.875-2.537-5.171-5.412-5.412
	c-0.165-0.014-0.331-0.025-0.5-0.025s-0.335,0.012-0.5,0.025c-2.875,0.241-5.171,2.537-5.412,5.412
	c-0.014,0.165-0.024,0.331-0.024,0.5s0.012,0.335,0.024,0.5c0.241,2.875,2.537,5.171,5.412,5.412c0.165,0.014,0.331,0.024,0.5,0.024
	s0.335-0.012,0.5-0.024c2.875-0.241,5.171-2.537,5.412-5.412C30.927,25.335,30.938,25.169,30.938,25z M36.088,25.035
	c0-0.186-0.037-0.366-0.103-0.535c-0.073-0.187-0.184-0.358-0.328-0.504c-0.277-0.277-0.646-0.43-1.039-0.43
	c-0.394,0-0.762,0.153-1.039,0.43c-0.146,0.146-0.255,0.318-0.328,0.504c-0.065,0.168-0.103,0.349-0.103,0.535
	c0,0.162,0.031,0.317,0.081,0.465c0.071,0.213,0.187,0.41,0.35,0.574c0.555,0.555,1.522,0.555,2.078,0
	c0.163-0.164,0.276-0.361,0.349-0.574C36.056,25.352,36.088,25.196,36.088,25.035z M32.325,31.596h1.158c0.275,0,0.5-0.224,0.5-0.5
	s-0.225-0.5-0.5-0.5l-2.888,0.001v0.506v2.377c0,0.276,0.225,0.5,0.5,0.5c0.276,0,0.5-0.224,0.5-0.5v-1.198l3.78,3.683
	c0.097,0.095,0.223,0.142,0.349,0.142c0.13,0,0.261-0.05,0.358-0.15c0.192-0.198,0.188-0.516-0.01-0.707L32.325,31.596z"/>
</svg>
