<?xml version="1.0" encoding="utf-8"?>
<!-- Generator: Adobe Illustrator 16.0.4, SVG Export Plug-In . SVG Version: 6.00 Build 0)  -->
<!DOCTYPE svg PUBLIC "-//W3C//DTD SVG 1.1//EN" "http://www.w3.org/Graphics/SVG/1.1/DTD/svg11.dtd">
<svg version="1.1" id="Layer_1" xmlns="http://www.w3.org/2000/svg" xmlns:xlink="http://www.w3.org/1999/xlink" x="0px" y="0px"
	 width="50px" height="50px" viewBox="0 0 50 50" enable-background="new 0 0 50 50" xml:space="preserve">
<path stroke="#ddddff" d="M42.395,24.501h-3.236l1.094-1.896c0.139-0.238,0.057-0.545-0.184-0.684c-0.24-0.137-0.545-0.056-0.682,0.184l-1.375,2.383
	l-0.945-1.639c-0.09-0.154-0.254-0.25-0.434-0.25h-2.193c-0.18,0-0.344,0.096-0.434,0.25l-0.954,1.652h-3.348l2.808-3.838
	l-4.727,0.514l1.674-2.898h1.906c0.179,0,0.344-0.096,0.433-0.25l1.099-1.901c0.088-0.153,0.088-0.347,0-0.5l-0.946-1.638
	l2.75,0.003l0,0c0.276,0,0.5-0.224,0.5-0.5c0-0.275-0.224-0.5-0.5-0.5l-2.188-0.003l1.618-2.803
	c0.138-0.238,0.056-0.545-0.183-0.683c-0.24-0.142-0.545-0.058-0.684,0.183l-1.617,2.803l-1.095-1.896
	c-0.139-0.237-0.444-0.321-0.683-0.183c-0.239,0.138-0.321,0.443-0.184,0.683l1.375,2.384h-1.892c-0.179,0-0.344,0.096-0.433,0.25
	l-1.098,1.899c-0.09,0.153-0.09,0.347,0,0.5l0.953,1.653l-1.673,2.897L25,16.327l-1.919,4.351l-1.675-2.901l0.954-1.646
	c0.09-0.154,0.09-0.347,0-0.501l-1.1-1.901c-0.089-0.154-0.254-0.25-0.433-0.25l-1.886-0.002l1.373-2.382
	c0.138-0.239,0.056-0.545-0.184-0.684c-0.239-0.138-0.545-0.056-0.683,0.184l-1.094,1.898l-1.62-2.806
	c-0.139-0.238-0.445-0.322-0.683-0.183c-0.239,0.138-0.321,0.442-0.183,0.683l1.618,2.803H15.3c-0.276,0-0.5,0.225-0.5,0.5
	c0,0.277,0.224,0.5,0.5,0.5h2.747l-0.944,1.638c-0.089,0.155-0.089,0.347,0,0.5l1.099,1.901c0.089,0.154,0.254,0.25,0.433,0.25l0,0
	l1.905-0.002l1.675,2.902l-4.726-0.514l2.807,3.836h-3.35l-0.953-1.65c-0.089-0.154-0.254-0.25-0.433-0.25h-2.194
	c-0.179,0-0.344,0.096-0.433,0.25l-0.945,1.639l-1.375-2.385c-0.139-0.238-0.445-0.319-0.683-0.184
	c-0.239,0.139-0.321,0.443-0.183,0.684l1.093,1.896H7.605c-0.276,0-0.5,0.225-0.5,0.5s0.224,0.5,0.5,0.5h3.237l-1.095,1.896
	c-0.138,0.238-0.056,0.545,0.183,0.683c0.079,0.046,0.165,0.067,0.25,0.067c0.173,0,0.341-0.09,0.434-0.25l1.375-2.383l0.943,1.637
	c0.089,0.154,0.254,0.25,0.433,0.25l2.195,0.002l0,0c0.179,0,0.344-0.096,0.433-0.25l0.954-1.652h3.351l-2.809,3.838l4.727-0.514
	l-1.674,2.898l-1.909,0.002c-0.178,0-0.343,0.096-0.433,0.25l-1.098,1.899c-0.089,0.153-0.089,0.345,0,0.5l0.944,1.638h-2.748
	c-0.276,0-0.5,0.223-0.5,0.5c0,0.275,0.224,0.5,0.5,0.5h2.189l-1.618,2.803c-0.138,0.238-0.056,0.545,0.183,0.683
	c0.079,0.046,0.165,0.067,0.25,0.067c0.173,0,0.341-0.09,0.434-0.25l1.619-2.806l1.096,1.896c0.093,0.159,0.261,0.25,0.434,0.25
	c0.085,0,0.171-0.021,0.25-0.067c0.239-0.138,0.321-0.443,0.183-0.683l-1.376-2.382l1.888,0.002l0,0c0.179,0,0.344-0.096,0.433-0.25
	l1.096-1.904c0.089-0.154,0.089-0.346,0-0.499l-0.952-1.647l1.675-2.901l1.919,4.352l1.919-4.35l1.674,2.899l-0.953,1.646
	c-0.091,0.154-0.091,0.346,0,0.501l1.098,1.903c0.09,0.154,0.255,0.25,0.434,0.25h1.889l-1.373,2.379
	c-0.138,0.24-0.056,0.546,0.184,0.684c0.079,0.046,0.165,0.066,0.25,0.066c0.173,0,0.341-0.09,0.434-0.25l1.094-1.895l1.619,2.805
	c0.094,0.16,0.262,0.25,0.435,0.25c0.085,0,0.171-0.021,0.25-0.066c0.239-0.139,0.321-0.443,0.183-0.684l-1.621-2.807h2.191
	c0.275,0,0.5-0.224,0.5-0.5c0-0.275-0.225-0.5-0.5-0.5h-2.748l0.941-1.635c0.09-0.155,0.09-0.346,0-0.5l-1.098-1.902
	c-0.089-0.154-0.254-0.25-0.433-0.25l0,0l-1.905,0.002l-1.676-2.902l4.729,0.515l-2.812-3.835h3.35l0.952,1.648
	c0.089,0.153,0.254,0.25,0.433,0.25l2.197,0.002l0,0c0.18,0,0.344-0.096,0.434-0.25l0.943-1.639l1.377,2.385
	c0.092,0.16,0.26,0.25,0.434,0.25c0.085,0,0.171-0.021,0.25-0.067c0.238-0.138,0.32-0.442,0.183-0.683l-1.097-1.896h3.236
	c0.276,0,0.5-0.225,0.5-0.5S42.671,24.501,42.395,24.501z M30.5,14.476h0.577l0.289,0.502l0.521,0.898l-0.81,1.402h-1.04h-0.578
	l-0.288-0.5l-0.521-0.902l0.809-1.4H30.5z M18.923,17.278l-0.81-1.402l0.52-0.902l0.289-0.5l0.578,0.002h1.04l0.811,1.402
	l-0.521,0.898l-0.29,0.5h-0.577L18.923,17.278z M13.653,26.401l-0.519-0.9l-0.288-0.5l0.289-0.5l0.52-0.9h1.617l0.52,0.9l0.289,0.5
	l-0.289,0.5l-0.521,0.902L13.653,26.401z M19.5,35.526h-0.579l-0.288-0.498l-0.521-0.902l0.809-1.4h1.042l0.576-0.002l0.29,0.502
	l0.519,0.898l-0.808,1.404L19.5,35.526z M31.076,32.724l0.809,1.402l-0.52,0.9l-0.289,0.502H30.5h-1.041l-0.811-1.404l0.521-0.898
	l0.289-0.5h0.577L31.076,32.724z M26.551,27.685L26.3,28.253L25,31.196l-1.299-2.946l-0.25-0.565l-0.617,0.066l-3.2,0.348
	l1.902-2.598l0.365-0.499l-0.366-0.501l-1.901-2.598l3.2,0.348l0.615,0.066l0.25-0.567l1.3-2.946l1.299,2.946l0.25,0.567
	l0.615-0.066l3.2-0.348l-1.898,2.598l-0.367,0.501l0.365,0.499l1.902,2.598l-3.2-0.348L26.551,27.685z M37.154,24.999l-0.289,0.502
	l-0.52,0.9l-1.619-0.002l-0.519-0.898l-0.289-0.5l0.289-0.5l0.521-0.902h1.617l0.521,0.902L37.154,24.999z"/>
</svg>
