<?xml version="1.0" encoding="utf-8"?>
<!-- Generator: Adobe Illustrator 16.0.4, SVG Export Plug-In . SVG Version: 6.00 Build 0)  -->
<!DOCTYPE svg PUBLIC "-//W3C//DTD SVG 1.1//EN" "http://www.w3.org/Graphics/SVG/1.1/DTD/svg11.dtd">
<svg version="1.1" id="Layer_1" xmlns="http://www.w3.org/2000/svg" xmlns:xlink="http://www.w3.org/1999/xlink" x="0px" y="0px"
	 width="50px" height="50px" viewBox="0 0 50 50" enable-background="new 0 0 50 50" xml:space="preserve">
<path stroke="#ddddff" d="M40.438,33.049l-2.678-1.545l1.465-0.848c0.357-0.207,0.48-0.666,0.273-1.023c-0.208-0.359-0.667-0.48-1.024-0.273
	l-2.213,1.277l-1.82-1.051l4.354-2.514c0.358-0.207,0.481-0.664,0.274-1.023c-0.208-0.357-0.667-0.482-1.024-0.273l-5.105,2.945
	l-1.189-0.688c0.417-0.926,0.656-1.951,0.656-3.032c0-1.082-0.239-2.106-0.657-3.034l1.189-0.687l5.105,2.947
	c0.118,0.068,0.247,0.102,0.375,0.102c0.26,0,0.512-0.135,0.65-0.375c0.207-0.358,0.084-0.817-0.274-1.024l-4.356-2.517l1.822-1.051
	l2.215,1.279c0.118,0.068,0.247,0.102,0.375,0.102c0.259,0,0.511-0.135,0.649-0.375c0.207-0.358,0.084-0.817-0.273-1.024
	l-1.466-0.847l2.677-1.547c0.358-0.207,0.48-0.666,0.273-1.023s-0.667-0.48-1.023-0.273l-2.676,1.545V15.51
	c0-0.414-0.337-0.75-0.75-0.75c-0.414,0-0.75,0.336-0.75,0.75l0.001,2.556l-1.82,1.051l0.001-5.026c0-0.414-0.335-0.75-0.75-0.75
	c-0.414,0-0.75,0.336-0.75,0.75l-0.001,5.894l-1.194,0.688c-1.209-1.67-3.091-2.822-5.249-3.04v-1.369l5.104-2.947
	c0.358-0.207,0.48-0.666,0.273-1.024c-0.207-0.359-0.666-0.481-1.023-0.274l-4.354,2.516v-2.101l2.214-1.278
	c0.359-0.207,0.481-0.666,0.274-1.023c-0.208-0.357-0.667-0.482-1.024-0.273l-1.464,0.844V7.609c0-0.414-0.336-0.75-0.75-0.75
	s-0.75,0.336-0.75,0.75v3.092l-1.463-0.846c-0.359-0.207-0.817-0.085-1.025,0.273c-0.207,0.357-0.084,0.816,0.274,1.023l2.214,1.279
	v2.1l-4.354-2.514c-0.357-0.207-0.817-0.085-1.024,0.274c-0.207,0.358-0.084,0.817,0.274,1.024l5.104,2.946v1.37
	c-2.158,0.218-4.039,1.371-5.248,3.041l-1.196-0.689v-5.895c0-0.414-0.336-0.75-0.75-0.75s-0.75,0.336-0.75,0.75v5.027l-1.818-1.051
	l-0.001-2.558c0-0.414-0.336-0.75-0.75-0.75c-0.414,0-0.75,0.336-0.75,0.75v1.69l-2.677-1.545c-0.358-0.207-0.817-0.084-1.024,0.273
	s-0.084,0.816,0.274,1.023l2.677,1.547l-1.464,0.845c-0.359,0.207-0.481,0.666-0.274,1.024c0.139,0.24,0.391,0.375,0.65,0.375
	c0.127,0,0.256-0.032,0.375-0.102l2.213-1.277l1.82,1.051l-4.355,2.515c-0.359,0.207-0.481,0.666-0.274,1.024
	c0.139,0.24,0.391,0.375,0.65,0.375c0.127,0,0.256-0.032,0.375-0.102l5.104-2.947l1.193,0.688c-0.418,0.927-0.656,1.952-0.656,3.033
	c0,1.082,0.238,2.103,0.656,3.031l-1.191,0.688l-5.107-2.943c-0.358-0.207-0.817-0.084-1.024,0.273
	c-0.207,0.359-0.083,0.818,0.275,1.025l4.355,2.512l-1.821,1.053l-2.212-1.279c-0.358-0.205-0.817-0.084-1.025,0.273
	c-0.207,0.359-0.084,0.818,0.274,1.025l1.464,0.846l-2.676,1.545c-0.359,0.207-0.481,0.666-0.274,1.023
	c0.139,0.24,0.391,0.375,0.65,0.375c0.127,0,0.256-0.031,0.375-0.102l2.677-1.545l0.001,1.691c0,0.414,0.336,0.75,0.75,0.75l0,0
	c0.414,0,0.75-0.336,0.75-0.75l-0.002-2.559l1.822-1.051l-0.001,5.029c0,0.414,0.335,0.75,0.75,0.75c0.414,0,0.75-0.336,0.75-0.75
	l0.002-5.896l1.193-0.688c1.208,1.67,3.09,2.824,5.249,3.041v1.369l-5.103,2.947c-0.359,0.207-0.481,0.666-0.274,1.023
	c0.207,0.359,0.666,0.482,1.024,0.275l4.353-2.516v2.102l-2.214,1.277c-0.359,0.207-0.481,0.666-0.274,1.025
	c0.208,0.357,0.666,0.482,1.024,0.273l1.464-0.846v3.09c0,0.414,0.336,0.75,0.75,0.75s0.75-0.336,0.75-0.75v-3.092l1.467,0.848
	c0.117,0.068,0.246,0.102,0.375,0.102c0.259,0,0.511-0.135,0.649-0.375c0.207-0.359,0.084-0.818-0.273-1.025l-2.217-1.279v-2.1
	l4.355,2.516c0.118,0.066,0.247,0.1,0.375,0.1c0.259,0,0.511-0.135,0.649-0.375c0.207-0.357,0.085-0.816-0.273-1.023l-5.105-2.947
	v-1.369c2.159-0.217,4.041-1.369,5.25-3.041l1.194,0.689v5.895c0,0.414,0.336,0.75,0.75,0.75s0.75-0.336,0.75-0.75v-5.029
	l1.819,1.051l0.001,2.557c0,0.414,0.336,0.75,0.75,0.75s0.75-0.336,0.75-0.75v-1.689l2.677,1.547
	c0.118,0.068,0.247,0.102,0.375,0.102c0.259,0,0.511-0.135,0.65-0.375C40.919,33.715,40.796,33.256,40.438,33.049z M25.747,30.857
	c-0.246,0.031-0.495,0.053-0.75,0.053s-0.504-0.021-0.75-0.053c-1.604-0.205-3.006-1.055-3.943-2.281
	c-0.303-0.396-0.561-0.828-0.756-1.295c-0.295-0.701-0.458-1.473-0.458-2.279c0-0.81,0.164-1.579,0.459-2.281
	c0.196-0.466,0.454-0.897,0.757-1.295c0.937-1.228,2.338-2.075,3.942-2.28c0.247-0.031,0.496-0.053,0.75-0.053
	s0.503,0.021,0.75,0.053c1.604,0.205,3.006,1.055,3.943,2.279c0.303,0.396,0.562,0.829,0.757,1.295
	c0.295,0.702,0.459,1.475,0.459,2.282c0,0.808-0.164,1.578-0.458,2.281c-0.196,0.465-0.454,0.896-0.757,1.295
	C28.754,29.803,27.352,30.652,25.747,30.857z"/>
</svg>
