<?xml version="1.0" encoding="utf-8"?>
<!-- Generator: Adobe Illustrator 16.0.4, SVG Export Plug-In . SVG Version: 6.00 Build 0)  -->
<!DOCTYPE svg PUBLIC "-//W3C//DTD SVG 1.1//EN" "http://www.w3.org/Graphics/SVG/1.1/DTD/svg11.dtd">
<svg version="1.1" id="Layer_1" xmlns="http://www.w3.org/2000/svg" xmlns:xlink="http://www.w3.org/1999/xlink" x="0px" y="0px"
	 width="50px" height="50px" viewBox="0 0 50 50" enable-background="new 0 0 50 50" xml:space="preserve">
<path stroke="#ddddff" d="M39.332,22.911c-0.195-0.195-0.512-0.195-0.707,0c-0.195,0.194-0.195,0.512,0,0.707l0.73,0.731h-1.84l-2.076-2.076
	c-0.195-0.194-0.512-0.194-0.707,0c-0.195,0.195-0.195,0.513,0,0.707l1.369,1.369h-2.027l-3.936-3.937l5.816-5.817
	c0.195-0.195,0.195-0.512,0-0.707s-0.512-0.195-0.707,0l-5.816,5.817l-3.938-3.937v-2.025l1.52,1.52
	c0.195,0.195,0.512,0.195,0.707,0s0.195-0.512,0-0.707l-2.227-2.227v-1.841l0.882,0.882c0.099,0.098,0.226,0.146,0.354,0.146
	c0.127,0,0.256-0.05,0.354-0.146c0.195-0.195,0.195-0.512,0-0.707l-2.089-2.089l-2.088,2.089c-0.195,0.195-0.195,0.512,0,0.707
	c0.194,0.195,0.512,0.195,0.707,0l0.881-0.882v1.842l-2.224,2.226c-0.195,0.195-0.195,0.512,0,0.707
	c0.098,0.098,0.226,0.146,0.354,0.146s0.256-0.049,0.354-0.146l1.518-1.519v2.024l-3.936,3.936l-5.816-5.816
	c-0.195-0.195-0.512-0.195-0.707,0s-0.195,0.512,0,0.707l5.816,5.816l-3.938,3.938h-2.023l1.369-1.369
	c0.194-0.194,0.194-0.512,0-0.707c-0.195-0.194-0.513-0.194-0.707,0l-2.076,2.076h-1.84l0.729-0.73c0.194-0.195,0.194-0.512,0-0.707
	c-0.195-0.195-0.513-0.195-0.707,0l-2.089,2.089l2.089,2.088c0.098,0.099,0.226,0.146,0.354,0.146c0.127,0,0.256-0.049,0.354-0.146
	c0.195-0.194,0.195-0.512,0-0.707l-1.033-1.032h1.842l2.377,2.377c0.098,0.098,0.227,0.146,0.354,0.146s0.256-0.049,0.354-0.146
	c0.194-0.195,0.194-0.513,0-0.707l-1.672-1.67h2.326l3.938,3.938l-5.816,5.816c-0.195,0.194-0.195,0.512,0,0.707
	c0.098,0.098,0.227,0.146,0.354,0.146c0.129,0,0.256-0.049,0.354-0.146l5.815-5.816l3.937,3.936v2.324l-1.517-1.518
	c-0.195-0.194-0.512-0.194-0.707,0c-0.195,0.195-0.195,0.513,0,0.707l2.224,2.225v1.841l-0.88-0.879
	c-0.195-0.194-0.512-0.194-0.707,0c-0.195,0.195-0.195,0.513,0,0.707l2.09,2.088l2.088-2.088c0.195-0.194,0.195-0.512,0-0.707
	c-0.195-0.194-0.512-0.194-0.707,0l-0.884,0.884v-1.841l2.228-2.229c0.194-0.194,0.194-0.512,0-0.707
	c-0.195-0.194-0.513-0.194-0.707,0l-1.521,1.521V33.93l3.937-3.938l5.817,5.816c0.099,0.099,0.226,0.146,0.354,0.146
	c0.127,0,0.256-0.049,0.354-0.146c0.195-0.194,0.195-0.512,0-0.707l-5.816-5.816l3.936-3.936h2.327l-1.669,1.668
	c-0.195,0.195-0.195,0.513,0,0.707c0.098,0.099,0.226,0.146,0.354,0.146c0.129,0,0.256-0.049,0.354-0.146l2.376-2.375h1.84
	l-1.03,1.03c-0.194,0.195-0.194,0.513,0,0.707c0.099,0.099,0.226,0.146,0.354,0.146c0.128,0,0.256-0.049,0.354-0.146l2.088-2.089
	L39.332,22.911z M32.66,24.35h-6.457l3.229-3.229L32.66,24.35z M28.725,20.414l-3.229,3.229v-6.459L28.725,20.414z M24.495,17.186
	v6.457l-3.229-3.229L24.495,17.186z M20.559,21.12l3.229,3.229h-6.459L20.559,21.12z M17.33,25.35h6.459l-3.229,3.229L17.33,25.35z
	 M21.268,29.286l3.229-3.229v6.457L21.268,29.286z M25.495,32.516v-6.459l3.229,3.229L25.495,32.516z M29.432,28.578l-3.229-3.229
	h6.457L29.432,28.578z"/>
</svg>
