<?xml version="1.0" encoding="utf-8"?>
<!-- Generator: Adobe Illustrator 16.0.4, SVG Export Plug-In . SVG Version: 6.00 Build 0)  -->
<!DOCTYPE svg PUBLIC "-//W3C//DTD SVG 1.1//EN" "http://www.w3.org/Graphics/SVG/1.1/DTD/svg11.dtd">
<svg version="1.1" id="Layer_1" xmlns="http://www.w3.org/2000/svg" xmlns:xlink="http://www.w3.org/1999/xlink" x="0px" y="0px"
	 width="50px" height="50px" viewBox="0 0 50 50" enable-background="new 0 0 50 50" xml:space="preserve">
<path stroke="#ddddff" d="M40.572,24.25h-8.856c-0.125-1.123-0.524-2.165-1.133-3.055h5.435c0.416,0,0.75-0.336,0.75-0.75s-0.336-0.75-0.75-0.75
	h-4.651l1.643-1.643h3.259c0.414,0,0.75-0.336,0.75-0.75s-0.336-0.75-0.75-0.75h-1.759l1.63-1.63c0.293-0.293,0.293-0.769,0-1.062
	s-0.768-0.293-1.061,0l-1.807,1.808v-2.112c0-0.414-0.336-0.75-0.75-0.75s-0.75,0.336-0.75,0.75v3.612l-1.467,1.466v-4.652
	c0-0.414-0.336-0.75-0.75-0.75s-0.75,0.336-0.75,0.75v5.437c-0.889-0.608-1.93-1.008-3.053-1.133V9.43c0-0.414-0.336-0.75-0.75-0.75
	s-0.75,0.336-0.75,0.75v8.856c-1.054,0.116-2.032,0.479-2.884,1.024v-4.914c0-0.414-0.336-0.75-0.75-0.75s-0.75,0.336-0.75,0.75
	v4.41l-1.636-1.638v-3.437c0-0.414-0.336-0.75-0.75-0.75s-0.75,0.336-0.75,0.75v1.937l-1.807-1.808
	c-0.293-0.293-0.768-0.293-1.061,0c-0.293,0.293-0.293,0.769,0,1.062l1.806,1.806h-1.933c-0.414,0-0.75,0.336-0.75,0.75
	s0.336,0.75,0.75,0.75h3.433l1.638,1.639h-4.411c-0.414,0-0.75,0.336-0.75,0.75s0.336,0.75,0.75,0.75h4.915
	c-0.546,0.852-0.908,1.83-1.025,2.883H9.431c-0.414,0-0.75,0.336-0.75,0.75s0.336,0.75,0.75,0.75h8.856
	c0.125,1.123,0.524,2.164,1.132,3.053l-5.435,0.002c-0.415,0-0.75,0.336-0.75,0.75c0,0.413,0.336,0.75,0.75,0.75l4.653-0.002
	L17.17,31.77h-3.611c-0.414,0-0.75,0.336-0.75,0.75s0.336,0.75,0.75,0.75h2.111l-1.807,1.808c-0.293,0.293-0.293,0.769,0,1.062
	c0.146,0.146,0.338,0.219,0.53,0.219s0.384-0.072,0.53-0.219l1.631-1.632v1.761c0,0.414,0.336,0.75,0.75,0.75
	c0.414,0,0.75-0.336,0.75-0.75v-3.261l1.642-1.642l-0.001,4.652c0,0.414,0.335,0.75,0.75,0.75c0.414,0,0.75-0.336,0.75-0.75v-5.436
	c0.889,0.607,1.93,1.007,3.053,1.132v8.856c0,0.414,0.336,0.75,0.75,0.75s0.75-0.336,0.75-0.75v-8.856
	c1.054-0.116,2.031-0.479,2.884-1.024v4.914c0,0.414,0.336,0.75,0.75,0.75s0.75-0.336,0.75-0.75v-4.41l1.813,1.814v3.436
	c0,0.414,0.337,0.75,0.75,0.75c0.414,0,0.75-0.336,0.75-0.75v-1.936l1.63,1.629c0.146,0.146,0.338,0.221,0.53,0.221
	c0.191,0,0.383-0.073,0.529-0.221c0.293-0.293,0.293-0.768,0-1.061l-1.629-1.629h1.934c0.414,0,0.75-0.336,0.75-0.75
	s-0.336-0.75-0.75-0.75h-3.434l-1.814-1.814h4.412c0.414,0,0.75-0.336,0.75-0.75s-0.336-0.75-0.75-0.75h-4.916
	c0.547-0.852,0.908-1.83,1.025-2.883h8.855c0.414,0,0.75-0.336,0.75-0.75S40.986,24.25,40.572,24.25z M29.197,28.136
	c-0.129,0.173-0.262,0.343-0.411,0.497c-0.05,0.053-0.101,0.104-0.152,0.152c-0.155,0.148-0.325,0.281-0.498,0.41
	c-0.706,0.529-1.544,0.875-2.46,0.994c-0.223,0.028-0.444,0.067-0.675,0.067s-0.453-0.039-0.676-0.067
	c-0.916-0.119-1.753-0.465-2.459-0.994c-0.403-0.303-0.759-0.657-1.061-1.061c-0.529-0.705-0.875-1.544-0.994-2.459
	c-0.029-0.224-0.068-0.445-0.068-0.677s0.039-0.453,0.068-0.677c0.12-0.915,0.465-1.754,0.994-2.459
	c0.129-0.172,0.262-0.342,0.411-0.497c0.05-0.052,0.1-0.103,0.152-0.152c0.155-0.147,0.326-0.28,0.498-0.409
	c0.706-0.529,1.544-0.875,2.46-0.994c0.223-0.029,0.444-0.068,0.675-0.068s0.453,0.039,0.676,0.068
	c0.916,0.119,1.753,0.465,2.459,0.994c0.403,0.301,0.759,0.656,1.062,1.059c0.529,0.707,0.875,1.545,0.994,2.46
	c0.028,0.224,0.067,0.444,0.067,0.677s-0.039,0.453-0.067,0.677C30.07,26.592,29.727,27.43,29.197,28.136z"/>
</svg>
