<?xml version="1.0" encoding="utf-8"?>
<!-- Generator: Adobe Illustrator 16.0.4, SVG Export Plug-In . SVG Version: 6.00 Build 0)  -->
<!DOCTYPE svg PUBLIC "-//W3C//DTD SVG 1.1//EN" "http://www.w3.org/Graphics/SVG/1.1/DTD/svg11.dtd">
<svg version="1.1" id="Layer_1" xmlns="http://www.w3.org/2000/svg" xmlns:xlink="http://www.w3.org/1999/xlink" x="0px" y="0px"
	 width="50px" height="50px" viewBox="0 0 50 50" enable-background="new 0 0 50 50" xml:space="preserve">
<path stroke="#ddddff" d="M40.314,33.266l-0.981-0.566v-2.467c0-0.18-0.095-0.344-0.25-0.434l-2.385-1.377c-0.154-0.09-0.346-0.09-0.5,0l-2.136,1.232
	l-1.612-0.93l5.729-1.533c0.267-0.072,0.425-0.347,0.354-0.612c-0.071-0.267-0.345-0.42-0.612-0.354l-6.693,1.793l-1.903-1.099
	L33.675,25l-4.353-1.919l1.908-1.101l6.688,1.793c0.043,0.011,0.087,0.017,0.13,0.017c0.222,0,0.423-0.147,0.482-0.37
	c0.071-0.268-0.087-0.541-0.354-0.613l-5.724-1.533l1.607-0.928l2.135,1.231c0.078,0.045,0.164,0.067,0.25,0.067
	s0.172-0.022,0.25-0.067l2.387-1.378c0.155-0.088,0.25-0.254,0.25-0.432l-0.002-2.466l0.983-0.567
	c0.238-0.138,0.32-0.442,0.183-0.683c-0.139-0.239-0.445-0.323-0.683-0.183l-0.983,0.566l-2.135-1.232c-0.154-0.09-0.345-0.09-0.5,0
	l-2.385,1.376c-0.155,0.089-0.25,0.254-0.25,0.433v2.469l-1.608,0.928l1.534-5.729c0.071-0.267-0.087-0.54-0.354-0.611
	c-0.264-0.064-0.541,0.088-0.611,0.354l-1.792,6.693l-1.905,1.1l0.514-4.729l-3.837,2.81v-2.198l4.898-4.897
	c0.194-0.195,0.194-0.513,0-0.707c-0.195-0.195-0.512-0.195-0.707,0l-4.191,4.19v-1.859l2.134-1.229
	c0.155-0.09,0.25-0.255,0.25-0.434v-2.757c0-0.178-0.095-0.344-0.25-0.432L25.5,8.738V7.604c0-0.276-0.224-0.5-0.5-0.5
	s-0.5,0.224-0.5,0.5v1.135l-2.135,1.232c-0.155,0.09-0.25,0.254-0.25,0.434v2.756c0,0.179,0.096,0.344,0.25,0.434l2.134,1.229v1.858
	l-4.191-4.189c-0.195-0.195-0.512-0.195-0.707,0s-0.195,0.512,0,0.707l4.898,4.896v2.199l-3.836-2.809l0.514,4.729l-1.906-1.1
	l-1.792-6.693c-0.071-0.268-0.344-0.42-0.612-0.354c-0.267,0.072-0.425,0.346-0.354,0.611l1.534,5.729l-1.61-0.931v-2.467
	c0-0.179-0.095-0.344-0.25-0.433l-2.383-1.376c-0.154-0.09-0.346-0.09-0.5,0l-2.135,1.232l-0.983-0.566
	c-0.239-0.141-0.545-0.057-0.683,0.183c-0.138,0.24-0.056,0.546,0.183,0.683l0.983,0.567l-0.002,2.466
	c0,0.178,0.095,0.344,0.25,0.433l2.385,1.377c0.077,0.045,0.164,0.067,0.25,0.067c0.086,0,0.173-0.022,0.25-0.067l2.135-1.231
	l1.609,0.928l-5.724,1.533c-0.267,0.072-0.425,0.346-0.354,0.613c0.06,0.223,0.262,0.37,0.482,0.37c0.043,0,0.086-0.006,0.13-0.017
	l6.689-1.793l1.908,1.102L16.323,25l4.353,1.919l-1.903,1.099l-6.694-1.793c-0.266-0.063-0.541,0.088-0.612,0.354
	c-0.071,0.267,0.087,0.54,0.354,0.612l5.728,1.533l-1.611,0.93L13.8,28.422c-0.154-0.088-0.345-0.089-0.5,0.001l-2.383,1.376
	c-0.155,0.09-0.25,0.254-0.25,0.434l-0.002,2.467l-0.98,0.566c-0.239,0.137-0.321,0.442-0.183,0.683
	c0.093,0.159,0.261,0.25,0.434,0.25c0.085,0,0.171-0.021,0.25-0.067l0.983-0.566l2.134,1.232c0.078,0.045,0.164,0.067,0.25,0.067
	c0.086,0,0.173-0.022,0.25-0.067l2.385-1.38c0.154-0.089,0.25-0.254,0.25-0.433v-2.463l1.608-0.93l-1.531,5.725
	c-0.071,0.267,0.087,0.541,0.354,0.611c0.043,0.012,0.087,0.018,0.13,0.018c0.221,0,0.423-0.147,0.482-0.371l1.79-6.688l1.906-1.102
	l-0.514,4.729l3.837-2.809v2.197l-4.898,4.898c-0.195,0.194-0.195,0.512,0,0.706c0.195,0.195,0.512,0.195,0.707,0l4.191-4.19v1.861
	l-2.134,1.229c-0.155,0.09-0.25,0.255-0.25,0.434v2.756c0,0.18,0.095,0.344,0.25,0.434l2.135,1.232v1.135c0,0.276,0.224,0.5,0.5,0.5
	s0.5-0.224,0.5-0.5v-1.135l2.136-1.232c0.154-0.09,0.25-0.254,0.25-0.434V36.84c0-0.179-0.097-0.344-0.25-0.434L25.5,35.177v-1.86
	l4.191,4.191c0.098,0.098,0.226,0.146,0.354,0.146s0.256-0.049,0.354-0.146c0.194-0.195,0.194-0.512,0-0.707L25.5,31.9v-2.196
	l3.836,2.808l-0.514-4.728l1.907,1.101l1.79,6.688c0.06,0.224,0.262,0.37,0.481,0.37c0.043,0,0.086-0.006,0.13-0.016
	c0.268-0.072,0.426-0.347,0.354-0.613l-1.531-5.724l1.609,0.929v2.463c0,0.18,0.095,0.345,0.25,0.434l2.385,1.38
	c0.078,0.045,0.164,0.067,0.25,0.067s0.173-0.022,0.25-0.067l2.132-1.233l0.983,0.567c0.079,0.046,0.165,0.067,0.25,0.067
	c0.173,0,0.341-0.09,0.434-0.25C40.637,33.708,40.555,33.402,40.314,33.266z M34.562,17.302l1.885-1.088l1.385,0.802l0.5,0.289
	v0.575l0.001,1.599l-1.887,1.09l-1.385-0.799l-0.5-0.289v-0.576L34.562,17.302L34.562,17.302z M15.437,19.479l-0.5,0.289
	l-1.385,0.801l-1.885-1.088l0.001-1.601v-0.575l0.5-0.289l1.385-0.802l1.883,1.088v1.601L15.437,19.479L15.437,19.479z
	 M15.438,32.695l-1.885,1.091l-1.385-0.802l-0.502-0.289v-0.574l0.001-1.602l1.883-1.088l1.387,0.801l0.5,0.287v0.578L15.438,32.695
	L15.438,32.695z M28.098,30.365L25.5,28.464L25,28.098l-0.5,0.366l-2.598,1.902l0.348-3.201l0.067-0.616l-0.566-0.25L18.805,25
	l2.947-1.299l0.567-0.25l-0.067-0.615l-0.348-3.201l2.597,1.901l0.5,0.366l0.5-0.366l2.599-1.902l-0.349,3.201l-0.066,0.616
	l0.565,0.25L31.197,25l-2.946,1.3l-0.567,0.25l0.066,0.614L28.098,30.365z M23.115,10.691L24.5,9.893L25,9.604l0.5,0.289
	l1.385,0.799v2.18L25.5,13.669L25,13.957l-0.5-0.288l-1.385-0.798V10.691z M26.885,39.309L25.5,40.107L25,40.396l-0.5-0.289
	l-1.385-0.799v-2.18l1.385-0.798l0.5-0.288l0.5,0.288l1.385,0.798V39.309z M36.448,33.785l-1.885-1.09v-1.598V30.52l0.499-0.287
	l1.386-0.801l1.885,1.088v1.602v0.574l-0.501,0.289L36.448,33.785z"/>
</svg>
