<?xml version="1.0" encoding="utf-8"?>
<!-- Generator: Adobe Illustrator 16.0.4, SVG Export Plug-In . SVG Version: 6.00 Build 0)  -->
<!DOCTYPE svg PUBLIC "-//W3C//DTD SVG 1.1//EN" "http://www.w3.org/Graphics/SVG/1.1/DTD/svg11.dtd">
<svg version="1.1" id="Layer_1" xmlns="http://www.w3.org/2000/svg" xmlns:xlink="http://www.w3.org/1999/xlink" x="0px" y="0px"
	 width="50px" height="50px" viewBox="0 0 50 50" enable-background="new 0 0 50 50" xml:space="preserve">
<path stroke="#ddddff" d="M28.177,37.878c0.294,0.293,0.294,0.768,0,1.061c-0.293,0.293-0.768,0.293-1.061,0l-2.117-2.116l-2.118,2.116
	c-0.146,0.146-0.338,0.221-0.53,0.221s-0.384-0.073-0.53-0.221c-0.293-0.293-0.293-0.768,0-1.061L25,34.7L28.177,37.878z M25,15.3
	l3.18-3.179c0.293-0.293,0.293-0.768,0-1.061c-0.294-0.293-0.769-0.293-1.062,0L25,13.178l-2.117-2.117
	c-0.293-0.293-0.768-0.293-1.061,0c-0.293,0.293-0.293,0.768,0,1.061L25,15.3z M12.123,21.57c-0.293-0.293-0.768-0.293-1.061,0
	c-0.293,0.293-0.293,0.768,0,1.061l2.119,2.118l-2.119,2.12c-0.293,0.293-0.293,0.768,0,1.061c0.146,0.146,0.338,0.22,0.53,0.22
	c0.192,0,0.384-0.072,0.53-0.22l3.179-3.18L12.123,21.57z M36.818,24.75l2.119-2.119c0.293-0.293,0.293-0.768,0-1.061
	s-0.768-0.293-1.061,0l-3.179,3.18l3.179,3.179c0.146,0.146,0.338,0.22,0.53,0.22s0.384-0.072,0.53-0.22
	c0.293-0.293,0.293-0.768,0-1.061L36.818,24.75z M37.105,32.001c0,0.415-0.336,0.75-0.75,0.75h-2.543l2.324,2.325
	c0.293,0.293,0.293,0.768,0,1.061c-0.146,0.146-0.338,0.22-0.529,0.22c-0.192,0-0.385-0.072-0.53-0.22l-2.326-2.326v2.545
	c0,0.414-0.336,0.75-0.75,0.75s-0.75-0.336-0.75-0.75v-4.045l-2.565-2.565l-2.631,2.63l3.168,3.167c0.293,0.293,0.293,0.768,0,1.061
	c-0.146,0.146-0.339,0.221-0.531,0.221c-0.191,0-0.383-0.073-0.529-0.221l-3.167-3.167l-3.166,3.167
	c-0.293,0.293-0.768,0.293-1.061,0s-0.293-0.768,0-1.061l3.172-3.173l-2.624-2.624l-2.566,2.565l-0.001,4.045
	c0,0.415-0.336,0.75-0.75,0.75c-0.415,0-0.75-0.336-0.75-0.75v-2.544l-2.325,2.325c-0.146,0.146-0.338,0.22-0.53,0.22
	s-0.384-0.072-0.53-0.22c-0.293-0.293-0.293-0.768,0-1.061l2.326-2.326h-2.545c-0.414,0-0.75-0.336-0.75-0.75s0.336-0.75,0.75-0.75
	h4.045l2.566-2.566l-2.624-2.624l-3.172,3.172c-0.146,0.146-0.338,0.221-0.53,0.221c-0.192,0-0.384-0.073-0.53-0.221
	c-0.293-0.293-0.293-0.768,0-1.061l3.166-3.167l-3.167-3.167c-0.293-0.293-0.293-0.768,0-1.061s0.768-0.293,1.061,0l3.167,3.167
	l2.63-2.63l-2.566-2.566l-4.045-0.001c-0.415,0-0.75-0.336-0.75-0.75c0-0.415,0.336-0.75,0.75-0.75h2.544l-2.325-2.325
	c-0.293-0.293-0.293-0.768,0-1.061s0.768-0.293,1.061,0l2.326,2.326v-2.545c0-0.414,0.336-0.75,0.75-0.75s0.75,0.336,0.75,0.75
	v4.045l2.566,2.566l2.624-2.624l-3.167-3.167c-0.293-0.293-0.293-0.768,0-1.061s0.768-0.293,1.061,0l3.167,3.167L28.17,13.4
	c0.293-0.293,0.768-0.293,1.061,0s0.293,0.768,0,1.061l-3.166,3.167l2.623,2.624l2.566-2.566l0.001-4.045
	c0-0.415,0.336-0.75,0.75-0.75c0.415,0,0.75,0.336,0.75,0.75v2.544l2.325-2.325c0.293-0.293,0.768-0.293,1.061,0
	s0.293,0.768,0,1.061l-2.326,2.326h2.545c0.414,0,0.75,0.336,0.75,0.75s-0.336,0.75-0.75,0.75h-4.045l-2.565,2.566l2.624,2.624
	l3.167-3.167c0.293-0.293,0.769-0.293,1.062,0s0.293,0.768,0,1.061l-3.168,3.167l3.168,3.167c0.293,0.293,0.293,0.768,0,1.061
	c-0.146,0.146-0.338,0.221-0.531,0.221c-0.191,0-0.383-0.073-0.529-0.221l-3.167-3.167l-2.624,2.624l2.566,2.566l4.045,0.001
	C36.771,31.251,37.105,31.587,37.105,32.001z M25,31.309l2.624-2.624l1.062-1.061L31.309,25l-2.623-2.624l-1.062-1.061L25,18.69
	l-2.624,2.624l-1.061,1.061L18.691,25l2.624,2.625l1.061,1.061L25,31.309z"/>
</svg>
