<?xml version="1.0" encoding="utf-8"?>
<!-- Generator: Adobe Illustrator 16.0.4, SVG Export Plug-In . SVG Version: 6.00 Build 0)  -->
<!DOCTYPE svg PUBLIC "-//W3C//DTD SVG 1.1//EN" "http://www.w3.org/Graphics/SVG/1.1/DTD/svg11.dtd">
<svg version="1.1" id="Layer_1" xmlns="http://www.w3.org/2000/svg" xmlns:xlink="http://www.w3.org/1999/xlink" x="0px" y="0px"
	 width="50px" height="50px" viewBox="0 0 50 50" enable-background="new 0 0 50 50" xml:space="preserve">
<path stroke="#ddddff" d="M36.273,23.478l-0.878,1.521l0.879,1.521c0.207,0.358,0.084,0.817-0.274,1.024c-0.118,0.068-0.247,0.101-0.374,0.101
	c-0.26,0-0.512-0.135-0.65-0.375l-1.312-2.271l1.312-2.271c0.207-0.357,0.664-0.482,1.024-0.274
	C36.357,22.659,36.48,23.117,36.273,23.478z M18.044,17.494l2.624,0.002l1.312-2.272c0.207-0.359,0.084-0.817-0.274-1.024
	c-0.359-0.209-0.817-0.083-1.024,0.274l-0.878,1.522l-1.757-0.002c-0.001,0-0.001,0-0.001,0c-0.414,0-0.75,0.335-0.75,0.749
	S17.63,17.494,18.044,17.494z M31.955,32.502h-2.624l-1.31,2.271c-0.207,0.359-0.085,0.817,0.273,1.024
	c0.118,0.068,0.247,0.101,0.374,0.101c0.26,0,0.512-0.135,0.65-0.375l0.878-1.521h1.757c0.414,0,0.75-0.336,0.75-0.75
	S32.369,32.502,31.955,32.502z M28.019,15.224l1.312,2.272h2.624c0.414,0,0.75-0.336,0.75-0.75s-0.336-0.75-0.75-0.75h-1.759
	l-0.879-1.522c-0.207-0.356-0.665-0.481-1.024-0.273C27.935,14.406,27.812,14.865,28.019,15.224z M21.98,34.774l-1.313-2.272h-2.624
	c-0.414,0-0.75,0.336-0.75,0.75s0.336,0.75,0.75,0.75h1.759l0.88,1.522c0.14,0.24,0.392,0.375,0.65,0.375
	c0.127,0,0.256-0.032,0.374-0.102C22.065,35.592,22.187,35.133,21.98,34.774z M13.999,27.546c0.118,0.068,0.247,0.102,0.374,0.102
	c0.26,0,0.512-0.135,0.65-0.375l1.311-2.271l-1.312-2.273c-0.207-0.356-0.664-0.481-1.024-0.273
	c-0.358,0.207-0.481,0.666-0.274,1.023l0.879,1.523l-0.877,1.521C13.518,26.881,13.641,27.339,13.999,27.546z M40.713,34.071
	c-0.139,0.24-0.391,0.375-0.649,0.375c-0.128,0-0.257-0.032-0.374-0.102l-0.855-0.494l-2.012,1.16
	c-0.116,0.067-0.246,0.102-0.375,0.102c-0.13,0-0.259-0.033-0.375-0.102l-2.384-1.376c-0.232-0.134-0.375-0.381-0.375-0.649
	l-0.002-2.321l-2.312-1.336c-1.209,1.671-3.091,2.823-5.249,3.041v2.663l2.01,1.16c0.232,0.134,0.375,0.381,0.375,0.648l0.001,2.754
	c0,0.269-0.144,0.516-0.376,0.649l-2.01,1.157v0.99c0,0.414-0.336,0.75-0.75,0.75s-0.75-0.336-0.75-0.75v-0.99l-2.011-1.159
	c-0.232-0.134-0.375-0.382-0.375-0.649l0.001-2.753c0-0.269,0.144-0.516,0.375-0.649l2.01-1.158v-2.663
	c-2.158-0.218-4.04-1.37-5.249-3.041l-2.312,1.336l0.002,2.319c0,0.269-0.144,0.517-0.375,0.649l-2.388,1.378
	c-0.115,0.067-0.245,0.102-0.375,0.102s-0.259-0.033-0.375-0.102l-2.011-1.16l-0.857,0.496c-0.118,0.067-0.247,0.101-0.374,0.101
	c-0.261,0-0.513-0.136-0.65-0.375c-0.207-0.358-0.084-0.817,0.274-1.024l0.857-0.496l0.001-2.318c0-0.27,0.144-0.517,0.375-0.649
	l2.387-1.378c0.232-0.135,0.519-0.135,0.75,0l2.009,1.16l2.311-1.334c-0.418-0.928-0.656-1.951-0.656-3.032s0.238-2.104,0.656-3.032
	l-2.31-1.334l-2.012,1.161c-0.115,0.067-0.244,0.101-0.375,0.101c-0.13,0-0.259-0.033-0.375-0.101l-2.385-1.377
	c-0.231-0.134-0.375-0.382-0.375-0.649l0.002-2.319l-0.858-0.496c-0.358-0.207-0.481-0.666-0.274-1.024
	c0.207-0.357,0.664-0.481,1.024-0.273l0.857,0.494l2.009-1.16c0.23-0.135,0.519-0.135,0.75,0l2.387,1.379
	c0.231,0.134,0.375,0.382,0.375,0.648l-0.001,2.319l2.312,1.336c1.209-1.671,3.091-2.823,5.249-3.041V14.97l-2.012-1.16
	c-0.232-0.134-0.375-0.381-0.375-0.649l0.002-2.755c0-0.268,0.144-0.516,0.375-0.648l2.01-1.16V7.608c0-0.414,0.336-0.75,0.75-0.75
	s0.75,0.336,0.75,0.75v0.99l2.01,1.158c0.232,0.135,0.375,0.383,0.375,0.65l-0.002,2.755c0,0.269-0.144,0.515-0.375,0.647
	l-2.008,1.16v2.661c2.158,0.218,4.04,1.37,5.249,3.041l2.313-1.336l-0.002-2.319c0-0.269,0.143-0.517,0.375-0.649l2.387-1.378
	c0.231-0.135,0.518-0.135,0.75,0l2.011,1.16l0.858-0.496c0.359-0.209,0.816-0.082,1.023,0.275s0.084,0.816-0.273,1.023l-0.859,0.496
	v2.32c0,0.268-0.143,0.516-0.375,0.648l-2.387,1.378c-0.116,0.067-0.245,0.101-0.375,0.101s-0.261-0.033-0.375-0.101l-2.008-1.161
	l-2.312,1.334c0.418,0.928,0.656,1.951,0.656,3.032s-0.238,2.104-0.656,3.032l2.312,1.335l2.007-1.158
	c0.231-0.134,0.519-0.134,0.749-0.001l2.388,1.375c0.232,0.135,0.376,0.383,0.376,0.65l-0.002,2.318l0.858,0.495
	C40.797,33.254,40.92,33.713,40.713,34.071z M34.812,18.47l0.001,0.864l0.749,0.435l0.884,0.51l1.637-0.943v-1.021v-0.866
	l-0.749-0.433l-0.886-0.512l-1.638,0.944L34.812,18.47z M15.187,18.468l0.002-1.021l-1.637-0.945l-0.885,0.513l-0.748,0.433
	l-0.001,0.866l-0.001,1.021l1.635,0.943l0.887-0.512l0.748-0.433V18.468z M15.187,31.528l-0.001-0.864l-0.75-0.433l-0.883-0.512
	l-1.637,0.944l-0.001,1.021v0.866l0.75,0.433l0.886,0.512l1.638-0.944L15.187,31.528z M29.691,28.574
	c0.303-0.396,0.562-0.829,0.757-1.296c0.295-0.701,0.459-1.473,0.459-2.279s-0.164-1.578-0.459-2.279
	c-0.195-0.467-0.454-0.898-0.757-1.296c-0.938-1.227-2.339-2.075-3.942-2.28c-0.246-0.03-0.495-0.053-0.75-0.053
	s-0.504,0.021-0.75,0.053c-1.604,0.205-3.006,1.055-3.942,2.28c-0.303,0.396-0.562,0.829-0.757,1.296
	c-0.295,0.701-0.459,1.473-0.459,2.279s0.164,1.578,0.459,2.279c0.195,0.467,0.454,0.898,0.757,1.296
	c0.938,1.227,2.339,2.075,3.942,2.28c0.246,0.03,0.495,0.053,0.75,0.053s0.504-0.021,0.75-0.053
	C27.353,30.649,28.755,29.801,29.691,28.574z M23.362,12.726l0.887,0.51l0.75,0.434l0.75-0.434l0.883-0.51l0.002-1.889l-0.885-0.51
	l-0.752-0.434l-0.748,0.433l-0.885,0.511L23.362,12.726z M26.634,37.274l-0.885-0.512l-0.75-0.433l-0.75,0.433l-0.885,0.512
	l-0.001,1.886l0.886,0.511L25,40.104l0.749-0.432l0.886-0.511L26.634,37.274z M38.081,31.687l0.001-1.021l-1.638-0.942l-0.882,0.508
	l-0.751,0.435v0.865l0.001,1.022l1.634,0.942l0.886-0.511l0.748-0.432L38.081,31.687z"/>
</svg>
