<?xml version="1.0" encoding="utf-8"?>
<!-- Generator: Adobe Illustrator 16.0.4, SVG Export Plug-In . SVG Version: 6.00 Build 0)  -->
<!DOCTYPE svg PUBLIC "-//W3C//DTD SVG 1.1//EN" "http://www.w3.org/Graphics/SVG/1.1/DTD/svg11.dtd">
<svg version="1.1" id="Layer_1" xmlns="http://www.w3.org/2000/svg" xmlns:xlink="http://www.w3.org/1999/xlink" x="0px" y="0px"
	 width="50px" height="50px" viewBox="0 0 50 50" enable-background="new 0 0 50 50" xml:space="preserve">
<path stroke="#ddddff" d="M28.637,22.067c-0.209-0.261-0.445-0.496-0.707-0.707c-0.682-0.551-1.514-0.908-2.432-1.007
	c-0.166-0.019-0.329-0.052-0.5-0.052s-0.334,0.033-0.5,0.052c-0.918,0.099-1.75,0.456-2.432,1.007
	c-0.262,0.21-0.498,0.446-0.707,0.707c-0.551,0.683-0.908,1.515-1.008,2.432c-0.019,0.167-0.051,0.329-0.051,0.5
	s0.032,0.333,0.051,0.5c0.1,0.917,0.457,1.75,1.008,2.433c0.209,0.261,0.445,0.495,0.707,0.707c0.682,0.551,1.514,0.907,2.432,1.007
	c0.166,0.018,0.329,0.051,0.5,0.051s0.334-0.033,0.5-0.051c0.918-0.1,1.75-0.456,2.432-1.007c0.262-0.21,0.498-0.446,0.707-0.707
	c0.551-0.684,0.908-1.516,1.008-2.433c0.019-0.167,0.051-0.329,0.051-0.5s-0.032-0.333-0.051-0.5
	C29.545,23.582,29.188,22.749,28.637,22.067z M28.645,25.499c-0.088,0.645-0.338,1.231-0.715,1.726
	c-0.203,0.267-0.438,0.504-0.707,0.707c-0.494,0.376-1.08,0.625-1.725,0.713c-0.165,0.022-0.329,0.051-0.5,0.051
	s-0.335-0.028-0.5-0.051c-0.645-0.088-1.23-0.337-1.725-0.713c-0.269-0.203-0.504-0.44-0.707-0.707
	c-0.377-0.494-0.627-1.082-0.715-1.726c-0.021-0.165-0.051-0.329-0.051-0.5s0.028-0.335,0.051-0.5
	c0.088-0.644,0.338-1.23,0.715-1.725c0.203-0.268,0.438-0.504,0.707-0.707c0.494-0.376,1.08-0.625,1.725-0.713
	c0.165-0.023,0.329-0.051,0.5-0.051s0.335,0.027,0.5,0.051c0.645,0.088,1.23,0.337,1.725,0.713c0.269,0.203,0.504,0.439,0.707,0.707
	c0.377,0.494,0.627,1.082,0.715,1.725c0.021,0.165,0.051,0.329,0.051,0.5S28.666,25.334,28.645,25.499z M39.998,22.53
	c-1.189,0-2.186,0.846-2.418,1.969h-3.508l3.723-3.723c0.195-0.195,0.195-0.512,0-0.707s-0.512-0.195-0.707,0l-4.43,4.43H31.91
	c-0.109-1.537-0.721-2.934-1.672-4.033l5.72-5.72c0.195-0.195,0.195-0.512,0-0.707c-0.194-0.195-0.512-0.195-0.707,0l-5.72,5.72
	c-1.1-0.951-2.497-1.562-4.033-1.672v-0.744l4.428-4.434c0.195-0.196,0.195-0.512,0-0.708c-0.195-0.194-0.512-0.195-0.707,0
	l-3.721,3.728v-3.511c1.123-0.23,1.971-1.228,1.971-2.419c0-1.361-1.107-2.47-2.47-2.47s-2.47,1.108-2.47,2.47
	c0,1.19,0.847,2.187,1.969,2.418v3.507l-3.723-3.722c-0.195-0.195-0.512-0.195-0.707,0s-0.195,0.512,0,0.707l4.43,4.43v0.748
	c-1.536,0.11-2.936,0.722-4.033,1.672l-5.72-5.72c-0.195-0.195-0.513-0.195-0.707,0c-0.195,0.195-0.195,0.512,0,0.707l5.72,5.72
	c-0.951,1.1-1.562,2.496-1.672,4.033h-0.745l-4.433-4.428c-0.195-0.194-0.512-0.195-0.707,0c-0.195,0.196-0.195,0.512,0,0.708
	l3.727,3.72h-3.511c-0.231-1.124-1.229-1.971-2.419-1.971c-1.361,0-2.471,1.108-2.471,2.47c0,1.362,1.109,2.47,2.471,2.47
	c1.189,0,2.186-0.846,2.418-1.969h3.508l-3.723,3.724c-0.195,0.194-0.195,0.512,0,0.707c0.098,0.098,0.226,0.146,0.354,0.146
	c0.129,0,0.256-0.049,0.354-0.146l4.43-4.431h0.748c0.11,1.537,0.722,2.935,1.672,4.033l-5.72,5.72
	c-0.195,0.195-0.195,0.513,0,0.707c0.098,0.099,0.227,0.146,0.354,0.146c0.129,0,0.256-0.049,0.354-0.146l5.72-5.72
	c1.1,0.952,2.497,1.562,4.033,1.672v0.744l-4.428,4.434c-0.195,0.196-0.195,0.513,0,0.708c0.195,0.194,0.512,0.195,0.707,0
	l3.721-3.726v3.51c-1.123,0.231-1.971,1.229-1.971,2.419c0,1.362,1.107,2.471,2.47,2.471s2.47-1.108,2.47-2.471
	c0-1.189-0.847-2.186-1.969-2.418v-3.507l3.723,3.722c0.099,0.099,0.227,0.146,0.354,0.146s0.256-0.049,0.354-0.146
	c0.194-0.194,0.194-0.512,0-0.707l-4.431-4.43v-0.748c1.536-0.109,2.935-0.721,4.033-1.672l5.72,5.72
	c0.098,0.099,0.227,0.146,0.354,0.146c0.129,0,0.257-0.049,0.354-0.146c0.195-0.194,0.195-0.512,0-0.707l-5.72-5.72
	c0.951-1.099,1.562-2.496,1.672-4.033h0.745l4.433,4.429c0.098,0.097,0.227,0.146,0.354,0.146s0.256-0.049,0.354-0.146
	c0.194-0.196,0.194-0.513,0-0.708L34.074,25.5h3.51c0.23,1.124,1.229,1.972,2.419,1.972c1.361,0,2.47-1.108,2.47-2.471
	C42.473,23.64,41.359,22.53,39.998,22.53z M11.374,25.499c-0.206,0.563-0.742,0.969-1.376,0.969c-0.811,0-1.471-0.658-1.471-1.47
	c0-0.811,0.66-1.47,1.471-1.47c0.635,0,1.171,0.406,1.377,0.971c0.057,0.156,0.094,0.323,0.094,0.499
	C11.469,25.175,11.432,25.342,11.374,25.499z M23.529,9.999c0-0.811,0.658-1.47,1.47-1.47s1.47,0.659,1.47,1.47
	c0,0.635-0.406,1.171-0.971,1.376c-0.156,0.058-0.322,0.093-0.499,0.093s-0.344-0.035-0.501-0.094
	C23.936,11.169,23.529,10.633,23.529,9.999z M26.467,39.999c0,0.812-0.658,1.47-1.47,1.47s-1.47-0.658-1.47-1.47
	c0-0.635,0.406-1.171,0.971-1.376c0.156-0.057,0.322-0.093,0.499-0.093s0.344,0.036,0.501,0.094
	C26.061,38.829,26.467,39.365,26.467,39.999z M30.91,25.499c-0.105,1.262-0.605,2.412-1.379,3.326
	c-0.217,0.255-0.452,0.492-0.707,0.707c-0.914,0.773-2.064,1.273-3.326,1.379c-0.165,0.014-0.331,0.025-0.5,0.025
	s-0.335-0.013-0.5-0.025c-1.262-0.105-2.412-0.604-3.326-1.379c-0.255-0.215-0.49-0.452-0.707-0.707
	c-0.773-0.915-1.273-2.063-1.379-3.326c-0.014-0.165-0.025-0.331-0.025-0.5s0.013-0.335,0.025-0.5
	c0.105-1.262,0.605-2.412,1.379-3.326c0.217-0.255,0.452-0.491,0.707-0.707c0.914-0.772,2.064-1.272,3.326-1.379
	c0.165-0.014,0.331-0.024,0.5-0.024s0.335,0.012,0.5,0.024c1.262,0.106,2.412,0.605,3.326,1.379c0.255,0.216,0.49,0.452,0.707,0.707
	c0.773,0.915,1.273,2.064,1.379,3.326c0.014,0.165,0.025,0.331,0.025,0.5S30.924,25.334,30.91,25.499z M39.998,26.471
	c-0.635,0-1.171-0.406-1.377-0.972c-0.057-0.156-0.094-0.323-0.094-0.499c0-0.177,0.037-0.344,0.095-0.501
	c0.206-0.562,0.742-0.969,1.376-0.969c0.811,0,1.471,0.659,1.471,1.47C41.469,25.812,40.809,26.471,39.998,26.471z"/>
</svg>
