<?xml version="1.0" encoding="utf-8"?>
<!-- Generator: Adobe Illustrator 16.0.4, SVG Export Plug-In . SVG Version: 6.00 Build 0)  -->
<!DOCTYPE svg PUBLIC "-//W3C//DTD SVG 1.1//EN" "http://www.w3.org/Graphics/SVG/1.1/DTD/svg11.dtd">
<svg version="1.1" id="Layer_1" xmlns="http://www.w3.org/2000/svg" xmlns:xlink="http://www.w3.org/1999/xlink" x="0px" y="0px"
	 width="50px" height="50px" viewBox="0 0 50 50" enable-background="new 0 0 50 50" xml:space="preserve">
<path stroke="#ddddff" d="M40.006,24.25h-6.99l3.117-3.118c0.293-0.293,0.293-0.768,0-1.062c-0.293-0.293-0.768-0.293-1.061,0l-3.471,3.473
	c-0.227-1.025-0.688-1.965-1.322-2.758l6.268-6.266c0.293-0.293,0.293-0.768,0-1.061s-0.769-0.293-1.062,0l-6.267,6.266
	c-0.846-0.677-1.854-1.152-2.957-1.36l3.843-3.845c0.293-0.293,0.293-0.768,0-1.061s-0.769-0.293-1.062,0l-3.289,3.29v-6.75
	c0-0.414-0.336-0.75-0.75-0.75s-0.75,0.336-0.75,0.75v6.75l-3.29-3.29c-0.293-0.293-0.768-0.293-1.061,0s-0.293,0.768,0,1.061
	l3.843,3.845c-1.104,0.208-2.112,0.685-2.957,1.36l-6.267-6.266c-0.293-0.293-0.768-0.293-1.061,0s-0.293,0.768,0,1.061l6.267,6.266
	c-0.635,0.793-1.095,1.73-1.322,2.758l-3.471-3.473c-0.293-0.293-0.768-0.293-1.061,0c-0.293,0.294-0.293,0.769,0,1.062l3.118,3.118
	H10c-0.414,0-0.75,0.336-0.75,0.75s0.336,0.75,0.75,0.75h6.991l-3.118,3.118c-0.293,0.293-0.293,0.768,0,1.062
	c0.146,0.146,0.338,0.219,0.53,0.219s0.384-0.072,0.53-0.219l3.471-3.473c0.227,1.025,0.686,1.964,1.321,2.757l-6.266,6.267
	c-0.293,0.293-0.293,0.768,0,1.061c0.146,0.146,0.338,0.221,0.53,0.221s0.384-0.074,0.53-0.221l6.266-6.266
	c0.845,0.676,1.853,1.152,2.957,1.36l-3.843,3.845c-0.293,0.293-0.293,0.768,0,1.061s0.768,0.293,1.061,0l3.29-3.29v6.75
	c0,0.414,0.336,0.75,0.75,0.75s0.75-0.336,0.75-0.75v-6.75l3.291,3.29c0.146,0.146,0.338,0.22,0.529,0.22s0.385-0.073,0.529-0.22
	c0.294-0.293,0.294-0.768,0-1.061l-3.842-3.845c1.104-0.208,2.111-0.686,2.957-1.36l6.266,6.266
	c0.146,0.146,0.338,0.221,0.529,0.221c0.192,0,0.385-0.074,0.531-0.221c0.293-0.293,0.293-0.768,0-1.061l-6.267-6.267
	c0.635-0.793,1.095-1.729,1.321-2.757l3.471,3.473c0.146,0.146,0.338,0.219,0.529,0.219c0.193,0,0.385-0.072,0.531-0.219
	c0.293-0.294,0.293-0.769,0-1.062l-3.119-3.118H40c0.414,0,0.75-0.336,0.75-0.75S40.42,24.25,40.006,24.25z M29.155,28.191
	c-0.278,0.359-0.599,0.681-0.958,0.957c-0.699,0.539-1.529,0.9-2.441,1.033c-0.246,0.035-0.493,0.075-0.75,0.075
	s-0.503-0.04-0.75-0.075c-0.913-0.133-1.743-0.494-2.441-1.033c-0.36-0.276-0.68-0.598-0.958-0.957
	c-0.539-0.698-0.901-1.528-1.033-2.441c-0.03-0.211-0.06-0.423-0.064-0.641C19.759,25.072,19.75,25.037,19.75,25
	s0.01-0.072,0.011-0.109c0.004-0.218,0.034-0.43,0.064-0.641c0.132-0.913,0.495-1.744,1.034-2.441
	c0.277-0.36,0.598-0.681,0.957-0.957c0.699-0.539,1.529-0.9,2.441-1.033c0.247-0.035,0.493-0.075,0.75-0.075s0.503,0.04,0.75,0.075
	c0.912,0.133,1.744,0.494,2.441,1.033c0.359,0.276,0.68,0.597,0.957,0.957c0.54,0.697,0.902,1.528,1.034,2.441
	c0.03,0.211,0.06,0.423,0.063,0.641c0.002,0.037,0.012,0.072,0.012,0.109s-0.01,0.072-0.012,0.109
	c-0.004,0.218-0.033,0.43-0.063,0.641C30.057,26.663,29.694,27.493,29.155,28.191z"/>
</svg>
