<?xml version="1.0" encoding="utf-8"?>
<!-- Generator: Adobe Illustrator 16.0.4, SVG Export Plug-In . SVG Version: 6.00 Build 0)  -->
<!DOCTYPE svg PUBLIC "-//W3C//DTD SVG 1.1//EN" "http://www.w3.org/Graphics/SVG/1.1/DTD/svg11.dtd">
<svg version="1.1" id="Layer_1" xmlns="http://www.w3.org/2000/svg" xmlns:xlink="http://www.w3.org/1999/xlink" x="0px" y="0px"
	 width="50px" height="50px" viewBox="0 0 50 50" enable-background="new 0 0 50 50" xml:space="preserve">
<path stroke="#ddddff" d="M10.256,24.114v1.771l7.709,2.064l1.489-0.858v-4.184l-1.49-0.858L10.256,24.114z M18.455,26.514l-0.63,0.364l-6.568-1.76
	v-0.236l6.567-1.76l0.631,0.364V26.514z M34.394,20.688l5.282-3.051c0.238-0.14,0.545-0.057,0.684,0.184
	c0.138,0.238,0.056,0.545-0.184,0.683l-3.192,1.845l3.146,0.844c0.268,0.072,0.426,0.346,0.354,0.613
	c-0.061,0.223-0.262,0.369-0.482,0.369c-0.043,0-0.086-0.006-0.13-0.017L34.394,20.688z M20.026,10.699
	c-0.195-0.195-0.195-0.512,0-0.707c0.195-0.195,0.512-0.195,0.707,0l2.305,2.303V8.609c0-0.276,0.224-0.5,0.5-0.5s0.5,0.224,0.5,0.5
	v6.1L20.026,10.699z M29.975,10.699l-4.013,4.01v-6.1c0-0.276,0.225-0.5,0.5-0.5c0.276,0,0.5,0.224,0.5,0.5v3.686l2.306-2.303
	c0.194-0.195,0.512-0.195,0.707,0C30.169,10.188,30.169,10.504,29.975,10.699z M38.714,15.971l-5.281,3.051l1.466-5.479
	c0.071-0.268,0.346-0.418,0.611-0.354c0.268,0.071,0.426,0.346,0.354,0.611l-0.842,3.147l3.191-1.845
	c0.238-0.14,0.545-0.057,0.684,0.184C39.035,15.527,38.953,15.832,38.714,15.971z M30.546,22.908v4.184l1.489,0.858l7.709-2.064
	v-1.771l-7.708-2.064L30.546,22.908z M38.744,24.882v0.236l-6.568,1.76l-0.63-0.364v-3.027l0.631-0.363L38.744,24.882z
	 M31.073,20.382l2.067-7.707l-1.535-0.886l-5.644,5.643v1.721l3.624,2.092L31.073,20.382z M26.962,18.574v-0.729l4.809-4.808
	l0.205,0.118l-1.762,6.566l-0.63,0.364L26.962,18.574z M20.416,21.243l3.624-2.091v-1.721l-5.643-5.644l-1.535,0.886l2.067,7.707
	L20.416,21.243z M18.23,13.039l4.808,4.807v0.729l-2.623,1.515l-0.63-0.365l-1.761-6.565L18.23,13.039z M29.583,28.757l-3.621,2.091
	v1.721l5.645,5.646l1.532-0.89l-2.065-7.706L29.583,28.757z M31.77,36.962l-4.808-4.808v-0.729l2.621-1.515l0.631,0.365l1.76,6.566
	L31.77,36.962z M29.974,39.301c0.194,0.195,0.194,0.512,0,0.707c-0.195,0.195-0.513,0.195-0.707,0l-2.305-2.305v3.688
	c0,0.276-0.224,0.5-0.5,0.5c-0.275,0-0.5-0.224-0.5-0.5v-6.102L29.974,39.301z M40.129,28.811l-3.146,0.844l3.192,1.844
	c0.239,0.138,0.321,0.443,0.184,0.684c-0.093,0.159-0.261,0.25-0.435,0.25c-0.085,0-0.171-0.021-0.25-0.067l-5.282-3.052
	l5.478-1.469c0.27-0.063,0.541,0.088,0.612,0.354C40.556,28.464,40.396,28.736,40.129,28.811z M38.897,34.713
	c-0.139,0.238-0.445,0.321-0.684,0.184l-3.192-1.846l0.843,3.146c0.071,0.267-0.087,0.539-0.354,0.611
	c-0.043,0.012-0.087,0.018-0.13,0.018c-0.221,0-0.423-0.146-0.481-0.371l-1.468-5.479l5.283,3.053
	C38.953,34.168,39.035,34.475,38.897,34.713z M28.622,22.908L25,20.818l-3.622,2.09v4.181L25,29.184l3.622-2.095V22.908z
	 M27.622,26.514L25,28.029l-2.622-1.516v-3.027L25,21.975l2.622,1.512V26.514z M9.872,21.189l3.147-0.844l-3.193-1.844
	c-0.239-0.138-0.321-0.443-0.183-0.684c0.138-0.238,0.444-0.321,0.683-0.183l5.283,3.052l-5.478,1.469
	c-0.043,0.011-0.087,0.017-0.13,0.017c-0.221,0-0.422-0.147-0.482-0.37C9.445,21.536,9.604,21.264,9.872,21.189z M11.104,15.287
	c0.138-0.239,0.444-0.322,0.683-0.184l3.192,1.844l-0.842-3.146c-0.071-0.267,0.087-0.54,0.354-0.611
	c0.268-0.064,0.541,0.088,0.612,0.354l1.466,5.479l-5.282-3.052C11.047,15.832,10.965,15.525,11.104,15.287z M15.607,29.312
	l-5.283,3.051c-0.079,0.046-0.165,0.066-0.25,0.066c-0.173,0-0.341-0.09-0.434-0.25c-0.138-0.238-0.056-0.545,0.183-0.683
	l3.193-1.845L9.87,28.809c-0.267-0.072-0.425-0.346-0.354-0.613c0.072-0.266,0.349-0.416,0.612-0.354L15.607,29.312z M11.287,34.029
	l5.284-3.053l-1.468,5.479c-0.06,0.225-0.262,0.371-0.482,0.371c-0.043,0-0.086-0.006-0.13-0.018
	c-0.267-0.072-0.425-0.346-0.354-0.611l0.843-3.146l-3.193,1.846c-0.239,0.139-0.545,0.056-0.683-0.184
	C10.965,34.475,11.047,34.168,11.287,34.029z M20.026,39.301l4.012-4.012v6.102c0,0.276-0.224,0.5-0.5,0.5s-0.5-0.224-0.5-0.5
	v-3.688l-2.305,2.305c-0.195,0.195-0.512,0.195-0.707,0C19.832,39.812,19.832,39.496,20.026,39.301z M18.927,29.618l-2.065,7.707
	l1.532,0.886l5.644-5.643v-1.721l-3.621-2.092L18.927,29.618z M23.039,32.154l-4.808,4.807l-0.204-0.118l1.759-6.565l0.631-0.365
	l2.621,1.515L23.039,32.154L23.039,32.154z"/>
</svg>
