<?xml version="1.0" encoding="utf-8"?>
<!-- Generator: Adobe Illustrator 16.0.4, SVG Export Plug-In . SVG Version: 6.00 Build 0)  -->
<!DOCTYPE svg PUBLIC "-//W3C//DTD SVG 1.1//EN" "http://www.w3.org/Graphics/SVG/1.1/DTD/svg11.dtd">
<svg version="1.1" id="Layer_1" xmlns="http://www.w3.org/2000/svg" xmlns:xlink="http://www.w3.org/1999/xlink" x="0px" y="0px"
	 width="50px" height="50px" viewBox="0 0 50 50" enable-background="new 0 0 50 50" xml:space="preserve">
<path stroke="#ddddff" d="M32.725,29.171l7.34-1.965c0.135-0.035,0.213-0.173,0.178-0.306c-0.035-0.135-0.174-0.213-0.307-0.178l-7.822,2.094
	l-2.16-1.246V22.43l2.16-1.248l7.822,2.096c0.021,0.007,0.043,0.01,0.064,0.01c0.109,0,0.212-0.073,0.241-0.186
	c0.036-0.134-0.043-0.271-0.177-0.307l-7.34-1.968l6.963-4.021c0.119-0.068,0.16-0.223,0.092-0.342
	c-0.071-0.121-0.225-0.16-0.342-0.092l-6.961,4.02l1.965-7.338c0.037-0.133-0.043-0.271-0.176-0.306
	c-0.131-0.034-0.271,0.043-0.307,0.177l-2.098,7.82l-2.16,1.248l-4.452-2.57V16.93l5.726-5.728c0.099-0.099,0.099-0.257,0-0.354
	c-0.098-0.098-0.256-0.098-0.354,0l-5.372,5.375V8.184c0-0.139-0.112-0.25-0.25-0.25s-0.25,0.111-0.25,0.25v8.039l-5.372-5.375
	c-0.098-0.098-0.256-0.098-0.354,0c-0.099,0.098-0.099,0.256,0,0.354l5.726,5.728v2.494l-4.452,2.57l-2.16-1.248l-2.098-7.82
	c-0.035-0.134-0.173-0.212-0.307-0.177c-0.133,0.035-0.213,0.173-0.176,0.306l1.965,7.338l-6.961-4.02
	c-0.117-0.068-0.271-0.029-0.342,0.092c-0.068,0.119-0.027,0.271,0.092,0.342l6.963,4.021l-7.34,1.968
	C9.8,22.83,9.721,22.968,9.757,23.102c0.029,0.111,0.132,0.186,0.241,0.186c0.021,0,0.043-0.003,0.064-0.01l7.822-2.096l2.16,1.248
	v5.141l-2.16,1.246l-7.822-2.094c-0.131-0.035-0.271,0.043-0.307,0.178c-0.035,0.133,0.043,0.271,0.178,0.306l7.34,1.965
	l-6.963,4.021c-0.119,0.069-0.16,0.224-0.093,0.343c0.048,0.079,0.132,0.125,0.218,0.125c0.043,0,0.086-0.011,0.125-0.033
	l6.961-4.021l-1.965,7.338c-0.037,0.134,0.043,0.271,0.176,0.307c0.021,0.006,0.043,0.009,0.064,0.009
	c0.11,0,0.212-0.073,0.241-0.186l2.097-7.821l2.16-1.247l4.452,2.57v2.493l-5.726,5.729c-0.099,0.098-0.099,0.256,0,0.354
	c0.098,0.099,0.256,0.099,0.354,0l5.372-5.373v8.039c0,0.138,0.112,0.25,0.25,0.25s0.25-0.112,0.25-0.25v-8.039l5.372,5.373
	c0.049,0.05,0.111,0.074,0.177,0.074s0.128-0.024,0.177-0.074c0.098-0.098,0.098-0.256,0-0.354l-5.726-5.729v-2.493l4.452-2.57
	l2.16,1.247l2.097,7.821c0.028,0.112,0.131,0.186,0.241,0.186c0.021,0,0.043-0.003,0.064-0.009c0.133-0.035,0.213-0.173,0.176-0.307
	l-1.965-7.338l6.961,4.021c0.039,0.022,0.082,0.033,0.125,0.033c0.086,0,0.17-0.046,0.217-0.125
	c0.068-0.119,0.027-0.272-0.092-0.343L32.725,29.171z M29.452,27.281l-0.75-0.434V23.15l0.75-0.433V27.281z M25.25,22.023
	l2.202,1.271l-2.202,1.271V22.023z M24.75,24.566l-2.202-1.271l2.202-1.271V24.566z M24.5,25l-2.202,1.271v-2.543L24.5,25z
	 M24.75,25.434v2.543l-2.201-1.271L24.75,25.434z M25.25,25.434l2.201,1.271l-2.201,1.271V25.434z M25.5,25l2.202-1.271v2.543
	L25.5,25z M29.201,22.285l-0.748,0.433L25.25,20.87v-0.866L29.201,22.285z M24.75,20.004v0.866l-3.203,1.848l-0.748-0.433
	L24.75,20.004z M20.548,22.719l0.75,0.434v3.697l-0.75,0.433V22.719z M20.799,27.715l0.751-0.434l3.2,1.849v0.866L20.799,27.715z
	 M25.25,29.996V29.13l3.2-1.849l0.751,0.434L25.25,29.996z M19.908,10.32c-0.195-0.195-0.195-0.512,0-0.707s0.512-0.195,0.707,0
	L23,11.998V8.186c0-0.275,0.225-0.5,0.5-0.5S24,7.91,24,8.186v6.228L19.908,10.32z M10.755,15.043
	c0.138-0.238,0.444-0.32,0.683-0.184l3.303,1.906l-0.873-3.257c-0.071-0.268,0.087-0.541,0.354-0.612
	c0.271-0.066,0.541,0.088,0.613,0.354l1.498,5.591l-5.395-3.114C10.698,15.588,10.616,15.282,10.755,15.043z M20.297,21.13
	L24,18.994v-1.752l-5.777-5.779l-1.557,0.898l2.113,7.894L20.297,21.13z M18.059,12.713L23,17.656v0.76l-2.703,1.561l-0.656-0.379
	l-1.811-6.752L18.059,12.713z M30.092,10.32L26,14.412V8.186c0-0.276,0.225-0.5,0.5-0.5s0.5,0.224,0.5,0.5v3.812l2.385-2.386
	c0.195-0.194,0.512-0.194,0.707,0C30.287,9.807,30.287,10.125,30.092,10.32z M40.518,28.896l-3.26,0.873l3.305,1.907
	c0.239,0.138,0.321,0.443,0.184,0.683c-0.092,0.16-0.262,0.25-0.434,0.25c-0.084,0-0.17-0.021-0.25-0.066l-5.395-3.115l5.592-1.498
	c0.264-0.065,0.54,0.088,0.612,0.354C40.943,28.55,40.785,28.823,40.518,28.896z M26,18.994l3.703,2.136l1.518-0.875l2.113-7.894
	l-1.557-0.898L26,17.242V18.994z M27,17.656l4.941-4.943l0.229,0.133l-1.811,6.752l-0.656,0.379L27,18.416V17.656z M34.668,20.573
	l5.395-3.115c0.239-0.14,0.547-0.058,0.684,0.183c0.139,0.239,0.057,0.545-0.184,0.684l-3.305,1.908l3.26,0.873
	c0.269,0.071,0.426,0.346,0.354,0.611c-0.062,0.225-0.263,0.371-0.483,0.371c-0.043,0-0.086-0.006-0.129-0.018L34.668,20.573z
	 M33.669,18.841l1.498-5.591c0.071-0.266,0.345-0.419,0.612-0.354c0.268,0.071,0.426,0.346,0.354,0.612l-0.873,3.257l3.302-1.906
	c0.237-0.14,0.545-0.057,0.684,0.184c0.139,0.239,0.057,0.545-0.184,0.684L33.669,18.841z M39.245,34.957
	c-0.138,0.24-0.443,0.322-0.683,0.184l-3.306-1.908l0.874,3.259c0.071,0.268-0.087,0.541-0.354,0.612
	c-0.045,0.012-0.088,0.018-0.131,0.018c-0.221,0-0.422-0.146-0.482-0.37l-1.497-5.592l5.396,3.116
	C39.302,34.412,39.384,34.718,39.245,34.957z M9.482,21.104l3.26-0.873l-3.305-1.907c-0.239-0.138-0.321-0.443-0.184-0.683
	c0.139-0.24,0.444-0.32,0.684-0.184l5.395,3.115L9.74,22.07c-0.043,0.011-0.086,0.017-0.129,0.017c-0.221,0-0.424-0.147-0.483-0.371
	C9.057,21.45,9.215,21.177,9.482,21.104z M30.092,39.68c0.195,0.195,0.195,0.512,0,0.707s-0.512,0.195-0.707,0L27,38.001v3.813
	c0,0.275-0.225,0.5-0.5,0.5s-0.5-0.225-0.5-0.5v-6.229L30.092,39.68z M29.701,28.869L26,31.006v1.752l5.777,5.779l1.557-0.898
	l-2.115-7.894L29.701,28.869z M31.941,37.287L27,32.344v-0.76l2.701-1.561l0.658,0.379l1.811,6.752L31.941,37.287z M19.298,27.139
	v-4.277l-1.517-0.873l-7.893,2.113V25.9l7.893,2.113L19.298,27.139z M10.889,25.132v-0.264l6.752-1.81l0.657,0.381v3.121
	l-0.657,0.379L10.889,25.132z M19.908,39.68L24,35.585v6.229c0,0.275-0.225,0.5-0.5,0.5s-0.5-0.225-0.5-0.5v-3.813l-2.385,2.386
	c-0.195,0.195-0.512,0.195-0.707,0S19.713,39.875,19.908,39.68z M16.332,31.158l-1.497,5.592c-0.062,0.223-0.263,0.37-0.483,0.37
	c-0.043,0-0.086-0.007-0.129-0.017c-0.268-0.072-0.426-0.347-0.354-0.613l0.874-3.258l-3.305,1.906
	c-0.239,0.139-0.547,0.057-0.684-0.183c-0.139-0.239-0.057-0.545,0.184-0.683L16.332,31.158z M15.332,29.427l-5.395,3.115
	c-0.08,0.046-0.166,0.067-0.25,0.067c-0.172,0-0.342-0.09-0.434-0.25c-0.139-0.239-0.057-0.545,0.184-0.684l3.305-1.908l-3.26-0.873
	c-0.269-0.071-0.426-0.346-0.354-0.611C9.2,28.016,9.48,27.863,9.74,27.93L15.332,29.427z M30.702,22.861v4.277l1.517,0.873
	l7.893-2.113V24.1l-7.893-2.113L30.702,22.861z M39.111,24.868v0.264l-6.752,1.81l-0.657-0.381v-3.121l0.657-0.379L39.111,24.868z
	 M24,31.006l-3.701-2.137l-1.518,0.876l-2.115,7.894l1.557,0.898L24,32.758V31.006z M23,32.344l-4.941,4.943l-0.229-0.133
	l1.811-6.752l0.658-0.379L23,31.584V32.344z"/>
</svg>
