<?xml version="1.0" encoding="utf-8"?>
<!-- Generator: Adobe Illustrator 16.0.4, SVG Export Plug-In . SVG Version: 6.00 Build 0)  -->
<!DOCTYPE svg PUBLIC "-//W3C//DTD SVG 1.1//EN" "http://www.w3.org/Graphics/SVG/1.1/DTD/svg11.dtd">
<svg version="1.1" id="Layer_1" xmlns="http://www.w3.org/2000/svg" xmlns:xlink="http://www.w3.org/1999/xlink" x="0px" y="0px"
	 width="50px" height="50px" viewBox="0 0 50 50" enable-background="new 0 0 50 50" xml:space="preserve">
<path stroke="#ddddff" d="M40.006,24.25h-2.18l1.367-1.368c0.293-0.293,0.293-0.768,0-1.062c-0.293-0.293-0.768-0.293-1.061,0l-2.429,2.43h-2.689
	l3.118-3.118c0.293-0.293,0.293-0.768,0-1.062c-0.293-0.293-0.768-0.293-1.061,0L31.6,23.543c-0.227-1.025-0.687-1.965-1.322-2.758
	l6.268-6.266c0.293-0.293,0.293-0.768,0-1.061s-0.768-0.293-1.061,0l-6.268,6.266c-0.845-0.677-1.854-1.152-2.956-1.36l3.845-3.845
	c0.293-0.293,0.293-0.768,0-1.061s-0.769-0.293-1.062,0l-3.29,3.29V14.55l2.43-2.429c0.293-0.293,0.293-0.768,0-1.061
	c-0.294-0.293-0.769-0.293-1.062,0l-1.368,1.367v-2.43c0-0.414-0.336-0.75-0.75-0.75s-0.75,0.336-0.75,0.75v2.43l-1.368-1.367
	c-0.293-0.293-0.769-0.293-1.062,0s-0.293,0.768,0,1.061l2.43,2.429v2.199l-3.29-3.29c-0.293-0.293-0.769-0.293-1.062,0
	s-0.293,0.768,0,1.061l3.845,3.845c-1.104,0.208-2.111,0.685-2.956,1.36l-6.268-6.266c-0.293-0.293-0.768-0.293-1.061,0
	s-0.293,0.768,0,1.061l6.268,6.266c-0.637,0.793-1.097,1.73-1.322,2.758l-3.473-3.473c-0.293-0.293-0.768-0.293-1.061,0
	c-0.293,0.294-0.293,0.769,0,1.062l3.117,3.118h-2.188l-2.429-2.43c-0.293-0.293-0.768-0.293-1.061,0
	c-0.293,0.294-0.293,0.769,0,1.062l1.367,1.368h-2.68c-0.414,0-0.75,0.336-0.75,0.75s0.336,0.75,0.75,0.75h2.68l-1.367,1.367
	c-0.293,0.293-0.293,0.768,0,1.061c0.146,0.146,0.338,0.221,0.529,0.221s0.385-0.073,0.53-0.221l2.429-2.428h2.189l-3.118,3.118
	c-0.293,0.293-0.293,0.769,0,1.062c0.146,0.146,0.338,0.219,0.53,0.219c0.191,0,0.384-0.072,0.529-0.219l3.473-3.473
	c0.227,1.025,0.687,1.964,1.32,2.758l-6.266,6.266c-0.293,0.293-0.293,0.768,0,1.061c0.146,0.146,0.338,0.221,0.529,0.221
	c0.192,0,0.385-0.074,0.531-0.221l6.266-6.266c0.845,0.677,1.854,1.152,2.957,1.36L19.9,35.48c-0.293,0.293-0.293,0.768,0,1.061
	s0.768,0.293,1.061,0l3.29-3.29v2.199l-2.429,2.429c-0.293,0.293-0.293,0.768,0,1.061s0.768,0.293,1.061,0l1.368-1.367v2.43
	c0,0.414,0.336,0.75,0.75,0.75s0.75-0.336,0.75-0.75v-2.43l1.368,1.367c0.146,0.146,0.338,0.221,0.529,0.221
	c0.192,0,0.385-0.073,0.53-0.221c0.293-0.293,0.293-0.768,0-1.061L25.75,35.45v-2.199l3.29,3.29c0.146,0.146,0.338,0.22,0.53,0.22
	c0.191,0,0.384-0.073,0.529-0.22c0.293-0.293,0.293-0.768,0-1.061l-3.844-3.845c1.104-0.208,2.112-0.685,2.957-1.36l6.266,6.266
	c0.146,0.146,0.338,0.221,0.53,0.221s0.384-0.074,0.53-0.221c0.293-0.293,0.293-0.768,0-1.061l-6.266-6.266
	c0.635-0.794,1.095-1.732,1.32-2.758l3.473,3.473c0.146,0.146,0.338,0.219,0.529,0.219c0.192,0,0.385-0.072,0.53-0.219
	c0.293-0.293,0.293-0.769,0-1.062l-3.118-3.118h2.689l2.429,2.43c0.146,0.146,0.338,0.219,0.53,0.219
	c0.191,0,0.384-0.072,0.529-0.219c0.293-0.293,0.293-0.769,0-1.062l-1.367-1.368h2.18c0.414,0,0.75-0.336,0.75-0.75
	S40.42,24.25,40.006,24.25z M29.154,28.191c-0.277,0.359-0.599,0.681-0.959,0.957c-0.697,0.539-1.527,0.9-2.439,1.033
	c-0.247,0.035-0.493,0.075-0.75,0.075s-0.503-0.04-0.75-0.075c-0.912-0.133-1.742-0.494-2.439-1.033
	c-0.36-0.276-0.682-0.598-0.959-0.957c-0.539-0.698-0.9-1.528-1.033-2.441c-0.03-0.211-0.061-0.423-0.064-0.643
	c-0.001-0.037-0.011-0.07-0.011-0.107s0.01-0.07,0.011-0.107c0.005-0.22,0.034-0.432,0.064-0.643
	c0.133-0.913,0.494-1.744,1.033-2.441c0.277-0.36,0.599-0.682,0.959-0.959c0.697-0.537,1.527-0.898,2.439-1.031
	c0.247-0.035,0.493-0.075,0.75-0.075s0.503,0.04,0.75,0.075c0.912,0.133,1.742,0.494,2.439,1.031
	c0.36,0.277,0.682,0.599,0.959,0.959c0.539,0.697,0.9,1.528,1.033,2.441c0.03,0.211,0.061,0.423,0.064,0.643
	c0.001,0.037,0.011,0.07,0.011,0.107s-0.01,0.07-0.011,0.107c-0.005,0.22-0.034,0.432-0.064,0.643
	C30.056,26.663,29.693,27.493,29.154,28.191z"/>
</svg>
