<?xml version="1.0" encoding="utf-8"?>
<!-- Generator: Adobe Illustrator 16.0.4, SVG Export Plug-In . SVG Version: 6.00 Build 0)  -->
<!DOCTYPE svg PUBLIC "-//W3C//DTD SVG 1.1//EN" "http://www.w3.org/Graphics/SVG/1.1/DTD/svg11.dtd">
<svg version="1.1" id="Layer_1" xmlns="http://www.w3.org/2000/svg" xmlns:xlink="http://www.w3.org/1999/xlink" x="0px" y="0px"
	 width="50px" height="50px" viewBox="0 0 50 50" enable-background="new 0 0 50 50" xml:space="preserve">
<g>
	<path stroke="#ddddff" d="M42.395,24.5h-3.236l1.094-1.896c0.139-0.239,0.057-0.545-0.184-0.683c-0.24-0.139-0.545-0.056-0.682,0.183l-1.375,2.382
		l-0.945-1.637c-0.09-0.155-0.254-0.25-0.434-0.25h-2.193c-0.18,0-0.344,0.095-0.434,0.25L33.052,24.5h-1.28l-2.953-5.114
		l0.641-1.109h1.906c0.179,0,0.344-0.095,0.433-0.25l1.099-1.902c0.088-0.155,0.088-0.346,0-0.5l-0.945-1.635l2.75,0.001
		c0.275,0,0.5-0.224,0.5-0.5c0-0.276-0.225-0.5-0.5-0.5l-2.189-0.001l1.619-2.803c0.139-0.239,0.057-0.545-0.183-0.683
		c-0.24-0.139-0.544-0.057-0.683,0.183l-1.619,2.803l-1.094-1.896c-0.139-0.239-0.443-0.322-0.683-0.183
		c-0.239,0.138-0.321,0.444-0.183,0.683l1.375,2.383H29.17c-0.179,0-0.344,0.095-0.434,0.25l-1.098,1.9
		c-0.089,0.154-0.089,0.345,0,0.5l0.954,1.653l-0.64,1.108h-5.905l-0.642-1.111l0.954-1.648c0.09-0.155,0.09-0.346,0-0.5l-1.1-1.902
		c-0.089-0.155-0.254-0.25-0.433-0.25h-1.885l1.373-2.381c0.138-0.239,0.056-0.545-0.184-0.683c-0.24-0.139-0.545-0.056-0.683,0.183
		l-1.094,1.897l-1.62-2.805c-0.139-0.24-0.445-0.321-0.683-0.183c-0.239,0.138-0.321,0.444-0.183,0.683l1.619,2.803H15.3
		c-0.276,0-0.5,0.224-0.5,0.5c0,0.276,0.224,0.5,0.5,0.5h2.747l-0.944,1.637c-0.089,0.155-0.089,0.345,0,0.5l1.099,1.902
		c0.089,0.155,0.254,0.25,0.433,0.25l0,0l1.905-0.001l0.642,1.111l-2.953,5.11h-1.283l-0.953-1.651
		c-0.089-0.155-0.254-0.25-0.433-0.25h-2.194c-0.179,0-0.344,0.095-0.433,0.25l-0.945,1.639l-1.375-2.383
		c-0.139-0.24-0.445-0.321-0.683-0.183c-0.239,0.138-0.321,0.444-0.183,0.683l1.094,1.895H7.605c-0.276,0-0.5,0.224-0.5,0.5
		s0.224,0.5,0.5,0.5h3.237l-1.094,1.897c-0.138,0.238-0.056,0.545,0.183,0.683c0.079,0.045,0.165,0.067,0.25,0.067
		c0.173,0,0.341-0.09,0.434-0.25l1.375-2.383l0.943,1.636c0.089,0.155,0.254,0.25,0.433,0.25h2.195c0.179,0,0.344-0.095,0.433-0.25
		l0.952-1.65h1.283l2.953,5.113l-0.641,1.11l-1.908,0.001c-0.178,0-0.343,0.095-0.433,0.25l-1.098,1.898
		c-0.089,0.154-0.089,0.345,0,0.5l0.945,1.637h-2.749c-0.276,0-0.5,0.225-0.5,0.5c0,0.276,0.224,0.5,0.5,0.5h2.189l-1.619,2.804
		c-0.138,0.238-0.056,0.545,0.183,0.683c0.079,0.045,0.165,0.067,0.25,0.067c0.173,0,0.341-0.089,0.434-0.25l1.619-2.806
		l1.096,1.897c0.093,0.161,0.261,0.25,0.434,0.25c0.085,0,0.171-0.021,0.25-0.067c0.239-0.138,0.321-0.443,0.183-0.683l-1.376-2.382
		l1.888,0.001l0,0c0.179,0,0.344-0.097,0.433-0.25l1.096-1.903c0.089-0.155,0.089-0.345,0-0.5l-0.952-1.648l0.641-1.11h5.905
		l0.641,1.11l-0.954,1.648c-0.091,0.155-0.091,0.346,0,0.5l1.098,1.903c0.09,0.155,0.255,0.25,0.434,0.25h1.889l-1.373,2.379
		c-0.138,0.239-0.056,0.545,0.184,0.683c0.079,0.045,0.165,0.067,0.25,0.067c0.173,0,0.341-0.09,0.434-0.25l1.094-1.896l1.619,2.805
		c0.092,0.161,0.26,0.25,0.434,0.25c0.085,0,0.171-0.021,0.25-0.067c0.238-0.138,0.32-0.444,0.183-0.683l-1.62-2.806h2.19
		c0.276,0,0.5-0.224,0.5-0.5c0-0.275-0.224-0.5-0.5-0.5h-2.749l0.943-1.635c0.088-0.154,0.088-0.345,0-0.5l-1.099-1.903
		c-0.089-0.154-0.254-0.25-0.433-0.25l0,0l-1.904,0.003l-0.641-1.11l2.951-5.111h1.281l0.952,1.649
		c0.089,0.155,0.254,0.25,0.433,0.25l2.197,0.002l0,0c0.18,0,0.344-0.096,0.434-0.25l0.943-1.638l1.375,2.384
		c0.094,0.161,0.262,0.25,0.434,0.25c0.086,0,0.172-0.021,0.25-0.067c0.24-0.138,0.322-0.444,0.184-0.683L39.158,25.5h3.236
		c0.276,0,0.5-0.224,0.5-0.5S42.671,24.5,42.395,24.5z M37.154,25l-0.289,0.5l-0.52,0.9l-1.619-0.001L34.208,25.5L33.919,25
		l0.288-0.499l0.521-0.902h1.617l0.521,0.902L37.154,25z M30.906,25l-0.289,0.5l-2.375,4.114l-0.289,0.5h-0.578h-4.751h-0.577
		l-0.289-0.5L19.383,25.5L19.094,25l0.289-0.5l2.376-4.114l0.289-0.5h0.577h4.751h0.578l0.289,0.5l2.374,4.114L30.906,25z
		 M30.5,14.476h0.577l0.289,0.5l0.521,0.899l-0.81,1.402h-1.04h-0.579l-0.288-0.5l-0.521-0.903l0.81-1.4L30.5,14.476z
		 M18.923,17.276l-0.81-1.402l0.521-0.902l0.288-0.5H19.5h1.04l0.811,1.402l-0.521,0.899l-0.29,0.5h-0.576L18.923,17.276z M16.08,25
		l-0.289,0.5l-0.521,0.901h-1.618L13.134,25.5L12.846,25l0.289-0.5l0.52-0.901h1.617l0.52,0.901L16.08,25z M19.5,35.525h-0.58
		l-0.288-0.498l-0.521-0.903l0.809-1.398l1.042-0.001h0.576l0.29,0.501l0.519,0.898l-0.808,1.402L19.5,35.525z M31.076,32.724
		l0.809,1.401l-0.519,0.9l-0.289,0.501H30.5h-1.042l-0.81-1.402l0.521-0.899l0.289-0.5h0.578L31.076,32.724z"/>
	<path stroke="#ddddff" d="M27.087,21.386h-0.578H23.49h-0.577l-0.289,0.5L21.115,24.5L20.826,25l0.289,0.5l1.51,2.614l0.289,0.5h0.577h3.019h0.578
		l0.289-0.5l1.508-2.614l0.289-0.5l-0.289-0.5l-1.509-2.614L27.087,21.386z M28.02,25l-0.289,0.5l-0.933,1.614l-0.289,0.5h-0.577
		h-1.865H23.49l-0.289-0.5L22.27,25.5L21.981,25l0.289-0.5l0.932-1.614l0.289-0.5h0.577h1.864h0.578l0.289,0.5L27.73,24.5L28.02,25z
		"/>
</g>
</svg>
