<?xml version="1.0" encoding="utf-8"?>
<!-- Generator: Adobe Illustrator 16.0.4, SVG Export Plug-In . SVG Version: 6.00 Build 0)  -->
<!DOCTYPE svg PUBLIC "-//W3C//DTD SVG 1.1//EN" "http://www.w3.org/Graphics/SVG/1.1/DTD/svg11.dtd">
<svg version="1.1" id="Layer_1" xmlns="http://www.w3.org/2000/svg" xmlns:xlink="http://www.w3.org/1999/xlink" x="0px" y="0px"
	 width="50px" height="50px" viewBox="0 0 50 50" enable-background="new 0 0 50 50" xml:space="preserve">
<path stroke="#ddddff" d="M40.938,21.911L40.938,21.911c-0.761,0.011-1.474,0.317-2.003,0.864c-0.399,0.41-0.659,0.921-0.758,1.473h-4.262
	l3.768-3.766c0.293-0.293,0.293-0.769,0-1.062s-0.769-0.293-1.062,0l-4.827,4.826h-0.083c-0.213-1.918-1.233-3.591-2.711-4.683
	l0.047-0.084l6.591-1.766c0.399-0.107,0.637-0.519,0.529-0.919c-0.106-0.399-0.518-0.639-0.919-0.53l-5.14,1.377l2.138-3.703
	c0.306,0.108,0.621,0.185,0.946,0.185c0.998,0,1.936-0.531,2.448-1.387c0.805-1.349,0.362-3.103-0.985-3.907
	c-0.442-0.264-0.946-0.402-1.458-0.402c-0.998,0-1.936,0.53-2.449,1.387c-0.634,1.063-0.484,2.369,0.26,3.271l-2.2,3.812
	l-1.378-5.146c-0.107-0.399-0.519-0.637-0.919-0.53c-0.4,0.107-0.638,0.52-0.53,0.92l1.767,6.592l-0.043,0.076
	c-0.83-0.364-1.744-0.569-2.707-0.569c-0.963,0-1.877,0.205-2.707,0.569l-0.043-0.074l1.767-6.592
	c0.107-0.399-0.13-0.812-0.53-0.918c-0.399-0.105-0.812,0.131-0.919,0.529l-1.378,5.143l-2.163-3.746
	c0.879-0.891,1.105-2.285,0.45-3.422c-0.508-0.879-1.454-1.424-2.469-1.424c-0.498,0-0.99,0.133-1.422,0.383
	c-0.659,0.379-1.13,0.992-1.328,1.729c-0.197,0.736-0.096,1.504,0.284,2.162c0.508,0.879,1.455,1.425,2.47,1.425
	c0.244,0,0.485-0.032,0.72-0.095l2.158,3.736l-5.141-1.377c-0.398-0.105-0.811,0.131-0.918,0.53c-0.107,0.4,0.13,0.812,0.531,0.919
	l6.59,1.766l0.047,0.082c-1.478,1.092-2.498,2.765-2.711,4.683h-0.085l-4.826-4.826c-0.293-0.293-0.768-0.293-1.061,0
	s-0.293,0.769,0,1.062l3.766,3.766h-4.403c-0.408-1.081-1.453-1.859-2.701-1.859l0,0c-1.569,0.023-2.828,1.32-2.805,2.893
	c0.023,1.547,1.302,2.806,2.849,2.806h0.042c1.381-0.021,2.519-1.026,2.758-2.338h4.259l-3.764,3.763
	c-0.293,0.293-0.293,0.769,0,1.062c0.146,0.146,0.338,0.22,0.53,0.22c0.192,0,0.384-0.072,0.53-0.22l4.824-4.823h0.087
	c0.213,1.918,1.234,3.592,2.712,4.684l-0.044,0.076l-6.595,1.77c-0.4,0.107-0.637,0.519-0.53,0.919
	c0.107,0.399,0.521,0.639,0.919,0.53l5.145-1.381l-2.133,3.696c-1.234-0.42-2.724,0.08-3.402,1.218
	c-0.806,1.346-0.364,3.099,0.984,3.905c0.442,0.265,0.946,0.403,1.458,0.403c0.998,0,1.935-0.531,2.448-1.387
	c0.39-0.654,0.502-1.422,0.316-2.16c-0.105-0.418-0.308-0.791-0.575-1.112l2.199-3.81l1.378,5.139
	c0.09,0.335,0.393,0.556,0.724,0.556c0.064,0,0.13-0.008,0.195-0.024c0.4-0.107,0.637-0.52,0.53-0.92l-1.766-6.586l0.044-0.076
	c0.829,0.363,1.744,0.568,2.706,0.568c0.961,0,1.876-0.205,2.706-0.568l0.043,0.074l-1.766,6.59c-0.107,0.399,0.13,0.812,0.53,0.918
	c0.064,0.019,0.13,0.025,0.194,0.025c0.331,0,0.634-0.221,0.725-0.556l1.378-5.142l2.163,3.748
	c-0.345,0.347-0.604,0.771-0.733,1.258c-0.197,0.734-0.096,1.502,0.284,2.162c0.507,0.879,1.454,1.424,2.469,1.424
	c0.498,0,0.99-0.133,1.422-0.383c0.659-0.379,1.13-0.994,1.327-1.729c0.198-0.734,0.097-1.503-0.284-2.162
	c-0.507-0.879-1.453-1.425-2.469-1.425c-0.245,0-0.487,0.034-0.722,0.096l-2.159-3.739l5.143,1.379
	c0.399,0.108,0.812-0.129,0.919-0.529c0.107-0.4-0.13-0.812-0.529-0.919l-6.594-1.769l-0.045-0.078
	c1.479-1.092,2.499-2.766,2.712-4.684h0.086l4.822,4.824c0.146,0.146,0.338,0.22,0.53,0.22c0.191,0,0.384-0.073,0.53-0.22
	c0.293-0.293,0.293-0.768,0-1.061l-3.762-3.765h4.401c0.407,1.08,1.445,1.858,2.659,1.858h0.043c1.571-0.022,2.829-1.32,2.805-2.892
	C43.806,23.17,42.529,21.911,40.938,21.911z M32.038,10.585c0.174-0.291,0.445-0.493,0.757-0.59c0.129-0.04,0.265-0.067,0.405-0.067
	c0.242,0,0.48,0.065,0.688,0.19c0.149,0.09,0.271,0.208,0.372,0.339c0.326,0.426,0.386,1.023,0.095,1.512
	c-0.275,0.461-0.818,0.698-1.336,0.637c-0.18-0.021-0.354-0.074-0.516-0.172c-0.331-0.196-0.54-0.516-0.616-0.865
	C31.814,11.243,31.854,10.893,32.038,10.585z M15.838,11.829c-0.18-0.312-0.228-0.675-0.134-1.022
	c0.021-0.08,0.072-0.146,0.107-0.22c0.116-0.243,0.281-0.462,0.521-0.6c0.205-0.119,0.438-0.183,0.672-0.183
	c0.032,0,0.063,0.012,0.095,0.014c0.444,0.031,0.852,0.273,1.075,0.662c0.23,0.398,0.211,0.857,0.026,1.246
	c-0.113,0.237-0.274,0.455-0.519,0.597c-0.242,0.14-0.518,0.167-0.788,0.14C16.469,12.421,16.059,12.209,15.838,11.829z
	 M7.774,25.748c-0.063-0.152-0.104-0.316-0.107-0.49c-0.006-0.4,0.167-0.759,0.443-1.01c0.238-0.217,0.552-0.354,0.905-0.359
	c0.347,0,0.66,0.142,0.9,0.359c0.267,0.243,0.443,0.583,0.448,0.969c0.002,0.188-0.034,0.367-0.101,0.531
	c-0.199,0.484-0.672,0.83-1.227,0.838l-0.02,0.747v-0.747C8.458,26.586,7.978,26.237,7.774,25.748z M17.958,39.411
	c-0.174,0.291-0.444,0.493-0.756,0.59c-0.129,0.04-0.264,0.067-0.405,0.067c-0.242,0-0.48-0.065-0.688-0.19
	c-0.15-0.09-0.271-0.208-0.372-0.339c-0.328-0.428-0.387-1.021-0.095-1.512c0.247-0.411,0.68-0.657,1.161-0.657
	c0.059,0,0.115,0.017,0.173,0.022c0.181,0.024,0.357,0.073,0.516,0.17c0.309,0.184,0.527,0.478,0.616,0.826
	c0.003,0.014-0.001,0.026,0.002,0.041C18.186,38.768,18.137,39.114,17.958,39.411z M33.083,37.504
	c0.444,0.032,0.851,0.273,1.074,0.662c0.18,0.312,0.229,0.676,0.134,1.023c-0.021,0.08-0.072,0.146-0.107,0.221
	c-0.116,0.244-0.281,0.461-0.521,0.599c-0.242,0.14-0.517,0.165-0.786,0.14c-0.427-0.041-0.837-0.252-1.057-0.633
	c-0.18-0.312-0.229-0.676-0.135-1.023c0.021-0.081,0.072-0.146,0.107-0.221c0.116-0.244,0.281-0.461,0.521-0.599
	c0.205-0.118,0.438-0.182,0.672-0.182C33.021,37.491,33.051,37.502,33.083,37.504z M33.696,40.814L33.696,40.814
	c0.128,0,0.256-0.032,0.375-0.102C33.953,40.782,33.824,40.814,33.696,40.814z M30.256,24.998c0,0.257-0.04,0.503-0.075,0.75
	c-0.197,1.361-0.911,2.545-1.944,3.359c-0.394,0.312-0.82,0.576-1.291,0.765c-0.604,0.242-1.259,0.384-1.948,0.384
	s-1.344-0.142-1.948-0.384c-0.471-0.188-0.898-0.453-1.291-0.765c-1.033-0.814-1.747-1.998-1.944-3.359
	c-0.036-0.247-0.076-0.493-0.076-0.75s0.04-0.503,0.076-0.75c0.197-1.361,0.911-2.545,1.943-3.359
	c0.393-0.311,0.819-0.574,1.291-0.765c0.604-0.242,1.259-0.384,1.948-0.384s1.344,0.142,1.948,0.384
	c0.472,0.188,0.897,0.454,1.291,0.765c1.033,0.815,1.746,1.998,1.943,3.359C30.216,24.495,30.256,24.741,30.256,24.998z
	 M40.081,25.748c-0.267-0.243-0.442-0.584-0.449-0.971c-0.003-0.186,0.035-0.363,0.104-0.529c0.063-0.156,0.156-0.303,0.277-0.428
	c0.251-0.26,0.588-0.404,0.971-0.409c0.557,0,1.036,0.349,1.239,0.837c0.062,0.152,0.104,0.316,0.106,0.491
	c0.006,0.399-0.167,0.758-0.439,1.009c-0.235,0.217-0.544,0.354-0.889,0.359l-0.021,0.746v-0.746
	C40.633,26.107,40.32,25.967,40.081,25.748z"/>
</svg>
