<?xml version="1.0" encoding="utf-8"?>
<!-- Generator: Adobe Illustrator 16.0.4, SVG Export Plug-In . SVG Version: 6.00 Build 0)  -->
<!DOCTYPE svg PUBLIC "-//W3C//DTD SVG 1.1//EN" "http://www.w3.org/Graphics/SVG/1.1/DTD/svg11.dtd">
<svg version="1.1" id="Layer_1" xmlns="http://www.w3.org/2000/svg" xmlns:xlink="http://www.w3.org/1999/xlink" x="0px" y="0px"
	 width="50px" height="50px" viewBox="0 0 50 50" enable-background="new 0 0 50 50" xml:space="preserve">
<path stroke="#ddddff" d="M25.927,26.609v4.119l5.625,5.627l-2.059-7.687L25.927,26.609z M26.927,30.314v-1.974l1.707,0.986l0.986,3.682
	L26.927,30.314z M39.487,31.139l1.191,0.689l-0.88,1.525c0.013,0.06,0.009,0.123-0.022,0.179c-0.032,0.056-0.084,0.086-0.141,0.104
	L38.75,35.17l-1.19-0.688l-3.051,0.812l-0.816-3.048l-0.334-0.192l0.507,1.889c0.071,0.268-0.087,0.541-0.354,0.613
	c-0.263,0.064-0.539-0.088-0.611-0.354l-1.131-4.222l2.783,1.608l0.665,2.483l1.804-0.481l-0.168-0.667l1.533,0.879l0.34-0.589
	l-7.865-4.542l1.481,5.536c0.036,0.133-0.043,0.271-0.177,0.306c-0.021,0.006-0.043,0.01-0.064,0.01
	c-0.109,0-0.211-0.073-0.24-0.187l-1.614-6.019l-4.998-2.887v5.773l4.403,4.406c0.099,0.098,0.099,0.256,0,0.354
	c-0.049,0.049-0.112,0.073-0.176,0.073c-0.064,0-0.129-0.024-0.178-0.073l-4.051-4.053v9.081h0.679V39.02l0.538,0.646l1.28-1.279
	l-1.818-1.818v-3.211l3.089,3.088c0.195,0.195,0.195,0.512,0,0.707s-0.512,0.195-0.707,0l-1.382-1.381v0.383l2.232,2.232
	l-2.232,2.232v1.374h-1.76c-0.044,0.042-0.103,0.069-0.169,0.069s-0.125-0.027-0.169-0.069h-1.761v-1.374l-2.231-2.232l2.231-2.232
	V35.77l-1.381,1.383c-0.195,0.195-0.513,0.195-0.707,0c-0.195-0.195-0.195-0.512,0-0.707l3.088-3.09v3.213l-1.817,1.818l1.28,1.279
	l0.533-0.641l0.004,1.968h0.68v-9.081l-4.051,4.052c-0.098,0.099-0.256,0.099-0.354,0c-0.098-0.098-0.098-0.256,0-0.354l4.404-4.404
	v-5.773l-5.001,2.887l-1.613,6.019c-0.029,0.112-0.131,0.187-0.24,0.187c-0.021,0-0.043-0.004-0.064-0.01
	c-0.135-0.035-0.213-0.173-0.178-0.306l1.482-5.534l-7.863,4.54l0.34,0.589l1.535-0.887l-0.17,0.675l1.803,0.481l0.666-2.483
	l2.783-1.604l-1.134,4.219c-0.071,0.268-0.342,0.426-0.612,0.354c-0.267-0.072-0.424-0.347-0.354-0.613l0.507-1.887l-0.332,0.191
	l-0.817,3.048l-3.051-0.813l-1.189,0.688l-0.885-1.534c-0.058-0.019-0.108-0.049-0.142-0.104c-0.032-0.055-0.036-0.119-0.022-0.18
	l-0.881-1.524l1.192-0.69l0.815-3.048l3.05,0.817l0.333-0.192l-1.887-0.504c-0.268-0.071-0.426-0.346-0.354-0.612
	c0.072-0.267,0.345-0.42,0.612-0.354l4.219,1.129l-2.782,1.607l-2.481-0.666l-0.441,1.648H12.8l-2.119,1.229l0.338,0.589
	l7.865-4.541l-5.533-1.481c-0.135-0.035-0.214-0.174-0.178-0.307c0.035-0.135,0.176-0.21,0.307-0.178l6.018,1.611l5-2.887
	l-5.001-2.888l-6.017,1.612c-0.021,0.006-0.043,0.008-0.064,0.008c-0.109,0-0.212-0.072-0.241-0.186
	c-0.036-0.133,0.043-0.271,0.177-0.306l5.532-1.483l-7.862-4.539l-0.338,0.588l1.586,0.914l-0.717,0.178l0.479,1.789l2.486-0.666
	l2.781,1.604l-4.22,1.131c-0.044,0.011-0.087,0.017-0.13,0.017c-0.221,0-0.424-0.146-0.483-0.369
	c-0.071-0.268,0.087-0.541,0.354-0.613l1.888-0.506l-0.331-0.191l-3.052,0.818l-0.817-3.053l-1.191-0.686l0.881-1.525
	c-0.014-0.061-0.008-0.125,0.023-0.182c0.033-0.057,0.086-0.092,0.145-0.109l0.882-1.526l1.19,0.688l3.049-0.816l0.818,3.049
	l0.331,0.191l-0.506-1.885c-0.071-0.269,0.087-0.541,0.354-0.613c0.27-0.065,0.541,0.088,0.613,0.354l1.131,4.221l-2.783-1.608
	l-0.666-2.481l-1.905,0.512v0.482l-1.263-0.725l-0.338,0.588l7.862,4.54l-1.481-5.535c-0.036-0.133,0.043-0.271,0.177-0.306
	c0.134-0.036,0.271,0.043,0.306,0.177l1.613,6.019l5.001,2.887v-5.774l-4.403-4.405c-0.099-0.098-0.099-0.256,0-0.354
	c0.098-0.1,0.256-0.098,0.354,0l4.051,4.052V9.008h-0.679v1.975l-0.538-0.646l-1.28,1.28l1.818,1.817v3.211l-3.089-3.088
	c-0.195-0.194-0.195-0.512,0-0.707c0.195-0.194,0.512-0.194,0.707,0l1.382,1.381v-0.383l-2.232-2.231l2.232-2.233V8.008h1.76
	c0.044-0.043,0.103-0.07,0.169-0.07s0.125,0.027,0.169,0.07h1.761v1.375l2.231,2.233l-2.231,2.231v0.383l1.381-1.381
	c0.195-0.194,0.513-0.194,0.707,0c0.195,0.195,0.195,0.513,0,0.707l-3.088,3.088v-3.211l1.817-1.817l-1.28-1.28l-0.533,0.641
	l-0.004-1.969h-0.68v9.079l4.051-4.052c0.098-0.098,0.256-0.098,0.354,0c0.098,0.098,0.098,0.256,0,0.354l-4.404,4.405v5.774
	l5.001-2.887l1.613-6.019c0.035-0.134,0.177-0.213,0.306-0.177c0.134,0.035,0.214,0.173,0.177,0.306l-1.481,5.535l7.862-4.54
	l-0.338-0.588l-1.263,0.73v-0.49l-1.905-0.51l-0.666,2.48l-2.783,1.609l1.132-4.222c0.071-0.266,0.346-0.418,0.612-0.354
	c0.268,0.071,0.426,0.346,0.354,0.612l-0.506,1.885l0.331-0.19l0.818-3.05l3.049,0.818l1.191-0.689l0.881,1.527
	c0.058,0.019,0.11,0.053,0.145,0.109c0.031,0.057,0.037,0.12,0.023,0.18l0.881,1.527l-1.191,0.686l-0.816,3.052l-3.053-0.817
	l-0.331,0.19l1.888,0.506c0.268,0.072,0.426,0.347,0.354,0.613c-0.062,0.223-0.263,0.37-0.483,0.37
	c-0.043,0-0.086-0.006-0.129-0.018l-4.221-1.131l2.782-1.605l2.485,0.666l0.479-1.787l-0.709-0.178l1.579-0.914l-0.339-0.588
	l-7.862,4.539l5.532,1.482c0.134,0.035,0.213,0.173,0.177,0.306c-0.028,0.112-0.131,0.187-0.241,0.187
	c-0.021,0-0.043-0.004-0.063-0.01l-6.017-1.611l-5.002,2.888l5,2.888l6.019-1.611c0.133-0.034,0.271,0.043,0.306,0.177
	c0.036,0.133-0.043,0.271-0.177,0.306l-5.534,1.482l7.865,4.541l0.339-0.588l-2.125-1.229h1.216l-0.441-1.649l-2.481,0.668
	l-2.782-1.608l4.219-1.129c0.27-0.065,0.541,0.089,0.612,0.354c0.071,0.267-0.088,0.541-0.354,0.611l-1.887,0.504l0.334,0.192
	l3.049-0.817L39.487,31.139z M26.854,25.001l3.566,2.06l7.688-2.06l-7.687-2.06L26.854,25.001z M34.247,25.001l-3.686,0.987
	l-1.707-0.987l1.709-0.987L34.247,25.001z M24.067,26.609L20.5,28.67l-2.062,7.688l5.629-5.627V26.609z M23.067,30.314l-2.696,2.697
	l0.987-3.685l1.71-0.986L23.067,30.314L23.067,30.314z M23.14,25.001l-3.567-2.06l-7.688,2.06l7.688,2.06L23.14,25.001z
	 M15.747,25.001l3.684-0.987l1.709,0.987l-1.709,0.987L15.747,25.001z M25.927,23.391l3.568-2.061l2.061-7.688l-5.629,5.631V23.391z
	 M26.927,19.688l2.696-2.697l-0.987,3.683l-1.709,0.986V19.688z M24.067,23.393v-4.119l-5.629-5.631l2.062,7.689L24.067,23.393z
	 M23.067,19.688v1.974l-1.709-0.986l-0.987-3.685L23.067,19.688z"/>
</svg>
