<?xml version="1.0" encoding="utf-8"?>
<!-- Generator: Adobe Illustrator 16.0.4, SVG Export Plug-In . SVG Version: 6.00 Build 0)  -->
<!DOCTYPE svg PUBLIC "-//W3C//DTD SVG 1.1//EN" "http://www.w3.org/Graphics/SVG/1.1/DTD/svg11.dtd">
<svg version="1.1" id="Layer_1" xmlns="http://www.w3.org/2000/svg" xmlns:xlink="http://www.w3.org/1999/xlink" x="0px" y="0px"
	 width="50px" height="50px" viewBox="0 0 50 50" enable-background="new 0 0 50 50" xml:space="preserve">
<path stroke="#ddddff" d="M29.758,11.129L26,14.887V10h1v2.473l2.051-2.051L29.758,11.129z M28.207,19.835l0.337,0.209l6.358-6.36l-0.707-0.707
	l-5.807,5.809c-0.441-0.242-0.906-0.436-1.39-0.576V18.13l4.879-4.879l-0.707-0.707l-5.172,5.172v1.276l0.387,0.09
	C27.029,19.23,27.643,19.484,28.207,19.835z M30.167,21.796c0.353,0.562,0.604,1.175,0.754,1.817L31.011,24h0.987l4.965-4.966
	l-0.707-0.707l-4.512,4.513c-0.137-0.425-0.312-0.835-0.526-1.229l5.806-5.808l-0.707-0.706l-6.358,6.36L30.167,21.796z M37.24,23
	l1.844-1.846l-0.707-0.706L34.826,24H40v-1H37.24z M38.377,29.553l0.707-0.707L37.239,27H40v-1h-5.173L38.377,29.553z
	 M31.738,27.154l4.518,4.52l0.707-0.707L31.998,26H31.01l-0.092,0.384c-0.15,0.632-0.407,1.239-0.764,1.808l-0.211,0.338
	l6.373,6.375l0.707-0.707l-5.818-5.82C31.423,27.982,31.602,27.574,31.738,27.154z M28.188,30.154
	c-0.562,0.354-1.17,0.611-1.805,0.763l-0.384,0.092v1.276l5.172,5.172l0.707-0.707l-4.879-4.879v-0.085
	c0.476-0.144,0.937-0.338,1.376-0.581l5.818,5.818l0.707-0.707l-6.375-6.375L28.188,30.154z M26,40h1v-2.473l2.051,2.051
	l0.707-0.707L26,35.113V40z M20.951,39.578L23,37.527V40h1v-4.889l-3.756,3.76L20.951,39.578z M21.812,30.154l-0.338-0.213
	l-6.377,6.375l0.707,0.707l5.819-5.818c0.438,0.243,0.899,0.438,1.376,0.581v0.085l-4.877,4.879l0.707,0.707L24,32.285v-1.276
	l-0.384-0.092C22.98,30.766,22.374,30.509,21.812,30.154z M19.848,28.189c-0.356-0.564-0.613-1.172-0.766-1.807l-0.092-0.384h-0.988
	l-4.965,4.967l0.707,0.707l4.518-4.521c0.139,0.423,0.316,0.83,0.534,1.224l-5.819,5.819l0.707,0.707l6.377-6.377L19.848,28.189z
	 M10,26v1h2.761l-1.845,1.846l0.707,0.707L15.173,26H10z M11.623,20.448l-0.707,0.706L12.76,23H10v1h5.174L11.623,20.448z
	 M18.262,22.846l-4.518-4.519l-0.707,0.707L18.002,24h0.988l0.092-0.384c0.15-0.634,0.408-1.24,0.766-1.806l0.213-0.338
	l-6.377-6.375l-0.707,0.707l5.819,5.818C18.578,22.016,18.398,22.425,18.262,22.846z M18.123,13.25L23,18.129v0.085
	c-0.477,0.144-0.938,0.338-1.376,0.582l-5.819-5.819l-0.707,0.707l6.377,6.377l0.338-0.213c0.562-0.355,1.17-0.613,1.805-0.765
	l0.384-0.092v-1.276l-5.17-5.172L18.123,13.25z M23,12.473l-2.049-2.051l-0.707,0.707L24,14.889V10h-1V12.473z M21.314,26.71
	c0.403,0.874,1.105,1.575,1.977,1.976L24,29.01V26h-3.012L21.314,26.71z M21.314,23.291L20.99,24H24v-3.011l-0.709,0.325
	C22.417,21.718,21.716,22.419,21.314,23.291z M28.686,26.709L29.01,26H26v3.01l0.709-0.324
	C27.582,28.284,28.284,27.582,28.686,26.709z M28.686,23.291c-0.4-0.872-1.103-1.573-1.977-1.977L26,20.988V24h3.01L28.686,23.291z"
	/>
</svg>
