<?xml version="1.0" encoding="utf-8"?>
<!-- Generator: Adobe Illustrator 16.0.4, SVG Export Plug-In . SVG Version: 6.00 Build 0)  -->
<!DOCTYPE svg PUBLIC "-//W3C//DTD SVG 1.1//EN" "http://www.w3.org/Graphics/SVG/1.1/DTD/svg11.dtd">
<svg version="1.1" id="Layer_1" xmlns="http://www.w3.org/2000/svg" xmlns:xlink="http://www.w3.org/1999/xlink" x="0px" y="0px"
	 width="50px" height="50px" viewBox="0 0 50 50" enable-background="new 0 0 50 50" xml:space="preserve">
<path stroke="#ddddff" d="M39.812,32.977l-6.979-4.029v-7.893l6.979-4.029c0.238-0.139,0.32-0.443,0.183-0.684c-0.138-0.238-0.444-0.322-0.683-0.183
	l-6.978,4.028l-6.334-3.654l5.151-5.152c0.195-0.195,0.195-0.512,0-0.707c-0.194-0.195-0.512-0.195-0.707,0L25.5,15.619V8.186
	c0-0.276-0.224-0.5-0.5-0.5s-0.5,0.224-0.5,0.5v7.434l-4.945-4.945c-0.195-0.195-0.513-0.195-0.707,0
	c-0.195,0.195-0.195,0.512,0,0.707L24,16.533l-6.334,3.654l-6.978-4.028c-0.238-0.138-0.545-0.058-0.683,0.183
	c-0.139,0.239-0.057,0.545,0.183,0.684l6.979,4.029v7.893l-6.979,4.029c-0.238,0.138-0.32,0.442-0.183,0.683
	c0.093,0.159,0.261,0.25,0.433,0.25c0.086,0,0.172-0.021,0.25-0.067l6.98-4.029L24,33.466l-5.153,5.154
	c-0.195,0.194-0.195,0.512,0,0.707c0.195,0.194,0.512,0.194,0.707,0l4.947-4.948v7.436c0,0.276,0.225,0.5,0.5,0.5s0.5-0.224,0.5-0.5
	v-7.436l4.945,4.947c0.099,0.098,0.227,0.146,0.354,0.146s0.257-0.05,0.354-0.146c0.195-0.195,0.195-0.512,0-0.707l-5.153-5.154
	l6.331-3.654l6.98,4.03c0.078,0.046,0.164,0.067,0.25,0.067c0.172,0,0.34-0.09,0.433-0.25
	C40.133,33.419,40.051,33.113,39.812,32.977z M31.833,28.368L25.999,25l5.834-3.368V28.368z M25.5,24.135v-6.736l5.835,3.367
	L25.5,24.135z M24.5,17.398v6.735l-5.835-3.368L24.5,17.398z M18.167,21.632L24.001,25l-5.834,3.368V21.632z M24.5,25.865v6.732
	l-5.831-3.365L24.5,25.865z M25.5,32.6v-6.733l5.831,3.366L25.5,32.6z"/>
</svg>
