<?xml version="1.0" encoding="utf-8"?>
<!-- Generator: Adobe Illustrator 16.0.4, SVG Export Plug-In . SVG Version: 6.00 Build 0)  -->
<!DOCTYPE svg PUBLIC "-//W3C//DTD SVG 1.1//EN" "http://www.w3.org/Graphics/SVG/1.1/DTD/svg11.dtd">
<svg version="1.1" id="Layer_1" xmlns="http://www.w3.org/2000/svg" xmlns:xlink="http://www.w3.org/1999/xlink" x="0px" y="0px"
	 width="50px" height="50px" viewBox="0 0 50 50" enable-background="new 0 0 50 50" xml:space="preserve">
<path stroke="#ddddff" d="M43.786,24.749l-1.18-2.041c-0.09-0.154-0.255-0.25-0.433-0.25l-2.357-0.001c-0.179,0-0.344,0.096-0.433,0.25l-1.034,1.792
	h-5.036l4.194-4.192c0.195-0.195,0.195-0.512,0-0.707s-0.512-0.195-0.707,0l-4.901,4.899h-3.016l-1.509-2.614l1.51-2.616
	l6.689-1.792c0.267-0.071,0.425-0.346,0.354-0.612c-0.07-0.267-0.345-0.423-0.612-0.354l-5.723,1.533l2.514-4.354l0.81-0.002
	l0.148,0.002c0.002,0,0.005,0,0.007,0l1.104-0.001c0.179,0,0.343-0.095,0.433-0.249l1.182-2.042c0.09-0.154,0.09-0.345,0-0.5
	l-1.182-2.042c-0.089-0.154-0.254-0.25-0.433-0.25l-2.357,0.001c-0.178,0-0.343,0.096-0.433,0.25l-1.178,2.04
	c-0.09,0.154-0.09,0.345-0.001,0.5l1.035,1.792l-2.518,4.358l-1.534-5.728c-0.069-0.267-0.345-0.424-0.611-0.354
	c-0.268,0.071-0.426,0.346-0.354,0.612l1.793,6.693l-1.509,2.613H23.49l-1.51-2.614l1.793-6.689
	c0.071-0.267-0.087-0.541-0.354-0.612c-0.265-0.069-0.54,0.087-0.612,0.354l-1.534,5.724l-2.517-4.359l1.034-1.79
	c0.09-0.154,0.09-0.345,0-0.5l-1.178-2.041c-0.089-0.154-0.254-0.249-0.432-0.25h-2.358c-0.179,0-0.344,0.095-0.434,0.25
	l-1.179,2.042c-0.089,0.155-0.089,0.346,0,0.5l1.179,2.041c0.09,0.154,0.255,0.25,0.434,0.25h1.104c0.001,0,0.002,0,0.003,0
	l0.962-0.001l2.517,4.358l-5.726-1.533c-0.265-0.07-0.541,0.087-0.612,0.354c-0.071,0.267,0.087,0.541,0.354,0.612l6.691,1.792
	l1.509,2.614l-1.51,2.614h-3.018L13.197,19.6c-0.195-0.195-0.512-0.195-0.707,0c-0.195,0.195-0.195,0.512,0,0.707l4.192,4.192
	h-5.033l-1.034-1.792c-0.09-0.154-0.254-0.249-0.433-0.249H7.826c-0.179,0-0.344,0.095-0.433,0.249l-1.18,2.041
	c-0.089,0.155-0.089,0.346,0,0.5l1.178,2.042c0.09,0.155,0.255,0.25,0.434,0.25l1.25,0.001c0.002,0,0.003,0,0.004,0l1.104-0.001
	c0.179,0,0.344-0.095,0.433-0.25l1.032-1.791h5.032l-4.189,4.19c-0.195,0.194-0.195,0.512,0,0.707
	c0.098,0.098,0.226,0.146,0.354,0.146c0.128,0,0.256-0.049,0.354-0.146l4.896-4.897h3.02l1.51,2.612l-1.508,2.613l-6.693,1.795
	c-0.267,0.07-0.425,0.346-0.354,0.611c0.072,0.268,0.346,0.428,0.612,0.354l5.728-1.535l-2.519,4.361l-0.966-0.002l-1.104,0.004
	c-0.178,0-0.342,0.097-0.432,0.25l-1.178,2.039c-0.09,0.154-0.09,0.346-0.001,0.5l1.179,2.041c0.09,0.155,0.255,0.25,0.434,0.25
	l1.249,0.002c0.002,0,0.003,0,0.004,0l1.104-0.002c0.179,0,0.344-0.095,0.433-0.25l1.178-2.039c0.09-0.155,0.09-0.347,0-0.502
	l-1.034-1.791l2.517-4.358l1.535,5.723c0.061,0.224,0.262,0.37,0.482,0.37c0.043,0,0.087-0.005,0.13-0.018
	c0.268-0.071,0.426-0.346,0.354-0.611l-1.794-6.688l1.51-2.614h3.019l1.508,2.612l-1.793,6.69c-0.071,0.267,0.087,0.541,0.354,0.612
	c0.044,0.012,0.087,0.017,0.13,0.017c0.221,0,0.423-0.146,0.481-0.37l1.534-5.726l2.52,4.36l-1.036,1.791
	c-0.089,0.154-0.089,0.346,0,0.5l1.179,2.041c0.09,0.154,0.254,0.25,0.433,0.25l1.104,0.002c0.001,0,0.003,0,0.004,0l1.25-0.002
	c0.179,0,0.344-0.096,0.433-0.25l1.18-2.041c0.09-0.156,0.09-0.347,0-0.5l-1.18-2.041c-0.089-0.156-0.254-0.25-0.433-0.25h-1.253
	H32.11l-2.518-4.36l5.725,1.536c0.27,0.072,0.541-0.086,0.612-0.354c0.072-0.267-0.087-0.541-0.354-0.612l-6.69-1.795l-1.509-2.611
	l1.509-2.614h3.019l4.896,4.897c0.098,0.098,0.226,0.146,0.354,0.146c0.129,0,0.257-0.049,0.354-0.146
	c0.195-0.195,0.195-0.513,0-0.707l-4.189-4.19h5.033l1.035,1.792c0.089,0.154,0.254,0.25,0.433,0.25h2.357
	c0.179,0,0.344-0.096,0.433-0.249l1.179-2.043C43.876,25.095,43.876,24.904,43.786,24.749z M31.218,11.147l0.89-1.541l1.228-0.001
	h0.553l0.278,0.48l0.613,1.062l-0.893,1.542h-0.812l-0.153-0.002l-0.236,0.001l-0.577,0.001l-0.289-0.501L31.218,11.147z
	 M16.112,9.605l0.554-0.001l0.41-0.001l0.816,0.002l0.89,1.541l-0.602,1.04l-0.289,0.5l-0.576,0.001l-1.203,0.001l-0.89-1.542
	l0.613-1.062L16.112,9.605z M10.784,24.999l-0.288,0.5l-0.601,1.042L8.114,26.54l-0.612-1.062l-0.276-0.48l0.276-0.478l0.613-1.062
	h1.779l0.602,1.041L10.784,24.999z M18.781,38.854l-0.889,1.541h-1.238h-0.542l-0.276-0.479l-0.613-1.062l0.891-1.541h1.2h0.578
	l0.288,0.5L18.781,38.854z M33.888,40.395h-0.542h-0.424h-0.813l-0.891-1.543l0.603-1.041l0.288-0.498l0.578-0.002h1.201
	l0.891,1.543l-0.612,1.061L33.888,40.395z M26.51,27.613h-0.577h-1.864h-0.577l-0.289-0.5l-0.933-1.614l-0.288-0.5l0.288-0.5
	l0.933-1.615l0.288-0.499h0.579h1.862h0.578l0.289,0.5l0.932,1.614l0.289,0.5l-0.289,0.5l-0.932,1.614L26.51,27.613z M39.217,24.999
	l0.289-0.5l0.6-1.042l1.781,0.001l0.612,1.062l0.276,0.479L42.5,25.478l-0.613,1.063h-1.78l-0.601-1.042L39.217,24.999z"/>
</svg>
