<?xml version="1.0" encoding="utf-8"?>
<!-- Generator: Adobe Illustrator 16.0.4, SVG Export Plug-In . SVG Version: 6.00 Build 0)  -->
<!DOCTYPE svg PUBLIC "-//W3C//DTD SVG 1.1//EN" "http://www.w3.org/Graphics/SVG/1.1/DTD/svg11.dtd">
<svg version="1.1" id="Layer_1" xmlns="http://www.w3.org/2000/svg" xmlns:xlink="http://www.w3.org/1999/xlink" x="0px" y="0px"
	 width="50px" height="50px" viewBox="0 0 50 50" enable-background="new 0 0 50 50" xml:space="preserve">
<path stroke="#ddddff" d="M37.191,32.696c0,0.413-0.336,0.75-0.75,0.75h-2.994v2.995c0,0.414-0.336,0.75-0.75,0.75s-0.75-0.336-0.75-0.75v-4.495
	h4.494C36.855,31.946,37.191,32.282,37.191,32.696z M13.736,18.228h4.494v-4.495c0-0.414-0.336-0.75-0.75-0.75
	s-0.75,0.336-0.75,0.75v2.995h-2.994c-0.414,0-0.75,0.336-0.75,0.75S13.322,18.228,13.736,18.228z M12.809,32.52
	c0,0.414,0.336,0.75,0.75,0.75h2.996v2.996c0,0.414,0.336,0.75,0.75,0.75c0.414,0,0.75-0.336,0.75-0.75V31.77h-4.496
	C13.145,31.77,12.809,32.104,12.809,32.52z M37.016,17.303c0-0.414-0.336-0.75-0.75-0.75H33.27v-2.996c0-0.414-0.336-0.75-0.75-0.75
	s-0.75,0.336-0.75,0.75v4.496h4.496C36.68,18.053,37.016,17.717,37.016,17.303z M40.75,24.999c0,0.414-0.336,0.75-0.75,0.75h-3.289
	l1.8,1.8c0.294,0.293,0.294,0.768,0,1.061c-0.146,0.146-0.338,0.221-0.53,0.221c-0.191,0-0.383-0.073-0.529-0.221l-2.86-2.859
	h-3.629v3.721h4.479c0.414,0,0.75,0.336,0.75,0.75c0,0.413-0.336,0.75-0.75,0.75h-4.479v4.478c0,0.414-0.336,0.75-0.75,0.75
	s-0.75-0.336-0.75-0.75v-4.486h-3.711v3.629l2.858,2.86c0.293,0.293,0.293,0.768,0,1.061c-0.146,0.146-0.338,0.221-0.529,0.221
	s-0.385-0.073-0.53-0.221l-1.799-1.799v3.289c0,0.414-0.336,0.75-0.75,0.75s-0.75-0.336-0.75-0.75v-3.289l-1.8,1.801
	c-0.293,0.293-0.768,0.293-1.061,0c-0.293-0.294-0.293-0.769,0-1.062l2.86-2.86v-3.629h-3.71v4.486c0,0.414-0.336,0.75-0.75,0.75
	s-0.75-0.336-0.75-0.75v-4.479h-4.479c-0.414,0-0.75-0.336-0.75-0.75s0.336-0.75,0.75-0.75h4.479v-3.72h-3.63l-2.86,2.858
	c-0.146,0.146-0.338,0.221-0.53,0.221s-0.384-0.073-0.53-0.221c-0.293-0.293-0.293-0.768,0-1.061l1.799-1.799H10
	c-0.414,0-0.75-0.336-0.75-0.75s0.336-0.75,0.75-0.75h3.289l-1.8-1.8c-0.293-0.293-0.293-0.768,0-1.061
	c0.293-0.293,0.768-0.293,1.061,0l2.86,2.86h3.63v-3.711h-4.479c-0.414,0-0.75-0.336-0.75-0.75s0.336-0.75,0.75-0.75h4.479V14.56
	c0-0.414,0.336-0.75,0.75-0.75s0.75,0.336,0.75,0.75v4.478h3.71v-3.629l-2.859-2.86c-0.293-0.293-0.293-0.768,0-1.061
	c0.293-0.293,0.768-0.293,1.061,0l1.799,1.799V9.998c0-0.414,0.336-0.75,0.75-0.75s0.75,0.336,0.75,0.75v3.289l1.8-1.8
	c0.293-0.293,0.768-0.293,1.061,0c0.293,0.293,0.293,0.768,0,1.061l-2.859,2.86v3.629h3.711v-4.478c0-0.414,0.336-0.75,0.75-0.75
	s0.75,0.336,0.75,0.75v4.478h4.479c0.414,0,0.75,0.336,0.75,0.75s-0.336,0.75-0.75,0.75h-4.479v3.711h3.629l2.86-2.859
	c0.293-0.293,0.768-0.293,1.062,0c0.293,0.293,0.293,0.768,0,1.061l-1.8,1.799h3.289C40.414,24.249,40.75,24.585,40.75,24.999z
	 M29.461,24.249v-3.711H25.75h-1.5h-3.71v3.711v1.5v3.711h3.71h1.5h3.711v-3.711V24.249z"/>
</svg>
