<?xml version="1.0" encoding="utf-8"?>
<!-- Generator: Adobe Illustrator 16.0.4, SVG Export Plug-In . SVG Version: 6.00 Build 0)  -->
<!DOCTYPE svg PUBLIC "-//W3C//DTD SVG 1.1//EN" "http://www.w3.org/Graphics/SVG/1.1/DTD/svg11.dtd">
<svg version="1.1" id="Layer_1" xmlns="http://www.w3.org/2000/svg" xmlns:xlink="http://www.w3.org/1999/xlink" x="0px" y="0px"
	 width="50px" height="50px" viewBox="0 0 50 50" enable-background="new 0 0 50 50" xml:space="preserve">
<path stroke="#ddddff" d="M25,6.915c-0.12,0-0.236,0.017-0.352,0.035C24.754,6.893,24.871,6.852,25,6.852s0.245,0.041,0.352,0.099
	C25.236,6.932,25.12,6.915,25,6.915z M41.448,34.169c-0.503,0.901-1.458,1.462-2.492,1.462c-0.481,0-0.959-0.124-1.383-0.357
	c-0.665-0.373-1.146-0.979-1.354-1.713c-0.117-0.416-0.13-0.84-0.06-1.252l-1.005-0.58v1.199c0,0.413-0.336,0.75-0.75,0.75
	c-0.413,0-0.75-0.337-0.75-0.75v-2.066l-1.271-0.733v3.985c0,0.414-0.336,0.75-0.75,0.75s-0.75-0.336-0.75-0.75v-4.631
	c-1.173,1.535-2.928,2.6-4.938,2.856l4.006,2.312c0.357,0.207,0.48,0.666,0.273,1.024c-0.205,0.357-0.664,0.483-1.023,0.274
	l-3.452-1.992v1.468l1.789,1.034c0.358,0.208,0.479,0.666,0.272,1.025c-0.207,0.357-0.662,0.48-1.024,0.272l-1.037-0.601v1.089
	c1.205,0.333,2.099,1.427,2.099,2.735c0,1.57-1.279,2.85-2.851,2.85c-1.57,0-2.849-1.277-2.849-2.85
	c0-1.311,0.895-2.405,2.101-2.736v-1.086l-1.035,0.599c-0.118,0.068-0.247,0.101-0.374,0.101c-0.26,0-0.512-0.133-0.65-0.375
	c-0.207-0.357-0.084-0.816,0.274-1.023l1.785-1.031v-1.469l-3.449,1.99c-0.118,0.068-0.247,0.101-0.374,0.101
	c-0.26,0-0.512-0.135-0.65-0.375c-0.207-0.358-0.084-0.817,0.274-1.024l4.005-2.312c-2.01-0.257-3.766-1.321-4.938-2.856v4.631
	c0,0.414-0.337,0.75-0.75,0.75c-0.414,0-0.75-0.336-0.75-0.75v-3.985l-1.271,0.733v2.066c0,0.413-0.337,0.75-0.75,0.75
	c-0.414,0-0.75-0.337-0.75-0.75v-1.201l-1.006,0.582c0.07,0.412,0.059,0.836-0.061,1.252c-0.207,0.732-0.688,1.342-1.354,1.711
	c-0.424,0.235-0.9,0.359-1.383,0.359c0,0,0,0-0.001,0c-1.034,0-1.989-0.561-2.49-1.463c-0.37-0.664-0.46-1.434-0.252-2.166
	c0.209-0.73,0.688-1.338,1.354-1.707c0.422-0.236,0.9-0.361,1.385-0.361c0.843,0,1.619,0.388,2.154,1.016l0.9-0.52l-1.037-0.6
	c-0.357-0.207-0.48-0.665-0.273-1.023c0.207-0.357,0.664-0.483,1.023-0.274l1.789,1.03l1.271-0.733l-3.45-1.992
	c-0.357-0.207-0.48-0.666-0.273-1.024c0.207-0.356,0.664-0.482,1.023-0.273l3.997,2.309c-0.367-0.877-0.571-1.838-0.571-2.848
	c0-1.008,0.204-1.969,0.57-2.846l-3.997,2.308c-0.118,0.068-0.247,0.101-0.374,0.101c-0.26,0-0.512-0.135-0.65-0.375
	c-0.207-0.357-0.084-0.816,0.274-1.023l3.452-1.992l-1.273-0.734l-1.787,1.031c-0.117,0.068-0.246,0.102-0.373,0.102
	c-0.261,0-0.513-0.135-0.65-0.375c-0.207-0.358-0.085-0.817,0.273-1.024l1.037-0.6l-0.9-0.521c-0.535,0.629-1.312,1.016-2.156,1.016
	c-0.482,0-0.961-0.125-1.385-0.359c-1.371-0.766-1.864-2.505-1.101-3.876c0.501-0.901,1.456-1.462,2.49-1.462
	c0.481,0,0.96,0.124,1.383,0.359c1.081,0.604,1.606,1.809,1.413,2.963l1.005,0.58v-1.197c0-0.414,0.337-0.75,0.75-0.75
	c0.414,0,0.75,0.336,0.75,0.75v2.062l1.273,0.735l-0.001-3.985c0-0.414,0.336-0.75,0.75-0.75s0.75,0.336,0.75,0.75l0.001,4.631
	c1.174-1.535,2.93-2.601,4.938-2.856L20.05,15.35c-0.358-0.207-0.481-0.666-0.274-1.024c0.207-0.356,0.666-0.483,1.024-0.274
	l3.449,1.99v-1.468l-1.785-1.032c-0.358-0.207-0.481-0.666-0.274-1.023c0.207-0.359,0.666-0.483,1.024-0.274l1.035,0.599v-1.087
	c-1.205-0.332-2.099-1.426-2.099-2.735c0-1.57,1.277-2.85,2.849-2.85s2.851,1.278,2.851,2.85c0,1.311-0.895,2.404-2.101,2.735v1.089
	l1.037-0.601c0.362-0.209,0.817-0.084,1.024,0.272c0.207,0.359,0.086,0.817-0.272,1.025l-1.789,1.034v1.468l3.452-1.992
	c0.359-0.209,0.818-0.082,1.023,0.274c0.207,0.358,0.084,0.817-0.273,1.024l-4.006,2.312c2.01,0.259,3.766,1.321,4.938,2.858v-4.633
	c0-0.414,0.336-0.75,0.75-0.75s0.75,0.336,0.75,0.75v3.985l1.271-0.733v-2.064c0-0.414,0.337-0.75,0.75-0.75
	c0.414,0,0.75,0.336,0.75,0.75v1.197l1.007-0.58c-0.193-1.153,0.33-2.357,1.409-2.963c0.426-0.235,0.902-0.359,1.385-0.359
	c1.033,0,1.988,0.561,2.492,1.462c0.765,1.371,0.271,3.11-1.102,3.876c-0.424,0.234-0.902,0.359-1.385,0.359
	c-0.844,0-1.621-0.387-2.156-1.016l-0.9,0.521l1.037,0.6c0.358,0.207,0.481,0.666,0.274,1.024c-0.139,0.24-0.391,0.375-0.649,0.375
	c-0.127,0-0.256-0.032-0.375-0.102l-1.787-1.031l-1.272,0.733l3.453,1.993c0.358,0.207,0.481,0.666,0.274,1.023
	c-0.14,0.24-0.392,0.375-0.65,0.375c-0.127,0-0.256-0.031-0.374-0.101l-3.998-2.309c0.366,0.877,0.57,1.839,0.57,2.847
	c0,1.01-0.204,1.971-0.571,2.848l3.998-2.309c0.359-0.209,0.818-0.083,1.023,0.273c0.207,0.358,0.084,0.817-0.273,1.024l-3.45,1.992
	l1.271,0.733l1.787-1.03c0.36-0.209,0.817-0.083,1.024,0.274s0.084,0.816-0.274,1.023l-1.037,0.6l0.9,0.52
	c0.535-0.628,1.312-1.016,2.154-1.016c0.482,0,0.963,0.125,1.387,0.361c0.663,0.369,1.145,0.977,1.354,1.707
	C41.908,32.734,41.818,33.504,41.448,34.169z M37.682,16.811c-0.107,0.342-0.088,0.724,0.102,1.061
	c0.091,0.162,0.217,0.297,0.361,0.404c0.416,0.309,1.002,0.38,1.474,0.117c0.497-0.277,0.743-0.824,0.674-1.356
	c-0.022-0.163-0.067-0.326-0.153-0.479c-0.188-0.338-0.516-0.568-0.888-0.652c-0.097-0.021-0.192-0.039-0.294-0.039
	c-0.23,0-0.451,0.058-0.654,0.171C37.99,16.211,37.779,16.494,37.682,16.811z M12.318,16.811c-0.102-0.317-0.312-0.603-0.625-0.776
	c-0.197-0.11-0.424-0.169-0.651-0.169c-0.101,0-0.196,0.018-0.293,0.039c-0.371,0.083-0.698,0.312-0.888,0.652
	c-0.084,0.151-0.131,0.314-0.152,0.479c-0.07,0.533,0.178,1.079,0.674,1.355c0.469,0.264,1.057,0.189,1.473-0.117
	c0.146-0.107,0.272-0.241,0.362-0.403C12.406,17.534,12.427,17.152,12.318,16.811z M12.318,33.186
	c0.005-0.014,0.015-0.021,0.019-0.035c0.099-0.348,0.058-0.711-0.119-1.024c-0.091-0.163-0.221-0.293-0.364-0.403
	c-0.231-0.178-0.514-0.287-0.814-0.287c-0.23,0-0.451,0.058-0.654,0.17c-0.314,0.177-0.542,0.463-0.641,0.81
	c-0.053,0.183-0.061,0.366-0.036,0.548c0.022,0.165,0.071,0.328,0.155,0.479c0.188,0.34,0.515,0.57,0.887,0.652
	c0.096,0.021,0.193,0.039,0.294,0.039c0.228,0,0.453-0.059,0.653-0.17C11.999,33.792,12.215,33.516,12.318,33.186z M29.691,28.573
	c0.304-0.396,0.562-0.829,0.758-1.296c0.295-0.701,0.459-1.473,0.459-2.279s-0.164-1.578-0.459-2.279
	c-0.195-0.467-0.454-0.898-0.758-1.296c-0.937-1.227-2.338-2.075-3.941-2.28c-0.246-0.03-0.495-0.053-0.75-0.053
	s-0.504,0.021-0.75,0.053c-1.604,0.205-3.006,1.055-3.941,2.28c-0.304,0.396-0.562,0.829-0.758,1.296
	c-0.295,0.701-0.459,1.473-0.459,2.279s0.164,1.578,0.459,2.279c0.195,0.467,0.454,0.898,0.758,1.296
	c0.937,1.227,2.338,2.075,3.941,2.28c0.246,0.03,0.495,0.053,0.75,0.053s0.504-0.021,0.75-0.053
	C27.354,30.648,28.756,29.8,29.691,28.573z M23.652,9.016c0,0.459,0.246,0.847,0.598,1.09c0.218,0.149,0.466,0.259,0.75,0.259
	c0.283,0,0.532-0.108,0.75-0.259c0.354-0.243,0.6-0.631,0.6-1.09c0-0.461-0.246-0.849-0.6-1.093C25.532,7.773,25.283,7.665,25,7.665
	c-0.284,0-0.532,0.108-0.75,0.259C23.898,8.168,23.652,8.555,23.652,9.016z M24.648,6.95C24.764,6.93,24.879,6.915,25,6.915
	s0.236,0.017,0.352,0.035C25.246,6.893,25.129,6.852,25,6.852S24.755,6.893,24.648,6.95z M26.348,40.98
	c0-0.459-0.246-0.846-0.598-1.088c-0.218-0.151-0.468-0.261-0.752-0.261c-0.283,0-0.531,0.107-0.748,0.259
	c-0.354,0.242-0.6,0.631-0.6,1.09c0,0.461,0.246,0.85,0.6,1.093c0.217,0.149,0.465,0.258,0.748,0.258
	c0.284,0,0.534-0.108,0.752-0.26C26.102,41.828,26.348,41.441,26.348,40.98z M40.293,32.961c0.023-0.182,0.016-0.365-0.036-0.548
	c-0.099-0.347-0.325-0.633-0.639-0.808c-0.205-0.114-0.427-0.172-0.657-0.172c-0.302,0-0.583,0.109-0.814,0.287
	c-0.144,0.11-0.272,0.24-0.363,0.403c-0.176,0.313-0.219,0.679-0.119,1.024c0.004,0.014,0.014,0.021,0.018,0.035
	c0.104,0.33,0.319,0.607,0.623,0.775c0.284,0.158,0.612,0.182,0.922,0.115c0.375-0.079,0.721-0.294,0.912-0.639
	C40.223,33.289,40.271,33.126,40.293,32.961z"/>
</svg>
