<?xml version="1.0" encoding="utf-8"?>
<!-- Generator: Adobe Illustrator 16.0.4, SVG Export Plug-In . SVG Version: 6.00 Build 0)  -->
<!DOCTYPE svg PUBLIC "-//W3C//DTD SVG 1.1//EN" "http://www.w3.org/Graphics/SVG/1.1/DTD/svg11.dtd">
<svg version="1.1" id="Layer_1" xmlns="http://www.w3.org/2000/svg" xmlns:xlink="http://www.w3.org/1999/xlink" x="0px" y="0px"
	 width="50px" height="50px" viewBox="0 0 50 50" enable-background="new 0 0 50 50" xml:space="preserve">
<path stroke="#ddddff" d="M40.238,31.324c0-0.18-0.096-0.344-0.25-0.434l-1.893-1.094c-0.154-0.09-0.345-0.09-0.5,0l-1.697,0.98l-0.405-0.232
	c0.879-1.656,1.382-3.543,1.382-5.545c0-1.963-0.486-3.812-1.333-5.444l0.465-0.269l1.587,0.915c0.078,0.045,0.164,0.066,0.25,0.066
	s0.172-0.021,0.25-0.066l1.895-1.092c0.156-0.09,0.25-0.254,0.25-0.434l-0.002-1.16l0.002-1.025c0-0.18-0.094-0.346-0.25-0.434
	l-1.895-1.094c-0.154-0.089-0.345-0.088-0.5,0.001l-1.891,1.091c-0.155,0.09-0.251,0.256-0.251,0.434v1.964l-0.41,0.235
	c-2.021-3.203-5.522-5.369-9.542-5.539v-0.51l1.643-0.947c0.155-0.09,0.25-0.254,0.25-0.434V9.073c0-0.18-0.095-0.344-0.25-0.434
	L25.25,7.545c-0.155-0.09-0.345-0.09-0.5,0l-1.895,1.094c-0.154,0.09-0.25,0.254-0.25,0.434v2.186c0,0.18,0.095,0.344,0.25,0.434
	l1.645,0.947v0.51c-4.019,0.17-7.521,2.336-9.542,5.539l-0.412-0.236v-1.963c0-0.178-0.095-0.344-0.25-0.432l-1.892-1.093
	c-0.155-0.09-0.345-0.09-0.5-0.001l-1.894,1.094c-0.154,0.088-0.25,0.254-0.25,0.432l-0.002,2.187c0,0.179,0.095,0.345,0.25,0.433
	l1.895,1.095c0.078,0.045,0.164,0.067,0.25,0.067s0.172-0.022,0.25-0.067l1.586-0.917l0.468,0.271
	c-0.847,1.633-1.333,3.48-1.333,5.443c0,2.003,0.503,3.888,1.382,5.546L14.1,30.779l-1.7-0.98c-0.155-0.088-0.344-0.088-0.499,0.002
	l-1.892,1.09c-0.155,0.09-0.251,0.256-0.251,0.436v2.186c0,0.178,0.095,0.344,0.25,0.432l1.893,1.096
	c0.078,0.045,0.164,0.066,0.25,0.066s0.172-0.021,0.25-0.066l1.893-1.096c0.155-0.088,0.25-0.254,0.25-0.432V31.68l0.472-0.271
	c2.029,3.15,5.504,5.275,9.483,5.443v0.51l-1.645,0.947c-0.155,0.09-0.25,0.254-0.25,0.434v2.186c0,0.18,0.095,0.344,0.25,0.434
	l1.895,1.094c0.078,0.045,0.164,0.066,0.25,0.066s0.173-0.021,0.25-0.066l1.894-1.094c0.153-0.09,0.25-0.254,0.25-0.434v-2.186
	c0-0.18-0.096-0.344-0.25-0.434l-1.642-0.949v-0.51c3.979-0.168,7.454-2.293,9.483-5.445l0.47,0.271v1.834
	c0,0.178,0.095,0.344,0.25,0.432l1.894,1.096c0.077,0.045,0.163,0.066,0.25,0.066c0.086,0,0.172-0.021,0.25-0.066l1.893-1.096
	c0.154-0.088,0.25-0.254,0.25-0.432l0.002-1.164L40.238,31.324z M36.452,16.78l1.393-0.805l1.394,0.803v1.611l-1.395,0.803
	l-1.393-0.803L36.452,16.78L36.452,16.78z M12.155,19.192l-1.395-0.806l0.002-1.608l1.392-0.803l1.394,0.805v1.606L12.155,19.192z
	 M12.153,34.025l-1.393-0.805v-1.607l1.393-0.805l1.386,0.801c0.002,0.006,0.003,0.014,0.006,0.02v1.592L12.153,34.025z M35.876,25
	c0,1.82-0.455,3.535-1.25,5.044l-0.791-0.457c0.717-1.375,1.128-2.934,1.128-4.587c0-1.615-0.395-3.137-1.08-4.486l0.791-0.457
	C35.438,21.542,35.876,23.219,35.876,25z M29.535,18.832c-0.266-0.063-0.541,0.088-0.612,0.354l-0.962,3.594l-2.459,1.42v-2.84
	l2.629-2.631c0.195-0.195,0.195-0.513,0-0.707c-0.195-0.195-0.512-0.195-0.707,0l-1.923,1.924v-4.383
	c3.128,0.164,5.854,1.848,7.455,4.332l-3.771,2.178l0.703-2.629C29.959,19.177,29.801,18.903,29.535,18.832z M24.501,19.946
	l-1.924-1.924c-0.195-0.195-0.512-0.195-0.707,0c-0.195,0.194-0.195,0.512,0,0.707l2.631,2.631v2.84l-2.459-1.42l-0.964-3.596
	c-0.072-0.266-0.345-0.418-0.612-0.354c-0.267,0.072-0.425,0.347-0.354,0.613l0.705,2.627l-3.771-2.178
	c1.6-2.483,4.327-4.166,7.455-4.332V19.946z M20.316,22.938l-2.626,0.703c-0.267,0.071-0.425,0.346-0.354,0.611
	c0.06,0.225,0.262,0.371,0.482,0.371c0.043,0,0.086-0.006,0.13-0.018l3.593-0.963l2.46,1.422l-2.458,1.417l-3.595-0.963
	c-0.265-0.061-0.541,0.088-0.612,0.355c-0.071,0.266,0.087,0.539,0.354,0.611l2.629,0.703L16.6,29.336
	c-0.674-1.301-1.062-2.773-1.062-4.337c0-1.523,0.371-2.96,1.014-4.236L20.316,22.938z M20.817,28.057l-0.703,2.627
	c-0.071,0.268,0.087,0.541,0.354,0.613c0.043,0.01,0.087,0.016,0.13,0.016c0.221,0,0.423-0.146,0.482-0.371l0.962-3.59l2.459-1.422
	v2.84L21.87,31.4c-0.195,0.195-0.195,0.514,0,0.707c0.098,0.1,0.226,0.146,0.354,0.146s0.256-0.049,0.354-0.146l1.924-1.924v4.254
	c-3.089-0.162-5.789-1.803-7.397-4.234L20.817,28.057z M25.501,30.184l1.922,1.924c0.195,0.195,0.513,0.195,0.707,0
	c0.195-0.193,0.195-0.512,0-0.707l-2.629-2.631v-2.84l2.459,1.422l0.962,3.59c0.061,0.225,0.262,0.371,0.482,0.371
	c0.043,0,0.086-0.006,0.13-0.016c0.267-0.072,0.425-0.346,0.354-0.613l-0.703-2.627l3.713,2.146
	c-1.608,2.432-4.309,4.072-7.397,4.234V30.184z M29.684,27.189l2.629-0.703c0.267-0.07,0.424-0.346,0.354-0.611
	c-0.071-0.268-0.346-0.417-0.612-0.354l-3.595,0.963l-2.458-1.419l2.46-1.42l3.593,0.963c0.044,0.011,0.087,0.017,0.13,0.017
	c0.221,0,0.424-0.147,0.482-0.371c0.07-0.267-0.087-0.54-0.354-0.612l-2.627-0.703l3.766-2.174c0.643,1.277,1.014,2.713,1.014,4.237
	c0,1.563-0.388,3.038-1.062,4.338L29.684,27.189z M34.178,19.19l-0.789,0.455c-1.688-2.634-4.574-4.416-7.888-4.582v-0.912
	C29.15,14.317,32.331,16.285,34.178,19.19z M23.606,9.362L25,8.557l1.393,0.805v1.609L25,11.774l-1.394-0.803V9.362z M24.501,14.151
	v0.912c-3.312,0.166-6.2,1.948-7.888,4.582l-0.789-0.455C17.671,16.285,20.852,14.317,24.501,14.151z M14.126,25
	c0-1.781,0.438-3.459,1.201-4.943l0.791,0.457c-0.685,1.351-1.08,2.871-1.08,4.486c0,1.654,0.412,3.212,1.128,4.587l-0.791,0.457
	C14.581,28.535,14.126,26.82,14.126,25z M15.882,30.906l0.789-0.455c1.696,2.582,4.556,4.322,7.83,4.486v0.912
	C20.891,35.686,17.737,33.76,15.882,30.906z M26.395,40.639l-1.394,0.805l-1.394-0.805v-1.609l1.33-0.766
	c0.022,0.002,0.042,0.012,0.064,0.012s0.042-0.01,0.063-0.012l1.329,0.766v1.609H26.395z M25.501,35.85v-0.912
	c3.272-0.164,6.134-1.904,7.83-4.486l0.789,0.457C32.266,33.76,29.111,35.686,25.501,35.85z M39.238,33.221l-1.393,0.807
	l-1.393-0.807v-1.586c0.004-0.01,0.005-0.018,0.009-0.025l1.384-0.801l1.393,0.807V33.221z"/>
</svg>
