<?xml version="1.0" encoding="utf-8"?>
<!-- Generator: Adobe Illustrator 16.0.4, SVG Export Plug-In . SVG Version: 6.00 Build 0)  -->
<!DOCTYPE svg PUBLIC "-//W3C//DTD SVG 1.1//EN" "http://www.w3.org/Graphics/SVG/1.1/DTD/svg11.dtd">
<svg version="1.1" id="Layer_1" xmlns="http://www.w3.org/2000/svg" xmlns:xlink="http://www.w3.org/1999/xlink" x="0px" y="0px"
	 width="50px" height="50px" viewBox="0 0 50 50" enable-background="new 0 0 50 50" xml:space="preserve">
<path stroke="#ddddff" d="M39.871,26.48l-7.725,2.068l-1.944-1.123v-4.853l1.946-1.124l7.723,2.069c0.043,0.012,0.086,0.017,0.129,0.017
	c0.221,0,0.423-0.147,0.482-0.371c0.072-0.267-0.086-0.541-0.354-0.612l-6.757-1.81L36.391,19l2.948,0.791
	c0.044,0.012,0.087,0.017,0.13,0.017c0.221,0,0.424-0.147,0.483-0.371c0.071-0.267-0.087-0.541-0.354-0.612l-1.983-0.532
	l2.198-1.269c0.238-0.138,0.32-0.444,0.183-0.683c-0.138-0.24-0.444-0.321-0.683-0.183l-2.196,1.268l0.53-1.981
	c0.071-0.267-0.086-0.541-0.354-0.612c-0.268-0.069-0.541,0.087-0.613,0.354l-0.789,2.947l-3.018,1.743l1.811-6.755
	c0.071-0.267-0.086-0.541-0.354-0.612c-0.268-0.07-0.54,0.086-0.613,0.354l-2.068,7.721l-1.945,1.124L25.5,19.281v-2.247
	l5.652-5.653c0.195-0.195,0.195-0.512,0-0.707c-0.195-0.195-0.512-0.195-0.707,0L25.5,15.62v-3.484l2.158-2.158
	c0.195-0.195,0.195-0.512,0-0.707s-0.512-0.195-0.707,0L25.5,10.722V8.186c0-0.276-0.225-0.5-0.5-0.5s-0.5,0.224-0.5,0.5v2.536
	l-1.451-1.451c-0.195-0.195-0.512-0.195-0.707,0s-0.195,0.512,0,0.707l2.158,2.158v3.484l-4.945-4.946
	c-0.195-0.195-0.512-0.195-0.707,0c-0.195,0.195-0.195,0.512,0,0.707l5.652,5.653v2.247l-4.203,2.426l-1.945-1.124l-2.068-7.721
	c-0.072-0.267-0.344-0.424-0.613-0.354c-0.268,0.071-0.425,0.346-0.354,0.612l1.811,6.755l-3.018-1.743l-0.789-2.947
	c-0.072-0.268-0.346-0.424-0.613-0.354c-0.268,0.071-0.425,0.346-0.354,0.612l0.53,1.981l-2.196-1.268
	c-0.237-0.136-0.545-0.056-0.683,0.183c-0.139,0.239-0.058,0.545,0.183,0.683l2.198,1.269l-1.983,0.532
	c-0.268,0.071-0.426,0.346-0.354,0.612c0.062,0.224,0.263,0.371,0.483,0.371c0.043,0,0.086-0.005,0.13-0.017l2.948-0.791
	l3.019,1.742l-6.757,1.81c-0.268,0.071-0.426,0.346-0.354,0.612c0.061,0.224,0.262,0.371,0.482,0.371
	c0.043,0,0.086-0.005,0.129-0.017l7.723-2.069l1.946,1.124v4.853l-1.946,1.124l-7.723-2.069c-0.264-0.069-0.54,0.088-0.611,0.354
	c-0.072,0.267,0.086,0.541,0.354,0.612l6.757,1.81l-3.019,1.743l-2.947-0.79c-0.27-0.071-0.541,0.086-0.613,0.354
	c-0.07,0.267,0.087,0.541,0.354,0.611l1.982,0.531l-2.197,1.27c-0.238,0.137-0.32,0.443-0.183,0.683
	c0.093,0.161,0.261,0.25,0.433,0.25c0.086,0,0.172-0.021,0.25-0.067l2.197-1.27l-0.531,1.981c-0.07,0.267,0.088,0.541,0.354,0.612
	c0.043,0.012,0.086,0.018,0.129,0.018c0.222,0,0.423-0.147,0.483-0.371l0.789-2.947l3.017-1.742l-1.812,6.755
	c-0.07,0.267,0.088,0.541,0.354,0.612c0.044,0.012,0.087,0.017,0.13,0.017c0.221,0,0.424-0.147,0.483-0.371l2.067-7.721l1.947-1.124
	l4.203,2.429v2.247l-5.652,5.654c-0.195,0.195-0.195,0.512,0,0.707s0.512,0.195,0.707,0l4.945-4.947v3.485l-2.158,2.157
	c-0.195,0.195-0.195,0.513,0,0.707c0.195,0.195,0.512,0.195,0.707,0l1.451-1.451v2.537c0,0.275,0.225,0.5,0.5,0.5s0.5-0.225,0.5-0.5
	v-2.537l1.451,1.451c0.098,0.099,0.226,0.146,0.354,0.146c0.129,0,0.256-0.049,0.354-0.146c0.194-0.194,0.194-0.512,0-0.707
	L25.5,37.864v-3.485l4.945,4.947c0.098,0.098,0.226,0.146,0.354,0.146s0.256-0.05,0.354-0.146c0.195-0.195,0.195-0.512,0-0.707
	L25.5,32.965v-2.247l4.202-2.426l1.944,1.123l2.068,7.722c0.061,0.225,0.264,0.371,0.483,0.371c0.043,0,0.086-0.005,0.13-0.017
	c0.268-0.071,0.425-0.347,0.354-0.612l-1.812-6.756l3.021,1.743l0.789,2.946c0.061,0.224,0.262,0.371,0.482,0.371
	c0.042,0,0.086-0.004,0.129-0.017c0.268-0.071,0.426-0.347,0.354-0.612l-0.531-1.98l2.197,1.269c0.08,0.046,0.166,0.067,0.25,0.067
	c0.172,0,0.342-0.09,0.434-0.25c0.139-0.239,0.057-0.545-0.184-0.684l-2.197-1.269l1.982-0.531c0.268-0.071,0.426-0.346,0.354-0.612
	c-0.072-0.267-0.343-0.426-0.613-0.354l-2.946,0.79l-3.02-1.743l6.757-1.81c0.269-0.071,0.426-0.347,0.354-0.612
	C40.411,26.568,40.137,26.41,39.871,26.48z M29.202,23.151v3.697v0.578l-0.5,0.289l-3.202,1.85L25,29.854l-0.5-0.289l-3.202-1.85
	l-0.5-0.289v-0.578v-3.697v-0.579l0.499-0.288l3.203-1.848l0.5-0.289l0.5,0.289l3.203,1.849l0.499,0.288V23.151z"/>
</svg>
