<?xml version="1.0" encoding="utf-8"?>
<!-- Generator: Adobe Illustrator 16.0.4, SVG Export Plug-In . SVG Version: 6.00 Build 0)  -->
<!DOCTYPE svg PUBLIC "-//W3C//DTD SVG 1.1//EN" "http://www.w3.org/Graphics/SVG/1.1/DTD/svg11.dtd">
<svg version="1.1" id="Layer_1" xmlns="http://www.w3.org/2000/svg" xmlns:xlink="http://www.w3.org/1999/xlink" x="0px" y="0px"
	 width="50px" height="50px" viewBox="0 0 50 50" enable-background="new 0 0 50 50" xml:space="preserve">
<path stroke="#ddddff" d="M39.484,19.238l2.236-1.286v-2.573l-2.236-1.288l-2.234,1.288v1.995l-2.418,1.392v-1.714c0-0.276-0.225-0.5-0.5-0.5
	s-0.5,0.224-0.5,0.5v2.289l-1.771,1.02v-4.495c0-0.276-0.224-0.5-0.5-0.5c-0.275,0-0.5,0.224-0.5,0.5v4.955l-3.893,0.423l-1.631-3.7
	l4.217-2.434c0.239-0.138,0.321-0.444,0.184-0.683c-0.139-0.24-0.442-0.322-0.684-0.183L25.5,16.412v-2.045l1.84-1.063
	c0.239-0.138,0.321-0.444,0.184-0.683c-0.14-0.24-0.444-0.322-0.684-0.183L25.5,13.21v-2.594l1.736-1V7.043L25,5.757l-2.236,1.286
	v2.573l1.736,1v2.678l-1.484-0.857c-0.238-0.137-0.543-0.057-0.683,0.183c-0.14,0.239-0.058,0.545,0.183,0.683L24.5,14.45v2.045
	l-3.898-2.25c-0.236-0.137-0.545-0.055-0.683,0.183c-0.14,0.239-0.058,0.545,0.183,0.683l4.332,2.5l-1.602,3.633l-4.039-0.439
	l-0.002-4.939c0-0.276-0.225-0.5-0.5-0.5s-0.5,0.224-0.5,0.5l0.002,4.41l-1.773-1.02v-2.204c0-0.276-0.224-0.5-0.5-0.5
	c-0.275,0-0.5,0.224-0.5,0.5v1.628l-2.27-1.306v-1.995l-2.234-1.288l-2.236,1.288v2.573l2.236,1.286l1.734-0.998l2.271,1.307
	l-1.414,0.817c-0.239,0.138-0.321,0.444-0.184,0.683c0.092,0.161,0.262,0.25,0.434,0.25c0.084,0,0.17-0.021,0.25-0.067l1.916-1.107
	l1.775,1.022l-3.833,2.212c-0.239,0.138-0.321,0.444-0.183,0.683c0.092,0.161,0.261,0.25,0.433,0.25c0.085,0,0.171-0.021,0.25-0.067
	l4.308-2.487l2.389,3.262l-2.367,3.234l-4.328-2.499c-0.238-0.136-0.545-0.057-0.683,0.184c-0.14,0.238-0.058,0.545,0.183,0.683
	l3.868,2.233l-1.774,1.021l-1.953-1.126c-0.239-0.139-0.545-0.057-0.683,0.184c-0.139,0.238-0.057,0.545,0.183,0.682l1.451,0.838
	l-2.31,1.328l-1.733-0.998l-2.236,1.287l0.003,2.572l2.233,1.287l2.236-1.287v-1.996l2.27-1.307v1.589c0,0.276,0.225,0.5,0.5,0.5
	c0.276,0,0.5-0.224,0.5-0.5V30.74l1.771-1.019v4.37c0,0.275,0.225,0.5,0.5,0.5s0.5-0.225,0.5-0.5v-4.898l4.039-0.439l1.587,3.602
	l-4.317,2.492c-0.238,0.138-0.32,0.443-0.183,0.683c0.138,0.24,0.44,0.32,0.683,0.183l3.898-2.248v2.045l-1.984,1.146
	c-0.238,0.139-0.32,0.444-0.183,0.684c0.14,0.24,0.442,0.32,0.683,0.183l1.484-0.856v2.719l-1.736,0.998v2.574L25,44.242
	l2.236-1.285v-2.574L25.5,39.385V36.75l1.34,0.773c0.079,0.045,0.165,0.066,0.25,0.066c0.172,0,0.34-0.088,0.434-0.25
	c0.139-0.238,0.057-0.545-0.184-0.682l-1.84-1.064v-2.045l3.754,2.166c0.079,0.045,0.165,0.068,0.25,0.068
	c0.172,0,0.342-0.091,0.434-0.25c0.139-0.24,0.057-0.546-0.184-0.684l-4.202-2.426l1.616-3.668l3.893,0.424v4.914
	c0,0.277,0.225,0.5,0.5,0.5c0.276,0,0.5-0.223,0.5-0.5v-4.453l1.771,1.02v2.25c0,0.275,0.225,0.5,0.5,0.5s0.5-0.225,0.5-0.5v-1.674
	l2.416,1.391v1.996l2.236,1.287l2.233-1.287l0.003-2.572l-2.236-1.287l-1.733,0.998l-2.383-1.371l1.376-0.794
	c0.238-0.138,0.32-0.444,0.184-0.683c-0.139-0.24-0.445-0.322-0.684-0.184l-1.878,1.084l-1.774-1.021l3.795-2.19
	c0.239-0.138,0.321-0.444,0.184-0.683c-0.139-0.241-0.444-0.321-0.684-0.184l-4.226,2.439l-2.323-3.174l2.344-3.202l4.205,2.427
	c0.079,0.045,0.165,0.067,0.25,0.067c0.172,0,0.342-0.09,0.434-0.25c0.139-0.239,0.057-0.545-0.184-0.683l-3.76-2.17l1.773-1.021
	l1.844,1.064c0.079,0.045,0.165,0.067,0.25,0.067c0.172,0,0.341-0.089,0.434-0.25c0.139-0.239,0.057-0.545-0.184-0.683l-1.342-0.774
	l2.348-1.35L39.484,19.238z M29.623,22.917L28.098,25l1.525,2.083l0.743,1.015l-1.214-0.132l-2.604-0.283L25.5,30.062L25,31.196
	l-0.5-1.134l-1.049-2.379l-2.604,0.283l-1.215,0.132l0.743-1.015L21.9,25l-1.524-2.083l-0.743-1.015l1.215,0.132l2.604,0.283
	l1.049-2.379l0.5-1.134l0.5,1.134l1.049,2.379l2.604-0.283l1.215-0.132L29.623,22.917z"/>
</svg>
