<?xml version="1.0" encoding="utf-8"?>
<!-- Generator: Adobe Illustrator 16.0.4, SVG Export Plug-In . SVG Version: 6.00 Build 0)  -->
<!DOCTYPE svg PUBLIC "-//W3C//DTD SVG 1.1//EN" "http://www.w3.org/Graphics/SVG/1.1/DTD/svg11.dtd">
<svg version="1.1" id="Layer_1" xmlns="http://www.w3.org/2000/svg" xmlns:xlink="http://www.w3.org/1999/xlink" x="0px" y="0px"
	 width="50px" height="50px" viewBox="0 0 50 50" enable-background="new 0 0 50 50" xml:space="preserve">
<path stroke="#ddddff" d="M39.812,32.976l-6.724-3.883v-8.188l6.724-3.883c0.238-0.138,0.32-0.442,0.183-0.683c-0.138-0.239-0.445-0.321-0.683-0.183
	l-6.721,3.88l-6.402-3.693l4.965-4.965c0.195-0.194,0.195-0.512,0-0.707c-0.195-0.194-0.512-0.194-0.707,0L25.5,15.62V8.185
	c0-0.276-0.225-0.5-0.5-0.5s-0.5,0.224-0.5,0.5v7.436l-4.945-4.947c-0.195-0.195-0.513-0.195-0.707,0
	c-0.195,0.195-0.195,0.512,0,0.707l4.963,4.965l-6.401,3.693l-6.72-3.88c-0.238-0.138-0.545-0.058-0.684,0.183
	c-0.139,0.239-0.057,0.545,0.184,0.684l6.723,3.882v8.188l-6.723,3.881c-0.239,0.139-0.321,0.443-0.184,0.684
	c0.092,0.16,0.262,0.25,0.434,0.25c0.084,0,0.17-0.021,0.25-0.067l6.724-3.883l6.397,3.696l-4.963,4.965
	c-0.195,0.195-0.195,0.512,0,0.707c0.194,0.195,0.512,0.195,0.707,0L24.5,34.38v7.436c0,0.276,0.225,0.5,0.5,0.5s0.5-0.224,0.5-0.5
	V34.38l4.945,4.947c0.099,0.098,0.227,0.146,0.354,0.146s0.257-0.05,0.354-0.146c0.195-0.195,0.195-0.512,0-0.707l-4.965-4.965
	l6.398-3.696l6.725,3.883c0.078,0.046,0.164,0.067,0.25,0.067c0.172,0,0.34-0.09,0.433-0.25
	C40.133,33.418,40.051,33.112,39.812,32.976z M29.684,27.127l2.405-0.644v2.031L29.684,27.127z M28.922,30.879
	c0.004,0.013,0.016,0.019,0.021,0.03l-0.793,0.457c-0.008-0.01-0.012-0.021-0.021-0.031l-2.63-2.631v-2.84l2.458,1.42L28.922,30.879
	z M17.911,24.548c0.013-0.002,0.024-0.002,0.038-0.005l3.592-0.964l2.46,1.42l-2.46,1.42l-3.594-0.962
	c-0.012-0.003-0.023,0-0.036-0.002V24.548L17.911,24.548z M21.078,19.121c-0.004-0.015-0.014-0.022-0.018-0.035l0.787-0.455
	c0.01,0.011,0.012,0.022,0.021,0.032l2.63,2.631v2.84l-2.459-1.421L21.078,19.121z M32.089,25.455
	c-0.013,0.002-0.024-0.001-0.037,0.002l-3.593,0.962l-2.46-1.42l2.46-1.42l3.592,0.964c0.014,0.003,0.025,0.003,0.038,0.005V25.455
	L32.089,25.455z M27.959,22.713L25.5,24.134v-2.84l2.63-2.631c0.011-0.01,0.013-0.021,0.021-0.032l0.789,0.455
	c-0.006,0.013-0.015,0.021-0.019,0.035L27.959,22.713z M25.5,19.88v-2.779l1.762,1.018L25.5,19.88z M24.5,19.88l-1.762-1.763
	l1.762-1.017V19.88z M22.042,27.284l2.458-1.42v2.84l-2.63,2.631c-0.009,0.01-0.013,0.021-0.021,0.031l-0.793-0.457
	c0.006-0.012,0.018-0.018,0.021-0.03L22.042,27.284z M24.5,30.118v2.777l-1.762-1.017L24.5,30.118z M25.5,30.118l1.762,1.762
	L25.5,32.896V30.118z M32.089,23.517l-2.405-0.645l2.405-1.391V23.517z M29.186,22.006l0.646-2.405l1.761,1.017L29.186,22.006z
	 M20.17,19.601l0.646,2.405l-2.406-1.39L20.17,19.601z M20.316,22.872l-2.405,0.645v-2.033L20.316,22.872z M17.911,26.483
	l2.405,0.644l-2.405,1.39V26.483z M20.816,27.991l-0.646,2.404l-1.76-1.016L20.816,27.991z M29.829,30.396l-0.646-2.404l2.404,1.39
	L29.829,30.396z"/>
</svg>
