<?xml version="1.0" encoding="utf-8"?>
<!-- Generator: Adobe Illustrator 16.0.4, SVG Export Plug-In . SVG Version: 6.00 Build 0)  -->
<!DOCTYPE svg PUBLIC "-//W3C//DTD SVG 1.1//EN" "http://www.w3.org/Graphics/SVG/1.1/DTD/svg11.dtd">
<svg version="1.1" id="Layer_1" xmlns="http://www.w3.org/2000/svg" xmlns:xlink="http://www.w3.org/1999/xlink" x="0px" y="0px"
	 width="50px" height="50px" viewBox="0 0 50 50" enable-background="new 0 0 50 50" xml:space="preserve">
<path stroke="#ddddff" d="M40,24.5h-2.302l1.2-1.2c0.194-0.195,0.194-0.512,0-0.707c-0.195-0.195-0.512-0.195-0.707,0L36.285,24.5h-1.51l0.822-0.823
	c0.194-0.195,0.194-0.512,0-0.707c-0.195-0.195-0.513-0.195-0.707,0l-1.529,1.53h-1.938l-1.502-3.717l1.971-1.969l2.409-0.002
	c0.276,0,0.5-0.224,0.5-0.5s-0.224-0.5-0.5-0.5l-1.409,0.001l3.065-3.065c0.194-0.195,0.194-0.512,0-0.707s-0.513-0.195-0.707,0
	l-3.065,3.066v-1.41c0-0.276-0.225-0.5-0.5-0.5c-0.276,0-0.5,0.224-0.5,0.5v2.41l-1.996,1.996L25.5,18.538v-1.9l1.527-1.53
	c0.195-0.195,0.195-0.512,0-0.707c-0.195-0.194-0.512-0.195-0.707,0.001l-0.82,0.822v-1.509l1.904-1.906
	c0.195-0.195,0.195-0.512,0-0.707s-0.512-0.195-0.707,0L25.5,12.3V10c0-0.276-0.225-0.5-0.5-0.5s-0.5,0.224-0.5,0.5v2.3
	l-1.199-1.199c-0.195-0.195-0.512-0.195-0.707,0s-0.195,0.512,0,0.707l1.906,1.907v1.51l-0.824-0.823
	c-0.195-0.195-0.512-0.195-0.707,0c-0.195,0.195-0.195,0.512,0,0.707l1.531,1.53v1.935l-3.717,1.503l-1.971-1.971l-0.002-2.409
	c0-0.276-0.225-0.5-0.5-0.5c-0.276,0-0.5,0.224-0.5,0.5v1.408l-3.064-3.066c-0.195-0.195-0.512-0.195-0.707,0
	c-0.195,0.195-0.195,0.512,0,0.707l3.064,3.064h-1.408c-0.276,0-0.5,0.224-0.5,0.5s0.224,0.5,0.5,0.5h2.408l1.998,1.999L18.535,24.5
	h-1.898l-1.529-1.528c-0.194-0.195-0.512-0.195-0.707,0c-0.194,0.195-0.194,0.512,0,0.707l0.822,0.821h-1.91l-1.908-1.907
	c-0.194-0.195-0.512-0.195-0.706,0c-0.195,0.195-0.195,0.512,0,0.707l1.2,1.2H10c-0.275,0-0.5,0.224-0.5,0.5s0.225,0.5,0.5,0.5
	h1.895l-1.196,1.198c-0.195,0.194-0.195,0.512,0,0.706c0.098,0.099,0.226,0.146,0.354,0.146s0.257-0.049,0.354-0.146l1.902-1.904
	h1.914L14.4,26.323c-0.195,0.194-0.195,0.512,0,0.706c0.098,0.099,0.226,0.146,0.354,0.146s0.256-0.049,0.354-0.146l1.529-1.529
	h1.938l1.503,3.716l-1.972,1.97l-2.41,0.002c-0.275,0-0.5,0.225-0.5,0.5c0,0.276,0.225,0.5,0.5,0.5h1.41l-3.065,3.064
	c-0.194,0.195-0.194,0.512,0,0.707c0.099,0.098,0.226,0.146,0.354,0.146c0.127,0,0.256-0.049,0.354-0.146l3.066-3.066v1.41
	c0,0.276,0.224,0.5,0.5,0.5c0.275,0,0.5-0.224,0.5-0.5v-2.41l1.996-1.996l3.689,1.566v1.898l-1.529,1.529
	c-0.195,0.195-0.195,0.512,0,0.707s0.512,0.195,0.707,0l0.822-0.822v1.51l-1.906,1.906c-0.195,0.194-0.195,0.512,0,0.707
	c0.195,0.194,0.512,0.194,0.707,0l1.199-1.199V40c0,0.275,0.225,0.5,0.5,0.5s0.5-0.225,0.5-0.5v-2.301l1.199,1.199
	c0.098,0.098,0.226,0.146,0.354,0.146c0.129,0,0.256-0.049,0.354-0.146c0.194-0.195,0.194-0.513,0-0.707L25.5,36.285v-1.51
	l0.822,0.824c0.098,0.098,0.226,0.146,0.354,0.146c0.129,0,0.256-0.05,0.354-0.146c0.195-0.195,0.195-0.513,0-0.707L25.5,33.361
	v-1.938l3.715-1.502l1.973,1.973v2.407c0,0.276,0.225,0.5,0.5,0.5c0.276,0,0.5-0.224,0.5-0.5v-1.407l3.064,3.064
	c0.098,0.098,0.227,0.146,0.354,0.146c0.129,0,0.256-0.049,0.354-0.146c0.194-0.195,0.194-0.512,0-0.707l-3.065-3.064l1.412-0.002
	c0.275,0,0.5-0.224,0.5-0.5c0-0.275-0.225-0.5-0.5-0.5l-2.41,0.002l-2-1.998l1.566-3.689h1.898l1.529,1.527
	c0.098,0.099,0.226,0.146,0.354,0.146s0.256-0.049,0.354-0.146c0.195-0.194,0.195-0.512,0-0.707l-0.822-0.82h1.51l1.906,1.904
	c0.098,0.098,0.226,0.146,0.354,0.146s0.256-0.049,0.354-0.146c0.195-0.195,0.195-0.512,0-0.707L37.7,25.5H40
	c0.275,0,0.5-0.224,0.5-0.5S40.275,24.5,40,24.5z M30.376,25.5l-1.242,2.927l-0.231,0.544l-0.454,0.184L25.5,30.348l-0.548,0.221
	L24.5,30.376l-2.93-1.242l-0.543-0.229l-0.185-0.457L19.65,25.5l-0.221-0.548l0.192-0.452l1.241-2.927l0.232-0.544l0.454-0.184
	l2.95-1.193l0.546-0.221l0.454,0.193l2.927,1.241l0.546,0.231l0.184,0.455l1.191,2.949l0.221,0.548L30.376,25.5z"/>
</svg>
