<?xml version="1.0" encoding="utf-8"?>
<!-- Generator: Adobe Illustrator 16.0.4, SVG Export Plug-In . SVG Version: 6.00 Build 0)  -->
<!DOCTYPE svg PUBLIC "-//W3C//DTD SVG 1.1//EN" "http://www.w3.org/Graphics/SVG/1.1/DTD/svg11.dtd">
<svg version="1.1" id="Layer_1" xmlns="http://www.w3.org/2000/svg" xmlns:xlink="http://www.w3.org/1999/xlink" x="0px" y="0px"
	 width="50px" height="50px" viewBox="0 0 50 50" enable-background="new 0 0 50 50" xml:space="preserve">
<path stroke="#ddddff" d="M40.936,21.911L40.936,21.911c-1.381,0.021-2.52,1.027-2.758,2.338h-1.021l0.598-1.037c0.207-0.359,0.084-0.818-0.273-1.025
	c-0.359-0.207-0.816-0.082-1.023,0.275l-1.031,1.787h-1.471l1.994-3.451c0.207-0.359,0.084-0.818-0.275-1.025
	s-0.818-0.084-1.023,0.275l-2.426,4.201h-0.514c-0.213-1.918-1.234-3.592-2.711-4.684l0.26-0.451h4.854
	c0.412,0,0.75-0.336,0.75-0.75s-0.338-0.75-0.75-0.75h-3.986l0.734-1.271h2.062c0.414,0,0.75-0.336,0.75-0.75s-0.336-0.75-0.75-0.75
	h-1.197l0.521-0.9c0.305,0.107,0.621,0.185,0.945,0.185c0.996,0,1.936-0.53,2.449-1.389c0.805-1.349,0.361-3.103-0.986-3.906
	c-0.441-0.265-0.945-0.401-1.457-0.401c-0.998,0-1.938,0.53-2.449,1.387c-0.635,1.062-0.484,2.369,0.26,3.271l-0.58,1.006
	l-0.6-1.036c-0.207-0.357-0.664-0.482-1.025-0.275c-0.357,0.207-0.48,0.666-0.273,1.025l1.031,1.786l-0.732,1.271l-1.992-3.451
	c-0.207-0.356-0.666-0.483-1.025-0.274c-0.357,0.207-0.48,0.666-0.273,1.024l2.426,4.201l-0.258,0.446
	c-0.83-0.364-1.744-0.569-2.708-0.569c-0.962,0-1.876,0.205-2.706,0.567l-0.257-0.444l2.426-4.201
	c0.207-0.358,0.084-0.817-0.274-1.024c-0.359-0.209-0.817-0.082-1.023,0.274l-1.993,3.451l-0.733-1.271l1.031-1.788
	c0.207-0.359,0.084-0.818-0.275-1.023c-0.356-0.209-0.817-0.084-1.023,0.275l-0.599,1.036l-0.543-0.94
	c0.344-0.348,0.604-0.771,0.733-1.258c0.196-0.736,0.096-1.504-0.285-2.162c-0.508-0.879-1.453-1.424-2.47-1.424
	c-0.497,0-0.989,0.131-1.423,0.381c-1.359,0.785-1.827,2.531-1.042,3.891c0.509,0.879,1.454,1.426,2.47,1.426
	c0.244,0,0.486-0.033,0.721-0.096l0.539,0.932h-1.195c-0.001,0-0.001,0-0.001,0c-0.414,0-0.75,0.334-0.75,0.748
	c0,0.416,0.335,0.752,0.749,0.752h2.064l0.732,1.271l-3.982,0.002c-0.414,0-0.75,0.336-0.75,0.75s0.336,0.75,0.75,0.75l4.85-0.002
	L21,19.567c-1.478,1.092-2.499,2.766-2.712,4.684h-0.514l-2.426-4.201c-0.207-0.359-0.664-0.482-1.024-0.275
	c-0.358,0.207-0.481,0.666-0.274,1.025l1.993,3.451h-1.47l-1.032-1.787c-0.206-0.357-0.665-0.482-1.024-0.275
	c-0.357,0.207-0.48,0.666-0.273,1.025l0.6,1.037H11.68c-0.408-1.08-1.453-1.859-2.701-1.859c0,0,0,0-0.002,0
	c-0.76,0.012-1.471,0.318-2,0.865c-0.53,0.545-0.815,1.266-0.805,2.025c0.023,1.547,1.303,2.807,2.85,2.807h0.043
	c0.761-0.012,1.472-0.32,2.002-0.865c0.397-0.412,0.658-0.922,0.758-1.473h1.02l-0.599,1.037c-0.207,0.359-0.084,0.816,0.274,1.023
	c0.117,0.067,0.246,0.102,0.373,0.102c0.261,0,0.513-0.135,0.65-0.375l1.031-1.787h1.47l-1.993,3.451
	c-0.207,0.357-0.084,0.816,0.274,1.023c0.118,0.067,0.247,0.102,0.374,0.102c0.26,0,0.512-0.135,0.65-0.375l2.426-4.201h0.513
	c0.213,1.918,1.233,3.592,2.712,4.682l-0.261,0.451h-4.851c-0.414,0-0.75,0.336-0.75,0.75s0.336,0.75,0.75,0.75h3.983l-0.733,1.271
	l-2.063,0.002c-0.414,0-0.75,0.336-0.75,0.75s0.336,0.75,0.75,0.75l1.198-0.002l-0.521,0.902c-0.305-0.109-0.62-0.185-0.945-0.185
	c-0.998,0-1.938,0.53-2.447,1.387c-0.391,0.652-0.504,1.419-0.317,2.156s0.647,1.358,1.302,1.75c0.44,0.265,0.945,0.403,1.459,0.403
	c0.998,0,1.936-0.53,2.446-1.387c0.392-0.654,0.504-1.42,0.317-2.16c-0.105-0.418-0.309-0.791-0.574-1.112l0.58-1.007l0.6,1.039
	c0.139,0.24,0.391,0.375,0.65,0.375c0.127,0,0.256-0.032,0.374-0.102c0.358-0.207,0.481-0.666,0.274-1.023l-1.033-1.789l0.734-1.271
	l1.992,3.451c0.139,0.24,0.391,0.375,0.65,0.375c0.127,0,0.256-0.03,0.373-0.101c0.358-0.207,0.481-0.666,0.274-1.024l-2.426-4.201
	l0.258-0.444c0.829,0.365,1.743,0.569,2.706,0.569c0.962,0,1.878-0.207,2.708-0.569l0.258,0.446l-2.426,4.199
	c-0.207,0.356-0.083,0.815,0.273,1.022c0.119,0.068,0.248,0.103,0.375,0.103c0.26,0,0.512-0.135,0.65-0.375l1.99-3.451l0.734,1.273
	l-1.029,1.784c-0.207,0.359-0.084,0.818,0.273,1.025c0.117,0.068,0.246,0.1,0.373,0.1c0.26,0,0.512-0.135,0.65-0.375l0.598-1.034
	l0.545,0.938c-0.881,0.891-1.105,2.285-0.451,3.422c0.508,0.879,1.453,1.424,2.469,1.424c0.498,0,0.988-0.133,1.422-0.383
	c0.658-0.379,1.131-0.994,1.328-1.729c0.195-0.736,0.096-1.504-0.285-2.162c-0.506-0.879-1.453-1.424-2.469-1.424
	c-0.242,0-0.484,0.033-0.721,0.094l-0.539-0.934l1.197,0.002c0.002,0,0.002,0,0.002,0c0.414,0,0.75-0.336,0.75-0.75
	s-0.336-0.75-0.75-0.75l-2.064-0.002l-0.734-1.271h3.986c0.412,0,0.75-0.336,0.75-0.75s-0.338-0.75-0.75-0.75h-4.854l-0.26-0.451
	c1.477-1.092,2.498-2.764,2.711-4.682h0.514l2.426,4.201c0.139,0.24,0.391,0.375,0.65,0.375c0.127,0,0.256-0.033,0.373-0.102
	c0.359-0.207,0.482-0.666,0.275-1.023l-1.994-3.451h1.471l1.033,1.787c0.139,0.24,0.391,0.375,0.648,0.375
	c0.127,0,0.258-0.033,0.375-0.102c0.357-0.207,0.48-0.666,0.273-1.023l-0.598-1.037h1.16c0.406,1.08,1.445,1.859,2.66,1.859h0.041
	c1.57-0.025,2.828-1.322,2.807-2.892C43.805,23.171,42.529,21.911,40.936,21.911z M32.037,10.585
	c0.174-0.291,0.443-0.492,0.756-0.59c0.129-0.039,0.264-0.066,0.404-0.066c0.24,0,0.479,0.064,0.688,0.189
	c0.15,0.09,0.271,0.209,0.373,0.34c0.326,0.426,0.387,1.023,0.096,1.51c-0.275,0.461-0.818,0.699-1.336,0.639
	c-0.18-0.021-0.354-0.075-0.516-0.172c-0.33-0.196-0.539-0.518-0.617-0.867C31.812,11.243,31.852,10.892,32.037,10.585z
	 M15.837,11.829c-0.229-0.398-0.21-0.855-0.026-1.242c0.113-0.24,0.274-0.457,0.521-0.6c0.205-0.117,0.438-0.18,0.673-0.18
	c0.033,0,0.064,0.01,0.098,0.012c0.442,0.033,0.85,0.272,1.072,0.662c0.182,0.312,0.229,0.676,0.135,1.022
	c-0.021,0.082-0.072,0.146-0.107,0.222c-0.116,0.243-0.28,0.461-0.52,0.598c-0.242,0.141-0.518,0.166-0.787,0.139
	C16.467,12.421,16.059,12.208,15.837,11.829z M7.772,25.749c-0.062-0.152-0.104-0.318-0.105-0.492
	c-0.006-0.359,0.129-0.699,0.38-0.957c0.021-0.021,0.052-0.031,0.074-0.051c0.242-0.219,0.546-0.354,0.896-0.359
	c0.348,0,0.66,0.142,0.899,0.359c0.267,0.242,0.442,0.582,0.448,0.969c0.003,0.186-0.034,0.363-0.104,0.531
	c-0.064,0.156-0.156,0.303-0.277,0.428c-0.252,0.258-0.588,0.404-0.947,0.41l-0.02,0.746v-0.746
	C8.458,26.587,7.977,26.237,7.772,25.749z M17.957,39.413c-0.168,0.279-0.44,0.465-0.741,0.562
	c-0.361,0.119-0.767,0.104-1.107-0.099c-0.146-0.09-0.271-0.205-0.373-0.338c-0.111-0.146-0.196-0.31-0.242-0.492
	c-0.088-0.348-0.035-0.711,0.15-1.021c0.244-0.411,0.679-0.655,1.16-0.655c0.059,0,0.113,0.017,0.172,0.022
	c0.182,0.023,0.357,0.072,0.517,0.166c0.31,0.185,0.528,0.479,0.616,0.828c0.002,0.014-0.002,0.025,0.002,0.039
	C18.184,38.767,18.135,39.114,17.957,39.413z M33.084,37.505c0.441,0.035,0.848,0.275,1.072,0.662
	c0.18,0.311,0.227,0.676,0.135,1.023c-0.021,0.08-0.072,0.145-0.107,0.219c-0.117,0.244-0.281,0.463-0.521,0.6
	c-0.24,0.141-0.514,0.168-0.781,0.143c-0.428-0.041-0.84-0.254-1.061-0.635c-0.229-0.399-0.211-0.858-0.025-1.246
	c0.113-0.237,0.273-0.455,0.52-0.598c0.205-0.117,0.438-0.18,0.674-0.18C33.02,37.493,33.051,37.503,33.084,37.505z M32.977,40.937
	c0.24,0,0.482-0.039,0.717-0.123l0,0C33.461,40.897,33.217,40.938,32.977,40.937z M30.254,24.999c0,0.256-0.039,0.502-0.076,0.75
	c-0.195,1.361-0.91,2.543-1.939,3.359c-0.395,0.311-0.82,0.574-1.291,0.764c-0.605,0.242-1.262,0.385-1.95,0.385
	c-0.688,0-1.344-0.143-1.946-0.385c-0.473-0.188-0.898-0.453-1.291-0.764c-1.033-0.814-1.748-1.998-1.943-3.359
	c-0.036-0.248-0.076-0.494-0.076-0.75c0-0.258,0.04-0.504,0.076-0.75c0.195-1.361,0.91-2.545,1.943-3.361
	c0.393-0.311,0.819-0.574,1.291-0.764c0.604-0.242,1.258-0.383,1.946-0.383c0.688,0,1.344,0.141,1.948,0.383
	c0.473,0.189,0.898,0.455,1.291,0.766c1.031,0.814,1.746,1.998,1.941,3.359C30.215,24.495,30.254,24.741,30.254,24.999z
	 M40.947,22.661c1.146-0.018,2.088,0.889,2.125,2.029l-0.002-0.002C43.025,23.546,42.088,22.644,40.947,22.661
	c-0.969,0.016-1.764,0.689-1.992,1.588h-0.004C39.178,23.351,39.975,22.677,40.947,22.661z M40.078,25.749
	c-0.268-0.244-0.441-0.584-0.447-0.969c-0.004-0.186,0.033-0.361,0.098-0.523h0.004c0.199-0.484,0.678-0.834,1.25-0.842
	c0.559,0,1.035,0.35,1.238,0.842h0.002c0.062,0.15,0.102,0.312,0.104,0.482c0.006,0.4-0.166,0.758-0.439,1.01
	c-0.234,0.217-0.543,0.354-0.887,0.359l-0.021,0.748v-0.748C40.633,26.108,40.318,25.968,40.078,25.749z"/>
</svg>
