<?xml version="1.0" encoding="utf-8"?>
<!-- Generator: Adobe Illustrator 16.0.4, SVG Export Plug-In . SVG Version: 6.00 Build 0)  -->
<!DOCTYPE svg PUBLIC "-//W3C//DTD SVG 1.1//EN" "http://www.w3.org/Graphics/SVG/1.1/DTD/svg11.dtd">
<svg version="1.1" id="Layer_1" xmlns="http://www.w3.org/2000/svg" xmlns:xlink="http://www.w3.org/1999/xlink" x="0px" y="0px"
	 width="50px" height="50px" viewBox="0 0 50 50" enable-background="new 0 0 50 50" xml:space="preserve">
<path stroke="#ddddff" d="M40.004,24.249h-3.289l1.799-1.799c0.293-0.292,0.293-0.768,0-1.061s-0.768-0.293-1.061,0l-2.86,2.859h-3.629v-3.711h4.479
	c0.414,0,0.75-0.336,0.75-0.75s-0.336-0.75-0.75-0.75h-3.418l3.613-3.614c0.293-0.293,0.293-0.768,0-1.061
	c-0.293-0.293-0.768-0.293-1.061,0l-3.614,3.614v-3.417c0-0.414-0.336-0.75-0.75-0.75s-0.75,0.336-0.75,0.75v4.478h-3.711v-3.629
	l2.86-2.86c0.293-0.293,0.293-0.768,0-1.061c-0.293-0.293-0.769-0.293-1.062,0l-1.8,1.8V9.998c0-0.414-0.336-0.75-0.75-0.75
	s-0.75,0.336-0.75,0.75v3.289l-1.799-1.799c-0.293-0.293-0.768-0.293-1.061,0c-0.293,0.292-0.293,0.768,0,1.061l2.859,2.86v3.629
	h-3.71V14.56c0-0.414-0.336-0.75-0.75-0.75s-0.75,0.336-0.75,0.75v3.417l-3.614-3.614c-0.293-0.293-0.768-0.293-1.061,0
	c-0.293,0.293-0.293,0.768,0,1.061l3.614,3.614h-3.418c-0.414,0-0.75,0.336-0.75,0.75s0.336,0.75,0.75,0.75h4.479v3.711h-3.63
	l-2.86-2.86c-0.293-0.293-0.768-0.293-1.061,0s-0.293,0.768,0,1.061l1.8,1.8h-3.289c-0.414,0-0.75,0.336-0.75,0.75
	s0.336,0.75,0.75,0.75h3.289l-1.799,1.799c-0.293,0.292-0.293,0.768,0,1.061c0.146,0.146,0.338,0.221,0.53,0.221
	s0.384-0.073,0.53-0.221l2.86-2.858h3.63v3.72h-4.479c-0.414,0-0.75,0.336-0.75,0.75s0.336,0.75,0.75,0.75h3.418l-3.614,3.614
	c-0.293,0.293-0.293,0.769,0,1.062c0.146,0.146,0.338,0.22,0.53,0.22s0.384-0.073,0.53-0.22l3.614-3.614v3.417
	c0,0.414,0.336,0.75,0.75,0.75s0.75-0.336,0.75-0.75v-4.486h3.71v3.629l-2.86,2.86c-0.293,0.293-0.293,0.768,0,1.062
	c0.293,0.293,0.768,0.293,1.061,0l1.8-1.801v3.289c0,0.414,0.336,0.75,0.75,0.75s0.75-0.336,0.75-0.75v-3.289l1.799,1.799
	c0.146,0.146,0.338,0.221,0.53,0.221c0.191,0,0.384-0.073,0.529-0.221c0.293-0.291,0.293-0.768,0-1.061l-2.858-2.86v-3.629h3.711
	v4.486c0,0.414,0.336,0.75,0.75,0.75s0.75-0.336,0.75-0.75v-3.417l3.614,3.613c0.146,0.146,0.338,0.221,0.529,0.221
	c0.192,0,0.385-0.073,0.53-0.221c0.293-0.293,0.293-0.768,0-1.061l-3.614-3.613h3.418c0.414,0,0.75-0.337,0.75-0.75
	c0-0.414-0.336-0.75-0.75-0.75h-4.479V25.75h3.629l2.859,2.859c0.146,0.146,0.339,0.221,0.531,0.221
	c0.191,0,0.383-0.073,0.529-0.221c0.293-0.293,0.293-0.768,0-1.061l-1.8-1.8h3.289c0.414,0,0.75-0.336,0.75-0.75
	S40.418,24.249,40.004,24.249z M29.465,25.749v3.711h-3.711h-1.5h-3.71v-3.711v-1.5v-3.711h3.71h1.5h3.711v3.711V25.749z"/>
</svg>
