<?xml version="1.0" encoding="utf-8"?>
<!-- Generator: Adobe Illustrator 16.0.4, SVG Export Plug-In . SVG Version: 6.00 Build 0)  -->
<!DOCTYPE svg PUBLIC "-//W3C//DTD SVG 1.1//EN" "http://www.w3.org/Graphics/SVG/1.1/DTD/svg11.dtd">
<svg version="1.1" id="Layer_1" xmlns="http://www.w3.org/2000/svg" xmlns:xlink="http://www.w3.org/1999/xlink" x="0px" y="0px"
	 width="50px" height="50px" viewBox="0 0 50 50" enable-background="new 0 0 50 50" xml:space="preserve">
<path stroke="#ddddff" d="M43.01,22.744l-2.58,0.003l-1.004,1.731l-2.748,0.004l0.795-1.376c0.139-0.239,0.057-0.545-0.184-0.683
	c-0.238-0.137-0.545-0.056-0.682,0.183l-1.084,1.878l-2.049,0.003l2.188-3.794c0.139-0.239,0.057-0.545-0.183-0.683
	c-0.238-0.137-0.545-0.057-0.684,0.183l-2.479,4.296l-0.521,0.001l-2.955-5.119l0.281-0.485h4.92c0.277,0,0.5-0.224,0.5-0.5
	c0-0.276-0.223-0.5-0.5-0.5h-4.342l1.027-1.771h2.127c0.276,0,0.5-0.224,0.5-0.5c0-0.276-0.224-0.5-0.5-0.5h-1.55l1.357-2.342
	l2.002-0.004l1.293-2.231l-1.285-2.229l-2.582,0.003L30.8,10.543l0.998,1.729L30.4,14.685l-0.857-1.484
	c-0.137-0.239-0.441-0.322-0.682-0.183c-0.24,0.138-0.322,0.443-0.185,0.683l1.146,1.983l-1.025,1.768l-2.248-3.893
	c-0.137-0.24-0.443-0.321-0.682-0.183c-0.24,0.138-0.322,0.443-0.185,0.683l2.535,4.392l-0.244,0.421l-5.928,0.008l-0.328-0.567
	l2.455-4.253c0.14-0.239,0.058-0.545-0.185-0.684c-0.237-0.136-0.545-0.056-0.682,0.184l-2.168,3.753l-1.021-1.771l1.062-1.84
	c0.14-0.239,0.058-0.546-0.185-0.684c-0.239-0.139-0.545-0.056-0.684,0.184l-0.771,1.34l-1.298-2.247l1.002-1.733L17.96,8.333
	l-2.578,0.005l-1.295,2.231l1.287,2.229l2.004-0.003l1.338,2.319l-1.715-0.001c-0.274,0-0.5,0.224-0.5,0.5
	c0,0.276,0.226,0.5,0.5,0.5l2.293,0.001l1.022,1.771h-4.502c-0.276,0-0.5,0.224-0.5,0.5c0,0.276,0.224,0.5,0.5,0.5h5.078
	l0.287,0.495l-2.973,5.131l-0.656,0.001l-2.494-4.317c-0.141-0.24-0.445-0.321-0.684-0.183c-0.238,0.138-0.32,0.444-0.182,0.683
	l2.205,3.819l-2.048,0.003l-1.102-1.908c-0.138-0.239-0.443-0.322-0.683-0.184c-0.24,0.139-0.322,0.444-0.184,0.684l0.814,1.41
	l-2.617,0.004L9.58,22.793L7,22.795l-1.293,2.234l1.287,2.229l2.58-0.004l1.004-1.731l2.619-0.004l-0.814,1.414
	c-0.139,0.239-0.057,0.545,0.182,0.685c0.08,0.045,0.166,0.065,0.25,0.065c0.174,0,0.342-0.091,0.435-0.25l1.104-1.916l2.051-0.003
	l-2.215,3.833c-0.139,0.239-0.057,0.545,0.185,0.685c0.077,0.045,0.163,0.065,0.25,0.065c0.172,0,0.34-0.089,0.432-0.25l2.505-4.335
	l0.646-0.002l2.954,5.119l-0.305,0.524h-5.045c-0.275,0-0.5,0.224-0.5,0.5c0,0.275,0.225,0.5,0.5,0.5h4.467l-1.026,1.771h-2.254
	c-0.275,0-0.5,0.225-0.5,0.5c0,0.277,0.225,0.5,0.5,0.5h1.676l-1.336,2.306l-2,0.003l-1.293,2.232l1.287,2.228l2.577-0.003
	l1.293-2.232l-0.998-1.729l1.312-2.266l0.795,1.375c0.092,0.16,0.26,0.25,0.432,0.25c0.086,0,0.173-0.021,0.25-0.066
	c0.24-0.139,0.322-0.443,0.185-0.684l-1.082-1.873l1.024-1.77l2.185,3.784c0.093,0.16,0.263,0.25,0.435,0.25
	c0.084,0,0.17-0.021,0.25-0.067c0.238-0.138,0.319-0.443,0.182-0.683l-2.471-4.282l0.328-0.568l5.93-0.008l0.266,0.459l-2.539,4.398
	c-0.139,0.238-0.057,0.545,0.182,0.684c0.08,0.045,0.166,0.066,0.25,0.066c0.173,0,0.343-0.09,0.435-0.25l2.252-3.898l1.021,1.771
	l-1.145,1.986c-0.139,0.238-0.057,0.545,0.184,0.683c0.078,0.046,0.164,0.067,0.25,0.067c0.172,0,0.34-0.09,0.435-0.25l0.854-1.485
	l1.361,2.356l-1.006,1.731l1.287,2.229l2.58-0.006l1.291-2.23l-1.285-2.229l-2.002,0.004l-1.318-2.283h1.545
	c0.277,0,0.5-0.225,0.5-0.5s-0.223-0.5-0.5-0.5H30.73l-1.022-1.772h4.334c0.276,0,0.5-0.224,0.5-0.5s-0.224-0.5-0.5-0.5h-4.91
	l-0.31-0.532l2.974-5.129l0.485-0.001l2.515,4.356c0.092,0.159,0.262,0.25,0.435,0.25c0.084,0,0.17-0.021,0.25-0.067
	c0.237-0.138,0.319-0.443,0.182-0.683l-2.227-3.858l2.045-0.003l1.125,1.947c0.092,0.161,0.262,0.25,0.434,0.25
	c0.084,0,0.17-0.021,0.25-0.065c0.238-0.14,0.32-0.445,0.182-0.685l-0.836-1.448l2.785-0.005l1,1.729L43,27.205l1.293-2.231
	L43.01,22.744z M30.934,24.99l-0.291,0.502l-2.393,4.129l-0.289,0.498l-0.576,0.002l-4.773,0.006l-0.58,0.002l-0.286-0.498
	l-2.382-4.123l-0.287-0.499l0.291-0.501l2.394-4.131l0.289-0.499l0.576-0.001l4.772-0.006l0.578-0.001l0.289,0.498l2.379,4.123
	L30.934,24.99z M27.111,21.372l-0.584,0.001l-3.037,0.004l-0.576,0.001l-0.289,0.499l-1.523,2.629l-0.293,0.506l0.285,0.495
	l1.518,2.627l0.285,0.494h0.584l3.039-0.004l0.576-0.002l0.289-0.498l1.521-2.629l0.293-0.505l-0.285-0.495l-1.518-2.627
	L27.111,21.372z M28.045,24.987l-0.293,0.508l-0.943,1.627l-0.289,0.5h-0.576l-1.883,0.002l-0.588,0.002l-0.283-0.492l-0.94-1.631
	l-0.285-0.491l0.295-0.509l0.943-1.628l0.288-0.499l0.576-0.001l1.881-0.002l0.589-0.001l0.282,0.491l0.943,1.632L28.045,24.987z"/>
</svg>
