<?xml version="1.0" encoding="utf-8"?>
<!-- Generator: Adobe Illustrator 16.0.4, SVG Export Plug-In . SVG Version: 6.00 Build 0)  -->
<!DOCTYPE svg PUBLIC "-//W3C//DTD SVG 1.1//EN" "http://www.w3.org/Graphics/SVG/1.1/DTD/svg11.dtd">
<svg version="1.1" id="Layer_1" xmlns="http://www.w3.org/2000/svg" xmlns:xlink="http://www.w3.org/1999/xlink" x="0px" y="0px"
	 width="50px" height="50px" viewBox="0 0 50 50" enable-background="new 0 0 50 50" xml:space="preserve">
<path stroke="#ddddff" d="M39.87,26.48l-7.723,2.068L25.999,25l6.148-3.55l7.723,2.069c0.043,0.012,0.087,0.017,0.13,0.017
	c0.222,0,0.423-0.147,0.482-0.371c0.071-0.267-0.087-0.541-0.354-0.612l-6.757-1.81l3.018-1.742l2.949,0.791
	c0.043,0.012,0.087,0.017,0.13,0.017c0.222,0,0.424-0.147,0.482-0.371c0.071-0.267-0.087-0.541-0.354-0.612l-1.984-0.532
	l2.198-1.269c0.238-0.138,0.32-0.444,0.183-0.683c-0.139-0.24-0.446-0.321-0.683-0.183l-2.196,1.268l0.531-1.981
	c0.07-0.267-0.087-0.541-0.354-0.612c-0.264-0.069-0.541,0.087-0.611,0.354l-0.79,2.947l-3.019,1.743l1.811-6.755
	c0.07-0.267-0.087-0.541-0.354-0.612c-0.265-0.07-0.541,0.086-0.612,0.354l-2.068,7.721L25.5,24.134v-7.1l5.652-5.653
	c0.195-0.195,0.195-0.512,0-0.707c-0.195-0.195-0.512-0.195-0.707,0L25.5,15.62v-3.484l2.158-2.158c0.195-0.195,0.195-0.512,0-0.707
	s-0.512-0.195-0.707,0L25.5,10.722V8.186c0-0.276-0.224-0.5-0.5-0.5s-0.5,0.224-0.5,0.5v2.536l-1.451-1.451
	c-0.195-0.195-0.512-0.195-0.707,0c-0.195,0.195-0.195,0.512,0,0.707l2.158,2.158v3.484l-4.945-4.946
	c-0.195-0.195-0.512-0.195-0.707,0c-0.195,0.195-0.195,0.512,0,0.707l5.652,5.653v7.1l-6.149-3.55l-2.069-7.721
	c-0.072-0.267-0.344-0.424-0.612-0.354c-0.267,0.071-0.425,0.346-0.354,0.612l1.81,6.755l-3.018-1.743l-0.79-2.947
	c-0.072-0.268-0.344-0.424-0.612-0.354c-0.267,0.071-0.425,0.346-0.354,0.612l0.531,1.981l-2.196-1.268
	c-0.239-0.138-0.545-0.057-0.683,0.183c-0.138,0.239-0.056,0.545,0.183,0.683l2.198,1.269L10.4,18.824
	c-0.267,0.071-0.425,0.346-0.354,0.612c0.06,0.224,0.262,0.371,0.482,0.371c0.043,0,0.086-0.005,0.13-0.017l2.95-0.791l3.017,1.742
	l-6.757,1.81c-0.267,0.071-0.425,0.346-0.354,0.612c0.06,0.224,0.262,0.371,0.482,0.371c0.043,0,0.086-0.005,0.13-0.017l7.723-2.069
	l6.148,3.55l-6.148,3.55l-7.723-2.069c-0.264-0.069-0.541,0.088-0.612,0.354c-0.071,0.267,0.087,0.541,0.354,0.612l6.757,1.81
	l-3.019,1.743l-2.947-0.79c-0.266-0.071-0.541,0.086-0.612,0.354c-0.072,0.267,0.087,0.541,0.354,0.611l1.982,0.531l-2.197,1.27
	c-0.239,0.137-0.321,0.443-0.183,0.683c0.093,0.161,0.261,0.25,0.434,0.25c0.085,0,0.171-0.021,0.25-0.067l2.197-1.27l-0.53,1.981
	c-0.071,0.267,0.087,0.541,0.354,0.612c0.043,0.012,0.087,0.018,0.13,0.018c0.221,0,0.423-0.147,0.482-0.371l0.789-2.947
	l3.017-1.742l-1.81,6.755c-0.071,0.267,0.087,0.541,0.354,0.612c0.043,0.012,0.087,0.017,0.13,0.017
	c0.221,0,0.422-0.147,0.482-0.371l2.069-7.721l6.149-3.55v7.099l-5.652,5.654c-0.195,0.194-0.195,0.512,0,0.707
	c0.195,0.194,0.512,0.194,0.707,0l4.944-4.944v3.485l-2.158,2.157c-0.195,0.195-0.195,0.513,0,0.707
	c0.195,0.195,0.512,0.195,0.707,0l1.451-1.451v2.537c0,0.275,0.224,0.5,0.5,0.5s0.5-0.225,0.5-0.5v-2.537l1.451,1.451
	c0.098,0.099,0.226,0.146,0.354,0.146c0.128,0,0.256-0.049,0.354-0.146c0.195-0.194,0.195-0.512,0-0.707L25.5,37.864v-3.485
	l4.945,4.947c0.098,0.098,0.226,0.146,0.354,0.146s0.257-0.05,0.354-0.146c0.195-0.195,0.195-0.512,0-0.707L25.5,32.965v-7.099
	l6.147,3.549l2.068,7.722c0.061,0.225,0.263,0.371,0.482,0.371c0.043,0,0.086-0.005,0.13-0.017c0.268-0.071,0.425-0.347,0.354-0.612
	l-1.812-6.756l3.021,1.743l0.789,2.946c0.06,0.224,0.262,0.371,0.481,0.371c0.043,0,0.086-0.004,0.13-0.017
	c0.268-0.071,0.425-0.346,0.354-0.612l-0.53-1.98l2.197,1.269c0.079,0.046,0.165,0.067,0.25,0.067c0.173,0,0.341-0.089,0.434-0.25
	c0.138-0.239,0.056-0.545-0.183-0.684l-2.197-1.269l1.982-0.531c0.267-0.071,0.425-0.346,0.354-0.612s-0.345-0.426-0.612-0.354
	l-2.946,0.79l-3.02-1.743l6.757-1.81c0.268-0.071,0.426-0.347,0.354-0.612S40.139,26.41,39.87,26.48z"/>
</svg>
