<?xml version="1.0" encoding="utf-8"?>
<!-- Generator: Adobe Illustrator 16.0.4, SVG Export Plug-In . SVG Version: 6.00 Build 0)  -->
<!DOCTYPE svg PUBLIC "-//W3C//DTD SVG 1.1//EN" "http://www.w3.org/Graphics/SVG/1.1/DTD/svg11.dtd">
<svg version="1.1" id="Layer_1" xmlns="http://www.w3.org/2000/svg" xmlns:xlink="http://www.w3.org/1999/xlink" x="0px" y="0px"
	 width="50px" height="50px" viewBox="0 0 50 50" enable-background="new 0 0 50 50" xml:space="preserve">
<path stroke="#ddddff" d="M39.87,26.482l-7.723,2.067l-6.148-3.549l6.148-3.55l7.723,2.069c0.043,0.012,0.087,0.017,0.13,0.017
	c0.222,0,0.423-0.147,0.482-0.371c0.071-0.267-0.087-0.541-0.354-0.612l-6.757-1.81l6.44-3.718c0.238-0.138,0.32-0.444,0.183-0.683
	c-0.139-0.24-0.445-0.321-0.683-0.183l-6.438,3.718l1.811-6.755c0.07-0.267-0.087-0.541-0.354-0.612
	c-0.265-0.07-0.54,0.086-0.612,0.354l-2.068,7.721l-6.149,3.55v-7.1l5.652-5.653c0.195-0.195,0.195-0.512,0-0.707
	c-0.195-0.195-0.512-0.195-0.707,0L25.5,15.621V8.186c0-0.276-0.224-0.5-0.5-0.5s-0.5,0.224-0.5,0.5v7.435l-4.945-4.946
	c-0.195-0.195-0.512-0.195-0.707,0c-0.195,0.195-0.195,0.512,0,0.707l5.652,5.653v7.1l-6.149-3.55l-2.069-7.721
	c-0.072-0.267-0.345-0.424-0.612-0.354c-0.267,0.071-0.425,0.346-0.354,0.612l1.81,6.755l-6.438-3.718
	c-0.239-0.138-0.545-0.057-0.683,0.183c-0.138,0.239-0.056,0.545,0.183,0.683l6.44,3.718l-6.757,1.81
	c-0.267,0.071-0.425,0.346-0.354,0.612c0.06,0.224,0.262,0.371,0.482,0.371c0.043,0,0.086-0.005,0.13-0.017l7.723-2.069L24,25
	l-6.147,3.549l-7.723-2.068c-0.265-0.069-0.541,0.088-0.612,0.354c-0.071,0.267,0.087,0.541,0.354,0.612l6.757,1.81l-6.44,3.718
	c-0.239,0.139-0.321,0.444-0.183,0.684c0.093,0.16,0.261,0.25,0.434,0.25c0.085,0,0.171-0.021,0.25-0.067l6.44-3.718l-1.811,6.755
	c-0.071,0.267,0.087,0.541,0.354,0.612c0.043,0.012,0.087,0.017,0.13,0.017c0.221,0,0.422-0.147,0.482-0.371l2.069-7.721l6.148-3.55
	v7.099l-5.652,5.654c-0.195,0.194-0.195,0.512,0,0.707c0.195,0.194,0.512,0.194,0.707,0l4.945-4.947v7.437
	c0,0.275,0.224,0.5,0.5,0.5s0.5-0.225,0.5-0.5v-7.437l4.945,4.947c0.098,0.098,0.226,0.146,0.354,0.146
	c0.129,0,0.257-0.049,0.354-0.146c0.195-0.195,0.195-0.513,0-0.707L25.5,32.966v-7.099l6.148,3.55l2.068,7.722
	c0.061,0.223,0.263,0.37,0.482,0.37c0.043,0,0.086-0.005,0.13-0.017c0.268-0.071,0.425-0.346,0.354-0.612l-1.812-6.755l6.44,3.718
	c0.079,0.046,0.165,0.067,0.25,0.067c0.173,0,0.341-0.09,0.434-0.25c0.138-0.239,0.056-0.545-0.183-0.684l-6.44-3.718l6.757-1.81
	c0.268-0.071,0.426-0.346,0.354-0.612C40.411,26.568,40.138,26.411,39.87,26.482z"/>
</svg>
