<?xml version="1.0" encoding="utf-8"?>
<!-- Generator: Adobe Illustrator 16.0.4, SVG Export Plug-In . SVG Version: 6.00 Build 0)  -->
<!DOCTYPE svg PUBLIC "-//W3C//DTD SVG 1.1//EN" "http://www.w3.org/Graphics/SVG/1.1/DTD/svg11.dtd">
<svg version="1.1" id="Layer_1" xmlns="http://www.w3.org/2000/svg" xmlns:xlink="http://www.w3.org/1999/xlink" x="0px" y="0px"
	 width="50px" height="50px" viewBox="0 0 50 50" enable-background="new 0 0 50 50" xml:space="preserve">
<path stroke="#ddddff" d="M40.236,31.324c0-0.179-0.096-0.343-0.25-0.433l-1.893-1.094c-0.154-0.09-0.345-0.09-0.5,0l-1.697,0.98l-1.404-0.811v-9.809
	l1.513-0.873l1.587,0.915c0.078,0.045,0.164,0.067,0.25,0.067s0.172-0.022,0.25-0.067l1.895-1.093
	c0.156-0.088,0.25-0.254,0.25-0.433l-0.002-1.161l0.002-1.024c0-0.179-0.094-0.345-0.25-0.435l-1.895-1.093
	c-0.154-0.089-0.345-0.088-0.5,0.001l-1.891,1.092c-0.155,0.088-0.251,0.254-0.251,0.434v1.963l-1.397,0.807l-8.554-4.934V12.64
	l1.644-0.949c0.154-0.088,0.25-0.254,0.25-0.433V9.071c0-0.178-0.096-0.342-0.25-0.432l-1.894-1.095c-0.155-0.09-0.345-0.09-0.5,0
	L22.854,8.64c-0.154,0.09-0.25,0.254-0.25,0.432v2.187c0,0.179,0.095,0.345,0.25,0.433l1.645,0.949v1.687l-8.554,4.933l-1.399-0.808
	v-1.962c0-0.18-0.095-0.344-0.25-0.434l-1.892-1.092c-0.155-0.09-0.345-0.09-0.5-0.001l-1.894,1.093
	c-0.154,0.09-0.25,0.254-0.25,0.434l-0.002,2.186c0,0.18,0.095,0.344,0.25,0.434l1.895,1.094c0.078,0.045,0.164,0.066,0.25,0.066
	c0.086,0,0.172-0.021,0.25-0.066l1.586-0.917l1.516,0.875v9.809L14.1,30.78l-1.7-0.98c-0.155-0.089-0.344-0.088-0.499,0.001
	l-1.892,1.091c-0.155,0.09-0.251,0.256-0.251,0.435v2.186c0,0.179,0.095,0.345,0.25,0.433l1.893,1.095
	c0.078,0.045,0.164,0.067,0.25,0.067s0.172-0.022,0.25-0.067l1.893-1.095c0.155-0.088,0.25-0.254,0.25-0.433v-1.831l1.518-0.877
	l8.438,4.871v1.688l-1.645,0.947c-0.155,0.09-0.25,0.254-0.25,0.434v2.186c0,0.18,0.095,0.344,0.25,0.434l1.895,1.094
	c0.078,0.045,0.164,0.066,0.25,0.066s0.173-0.021,0.25-0.066l1.893-1.094c0.154-0.09,0.25-0.254,0.25-0.434v-2.186
	c0-0.18-0.095-0.344-0.25-0.434L25.5,37.362v-1.687l8.438-4.872l1.517,0.875v1.833c0,0.179,0.095,0.345,0.25,0.433l1.894,1.095
	c0.077,0.045,0.164,0.067,0.25,0.067s0.172-0.022,0.25-0.067l1.893-1.095c0.154-0.088,0.25-0.254,0.25-0.433l0.002-1.163
	L40.236,31.324z M12.153,19.192l-1.395-0.806l0.002-1.608l1.392-0.803l1.394,0.805v1.606L12.153,19.192z M33.492,29.392
	l-3.811-2.199l2.629-0.703c0.267-0.072,0.424-0.346,0.354-0.612c-0.071-0.267-0.346-0.419-0.612-0.354l-3.595,0.963l-2.458-1.418
	l2.46-1.422l3.594,0.963c0.043,0.012,0.086,0.018,0.129,0.018c0.221,0,0.424-0.146,0.482-0.371c0.07-0.268-0.087-0.54-0.354-0.611
	l-2.627-0.703l3.81-2.198L33.492,29.392L33.492,29.392z M36.45,16.78l1.393-0.805l1.394,0.803v1.611l-1.395,0.803l-1.393-0.803
	L36.45,16.78L36.45,16.78z M33.052,19.839l-3.87,2.234l0.705-2.629c0.07-0.268-0.088-0.541-0.354-0.612
	c-0.267-0.065-0.541,0.088-0.612,0.354l-0.962,3.594l-2.459,1.42v-2.84l2.629-2.631c0.195-0.195,0.195-0.513,0-0.707
	c-0.194-0.195-0.512-0.195-0.707,0l-1.922,1.924v-4.465L33.052,19.839z M23.604,10.972V9.364l1.394-0.805l1.393,0.805v1.607
	l-1.393,0.805L23.604,10.972z M24.499,15.481v4.465l-1.924-1.924c-0.195-0.195-0.512-0.195-0.707,0
	c-0.195,0.194-0.195,0.512,0,0.707l2.631,2.631v2.84l-2.459-1.42l-0.964-3.596c-0.072-0.266-0.344-0.42-0.612-0.354
	c-0.267,0.072-0.425,0.347-0.354,0.613l0.705,2.627l-3.869-2.233L24.499,15.481z M16.506,20.739l3.809,2.197l-2.626,0.703
	c-0.267,0.072-0.425,0.346-0.354,0.612c0.06,0.224,0.262,0.371,0.482,0.371c0.043,0,0.086-0.006,0.13-0.017l3.593-0.963l2.46,1.42
	l-2.458,1.42l-3.595-0.963c-0.264-0.064-0.541,0.088-0.612,0.354c-0.071,0.266,0.087,0.54,0.354,0.611l2.629,0.703l-3.811,2.201
	L16.506,20.739L16.506,20.739z M13.544,33.222l-1.393,0.807l-1.393-0.807v-1.606l1.393-0.804l1.386,0.799
	c0.002,0.007,0.003,0.014,0.006,0.02L13.544,33.222L13.544,33.222z M17.062,30.226l3.752-2.168l-0.703,2.627
	c-0.071,0.268,0.087,0.541,0.354,0.612c0.043,0.011,0.087,0.017,0.13,0.017c0.221,0,0.423-0.146,0.482-0.371l0.962-3.59l2.459-1.422
	v2.84l-2.631,2.631c-0.195,0.195-0.195,0.513,0,0.707c0.098,0.099,0.226,0.146,0.354,0.146c0.128,0,0.256-0.049,0.354-0.146
	l1.924-1.924v4.336L17.062,30.226z M26.393,39.03v1.607l-1.394,0.805l-1.394-0.805V39.03l1.33-0.768
	c0.022,0.004,0.042,0.014,0.064,0.014s0.042-0.01,0.063-0.014L26.393,39.03z M25.499,34.521v-4.336l1.922,1.924
	c0.195,0.195,0.513,0.195,0.707,0c0.195-0.194,0.195-0.512,0-0.707l-2.629-2.631v-2.84l2.459,1.422l0.962,3.59
	c0.061,0.225,0.262,0.371,0.482,0.371c0.043,0,0.086-0.006,0.13-0.017c0.267-0.071,0.425-0.346,0.354-0.612l-0.703-2.627
	l3.752,2.168L25.499,34.521z M39.236,33.222l-1.393,0.807l-1.393-0.807v-1.587c0.004-0.009,0.005-0.017,0.009-0.024l1.384-0.801
	l1.393,0.806V33.222z"/>
</svg>
