<?xml version="1.0" encoding="utf-8"?>
<!-- Generator: Adobe Illustrator 16.0.4, SVG Export Plug-In . SVG Version: 6.00 Build 0)  -->
<!DOCTYPE svg PUBLIC "-//W3C//DTD SVG 1.1//EN" "http://www.w3.org/Graphics/SVG/1.1/DTD/svg11.dtd">
<svg version="1.1" id="Layer_1" xmlns="http://www.w3.org/2000/svg" xmlns:xlink="http://www.w3.org/1999/xlink" x="0px" y="0px"
	 width="50px" height="50px" viewBox="0 0 50 50" enable-background="new 0 0 50 50" xml:space="preserve">
<path stroke="#ddddff" d="M39.483,19.24l2.236-1.286v-2.572l-2.236-1.289l-2.234,1.289v1.706l-2.168,1.247v-1.281c0-0.413-0.336-0.75-0.75-0.75
	s-0.75,0.337-0.75,0.75v2.146l-1.271,0.73v-4.062c0-0.414-0.336-0.75-0.75-0.75s-0.75,0.336-0.75,0.75v4.553
	c-1.188-1.506-2.946-2.539-4.949-2.772l4.019-2.319c0.358-0.207,0.481-0.666,0.274-1.024c-0.206-0.357-0.664-0.482-1.024-0.273
	l-3.379,1.951v-1.471l1.715-0.99c0.358-0.207,0.481-0.666,0.274-1.023s-0.664-0.482-1.024-0.273l-0.965,0.557v-2.305l1.485-0.856
	V7.048L25,5.762l-2.235,1.286V9.62l1.485,0.856v2.389l-1.108-0.641c-0.359-0.209-0.818-0.084-1.024,0.273
	c-0.207,0.357-0.084,0.816,0.274,1.023l1.858,1.073v1.47l-3.522-2.035c-0.36-0.207-0.818-0.082-1.024,0.274
	c-0.207,0.358-0.084,0.817,0.274,1.024l4.047,2.338c-2.039,0.27-3.813,1.37-4.98,2.951l-0.002-4.749c0-0.414-0.336-0.75-0.75-0.75
	s-0.75,0.336-0.75,0.75l0.002,3.978l-1.273-0.732v-2.06c0-0.413-0.336-0.75-0.75-0.75s-0.75,0.337-0.75,0.75v1.196l-2.02-1.162
	v-1.706l-2.234-1.289l-2.235,1.289v2.572l2.235,1.286L12,18.386l2.022,1.164l-1.039,0.601c-0.358,0.207-0.481,0.666-0.274,1.023
	c0.14,0.24,0.392,0.375,0.649,0.375c0.127,0,0.257-0.031,0.375-0.102l1.791-1.033l1.274,0.734l-3.457,1.994
	c-0.358,0.207-0.481,0.666-0.274,1.024c0.14,0.239,0.392,0.375,0.65,0.375c0.127,0,0.256-0.032,0.374-0.101l4.106-2.371
	c-0.389,0.898-0.606,1.89-0.606,2.93c0,1.02,0.207,1.99,0.581,2.874l-4.081-2.354c-0.358-0.209-0.817-0.084-1.024,0.273
	s-0.084,0.816,0.274,1.023l3.492,2.017l-1.274,0.733l-1.826-1.056c-0.36-0.208-0.818-0.083-1.024,0.274
	c-0.207,0.357-0.084,0.816,0.274,1.023l1.074,0.62l-2.06,1.185l-1.481-0.854L8.28,32.048l0.002,2.572l2.234,1.286l2.235-1.286
	v-1.709l2.021-1.162v1.155c0,0.414,0.336,0.75,0.75,0.75s0.75-0.336,0.75-0.75v-2.02l1.271-0.73v3.938c0,0.414,0.336,0.75,0.75,0.75
	s0.75-0.336,0.75-0.75v-4.708c1.156,1.565,2.91,2.659,4.925,2.942l-3.99,2.305c-0.358,0.207-0.481,0.666-0.274,1.023
	c0.206,0.357,0.664,0.483,1.024,0.274l3.522-2.034v1.469l-1.858,1.074c-0.358,0.207-0.481,0.666-0.274,1.023
	c0.206,0.357,0.665,0.482,1.024,0.273l1.108-0.641v2.432l-1.485,0.854v2.572L25,44.238l2.235-1.286V40.38l-1.485-0.854v-2.348
	l0.965,0.557c0.118,0.068,0.247,0.102,0.374,0.102c0.26,0,0.512-0.135,0.65-0.375c0.207-0.357,0.084-0.816-0.274-1.023l-1.715-0.99
	v-1.465l3.379,1.951c0.118,0.067,0.247,0.101,0.374,0.101c0.26,0,0.512-0.136,0.65-0.375c0.207-0.358,0.084-0.817-0.274-1.024
	l-3.961-2.287c1.979-0.246,3.714-1.272,4.894-2.765v4.513c0,0.414,0.336,0.75,0.75,0.75s0.75-0.336,0.75-0.75v-4.021l1.271,0.731
	v2.104c0,0.414,0.336,0.75,0.75,0.75s0.75-0.336,0.75-0.75v-1.24l2.166,1.246v1.709l2.235,1.286l2.234-1.286l0.002-2.572
	l-2.236-1.287l-1.481,0.854l-2.133-1.227l1-0.578c0.358-0.207,0.481-0.666,0.274-1.024c-0.207-0.356-0.666-0.481-1.024-0.274
	l-1.752,1.014l-1.274-0.733l3.42-1.974c0.357-0.207,0.48-0.666,0.273-1.024c-0.207-0.356-0.664-0.481-1.023-0.274l-3.896,2.25
	c0.346-0.856,0.541-1.789,0.541-2.769c0-0.998-0.201-1.948-0.56-2.817l3.912,2.26c0.118,0.068,0.247,0.101,0.374,0.101
	c0.261,0,0.513-0.135,0.65-0.375c0.207-0.358,0.084-0.817-0.274-1.024l-3.385-1.953l1.275-0.732l1.717,0.991
	c0.117,0.067,0.247,0.101,0.374,0.101c0.26,0,0.512-0.135,0.649-0.375c0.207-0.357,0.084-0.816-0.273-1.023L35.903,19.6L38,18.393
	L39.483,19.24z M25.749,30.857c-0.246,0.03-0.495,0.053-0.75,0.053s-0.504-0.021-0.75-0.053c-1.607-0.205-3.012-1.058-3.947-2.287
	c-0.303-0.397-0.561-0.83-0.756-1.297c-0.292-0.699-0.455-1.467-0.455-2.271s0.163-1.572,0.455-2.271
	c0.195-0.467,0.453-0.898,0.756-1.297c0.938-1.229,2.34-2.082,3.947-2.287c0.246-0.03,0.495-0.053,0.75-0.053
	s0.504,0.021,0.75,0.053c1.607,0.205,3.012,1.058,3.947,2.287c0.303,0.397,0.561,0.83,0.756,1.297
	c0.292,0.699,0.455,1.467,0.455,2.271s-0.163,1.572-0.455,2.271c-0.195,0.467-0.453,0.898-0.756,1.297
	C28.761,29.801,27.356,30.652,25.749,30.857z"/>
</svg>
