<?xml version="1.0" encoding="utf-8"?>
<!-- Generator: Adobe Illustrator 16.0.4, SVG Export Plug-In . SVG Version: 6.00 Build 0)  -->
<!DOCTYPE svg PUBLIC "-//W3C//DTD SVG 1.1//EN" "http://www.w3.org/Graphics/SVG/1.1/DTD/svg11.dtd">
<svg version="1.1" id="Layer_1" xmlns="http://www.w3.org/2000/svg" xmlns:xlink="http://www.w3.org/1999/xlink" x="0px" y="0px"
	 width="50px" height="50px" viewBox="0 0 50 50" enable-background="new 0 0 50 50" xml:space="preserve">
<path stroke="#ddddff" d="M40,24.5h-2.172l-5.779-5.721c-0.021-0.021-0.049-0.03-0.072-0.049l3.983-3.983c0.194-0.195,0.194-0.513,0-0.707
	s-0.512-0.194-0.707,0L25.5,23.793v-6.45l4.428-4.433c0.195-0.195,0.195-0.512,0-0.707s-0.512-0.195-0.707,0L25.5,15.93V10
	c0-0.275-0.225-0.5-0.5-0.5s-0.5,0.225-0.5,0.5v5.926l-3.723-3.723c-0.195-0.195-0.512-0.195-0.707,0s-0.195,0.512,0,0.707
	l4.43,4.43v6.453l-9.753-9.753c-0.195-0.195-0.513-0.195-0.707,0c-0.194,0.194-0.194,0.512,0,0.707l4.043,4.043l-5.708,5.71H10
	c-0.275,0-0.5,0.225-0.5,0.5s0.225,0.5,0.5,0.5h2.369l5.715,5.709l-4.044,4.044c-0.194,0.195-0.194,0.513,0,0.707
	c0.099,0.099,0.226,0.146,0.354,0.146c0.127,0,0.256-0.049,0.354-0.146l9.753-9.753v6.45l-4.429,4.433
	c-0.194,0.195-0.194,0.512,0,0.707c0.195,0.195,0.513,0.195,0.707,0l3.722-3.727V40c0,0.275,0.224,0.5,0.5,0.5s0.5-0.225,0.5-0.5
	v-5.926l3.724,3.723c0.098,0.098,0.226,0.146,0.354,0.146s0.256-0.049,0.354-0.146c0.195-0.195,0.195-0.512,0-0.707l-4.43-4.43
	v-6.453l9.753,9.753c0.099,0.099,0.226,0.146,0.354,0.146c0.127,0,0.256-0.049,0.354-0.146c0.195-0.194,0.195-0.512,0-0.707
	L32,31.29c0.037-0.021,0.076-0.04,0.107-0.072L37.77,25.5H40c0.275,0,0.5-0.225,0.5-0.5S40.275,24.5,40,24.5z M31.346,19.491
	l5.062,5.009h-4.192l-3.02-2.986l2.1-2.101C31.312,19.439,31.322,19.469,31.346,19.491z M26.207,25.5h4.568l-2.273,2.295
	L26.207,25.5z M21.591,27.702L19.387,25.5h4.406L21.591,27.702z M23.793,24.5h-4.404l2.201-2.203L23.793,24.5z M26.207,24.5
	l2.279-2.279l2.306,2.279H26.207z M18.79,19.497l2.093,2.093l-2.908,2.91h-4.186L18.79,19.497z M13.784,25.5h4.188l2.91,2.909
	l-2.093,2.093L13.784,25.5z M31.395,30.516c-0.029,0.03-0.047,0.067-0.067,0.104l-2.117-2.117l2.974-3.002h4.182L31.395,30.516z"/>
</svg>
