<?xml version="1.0" encoding="utf-8"?>
<!-- Generator: Adobe Illustrator 16.0.4, SVG Export Plug-In . SVG Version: 6.00 Build 0)  -->
<!DOCTYPE svg PUBLIC "-//W3C//DTD SVG 1.1//EN" "http://www.w3.org/Graphics/SVG/1.1/DTD/svg11.dtd">
<svg version="1.1" id="Layer_1" xmlns="http://www.w3.org/2000/svg" xmlns:xlink="http://www.w3.org/1999/xlink" x="0px" y="0px"
	 width="50px" height="50px" viewBox="0 0 50 50" enable-background="new 0 0 50 50" xml:space="preserve">
<path stroke="#ddddff" d="M40,24.5h-1.665l1.519-1.52c0.195-0.195,0.195-0.513,0-0.707c-0.194-0.195-0.512-0.195-0.707,0L36.921,24.5h-1.842
	l0.882-0.882c0.195-0.195,0.195-0.513,0-0.707c-0.195-0.195-0.512-0.195-0.707,0l-1.382,1.382l-3.729-3.729l5.817-5.817
	c0.194-0.195,0.194-0.513,0-0.707c-0.194-0.195-0.512-0.195-0.707,0l-5.817,5.817l-3.729-3.729l1.381-1.383
	c0.195-0.195,0.195-0.513,0-0.707c-0.195-0.195-0.512-0.195-0.707,0L25.5,14.922V13.08l2.225-2.227c0.195-0.195,0.195-0.513,0-0.707
	c-0.195-0.195-0.512-0.195-0.707,0l-1.518,1.52V10c0-0.275-0.225-0.5-0.5-0.5s-0.5,0.225-0.5,0.5v1.666l-1.52-1.52
	c-0.194-0.195-0.512-0.195-0.707,0c-0.194,0.194-0.194,0.512,0,0.707L24.5,13.08v1.843l-0.883-0.884
	c-0.195-0.195-0.512-0.195-0.707,0s-0.195,0.512,0,0.707l1.382,1.383l-3.728,3.729l-5.816-5.816c-0.195-0.195-0.512-0.195-0.707,0
	s-0.195,0.512,0,0.707l5.816,5.816l-3.729,3.729l-1.382-1.381c-0.195-0.195-0.512-0.195-0.707,0s-0.195,0.512,0,0.707l0.882,0.881
	h-1.842l-2.226-2.225c-0.195-0.194-0.513-0.194-0.707,0c-0.195,0.195-0.195,0.513,0,0.707l1.519,1.518H10
	c-0.275,0-0.5,0.225-0.5,0.5s0.225,0.5,0.5,0.5h1.666l-1.52,1.52c-0.195,0.195-0.195,0.513,0,0.707
	c0.098,0.099,0.226,0.146,0.354,0.146s0.256-0.049,0.354-0.146L13.08,25.5h1.842l-0.883,0.882c-0.195,0.195-0.195,0.513,0,0.707
	c0.098,0.099,0.227,0.146,0.354,0.146c0.129,0,0.256-0.049,0.354-0.146l1.382-1.382l3.729,3.729l-5.815,5.816
	c-0.194,0.195-0.194,0.512,0,0.707c0.099,0.098,0.226,0.146,0.354,0.146c0.127,0,0.256-0.049,0.354-0.146l5.816-5.816l3.729,3.729
	l-1.381,1.382c-0.195,0.195-0.195,0.512,0,0.707s0.512,0.195,0.707,0l0.881-0.882v1.841l-2.225,2.227
	c-0.195,0.195-0.195,0.513,0,0.707c0.195,0.195,0.512,0.195,0.707,0l1.518-1.52V40c0,0.275,0.225,0.5,0.5,0.5s0.5-0.225,0.5-0.5
	v-1.666l1.52,1.52C27.12,39.952,27.248,40,27.376,40s0.256-0.049,0.354-0.146c0.194-0.194,0.194-0.512,0-0.707L25.5,36.92v-1.841
	l0.883,0.882c0.098,0.098,0.227,0.146,0.354,0.146c0.129,0,0.257-0.049,0.354-0.146c0.195-0.195,0.195-0.512,0-0.707l-1.383-1.382
	l3.729-3.729l5.816,5.817c0.098,0.099,0.227,0.146,0.354,0.146c0.129,0,0.257-0.049,0.354-0.146c0.195-0.194,0.195-0.512,0-0.707
	l-5.817-5.817l3.729-3.729l1.382,1.381c0.098,0.098,0.227,0.146,0.354,0.146c0.129,0,0.257-0.049,0.354-0.146
	c0.195-0.195,0.195-0.512,0-0.707L35.079,25.5h1.842l2.226,2.225c0.099,0.098,0.227,0.146,0.354,0.146s0.256-0.05,0.354-0.146
	c0.194-0.195,0.194-0.513,0-0.707l-1.52-1.518H40c0.275,0,0.5-0.225,0.5-0.5S40.275,24.5,40,24.5z M32.665,24.5h-6.457l3.229-3.229
	L32.665,24.5z M25.5,23.794v-6.459l3.229,3.229L25.5,23.794z M24.5,17.335v6.457l-3.229-3.229L24.5,17.335z M23.794,24.5h-6.459
	l3.229-3.229L23.794,24.5z M17.335,25.5h6.459l-3.229,3.229L17.335,25.5z M24.5,26.208v6.457l-3.229-3.229L24.5,26.208z
	 M25.5,32.665v-6.459l3.229,3.229L25.5,32.665z M26.208,25.5h6.457l-3.229,3.229L26.208,25.5z"/>
</svg>
