<?xml version="1.0" encoding="utf-8"?>
<!-- Generator: Adobe Illustrator 16.0.4, SVG Export Plug-In . SVG Version: 6.00 Build 0)  -->
<!DOCTYPE svg PUBLIC "-//W3C//DTD SVG 1.1//EN" "http://www.w3.org/Graphics/SVG/1.1/DTD/svg11.dtd">
<svg version="1.1" id="Layer_1" xmlns="http://www.w3.org/2000/svg" xmlns:xlink="http://www.w3.org/1999/xlink" x="0px" y="0px"
	 width="50px" height="50px" viewBox="0 0 50 50" enable-background="new 0 0 50 50" xml:space="preserve">
<path stroke="#ddddff" d="M40.572,24.25h-7.891l-2.936-2.934l0.119-0.119h6.152c0.414,0,0.75-0.336,0.75-0.75c0-0.414-0.336-0.75-0.75-0.75h-4.652
	l1.555-1.555h3.436c0.414,0,0.75-0.336,0.75-0.75s-0.336-0.75-0.75-0.75H34.42l1.719-1.718c0.293-0.293,0.293-0.768,0-1.061
	c-0.293-0.293-0.768-0.293-1.061,0l-1.719,1.718v-1.935c0-0.414-0.336-0.75-0.75-0.75s-0.75,0.336-0.75,0.75v3.435l-1.555,1.555
	v-4.653c0-0.414-0.336-0.75-0.75-0.75s-0.75,0.336-0.75,0.75v6.153l-0.119,0.119l-2.934-2.934L25.75,9.428
	c0-0.414-0.335-0.75-0.75-0.75s-0.75,0.336-0.75,0.75l0.001,7.89l-2.885,2.885l0.001-5.808c0-0.414-0.336-0.75-0.75-0.75
	s-0.75,0.336-0.75,0.75l-0.001,4.41l-1.548-1.547v-3.436c0-0.415-0.336-0.75-0.75-0.75s-0.75,0.336-0.75,0.75v1.935l-1.896-1.895
	c-0.293-0.293-0.769-0.293-1.062,0c-0.293,0.293-0.293,0.768,0,1.061l1.896,1.895h-1.935c-0.414,0-0.75,0.336-0.75,0.75
	s0.336,0.75,0.75,0.75h3.435l1.548,1.548h-4.41c-0.414,0-0.75,0.336-0.75,0.75s0.336,0.75,0.75,0.75h5.81l-2.886,2.884h-7.89
	c-0.413,0-0.75,0.336-0.75,0.75s0.337,0.75,0.75,0.75h7.892l2.935,2.935l-0.119,0.119h-6.151c-0.414,0-0.75,0.336-0.75,0.75
	c0,0.413,0.336,0.75,0.75,0.75h4.651l-1.555,1.555h-3.435c-0.414,0-0.75,0.336-0.75,0.75s0.336,0.75,0.75,0.75h1.935l-1.718,1.718
	c-0.293,0.293-0.293,0.768,0,1.062c0.146,0.146,0.338,0.22,0.529,0.22c0.192,0,0.385-0.072,0.53-0.22l1.718-1.718v1.935
	c0,0.414,0.336,0.75,0.75,0.75s0.75-0.336,0.75-0.75V32.92l1.555-1.555v4.652c0,0.414,0.336,0.75,0.75,0.75s0.75-0.336,0.75-0.75
	v-6.152l0.119-0.119l2.935,2.934l0.001,7.893c0,0.413,0.336,0.75,0.75,0.75s0.75-0.337,0.75-0.75V32.68l2.885-2.885l-0.002,5.81
	c0,0.414,0.336,0.75,0.75,0.75s0.75-0.336,0.75-0.75l0.002-4.41l1.9,1.901v3.436c0,0.413,0.336,0.75,0.75,0.75s0.75-0.337,0.75-0.75
	v-1.936l1.541,1.541c0.146,0.146,0.338,0.22,0.529,0.22c0.193,0,0.385-0.073,0.531-0.22c0.293-0.293,0.293-0.768,0-1.061
	l-1.541-1.541h1.934c0.414,0,0.75-0.336,0.75-0.75s-0.336-0.75-0.75-0.75h-3.434l-1.902-1.902h4.41c0.414,0,0.75-0.336,0.75-0.75
	s-0.336-0.75-0.75-0.75h-5.811l2.885-2.885h7.893c0.414,0,0.75-0.335,0.75-0.75S40.986,24.25,40.572,24.25z M31.311,24.999
	l-0.75,0.75l-1.875,1.875l-1.061,1.061l-1.873,1.874l-0.75,0.75l-0.75-0.75l-1.873-1.873l-1.062-1.062l-1.873-1.873L18.694,25
	l0.748-0.749l1.875-1.875l1.062-1.061l1.875-1.875l0.749-0.749l0.751,0.751l1.873,1.873l1.061,1.061l1.873,1.873L31.311,24.999z"/>
</svg>
