<?xml version="1.0" encoding="utf-8"?>
<!-- Generator: Adobe Illustrator 16.0.4, SVG Export Plug-In . SVG Version: 6.00 Build 0)  -->
<!DOCTYPE svg PUBLIC "-//W3C//DTD SVG 1.1//EN" "http://www.w3.org/Graphics/SVG/1.1/DTD/svg11.dtd">
<svg version="1.1" id="Layer_1" xmlns="http://www.w3.org/2000/svg" xmlns:xlink="http://www.w3.org/1999/xlink" x="0px" y="0px"
	 width="50px" height="50px" viewBox="0 0 50 50" enable-background="new 0 0 50 50" xml:space="preserve">
<path stroke="#ddddff" d="M26,35.588l4.092,4.092l-0.707,0.707l-0.691-0.691l-1.692,1.693v0.926h-4v-0.926l-1.693-1.693l-0.691,0.691L19.91,39.68
	l4.092-4.092v2.07l-1.658,1.658l1.658,1.658v0.34h2v-0.34l1.658-1.658l-1.658-1.658v-2.07H26z M36.068,15.54l2.265,0.608
	l0.296-0.172l1,1.73l-0.297,0.172l-0.605,2.266l-2.268-0.607l-1.791,1.036l5.59,1.497l0.26-0.967l-0.945-0.252l0.619-2.313
	l0.803-0.465l-2-3.464l-0.803,0.465l-2.312-0.62l0.253-0.942l-0.966-0.261l-1.499,5.592l1.792-1.036L36.068,15.54z M32.221,21.986
	l7.891,2.113l0.002,1.799l-7.896,2.113l-1.515-0.873v-4.277L32.221,21.986z M32.359,23.061l-0.657,0.379v3.121l0.657,0.381
	l6.752-1.81v-0.264L32.359,23.061z M39.57,29.148l0.947-0.254l-0.26-0.967l-5.592,1.499l1.796,1.034l2.265-0.605l0.607,2.265
	l0.296,0.172l-1,1.731l-0.295-0.17l-2.267,0.605l-0.607-2.268l-1.794-1.032l1.499,5.591l0.966-0.26l-0.253-0.945l2.314-0.619
	l0.804,0.463l2-3.463l-0.804-0.465L39.57,29.148z M31.217,29.745l2.115,7.894l-1.555,0.898L26,32.758v-1.752l3.702-2.136
	L31.217,29.745z M32.168,37.156l-1.809-6.754l-0.657-0.379L27,31.584v0.76l4.941,4.943L32.168,37.156z M24,32.758l-5.777,5.779
	l-1.557-0.898l2.115-7.895l1.517-0.874L24,31.006V32.758z M23,31.584l-2.702-1.561l-0.659,0.381l-1.809,6.751l0.229,0.132L23,32.344
	V31.584z M13.933,34.46l-2.267-0.604l-0.295,0.17l-1-1.732l0.296-0.172l0.608-2.264l2.264,0.604l1.796-1.034L9.743,27.93
	l-0.259,0.967l0.946,0.252l-0.621,2.313l-0.803,0.465l2,3.464l0.803-0.464l2.313,0.619l-0.253,0.945l0.966,0.26l1.498-5.589
	l-1.791,1.031L13.933,34.46z M17.78,21.986l1.518,0.875v4.277l-1.516,0.873l-7.895-2.113L9.889,24.1L17.78,21.986z M18.298,23.439
	l-0.658-0.381l-6.751,1.81v0.264l6.752,1.81l0.658-0.381L18.298,23.439L18.298,23.439z M10.427,20.852l-0.945,0.254l0.259,0.967
	l5.59-1.498l-1.791-1.036l-2.267,0.608l-0.606-2.267l-0.297-0.172l1-1.731l0.296,0.172l2.265-0.607l0.607,2.266l1.792,1.037
	l-1.499-5.592l-0.966,0.26l0.253,0.943l-2.312,0.62l-0.803-0.466l-2,3.465l0.803,0.465L10.427,20.852z M18.781,20.255l-2.115-7.894
	l1.557-0.898L24,17.242v1.752l-3.703,2.136L18.781,20.255z M17.83,12.846l1.809,6.752l0.658,0.379L23,18.416v-0.76l-4.941-4.943
	L17.83,12.846z M24,12.344l-1.658-1.658L24,9.027V8.686h2v0.342l1.658,1.658L26,12.344v2.068l4.092-4.092l-0.707-0.707l-0.691,0.691
	l-1.692-1.691V7.686h-4v0.928l-1.692,1.691l-0.692-0.691L19.91,10.32l4.092,4.092v-2.068H24z M26,17.242l5.777-5.779l1.557,0.898
	l-2.115,7.894l-1.516,0.875L26,18.994V17.242z M27,18.416l2.703,1.561l0.658-0.379l1.809-6.753l-0.229-0.132L27,17.656V18.416z"/>
</svg>
