<?xml version="1.0" encoding="utf-8"?>
<!-- Generator: Adobe Illustrator 16.0.4, SVG Export Plug-In . SVG Version: 6.00 Build 0)  -->
<!DOCTYPE svg PUBLIC "-//W3C//DTD SVG 1.1//EN" "http://www.w3.org/Graphics/SVG/1.1/DTD/svg11.dtd">
<svg version="1.1" id="Layer_1" xmlns="http://www.w3.org/2000/svg" xmlns:xlink="http://www.w3.org/1999/xlink" x="0px" y="0px"
	 width="50px" height="50px" viewBox="0 0 50 50" enable-background="new 0 0 50 50" xml:space="preserve">
<path stroke="#ddddff" d="M12.999,21.065c-0.138-0.239-0.056-0.545,0.184-0.685l1.913-1.103l-0.002-2.209c0-0.275,0.225-0.5,0.5-0.5
	c0.276,0,0.5,0.224,0.5,0.5l0.002,2.787l-2.413,1.392c-0.079,0.045-0.165,0.065-0.25,0.065
	C13.259,21.315,13.091,21.226,12.999,21.065z M36.318,28.748l-2.412,1.392l0.002,2.785c0,0.276,0.223,0.5,0.5,0.5
	c0.275,0,0.5-0.225,0.5-0.5l-0.002-2.207l1.912-1.103c0.238-0.14,0.32-0.444,0.184-0.685C36.863,28.692,36.557,28.61,36.318,28.748z
	 M22.587,13.323L25,14.716l2.412-1.393c0.24-0.139,0.322-0.443,0.184-0.684c-0.139-0.238-0.443-0.322-0.684-0.183L25,13.562
	l-1.913-1.104c-0.24-0.142-0.546-0.058-0.683,0.183C22.266,12.88,22.348,13.187,22.587,13.323z M27.414,36.676L25,35.283
	l-2.413,1.394c-0.239,0.139-0.321,0.443-0.183,0.684c0.092,0.16,0.261,0.25,0.433,0.25c0.085,0,0.171-0.021,0.25-0.067L25,36.438
	l1.914,1.104c0.238,0.14,0.545,0.058,0.682-0.183C27.734,37.119,27.652,36.813,27.414,36.676z M15.594,33.429
	c0.276,0,0.5-0.225,0.5-0.5l-0.001-2.785L13.68,28.75c-0.237-0.14-0.545-0.058-0.683,0.183c-0.139,0.239-0.057,0.545,0.183,0.684
	l1.913,1.105l0.001,2.207C15.094,33.204,15.318,33.429,15.594,33.429z M34.406,16.572c-0.277,0-0.5,0.224-0.5,0.5v2.784l2.414,1.394
	c0.078,0.046,0.164,0.067,0.25,0.067c0.172,0,0.34-0.09,0.432-0.25c0.139-0.239,0.057-0.545-0.182-0.684l-1.914-1.105v-2.207
	C34.906,16.796,34.682,16.572,34.406,16.572z M42.895,24.999c0,0.275-0.225,0.5-0.5,0.5h-1.133l-1.232,2.136
	c-0.09,0.154-0.254,0.25-0.434,0.25h-2.752c-0.18,0-0.344-0.095-0.434-0.25l-0.428-0.739l-3.695,2.135l-0.152,0.088v0.177v4.269
	h0.852c0.18,0,0.344,0.096,0.434,0.25l1.379,2.386c0.09,0.153,0.09,0.346,0,0.5l-1.236,2.134l0.568,0.982
	c0.139,0.238,0.057,0.545-0.184,0.683c-0.078,0.046-0.164,0.067-0.25,0.067c-0.172,0-0.342-0.09-0.434-0.25l-0.566-0.983
	l-2.467,0.002c-0.178,0-0.344-0.096-0.432-0.25l-1.377-2.385c-0.09-0.155-0.09-0.347,0-0.5l0.428-0.739l-3.696-2.133l-0.152-0.088
	l-0.154,0.089l-3.693,2.132l0.427,0.736c0.09,0.154,0.09,0.346,0,0.5l-1.378,2.388c-0.089,0.153-0.254,0.25-0.434,0.25h-2.467
	l-0.566,0.983c-0.093,0.16-0.262,0.25-0.434,0.25c-0.085,0-0.171-0.021-0.25-0.067c-0.239-0.138-0.321-0.442-0.183-0.683
	l0.566-0.982l-1.23-2.136c-0.089-0.155-0.089-0.347,0.001-0.5l1.377-2.388c0.089-0.153,0.254-0.25,0.433-0.25l0.853,0.002v-4.267
	V29.12l-0.154-0.089l-3.694-2.134l-0.426,0.738c-0.089,0.153-0.254,0.25-0.433,0.25h-2.754c-0.18,0-0.345-0.097-0.435-0.25
	L8.743,25.5H7.606c-0.275,0-0.5-0.224-0.5-0.5s0.225-0.5,0.5-0.5h1.136l1.23-2.136c0.09-0.154,0.255-0.25,0.435-0.25l2.755,0.001
	c0.179,0,0.344,0.096,0.433,0.25l0.425,0.735l3.694-2.133l0.155-0.09v-0.175v-4.267h-0.854c-0.179,0-0.344-0.096-0.434-0.25
	l-1.377-2.388c-0.089-0.155-0.089-0.346,0.001-0.5l1.231-2.134l-0.565-0.98c-0.14-0.239-0.058-0.545,0.183-0.684
	c0.239-0.141,0.545-0.057,0.684,0.184l0.566,0.981l2.465-0.002c0.18,0,0.345,0.097,0.435,0.25l1.376,2.388
	c0.089,0.155,0.089,0.346-0.001,0.5l-0.424,0.734l3.694,2.134l0.154,0.089l0.151-0.088l3.694-2.132l-0.426-0.737
	c-0.09-0.154-0.09-0.345,0-0.5l1.377-2.387c0.09-0.154,0.254-0.25,0.434-0.25h2.467l0.566-0.982c0.139-0.24,0.445-0.32,0.684-0.184
	c0.238,0.139,0.32,0.443,0.184,0.684l-0.568,0.983l1.232,2.134c0.09,0.154,0.09,0.346,0,0.5l-1.379,2.387
	c-0.09,0.154-0.254,0.25-0.434,0.25h-0.85v4.265v0.179l0.152,0.088l3.697,2.135l0.424-0.734c0.09-0.154,0.254-0.25,0.432-0.25
	l2.756-0.003l0,0c0.18,0,0.344,0.096,0.436,0.25l1.229,2.134h1.135C42.67,24.499,42.895,24.724,42.895,24.999z M39.307,26.885
	l0.803-1.386l0.287-0.497l-0.291-0.503l-0.799-1.384l-2.176,0.003l-0.426,0.734l-0.199,0.344l-0.174,0.303L36.041,25l0.289,0.499
	l0.162,0.279l0.213,0.369l0.426,0.736L39.307,26.885L39.307,26.885z M31.691,21.78l-1.988,2.719h5.473l0.309-0.531L31.691,21.78z
	 M26.299,28.251l0.252-0.568l0.613,0.066l3.201,0.348l-1.902-2.598L28.098,25l0.367-0.501l1.9-2.598l-3.201,0.348l-0.615,0.066
	l-0.25-0.565L25,18.802l-1.301,2.946l-0.25,0.567l-0.614-0.066l-3.2-0.348l1.9,2.599l0.366,0.5l-0.365,0.5l-1.901,2.597l3.201-0.348
	l0.615-0.066l0.25,0.566L25,31.194L26.299,28.251z M31.135,16.437h-0.613l-2.736,4.737l3.35-0.364V16.437L31.135,16.437z
	 M30.521,11.667l-1.092,1.887l0.426,0.732l0.217,0.376l0.16,0.276l0.287,0.498h0.578h0.322h0.428l0.848,0.002l1.09-1.888
	l-0.799-1.385l-0.289-0.5h-0.576L30.521,11.667L30.521,11.667z M25.559,17.595l1.361,3.082l2.736-4.738l-0.309-0.531L25.559,17.595z
	 M20.652,15.403l-0.309,0.533l2.735,4.738l1.361-3.084L20.652,15.403z M17.013,12.166l-0.8,1.385l1.089,1.888h0.851h0.43l0.32-0.002
	h0.575l0.289-0.5l0.163-0.283l0.211-0.363l0.426-0.734l-1.089-1.889l-1.599,0.001l-0.578,0.001L17.013,12.166z M18.867,20.812
	l3.349,0.364l-2.735-4.739h-0.612L18.867,20.812L18.867,20.812z M14.517,23.968l0.308,0.532h5.473l-1.99-2.72L14.517,23.968z
	 M13.508,25.78l0.162-0.28l0.288-0.5l-0.289-0.5l-0.176-0.306l-0.198-0.344l-0.425-0.735l-2.177-0.001l-0.8,1.386l-0.287,0.499
	L9.896,25.5l0.799,1.386h2.176l0.425-0.736L13.508,25.78z M18.307,28.218l1.989-2.718h-5.473l-0.308,0.531L18.307,28.218z
	 M18.867,33.562h0.611l2.736-4.738l-3.349,0.363L18.867,33.562L18.867,33.562z M19.478,38.332l1.091-1.888l-0.427-0.734
	l-0.214-0.369l-0.161-0.279l-0.289-0.498l-0.576-0.002h-0.32h-0.43h-0.849l-1.089,1.887l0.799,1.385l0.288,0.5h0.577L19.478,38.332
	L19.478,38.332z M24.441,32.406l-1.359-3.084l-2.737,4.739l0.308,0.53L24.441,32.406z M29.35,34.593l0.307-0.529l-2.736-4.739
	l-1.359,3.082L29.35,34.593z M32.986,37.833l0.801-1.386l-1.09-1.886h-0.854h-0.418h-0.328h-0.576l-0.289,0.5l-0.16,0.278
	l-0.201,0.349l-0.439,0.759l1.09,1.885l1.6-0.001l0.578-0.001L32.986,37.833z M31.135,29.187l-3.352-0.364l2.736,4.741h0.613
	L31.135,29.187z M35.482,26.03l-0.307-0.531h-5.473l1.99,2.719L35.482,26.03z"/>
</svg>
