<?xml version="1.0" encoding="utf-8"?>
<!-- Generator: Adobe Illustrator 16.0.4, SVG Export Plug-In . SVG Version: 6.00 Build 0)  -->
<!DOCTYPE svg PUBLIC "-//W3C//DTD SVG 1.1//EN" "http://www.w3.org/Graphics/SVG/1.1/DTD/svg11.dtd">
<svg version="1.1" id="Layer_1" xmlns="http://www.w3.org/2000/svg" xmlns:xlink="http://www.w3.org/1999/xlink" x="0px" y="0px"
	 width="50px" height="50px" viewBox="0 0 50 50" enable-background="new 0 0 50 50" xml:space="preserve">
<path stroke="#ddddff" d="M12.999,21.066c-0.138-0.239-0.056-0.545,0.184-0.683l1.913-1.103l-0.002-2.208c0-0.276,0.225-0.5,0.5-0.5
	c0.276,0,0.5,0.224,0.5,0.5l0.002,2.786l-2.413,1.392c-0.079,0.045-0.165,0.067-0.25,0.067
	C13.26,21.316,13.092,21.226,12.999,21.066z M36.318,28.749l-2.412,1.393l0.002,2.784c0,0.276,0.224,0.5,0.5,0.5
	c0.275,0,0.5-0.224,0.5-0.5l-0.002-2.207l1.912-1.103c0.238-0.138,0.32-0.444,0.184-0.683
	C36.863,28.693,36.558,28.611,36.318,28.749z M22.588,13.324l2.413,1.393l2.412-1.393c0.239-0.138,0.321-0.444,0.183-0.683
	c-0.138-0.24-0.443-0.321-0.683-0.183l-1.912,1.104l-1.913-1.104c-0.238-0.136-0.545-0.056-0.683,0.183
	C22.267,12.88,22.349,13.186,22.588,13.324z M27.414,36.676l-2.413-1.392l-2.413,1.393c-0.239,0.139-0.321,0.444-0.183,0.684
	c0.092,0.161,0.261,0.25,0.433,0.25c0.085,0,0.171-0.021,0.25-0.067l1.913-1.104l1.913,1.104c0.239,0.138,0.545,0.057,0.683-0.183
	C27.735,37.12,27.653,36.814,27.414,36.676z M15.595,33.428c0.276,0,0.5-0.224,0.5-0.5l-0.001-2.784l-2.413-1.394
	c-0.237-0.136-0.545-0.056-0.683,0.184c-0.139,0.238-0.057,0.545,0.183,0.683l1.913,1.104l0.001,2.208
	C15.095,33.204,15.318,33.428,15.595,33.428z M34.406,16.573c-0.276,0-0.5,0.224-0.5,0.5v2.785l2.414,1.393
	c0.079,0.045,0.165,0.067,0.25,0.067c0.173,0,0.341-0.09,0.433-0.25c0.139-0.239,0.057-0.545-0.183-0.683l-1.914-1.104v-2.208
	C34.906,16.796,34.683,16.573,34.406,16.573z M42.895,25c0,0.276-0.224,0.5-0.5,0.5h-1.132l-1.233,2.136
	c-0.089,0.155-0.254,0.25-0.434,0.25h-2.752c-0.179,0-0.344-0.095-0.433-0.25l-0.428-0.738l-3.849,2.221l-0.001,4.446h0.853
	c0.179,0,0.344,0.095,0.433,0.25l1.379,2.385c0.09,0.155,0.09,0.346,0,0.501l-1.234,2.133l0.566,0.982
	c0.139,0.239,0.057,0.545-0.183,0.683c-0.079,0.045-0.165,0.067-0.25,0.067c-0.172,0-0.342-0.089-0.434-0.25l-0.566-0.983
	l-2.467,0.001c-0.179,0-0.344-0.095-0.433-0.25l-1.376-2.384c-0.09-0.155-0.09-0.346,0-0.5l0.427-0.739L25,33.239l-3.848,2.221
	l0.426,0.736c0.09,0.155,0.09,0.346,0,0.5L20.2,39.083c-0.089,0.155-0.254,0.25-0.434,0.25H17.3l-0.567,0.983
	c-0.092,0.161-0.261,0.25-0.433,0.25c-0.085,0-0.171-0.021-0.25-0.067c-0.239-0.138-0.321-0.443-0.183-0.683l0.566-0.982
	l-1.23-2.135c-0.089-0.155-0.089-0.345,0.001-0.5l1.377-2.387c0.089-0.155,0.254-0.25,0.433-0.25h0.853v-4.443l-3.85-2.222
	l-0.426,0.737c-0.089,0.155-0.254,0.25-0.433,0.25h-2.754c-0.18,0-0.345-0.095-0.435-0.25L8.741,25.5H7.605
	c-0.276,0-0.5-0.224-0.5-0.5s0.224-0.5,0.5-0.5h1.136l1.229-2.135c0.09-0.155,0.255-0.25,0.435-0.25l2.755,0.001
	c0.179,0,0.344,0.095,0.433,0.25l0.425,0.736l3.851-2.222v-4.441h-0.854c-0.179,0-0.344-0.095-0.434-0.25l-1.377-2.387
	c-0.089-0.155-0.089-0.345,0.001-0.5l1.231-2.135l-0.565-0.981c-0.139-0.239-0.058-0.545,0.183-0.683
	c0.239-0.138,0.545-0.057,0.684,0.183l0.566,0.983l2.465-0.002c0.18,0,0.345,0.095,0.435,0.25l1.376,2.387
	c0.089,0.154,0.089,0.345-0.001,0.5l-0.424,0.734l3.85,2.223l3.846-2.22l-0.426-0.737c-0.09-0.155-0.09-0.346,0-0.5l1.378-2.387
	c0.089-0.155,0.254-0.25,0.434-0.25H32.7l0.567-0.984c0.139-0.24,0.444-0.319,0.684-0.183c0.239,0.138,0.321,0.444,0.183,0.683
	l-0.567,0.984l1.231,2.134c0.09,0.155,0.09,0.345,0,0.5l-1.379,2.387c-0.089,0.155-0.254,0.25-0.433,0.25h-0.851v4.443l3.851,2.222
	l0.425-0.735c0.089-0.155,0.254-0.25,0.432-0.25l2.755-0.003c0.001,0,0.001,0,0.001,0c0.18,0,0.345,0.095,0.435,0.25L41.26,24.5
	h1.135C42.671,24.5,42.895,24.723,42.895,25z M39.308,26.885l0.801-1.385l0.286-0.498L40.105,24.5l-0.799-1.383l-2.177,0.002
	l-0.425,0.735l-0.199,0.345L36.332,24.5l-0.29,0.501L36.33,25.5l0.161,0.278l0.214,0.371l0.427,0.736L39.308,26.885L39.308,26.885z
	 M31.135,21.459v-5.021h-0.612l-3.146,5.45l1.51,2.612h6.292l0.308-0.53L31.135,21.459z M27.731,24.5l-0.935-1.614l-0.289-0.5
	h-0.576l-1.864-0.001h-0.576l-0.289,0.5L22.271,24.5L21.983,25l0.289,0.5l0.932,1.614l0.288,0.5h0.577h1.863h0.577l0.289-0.5
	l0.933-1.614L28.02,25L27.731,24.5z M30.521,11.667l-1.091,1.887l0.423,0.731l0.219,0.376l0.16,0.277l0.287,0.498h0.578h0.323h0.427
	h0.849l1.09-1.887l-0.8-1.384l-0.289-0.5h-0.576h-1.6V11.667z M20.652,15.405l-0.309,0.532l3.146,5.448l3.02,0.001l3.146-5.448
	l-0.308-0.531l-4.347,2.509L20.652,15.405z M17.014,12.167l-0.8,1.385l1.089,1.887h0.851h0.43h0.32h0.575l0.289-0.5l0.163-0.283
	l0.211-0.365l0.426-0.735l-1.089-1.887L17.88,11.67h-0.578L17.014,12.167z M14.518,23.968l0.307,0.532h6.292l1.509-2.615
	l-3.146-5.448h-0.611v5.02L14.518,23.968z M13.509,25.781l0.162-0.281l0.288-0.5l-0.289-0.5l-0.176-0.305l-0.198-0.343l-0.425-0.736
	l-2.177-0.001L9.896,24.5L9.608,25l0.289,0.5l0.799,1.385h2.176l0.425-0.736L13.509,25.781z M18.867,28.542v5.021h0.611l3.146-5.448
	L21.117,25.5h-6.292l-0.308,0.531L18.867,28.542z M19.479,38.333l1.091-1.886l-0.427-0.736l-0.214-0.369l-0.161-0.279l-0.289-0.499
	h-0.576h-0.32h-0.43h-0.849l-1.089,1.887l0.799,1.384l0.288,0.5h0.577L19.479,38.333L19.479,38.333z M29.35,34.593l0.308-0.528
	l-3.146-5.449h-3.02l-3.146,5.448l0.309,0.53l4.349-2.51L29.35,34.593z M32.986,37.833l0.801-1.385l-1.089-1.885h-0.854h-0.418
	h-0.327h-0.576l-0.289,0.5l-0.16,0.278l-0.202,0.35l-0.438,0.757l1.089,1.884l1.6-0.001h0.578L32.986,37.833z M35.482,26.03
	l-0.307-0.53h-6.29l-1.51,2.616l3.146,5.448h0.613l0.001-5.023L35.482,26.03z"/>
</svg>
