<?xml version="1.0" encoding="utf-8"?>
<!-- Generator: Adobe Illustrator 16.0.4, SVG Export Plug-In . SVG Version: 6.00 Build 0)  -->
<!DOCTYPE svg PUBLIC "-//W3C//DTD SVG 1.1//EN" "http://www.w3.org/Graphics/SVG/1.1/DTD/svg11.dtd">
<svg version="1.1" id="Layer_1" xmlns="http://www.w3.org/2000/svg" xmlns:xlink="http://www.w3.org/1999/xlink" x="0px" y="0px"
	 width="50px" height="50px" viewBox="0 0 50 50" enable-background="new 0 0 50 50" xml:space="preserve">
<path stroke="#ddddff" d="M36.441,31.948H33.5l-2.205-2.206h4.41c0.414,0,0.75-0.336,0.75-0.75s-0.336-0.75-0.75-0.75h-4.643v-7.438h5.057
	c0.414,0,0.75-0.336,0.75-0.75s-0.336-0.75-0.75-0.75h-4.654l1.25-1.251h3.551c0.414,0,0.75-0.336,0.75-0.75s-0.336-0.75-0.75-0.75
	h-2.051l2.021-2.021c0.293-0.293,0.293-0.769,0-1.062s-0.768-0.293-1.061,0l-1.906,1.907v-1.821c0-0.414-0.336-0.75-0.75-0.75
	s-0.75,0.336-0.75,0.75v3.321l-1.365,1.365l0.002-4.652c0-0.414-0.336-0.75-0.75-0.75s-0.75,0.335-0.75,0.75l-0.002,5.056h-7.437
	v-4.643c0-0.414-0.336-0.75-0.75-0.75c-0.413,0-0.75,0.336-0.75,0.75v4.411l-1.737-1.738v-2.943c0-0.414-0.336-0.75-0.75-0.75
	s-0.75,0.336-0.75,0.75v1.443l-1.707-1.706c-0.293-0.293-0.768-0.293-1.061,0s-0.293,0.769,0,1.062l2.197,2.196h-2.426
	c-0.414,0-0.75,0.336-0.75,0.75s0.336,0.75,0.75,0.75h3.926l1.246,1.246h-4.409c-0.414,0-0.75,0.336-0.75,0.75s0.336,0.75,0.75,0.75
	h4.644v7.438h-5.056c-0.414,0-0.75,0.336-0.75,0.75c0,0.415,0.336,0.75,0.75,0.75l4.649-0.001l-1.856,1.857h-3.319
	c-0.414,0-0.75,0.336-0.75,0.75s0.336,0.75,0.75,0.75h1.819l-1.415,1.415c-0.293,0.293-0.293,0.769,0,1.062
	c0.146,0.146,0.338,0.22,0.53,0.22s0.384-0.073,0.53-0.22l1.529-1.53v2.051c0,0.414,0.336,0.75,0.75,0.75s0.75-0.336,0.75-0.75
	v-3.551l1.742-1.742v4.653c0,0.414,0.336,0.75,0.75,0.75s0.75-0.336,0.75-0.75V30.57h7.438v4.645c0,0.414,0.336,0.75,0.75,0.75
	s0.75-0.336,0.75-0.75v-4.41l1.713,1.713v3.927c0,0.414,0.336,0.75,0.75,0.75s0.75-0.336,0.75-0.75v-2.427l1.729,1.729
	c0.146,0.146,0.34,0.22,0.531,0.22s0.383-0.073,0.529-0.22c0.293-0.293,0.293-0.769,0-1.062l-1.236-1.236h1.441
	c0.414,0,0.75-0.337,0.75-0.75C37.189,32.285,36.855,31.948,36.441,31.948z M21.7,29.069h-0.403H20.64v-0.657v-0.404v-6.799v-0.233
	v-0.828h0.828H21.7h6.8h0.404h0.658v0.657v0.402v6.803v0.232v0.826h-0.828H28.5L21.7,29.069z M25.852,36.485v3.694
	c0,0.414-0.336,0.75-0.75,0.75c-0.414,0-0.75-0.336-0.75-0.75v-3.694c0-0.414,0.336-0.75,0.75-0.75
	C25.516,35.735,25.852,36.072,25.852,36.485z M13.517,25.651H9.823c-0.414,0-0.75-0.336-0.75-0.75s0.336-0.75,0.75-0.75h3.694
	c0.414,0,0.75,0.336,0.75,0.75S13.931,25.651,13.517,25.651z M24.152,13.515l0.002-3.694c0-0.413,0.336-0.75,0.75-0.75
	s0.75,0.337,0.75,0.75l-0.002,3.694c0,0.414-0.336,0.75-0.75,0.75C24.486,14.265,24.152,13.929,24.152,13.515z M40.928,25.105
	c0,0.414-0.336,0.75-0.75,0.75l-3.695-0.002c-0.414,0-0.75-0.336-0.75-0.75s0.336-0.75,0.75-0.75l3.695,0.002
	C40.592,24.355,40.928,24.691,40.928,25.105z"/>
</svg>
