<?xml version="1.0" encoding="utf-8"?>
<!-- Generator: Adobe Illustrator 16.0.4, SVG Export Plug-In . SVG Version: 6.00 Build 0)  -->
<!DOCTYPE svg PUBLIC "-//W3C//DTD SVG 1.1//EN" "http://www.w3.org/Graphics/SVG/1.1/DTD/svg11.dtd">
<svg version="1.1" id="Layer_1" xmlns="http://www.w3.org/2000/svg" xmlns:xlink="http://www.w3.org/1999/xlink" x="0px" y="0px"
	 width="50px" height="50px" viewBox="0 0 50 50" enable-background="new 0 0 50 50" xml:space="preserve">
<path stroke="#ddddff" d="M40,24.25h-6.992l3.119-3.119c0.293-0.293,0.293-0.768,0-1.061c-0.293-0.293-0.769-0.293-1.062,0l-4.179,4.179h-1.008
	l-4.131-4.13V18.87l4.351-4.351c0.293-0.293,0.293-0.768,0-1.061s-0.769-0.293-1.062,0l-3.289,3.29v-6.75
	c0-0.414-0.336-0.75-0.75-0.75s-0.75,0.336-0.75,0.75v6.75l-3.29-3.29c-0.293-0.293-0.768-0.293-1.061,0s-0.293,0.768,0,1.061
	l4.35,4.351v1.249l-4.13,4.13h-1.008L14.93,20.07c-0.293-0.293-0.768-0.293-1.061,0c-0.293,0.293-0.293,0.768,0,1.061l3.118,3.119
	H10c-0.414,0-0.75,0.336-0.75,0.75s0.336,0.75,0.75,0.75h6.991l-3.118,3.119c-0.293,0.293-0.293,0.768,0,1.061
	c0.146,0.146,0.338,0.221,0.53,0.221c0.192,0,0.384-0.073,0.53-0.221l4.179-4.179h1.008l4.13,4.13v1.249l-4.35,4.351
	c-0.293,0.293-0.293,0.769,0,1.062s0.768,0.293,1.061,0l3.29-3.29v6.75c0,0.414,0.336,0.75,0.75,0.75s0.75-0.336,0.75-0.75v-6.75
	l3.291,3.291c0.146,0.146,0.338,0.221,0.529,0.221c0.192,0,0.385-0.074,0.53-0.221c0.293-0.293,0.293-0.768,0-1.061l-4.351-4.352
	v-1.249l4.131-4.13h1.008l4.179,4.18c0.146,0.146,0.339,0.219,0.53,0.219s0.384-0.072,0.529-0.219c0.293-0.294,0.293-0.769,0-1.062
	l-3.117-3.119H40c0.414,0,0.75-0.336,0.75-0.75S40.414,24.25,40,24.25z M27.758,25.75l-2.008,2.009L25,28.509l-0.75-0.75
	l-2.009-2.009L21.491,25l0.75-0.75l2.009-2.009l0.75-0.75l0.75,0.75l2.008,2.009l0.75,0.75L27.758,25.75z M20.671,30.389
	l-2.321,2.321c-0.146,0.146-0.338,0.22-0.53,0.22c-0.192,0-0.384-0.072-0.53-0.22c-0.293-0.293-0.293-0.769,0-1.062l2.321-2.32
	c0.293-0.293,0.768-0.293,1.061,0S20.964,30.096,20.671,30.389z M29.022,20.088l2.61-2.781c0.283-0.302,0.759-0.317,1.06-0.034
	c0.302,0.284,0.317,0.758,0.034,1.06l-2.609,2.781c-0.147,0.157-0.348,0.237-0.548,0.237c-0.185,0-0.368-0.067-0.513-0.203
	C28.754,20.864,28.738,20.39,29.022,20.088z M17.29,18.351c-0.293-0.293-0.293-0.768,0-1.061s0.768-0.293,1.061,0l2.321,2.321
	c0.293,0.293,0.293,0.768,0,1.061c-0.146,0.146-0.338,0.22-0.53,0.22s-0.384-0.073-0.53-0.22L17.29,18.351z M32.692,31.633
	c0.302,0.284,0.317,0.758,0.034,1.061c-0.146,0.156-0.348,0.236-0.547,0.236c-0.184,0-0.369-0.066-0.514-0.203l-2.781-2.609
	c-0.301-0.284-0.316-0.758-0.033-1.061c0.283-0.302,0.758-0.315,1.061-0.033L32.692,31.633z"/>
</svg>
