<?xml version="1.0" encoding="utf-8"?>
<!-- Generator: Adobe Illustrator 16.0.4, SVG Export Plug-In . SVG Version: 6.00 Build 0)  -->
<!DOCTYPE svg PUBLIC "-//W3C//DTD SVG 1.1//EN" "http://www.w3.org/Graphics/SVG/1.1/DTD/svg11.dtd">
<svg version="1.1" id="Layer_1" xmlns="http://www.w3.org/2000/svg" xmlns:xlink="http://www.w3.org/1999/xlink" x="0px" y="0px"
	 width="50px" height="50px" viewBox="0 0 50 50" enable-background="new 0 0 50 50" xml:space="preserve">
<path stroke="#ddddff" d="M40,24.25h-3.289l1.801-1.799c0.293-0.292,0.293-0.768,0-1.061c-0.293-0.292-0.768-0.293-1.062,0l-2.86,2.859h-5.381
	l-1.186-1.185h3.472c0.414,0,0.75-0.336,0.75-0.75s-0.336-0.75-0.75-0.75h-1.999l3.732-3.734c0.293-0.293,0.293-0.768,0-1.061
	s-0.769-0.293-1.062,0l-3.733,3.734v-2c0-0.414-0.336-0.75-0.75-0.75s-0.75,0.336-0.75,0.75v3.47l-1.185-1.185v-5.38l2.86-2.86
	c0.293-0.293,0.293-0.768,0-1.061c-0.293-0.293-0.769-0.293-1.062,0l-1.8,1.8V9.999c0-0.414-0.336-0.75-0.75-0.75
	s-0.75,0.336-0.75,0.75v3.289l-1.799-1.799c-0.293-0.293-0.768-0.293-1.061,0c-0.293,0.292-0.293,0.768,0,1.061l2.858,2.86v5.38
	l-1.084,1.084v-3.126c0-0.414-0.336-0.75-0.75-0.75s-0.75,0.336-0.75,0.75v1.858l-3.834-3.835c-0.293-0.293-0.769-0.293-1.062,0
	c-0.293,0.292-0.293,0.768,0,1.061l3.834,3.834h-1.856c-0.414,0-0.75,0.336-0.75,0.75s0.336,0.75,0.75,0.75h3.127l-1.084,1.084
	H15.41l-2.86-2.86c-0.293-0.293-0.768-0.293-1.062,0c-0.293,0.293-0.293,0.768,0,1.061l1.801,1.8H10c-0.414,0-0.75,0.336-0.75,0.75
	s0.336,0.75,0.75,0.75h3.289l-1.801,1.799c-0.293,0.293-0.293,0.769,0,1.062c0.146,0.146,0.339,0.22,0.531,0.22
	c0.19,0,0.383-0.072,0.529-0.22l2.86-2.858h5.381l1.185,1.185h-3.471c-0.414,0-0.75,0.336-0.75,0.75s0.336,0.75,0.75,0.75h1.999
	l-3.731,3.733c-0.293,0.293-0.293,0.768,0,1.061c0.146,0.146,0.338,0.221,0.529,0.221c0.192,0,0.385-0.074,0.53-0.221l3.733-3.734
	v2.002c0,0.414,0.336,0.75,0.75,0.75s0.75-0.336,0.75-0.75v-3.472l1.185,1.185v5.381l-2.86,2.859c-0.293,0.293-0.293,0.768,0,1.062
	c0.293,0.293,0.769,0.293,1.062,0l1.8-1.8v3.289c0,0.414,0.336,0.75,0.75,0.75s0.75-0.336,0.75-0.75v-3.289l1.799,1.799
	c0.146,0.146,0.338,0.22,0.53,0.22s0.384-0.073,0.53-0.22c0.293-0.292,0.293-0.768,0-1.061L25.75,34.59v-5.379l1.084-1.084v3.125
	c0,0.414,0.336,0.75,0.75,0.75s0.75-0.336,0.75-0.75v-1.857l3.834,3.835c0.146,0.146,0.338,0.22,0.53,0.22s0.384-0.072,0.53-0.22
	c0.293-0.292,0.293-0.769,0-1.062l-3.834-3.834h1.856c0.414,0,0.75-0.336,0.75-0.75s-0.336-0.75-0.75-0.75h-3.127l1.084-1.084h5.381
	l2.86,2.86c0.146,0.146,0.338,0.22,0.529,0.22c0.192,0,0.385-0.072,0.53-0.22c0.293-0.293,0.293-0.769,0-1.062l-1.8-1.799H40
	c0.414,0,0.75-0.336,0.75-0.75S40.414,24.25,40,24.25z M27.088,25.75l-1.338,1.338L25,27.838l-0.75-0.75l-1.338-1.338L22.162,25
	l0.75-0.75l1.338-1.338l0.75-0.75l0.75,0.75l1.338,1.338l0.75,0.75L27.088,25.75z"/>
</svg>
