<?xml version="1.0" encoding="utf-8"?>
<!-- Generator: Adobe Illustrator 16.0.4, SVG Export Plug-In . SVG Version: 6.00 Build 0)  -->
<!DOCTYPE svg PUBLIC "-//W3C//DTD SVG 1.1//EN" "http://www.w3.org/Graphics/SVG/1.1/DTD/svg11.dtd">
<svg version="1.1" id="Layer_1" xmlns="http://www.w3.org/2000/svg" xmlns:xlink="http://www.w3.org/1999/xlink" x="0px" y="0px"
	 width="50px" height="50px" viewBox="0 0 50 50" enable-background="new 0 0 50 50" xml:space="preserve">
<path stroke="#ddddff" d="M14.266,29.328l0.026-0.047l0.865,0.5l-0.026,0.047c-0.092,0.159-0.261,0.25-0.434,0.25c-0.019,0-0.034-0.013-0.053-0.016
	l-0.355-0.205C14.184,29.705,14.166,29.5,14.266,29.328z M17.074,16.093l2.785,0.001l1.393-2.414
	c0.139-0.239,0.057-0.545-0.184-0.683c-0.241-0.138-0.545-0.056-0.685,0.184l-1.103,1.913l-2.208-0.001c-0.276,0-0.5,0.224-0.5,0.5
	C16.574,15.87,16.798,16.093,17.074,16.093z M32.928,33.906l-2.785-0.001l-1.392,2.412c-0.138,0.239-0.056,0.545,0.185,0.683
	c0.078,0.045,0.164,0.067,0.25,0.067c0.172,0,0.34-0.09,0.434-0.25l1.104-1.912l2.207,0.001c0.275,0,0.5-0.224,0.5-0.5
	C33.428,34.131,33.204,33.906,32.928,33.906z M30.143,16.095h2.785c0.276,0,0.5-0.224,0.5-0.5c0-0.276-0.224-0.5-0.5-0.5h-2.207
	l-1.105-1.913c-0.139-0.24-0.443-0.321-0.684-0.183s-0.32,0.444-0.183,0.683L30.143,16.095z M19.859,33.906h-2.787
	c-0.276,0-0.5,0.225-0.5,0.5c0,0.276,0.224,0.5,0.5,0.5h2.209l1.105,1.912c0.092,0.161,0.26,0.25,0.432,0.25
	c0.086,0,0.172-0.021,0.25-0.066c0.24-0.139,0.322-0.444,0.184-0.684L19.859,33.906z M12.641,27.597
	c0.08,0.045,0.166,0.067,0.25,0.067c0.174,0,0.342-0.09,0.435-0.25l1.391-2.413l-1.394-2.413c-0.139-0.24-0.445-0.321-0.684-0.183
	c-0.238,0.138-0.32,0.444-0.183,0.683l1.104,1.913l-1.104,1.913C12.318,27.152,12.4,27.459,12.641,27.597z M37.359,22.405
	c-0.238-0.136-0.545-0.056-0.684,0.183L35.283,25l1.394,2.414c0.093,0.16,0.261,0.25,0.433,0.25c0.086,0,0.172-0.021,0.25-0.067
	c0.24-0.138,0.322-0.444,0.184-0.683L36.439,25l1.104-1.912C37.682,22.85,37.6,22.543,37.359,22.405z M40.497,33.947
	c-0.093,0.16-0.261,0.25-0.433,0.25c-0.086,0-0.172-0.021-0.25-0.066l-0.98-0.566l-2.137,1.232c-0.077,0.043-0.164,0.066-0.25,0.066
	s-0.174-0.021-0.25-0.066l-2.385-1.377c-0.153-0.088-0.25-0.254-0.25-0.433v-0.854h-4.441l-2.225,3.851l0.737,0.427
	c0.154,0.088,0.25,0.254,0.25,0.432l0.001,2.755c0,0.179-0.096,0.344-0.25,0.433L25.5,41.26v1.135c0,0.275-0.225,0.5-0.5,0.5
	s-0.5-0.225-0.5-0.5V41.26l-2.136-1.231c-0.154-0.089-0.25-0.254-0.25-0.433l0.001-2.754c0-0.178,0.096-0.344,0.25-0.432
	l0.738-0.427l-2.224-3.849h-4.442l0.002,0.851c0,0.179-0.096,0.345-0.25,0.435l-2.387,1.377c-0.078,0.045-0.164,0.068-0.25,0.068
	c-0.087,0-0.174-0.023-0.25-0.068l-2.137-1.232l-0.982,0.568c-0.08,0.045-0.166,0.066-0.25,0.066c-0.172,0-0.342-0.089-0.434-0.25
	c-0.139-0.238-0.057-0.545,0.184-0.683l0.982-0.567l0.001-2.465c0-0.179,0.097-0.344,0.25-0.434l2.388-1.377
	c0.153-0.09,0.346-0.09,0.5,0l0.736,0.426l2.221-3.848l-2.222-3.849l-0.737,0.426c-0.078,0.044-0.164,0.067-0.25,0.067
	s-0.174-0.022-0.25-0.067l-2.386-1.377c-0.155-0.089-0.25-0.255-0.25-0.434l0.002-2.464l-0.983-0.568
	c-0.239-0.138-0.321-0.444-0.184-0.683c0.139-0.239,0.445-0.32,0.684-0.183l0.983,0.568l2.134-1.233c0.152-0.089,0.344-0.09,0.5,0
	l2.385,1.379c0.156,0.089,0.25,0.255,0.25,0.433v0.85h4.443l2.223-3.846l-0.74-0.427c-0.154-0.089-0.25-0.254-0.25-0.434
	l0.002-2.755c0-0.178,0.096-0.343,0.25-0.433L24.5,8.738V7.605c0-0.276,0.225-0.5,0.5-0.5s0.5,0.224,0.5,0.5v1.135l2.135,1.231
	c0.154,0.089,0.25,0.254,0.25,0.434l-0.002,2.755c0,0.178-0.096,0.343-0.25,0.433l-0.734,0.425l2.224,3.849h4.44l-0.002-0.851
	c0-0.179,0.096-0.344,0.25-0.434l2.388-1.378c0.153-0.089,0.346-0.089,0.5,0l2.136,1.233l0.982-0.568
	c0.24-0.138,0.545-0.057,0.684,0.183c0.139,0.239,0.057,0.545-0.184,0.683l-0.983,0.568v2.464c0,0.179-0.097,0.344-0.25,0.433
	l-2.388,1.378c-0.076,0.044-0.163,0.067-0.25,0.067c-0.086,0-0.172-0.022-0.25-0.067l-0.735-0.426l-2.222,3.849l2.223,3.849
	l0.734-0.425c0.154-0.088,0.345-0.088,0.5,0l2.389,1.375c0.154,0.09,0.25,0.255,0.25,0.435l-0.002,2.462l0.982,0.568
	C40.555,33.402,40.636,33.709,40.497,33.947z M38.332,32.119l0.001-1.597l-1.888-1.087l-0.734,0.424l-0.348,0.201l-0.301,0.173
	l-0.5,0.289V31.1v0.32v0.429v0.851l1.885,1.088l1.386-0.801l0.498-0.287L38.332,32.119z M34.596,20.652l-0.531-0.307l-2.283,1.318
	L29.339,25l2.442,3.337l2.283,1.317l0.531-0.306l-2.513-4.348L34.596,20.652z M26.885,37.131l-0.763-0.439l-0.339-0.195L25.5,36.332
	L25,36.043l-0.5,0.289l-0.279,0.162l-0.349,0.2l-0.757,0.437l-0.001,2.176l1.386,0.798l0.501,0.289l0.499-0.287l1.386-0.798
	L26.885,37.131z M23.113,12.872l0.736,0.425l0.371,0.214l0.279,0.16l0.5,0.288l0.5-0.289l0.281-0.163l0.367-0.212l0.733-0.424
	l0.002-2.178L25.5,9.896l-0.502-0.289L24.5,9.894l-1.385,0.8L23.113,12.872z M29.634,27.099L28.098,25l1.536-2.098l0.732-1
	l-1.232,0.134l-2.585,0.281L25.5,19.938L25,18.805l-0.5,1.134l-1.049,2.379l-2.585-0.281l-1.232-0.134l0.732,1L21.902,25
	l-1.536,2.098l-0.732,1l1.232-0.134l2.585-0.281l1.049,2.379l0.5,1.134l0.5-1.134l1.049-2.379l2.585,0.281l1.232,0.134
	L29.634,27.099z M37.833,17.015l-1.386-0.8l-1.887,1.089v0.847v0.432l0.002,0.32v0.577l0.5,0.289l0.281,0.163l0.367,0.213
	l0.732,0.424l1.888-1.089V17.88v-0.578L37.833,17.015z M26.032,14.518L25.5,14.825v2.637l1.668,3.784l4.111-0.447l2.283-1.317
	l-0.002-0.613h-5.019L26.032,14.518z M16.438,18.866v0.614l2.283,1.318l4.111,0.447L24.5,17.46v-2.636l-0.531-0.306l-2.509,4.347
	H16.438z M14.288,20.145l0.37-0.213l0.279-0.162l0.5-0.289v-0.578v-0.326v-0.422v-0.85l-1.886-1.09l-1.384,0.8l-0.499,0.289v0.578
	l-0.002,1.599l1.885,1.088L14.288,20.145z M15.407,29.35l0.53,0.306l2.281-1.317L20.661,25l-2.442-3.337l-2.281-1.317l-0.531,0.307
	l2.511,4.348L15.407,29.35z M14.292,29.281l-0.026,0.047c-0.1,0.172-0.082,0.375,0.023,0.529l-0.734-0.424l-1.887,1.089
	l-0.001,1.599v0.578l0.5,0.288l1.386,0.8l1.887-1.088v-0.851v-0.427L15.438,31.1v-0.577l-0.5-0.289l-0.293-0.169
	c0.02,0.002,0.035,0.016,0.055,0.016c0.172,0,0.341-0.09,0.433-0.25l0.026-0.047L14.292,29.281z M23.971,35.483l0.529-0.306v-2.637
	l-1.668-3.785l-4.111,0.447l-2.283,1.317l0.002,0.612l5.021,0.002L23.971,35.483z M33.562,31.135v-0.613l-2.283-1.318l-4.111-0.447
	L25.5,32.541v2.638l0.531,0.307l2.512-4.351H33.562L33.562,31.135z"/>
</svg>
