<?xml version="1.0" encoding="utf-8"?>
<!-- Generator: Adobe Illustrator 16.0.4, SVG Export Plug-In . SVG Version: 6.00 Build 0)  -->
<!DOCTYPE svg PUBLIC "-//W3C//DTD SVG 1.1//EN" "http://www.w3.org/Graphics/SVG/1.1/DTD/svg11.dtd">
<svg version="1.1" id="Layer_1" xmlns="http://www.w3.org/2000/svg" xmlns:xlink="http://www.w3.org/1999/xlink" x="0px" y="0px"
	 width="50px" height="50px" viewBox="0 0 50 50" enable-background="new 0 0 50 50" xml:space="preserve">
<path stroke="#ddddff" d="M40,24.5h-1.665l1.519-1.52c0.195-0.195,0.195-0.512,0-0.707c-0.194-0.195-0.512-0.195-0.707,0L36.921,24.5h-1.842
	l0.882-0.882c0.195-0.195,0.195-0.512,0-0.707c-0.195-0.195-0.512-0.195-0.707,0L33.665,24.5h-7.457l9.753-9.753
	c0.195-0.195,0.195-0.512,0-0.707c-0.195-0.195-0.512-0.195-0.707,0L25.5,23.794v-7.458l1.588-1.59c0.195-0.196,0.195-0.512,0-0.708
	c-0.195-0.194-0.512-0.195-0.708,0l-0.88,0.883V13.08l2.225-2.227c0.195-0.195,0.195-0.512,0-0.707s-0.512-0.195-0.707,0
	L25.5,11.665V10c0-0.276-0.224-0.5-0.5-0.5s-0.5,0.224-0.5,0.5v1.666l-1.519-1.519c-0.195-0.195-0.512-0.195-0.707,0
	s-0.195,0.512,0,0.707L24.5,13.08v1.842l-0.882-0.883c-0.195-0.195-0.512-0.195-0.707,0c-0.195,0.195-0.195,0.512,0,0.707
	l1.589,1.59v7.456l-9.752-9.752c-0.195-0.195-0.512-0.195-0.707,0c-0.195,0.195-0.195,0.512,0,0.707l9.753,9.753h-7.458l-1.59-1.588
	c-0.195-0.194-0.512-0.195-0.708,0c-0.195,0.196-0.195,0.512,0,0.708l0.882,0.88h-1.841l-2.227-2.224
	c-0.195-0.195-0.512-0.195-0.707,0c-0.195,0.195-0.195,0.512,0,0.707l1.52,1.517H10c-0.276,0-0.5,0.224-0.5,0.5s0.224,0.5,0.5,0.5
	h1.666l-1.519,1.52c-0.195,0.195-0.195,0.513,0,0.707c0.098,0.099,0.226,0.146,0.354,0.146s0.256-0.049,0.354-0.146l2.226-2.227
	h1.841l-0.883,0.882c-0.195,0.195-0.195,0.513,0,0.707c0.098,0.099,0.226,0.146,0.354,0.146s0.256-0.049,0.354-0.146l1.59-1.589
	h7.458l-9.753,9.753c-0.195,0.195-0.195,0.513,0,0.707c0.098,0.099,0.226,0.146,0.354,0.146s0.256-0.049,0.354-0.146l9.75-9.752
	v7.457l-1.588,1.589c-0.195,0.195-0.195,0.512,0,0.707c0.098,0.098,0.226,0.146,0.354,0.146s0.256-0.049,0.354-0.146l0.88-0.881
	v1.84l-2.224,2.227c-0.195,0.195-0.195,0.513,0,0.707c0.195,0.195,0.512,0.195,0.707,0l1.517-1.519V40c0,0.275,0.224,0.5,0.5,0.5
	s0.5-0.225,0.5-0.5v-1.666l1.52,1.52c0.099,0.098,0.227,0.146,0.354,0.146s0.256-0.049,0.354-0.146c0.194-0.195,0.194-0.513,0-0.707
	L25.5,36.919v-1.84l0.882,0.882c0.195,0.195,0.513,0.195,0.707,0c0.195-0.195,0.195-0.512,0-0.707L25.5,33.665v-7.459l9.754,9.754
	c0.098,0.099,0.227,0.146,0.354,0.146c0.129,0,0.256-0.049,0.354-0.146c0.195-0.194,0.195-0.512,0-0.707L26.208,25.5h7.457
	l1.589,1.588c0.098,0.098,0.227,0.146,0.354,0.146c0.129,0,0.256-0.049,0.354-0.146c0.195-0.195,0.195-0.512,0-0.707L35.08,25.5
	h1.841l2.226,2.225c0.099,0.098,0.227,0.146,0.354,0.146s0.256-0.05,0.354-0.146c0.194-0.195,0.194-0.513,0-0.707L38.335,25.5H40
	c0.275,0,0.5-0.224,0.5-0.5S40.275,24.5,40,24.5z"/>
</svg>
