<?xml version="1.0" encoding="utf-8"?>
<!-- Generator: Adobe Illustrator 16.0.4, SVG Export Plug-In . SVG Version: 6.00 Build 0)  -->
<!DOCTYPE svg PUBLIC "-//W3C//DTD SVG 1.1//EN" "http://www.w3.org/Graphics/SVG/1.1/DTD/svg11.dtd">
<svg version="1.1" id="Layer_1" xmlns="http://www.w3.org/2000/svg" xmlns:xlink="http://www.w3.org/1999/xlink" x="0px" y="0px"
	 width="50px" height="50px" viewBox="0 0 50 50" enable-background="new 0 0 50 50" xml:space="preserve">
<path stroke="#ddddff" d="M37.695,31.752l-5.244-3.026l5.726-1.533c0.267-0.072,0.425-0.346,0.354-0.612c-0.071-0.269-0.344-0.421-0.612-0.354
	l-6.692,1.793l-1.903-1.1L33.675,25l-4.352-1.919l1.905-1.1l6.688,1.795c0.043,0.011,0.087,0.017,0.13,0.017
	c0.221,0,0.422-0.147,0.482-0.37c0.072-0.267-0.086-0.541-0.354-0.613l-5.723-1.535l5.239-3.024l1.729,0.997l2.227-1.285v-2.57
	l-2.226-1.285l-2.228,1.285v1.992l-5.243,3.027l1.534-5.727c0.072-0.269-0.086-0.541-0.354-0.613
	c-0.268-0.063-0.541,0.088-0.611,0.354l-1.795,6.693l-1.902,1.099l0.514-4.729l-3.836,2.81v-2.202l4.896-4.896
	c0.195-0.195,0.195-0.513,0-0.707c-0.194-0.195-0.512-0.195-0.707,0l-4.188,4.188v-6.05l1.726-0.996V7.063l-2.226-1.285
	l-2.228,1.285l0.002,2.57l1.726,0.996v6.055l-4.193-4.193c-0.195-0.195-0.512-0.195-0.707,0s-0.195,0.512,0,0.707l4.9,4.9v2.198
	l-3.837-2.81l0.514,4.729l-1.906-1.1l-1.792-6.689c-0.071-0.267-0.345-0.42-0.612-0.354c-0.267,0.072-0.425,0.346-0.354,0.611
	l1.534,5.726l-5.241-3.026l-0.001-1.992l-2.227-1.287l-2.226,1.287v2.569l2.226,1.285l1.728-0.997l5.241,3.025l-5.725,1.535
	c-0.267,0.071-0.425,0.346-0.354,0.612c0.06,0.224,0.262,0.37,0.482,0.37c0.043,0,0.086-0.006,0.13-0.018l6.691-1.793l1.905,1.101
	L16.324,25l4.354,1.919l-1.907,1.102l-6.693-1.795c-0.266-0.064-0.54,0.088-0.612,0.354c-0.071,0.269,0.087,0.541,0.354,0.612
	l5.727,1.535l-5.242,3.025l-1.727-0.996l-2.227,1.284l0.001,2.571l2.226,1.285l2.227-1.285v-1.994l5.239-3.023l-1.534,5.723
	c-0.071,0.268,0.087,0.541,0.354,0.613c0.043,0.01,0.087,0.017,0.13,0.017c0.221,0,0.422-0.147,0.482-0.37l1.792-6.689l1.908-1.102
	l-0.514,4.729l3.837-2.81v2.196l-4.9,4.9c-0.195,0.195-0.195,0.512,0,0.707c0.098,0.098,0.226,0.146,0.354,0.146
	s0.256-0.049,0.354-0.146l4.192-4.193v6.057l-1.726,0.995l0.001,2.571l2.227,1.283l2.226-1.285v-2.568L25.5,39.369v-6.052
	l4.189,4.188c0.195,0.195,0.513,0.195,0.707,0c0.195-0.195,0.195-0.512,0-0.707L25.5,31.903v-2.201l3.837,2.809l-0.514-4.728
	l1.903,1.1l1.793,6.691c0.061,0.223,0.263,0.37,0.482,0.37c0.043,0,0.086-0.006,0.13-0.018c0.267-0.072,0.425-0.346,0.354-0.613
	l-1.534-5.725l5.245,3.028v1.991l2.226,1.287l2.226-1.287v-2.569l-2.226-1.285L37.695,31.752z M28.098,30.364L25.5,28.462L25,28.097
	l-0.5,0.366l-2.598,1.902l0.348-3.201l0.067-0.616l-0.566-0.25l-2.947-1.299L21.75,23.7l0.567-0.25l-0.067-0.615l-0.348-3.201
	l2.598,1.902l0.5,0.365l0.5-0.366l2.598-1.902l-0.348,3.201l-0.066,0.616l0.565,0.25l2.946,1.299l-2.946,1.3l-0.567,0.25
	l0.067,0.615L28.098,30.364z"/>
</svg>
