<?xml version="1.0" encoding="utf-8"?>
<!-- Generator: Adobe Illustrator 16.0.4, SVG Export Plug-In . SVG Version: 6.00 Build 0)  -->
<!DOCTYPE svg PUBLIC "-//W3C//DTD SVG 1.1//EN" "http://www.w3.org/Graphics/SVG/1.1/DTD/svg11.dtd">
<svg version="1.1" id="Layer_1" xmlns="http://www.w3.org/2000/svg" xmlns:xlink="http://www.w3.org/1999/xlink" x="0px" y="0px"
	 width="50px" height="50px" viewBox="0 0 50 50" enable-background="new 0 0 50 50" xml:space="preserve">
<path stroke="#ddddff" d="M40.004,24.249h-3.289l1.799-1.799c0.293-0.293,0.293-0.768,0-1.061s-0.768-0.293-1.061,0l-2.86,2.858h-2.875
	c-0.157-1.415-0.756-2.696-1.651-3.711h0.147h5.229c0.414,0,0.75-0.336,0.75-0.75s-0.336-0.75-0.75-0.75h-3.418l3.613-3.614
	c0.293-0.293,0.293-0.768,0-1.061s-0.768-0.293-1.061,0l-3.614,3.613v-3.418c0-0.414-0.336-0.75-0.75-0.75s-0.75,0.336-0.75,0.75
	v5.229v0.147c-1.015-0.896-2.296-1.494-3.711-1.65v-2.876l2.86-2.86c0.293-0.293,0.293-0.768,0-1.061s-0.769-0.293-1.062,0l-1.8,1.8
	V9.999c0-0.414-0.336-0.75-0.75-0.75s-0.75,0.336-0.75,0.75v3.289l-1.799-1.8c-0.293-0.294-0.768-0.294-1.061,0
	c-0.293,0.293-0.293,0.768,0,1.061l2.859,2.86v2.876c-1.415,0.157-2.695,0.755-3.71,1.649v-0.146V14.56
	c0-0.414-0.336-0.75-0.75-0.75s-0.75,0.336-0.75,0.75v3.418l-3.614-3.614c-0.293-0.294-0.768-0.294-1.061,0
	c-0.293,0.293-0.293,0.768,0,1.061l3.614,3.614h-3.418c-0.414,0-0.75,0.336-0.75,0.75s0.336,0.75,0.75,0.75h5.229h0.146
	c-0.895,1.016-1.494,2.296-1.651,3.711h-2.875l-2.86-2.859c-0.293-0.293-0.768-0.293-1.061,0s-0.293,0.768,0,1.061l1.8,1.8h-3.289
	c-0.414,0-0.75,0.336-0.75,0.75s0.336,0.75,0.75,0.75h3.289l-1.799,1.799c-0.293,0.293-0.293,0.769,0,1.062
	c0.146,0.146,0.338,0.22,0.53,0.22s0.384-0.073,0.53-0.22l2.86-2.859h2.875c0.158,1.419,0.759,2.703,1.659,3.721h-0.154h-5.229
	c-0.414,0-0.75,0.336-0.75,0.75c0,0.413,0.336,0.75,0.75,0.75h3.418l-3.614,3.613c-0.293,0.293-0.293,0.768,0,1.061
	c0.146,0.146,0.338,0.221,0.53,0.221s0.384-0.073,0.53-0.221l3.614-3.613v3.417c0,0.414,0.336,0.75,0.75,0.75s0.75-0.336,0.75-0.75
	v-5.228v-0.156c1.015,0.896,2.295,1.492,3.71,1.649v2.876l-2.86,2.86c-0.293,0.293-0.293,0.769,0,1.062s0.768,0.293,1.061,0
	l1.8-1.801v3.289c0,0.414,0.336,0.75,0.75,0.75s0.75-0.336,0.75-0.75v-3.289l1.799,1.801c0.146,0.146,0.338,0.219,0.53,0.219
	c0.191,0,0.384-0.072,0.529-0.219c0.293-0.293,0.293-0.769,0-1.062l-2.858-2.86v-2.876c1.415-0.157,2.696-0.756,3.711-1.649v0.156
	v5.228c0,0.414,0.336,0.75,0.75,0.75s0.75-0.336,0.75-0.75v-3.417l3.614,3.613c0.146,0.146,0.338,0.221,0.529,0.221
	c0.192,0,0.385-0.073,0.53-0.221c0.293-0.293,0.293-0.768,0-1.061l-3.614-3.613h3.418c0.414,0,0.75-0.336,0.75-0.75
	s-0.336-0.75-0.75-0.75h-5.229h-0.155c0.899-1.018,1.501-2.302,1.659-3.721h2.875l2.859,2.859c0.146,0.146,0.339,0.221,0.531,0.221
	c0.191,0,0.383-0.073,0.529-0.221c0.293-0.293,0.293-0.768,0-1.061l-1.8-1.8h3.289c0.414,0,0.75-0.336,0.75-0.75
	S40.418,24.249,40.004,24.249z M30.262,24.999c0,0.257-0.04,0.503-0.076,0.75c-0.332,2.295-2.137,4.1-4.433,4.432
	c-0.247,0.036-0.493,0.076-0.75,0.076s-0.503-0.04-0.75-0.076c-2.295-0.332-4.101-2.137-4.433-4.432
	c-0.036-0.247-0.076-0.493-0.076-0.75s0.04-0.503,0.076-0.75c0.332-2.295,2.137-4.1,4.433-4.432c0.247-0.036,0.493-0.076,0.75-0.076
	s0.503,0.04,0.75,0.076c2.295,0.332,4.101,2.137,4.433,4.432C30.222,24.496,30.262,24.742,30.262,24.999z"/>
</svg>
