<?xml version="1.0" encoding="utf-8"?>
<!-- Generator: Adobe Illustrator 16.0.4, SVG Export Plug-In . SVG Version: 6.00 Build 0)  -->
<!DOCTYPE svg PUBLIC "-//W3C//DTD SVG 1.1//EN" "http://www.w3.org/Graphics/SVG/1.1/DTD/svg11.dtd">
<svg version="1.1" id="Layer_1" xmlns="http://www.w3.org/2000/svg" xmlns:xlink="http://www.w3.org/1999/xlink" x="0px" y="0px"
	 width="50px" height="50px" viewBox="0 0 50 50" enable-background="new 0 0 50 50" xml:space="preserve">
<path stroke="#ddddff" d="M43.002,22.744l-2.58,0.004l-0.859,1.48l-2.459,0.004l0.578-1c0.207-0.358,0.084-0.817-0.274-1.024
	c-0.359-0.208-0.817-0.084-1.024,0.274l-1.012,1.752L33.9,24.236l1.975-3.418c0.207-0.358,0.084-0.817-0.273-1.024
	c-0.36-0.208-0.817-0.083-1.024,0.274l-2.409,4.171L31.71,24.24c-0.215-1.91-1.229-3.576-2.7-4.666l0.254-0.439h4.775
	c0.414,0,0.75-0.336,0.75-0.75s-0.336-0.75-0.75-0.75h-3.906l0.737-1.271h1.981c0.414,0,0.75-0.337,0.75-0.75
	c0-0.414-0.336-0.75-0.75-0.75h-1.113l1.212-2.093l1.712-0.004l1.293-2.231L34.67,8.309l-2.582,0.002l-1.291,2.232l0.854,1.479
	l-1.254,2.164l-0.639-1.108c-0.207-0.358-0.664-0.481-1.025-0.274c-0.357,0.207-0.48,0.666-0.273,1.024l1.071,1.856l-0.735,1.27
	l-2.031-3.52c-0.205-0.356-0.664-0.482-1.023-0.273c-0.358,0.207-0.48,0.666-0.273,1.023l2.463,4.267l-0.213,0.366
	c-0.832-0.366-1.75-0.573-2.717-0.573c-0.963,0-1.877,0.205-2.706,0.569l-0.288-0.5l2.383-4.129
	c0.207-0.358,0.084-0.816-0.274-1.023c-0.36-0.209-0.818-0.083-1.024,0.273l-1.949,3.379l-0.733-1.271l0.989-1.718
	c0.205-0.358,0.082-0.817-0.276-1.024c-0.36-0.205-0.815-0.083-1.024,0.276l-0.555,0.964l-1.152-1.995l0.857-1.483l-1.285-2.229
	l-2.578,0.004l-1.295,2.23l1.287,2.229l1.715-0.001l1.194,2.068l-1.281-0.001c-0.001,0-0.001,0-0.001,0
	c-0.414,0-0.75,0.335-0.75,0.748c0,0.416,0.335,0.752,0.749,0.752l2.149,0.001l0.734,1.271h-4.068c-0.414,0-0.75,0.337-0.75,0.75
	c0,0.414,0.336,0.75,0.75,0.75h4.935L21,19.566c-1.48,1.094-2.503,2.771-2.713,4.692l-0.59,0.001l-2.424-4.191
	c-0.205-0.358-0.664-0.482-1.023-0.274c-0.359,0.207-0.48,0.666-0.273,1.024l1.989,3.443l-1.469,0.004l-1.028-1.783
	c-0.207-0.358-0.664-0.482-1.025-0.274c-0.357,0.207-0.48,0.666-0.273,1.024l0.598,1.035l-2.328,0.004l-0.854-1.479l-2.58,0.002
	l-1.293,2.233l1.287,2.229l2.58-0.006l0.858-1.479l2.332-0.004l-0.601,1.039c-0.207,0.357-0.084,0.816,0.274,1.023
	c0.117,0.068,0.246,0.102,0.373,0.102c0.261,0,0.513-0.136,0.65-0.375l1.034-1.791l1.472-0.004l-1.996,3.459
	c-0.207,0.357-0.084,0.816,0.274,1.023c0.118,0.068,0.247,0.102,0.374,0.102c0.26,0,0.512-0.136,0.65-0.375l2.432-4.211l0.582-0.001
	c0.215,1.91,1.23,3.577,2.702,4.667l-0.277,0.479l-4.899-0.002c-0.414,0-0.75,0.336-0.75,0.75s0.336,0.75,0.75,0.75l4.031,0.002
	l-0.736,1.271H17c-0.414,0-0.75,0.337-0.75,0.75c0,0.414,0.336,0.75,0.75,0.75h1.24l-1.189,2.054l-1.711,0.004l-1.293,2.231
	l1.287,2.228l2.578-0.002l1.293-2.232l-0.854-1.479l1.168-2.016l0.576,1c0.139,0.24,0.392,0.375,0.65,0.375
	c0.127,0,0.256-0.031,0.374-0.102c0.358-0.206,0.481-0.665,0.274-1.023l-1.01-1.747l0.735-1.271l1.969,3.408
	c0.14,0.24,0.392,0.375,0.65,0.375c0.127,0,0.256-0.032,0.374-0.102c0.357-0.207,0.48-0.666,0.273-1.023l-2.4-4.154l0.299-0.516
	c0.832,0.366,1.749,0.573,2.715,0.573c0.963,0,1.878-0.206,2.708-0.569l0.226,0.393l-2.468,4.273
	c-0.207,0.357-0.084,0.816,0.274,1.023c0.117,0.068,0.246,0.102,0.374,0.102c0.26,0,0.512-0.136,0.649-0.375l2.035-3.524
	l0.734,1.271l-1.072,1.861c-0.207,0.357-0.084,0.816,0.275,1.023c0.117,0.067,0.246,0.101,0.373,0.101
	c0.26,0,0.512-0.135,0.649-0.376l0.64-1.107l1.217,2.104l-0.86,1.481l1.287,2.229l2.58-0.004l1.291-2.229l-1.285-2.229l-1.714,0.003
	l-1.174-2.033l1.111,0.001l0,0c0.414,0,0.75-0.335,0.75-0.749s-0.334-0.751-0.748-0.751l-1.979-0.001l-0.733-1.271h3.899
	c0.414,0,0.75-0.336,0.75-0.75s-0.336-0.75-0.75-0.75h-4.767l-0.271-0.471c1.479-1.094,2.502-2.771,2.712-4.691l0.421-0.001
	l2.443,4.231c0.139,0.239,0.391,0.375,0.65,0.375c0.127,0,0.256-0.033,0.373-0.102c0.358-0.207,0.481-0.666,0.274-1.023
	l-2.012-3.484l1.469-0.002l1.054,1.822c0.139,0.24,0.391,0.375,0.649,0.375c0.127,0,0.256-0.033,0.374-0.102
	c0.359-0.207,0.48-0.666,0.273-1.023l-0.621-1.074l2.498-0.004l0.854,1.479l2.58-0.004l1.293-2.231L43.002,22.744z M24.996,30.258
	c-0.691,0-1.35-0.142-1.954-0.386c-0.472-0.188-0.897-0.456-1.29-0.767c-1.027-0.814-1.738-1.992-1.938-3.349
	c-0.036-0.25-0.076-0.498-0.076-0.758c0-0.254,0.04-0.498,0.074-0.742c0.195-1.364,0.91-2.552,1.945-3.368
	c0.393-0.311,0.818-0.574,1.29-0.764c0.604-0.242,1.259-0.384,1.947-0.384c0.692,0,1.351,0.143,1.956,0.387
	c0.472,0.188,0.896,0.456,1.29,0.767c1.026,0.814,1.737,1.992,1.937,3.348c0.035,0.25,0.075,0.498,0.075,0.758
	c0,0.254-0.04,0.498-0.075,0.742c-0.195,1.363-0.908,2.55-1.942,3.367c-0.394,0.311-0.819,0.574-1.29,0.765
	C26.342,30.116,25.686,30.258,24.996,30.258z"/>
</svg>
