<?xml version="1.0" encoding="utf-8"?>
<!-- Generator: Adobe Illustrator 16.0.4, SVG Export Plug-In . SVG Version: 6.00 Build 0)  -->
<!DOCTYPE svg PUBLIC "-//W3C//DTD SVG 1.1//EN" "http://www.w3.org/Graphics/SVG/1.1/DTD/svg11.dtd">
<svg version="1.1" id="Layer_1" xmlns="http://www.w3.org/2000/svg" xmlns:xlink="http://www.w3.org/1999/xlink" x="0px" y="0px"
	 width="50px" height="50px" viewBox="0 0 50 50" enable-background="new 0 0 50 50" xml:space="preserve">
<path stroke="#ddddff" d="M27.378,21.877l-0.288-0.5h-0.577l-3.019-0.001h-0.576l-0.289,0.5l-1.511,2.614l-0.289,0.5l0.288,0.5l1.51,2.616l0.288,0.5
	h0.578h3.021h0.576l0.288-0.5l1.509-2.616l0.288-0.5l-0.289-0.5L27.378,21.877z M24.071,27.605h-0.578l-0.288-0.498l-0.935-1.615
	l-0.287-0.5l0.289-0.5l0.934-1.615l0.288-0.5h0.577l1.863,0.001h0.576l0.289,0.5l0.932,1.613l0.289,0.5l-0.287,0.5l-0.933,1.614
	l-0.289,0.5h-0.575H24.071L24.071,27.605z M40.946,22.154L40.946,22.154c-1.33,0.021-2.401,1.044-2.533,2.336h-1.684l0.815-1.412
	c0.138-0.239,0.056-0.545-0.185-0.683s-0.545-0.056-0.684,0.183l-1.104,1.912h-2.047l2.209-3.826
	c0.14-0.239,0.058-0.545-0.183-0.683c-0.237-0.137-0.545-0.056-0.683,0.183l-2.498,4.326h-0.602l-2.953-5.114l0.302-0.52h4.995
	c0.277,0,0.5-0.224,0.5-0.5s-0.223-0.5-0.5-0.5h-4.418l1.022-1.772h2.208c0.276,0,0.5-0.224,0.5-0.5s-0.224-0.5-0.5-0.5h-1.631
	l0.848-1.465c0.332,0.149,0.687,0.249,1.053,0.249c0.91,0,1.766-0.485,2.233-1.266c0.733-1.231,0.329-2.83-0.899-3.563
	c-1.188-0.709-2.854-0.284-3.563,0.898c-0.608,1.021-0.426,2.288,0.353,3.111l-0.887,1.537l-0.816-1.413
	c-0.139-0.24-0.443-0.32-0.684-0.183c-0.238,0.138-0.32,0.444-0.183,0.683l1.104,1.913l-1.022,1.771l-2.21-3.826
	c-0.139-0.24-0.444-0.322-0.684-0.183c-0.238,0.138-0.32,0.444-0.183,0.683l2.497,4.326l-0.301,0.521l-5.905-0.001l-0.3-0.519
	l2.498-4.328c0.139-0.239,0.057-0.545-0.184-0.683c-0.238-0.137-0.545-0.057-0.683,0.183l-2.21,3.827l-1.021-1.771l1.104-1.915
	c0.138-0.239,0.057-0.545-0.184-0.683c-0.242-0.139-0.547-0.056-0.685,0.184l-0.813,1.414l-0.854-1.479
	c0.388-0.336,0.666-0.779,0.802-1.286c0.18-0.671,0.088-1.372-0.259-1.973c-0.69-1.194-2.349-1.644-3.551-0.951
	c-1.24,0.716-1.667,2.308-0.95,3.549c0.463,0.802,1.326,1.3,2.253,1.3c0.285,0,0.562-0.063,0.831-0.155l0.861,1.492h-1.631
	c-0.275,0-0.5,0.224-0.5,0.5s0.225,0.5,0.5,0.5l2.207,0.001l1.023,1.771h-4.416c-0.275,0-0.5,0.224-0.5,0.5s0.225,0.5,0.5,0.5h4.993
	l0.301,0.521l-2.954,5.115h-0.6l-2.499-4.326c-0.14-0.241-0.444-0.322-0.683-0.183c-0.239,0.138-0.321,0.444-0.184,0.683l2.21,3.826
	h-2.048l-1.104-1.912c-0.139-0.24-0.443-0.322-0.684-0.183c-0.238,0.138-0.32,0.444-0.183,0.683l0.815,1.412h-1.775
	c-0.323-1.07-1.316-1.86-2.518-1.86c-0.002,0-0.002,0-0.002,0c-0.693,0.011-1.342,0.292-1.824,0.79
	c-0.484,0.499-0.744,1.155-0.733,1.848c0.021,1.412,1.188,2.56,2.601,2.56h0.037c0.693-0.012,1.344-0.291,1.826-0.79
	c0.412-0.425,0.65-0.968,0.709-1.548h1.682l-0.815,1.412c-0.138,0.24-0.056,0.546,0.184,0.684c0.079,0.045,0.165,0.066,0.25,0.066
	c0.173,0,0.341-0.09,0.435-0.25l1.103-1.912h2.048l-2.21,3.826c-0.139,0.238-0.057,0.545,0.183,0.683
	c0.08,0.045,0.166,0.067,0.25,0.067c0.173,0,0.342-0.09,0.434-0.25l2.499-4.326h0.599l2.952,5.115l-0.299,0.519h-4.994
	c-0.276,0-0.5,0.224-0.5,0.5s0.224,0.5,0.5,0.5h4.417l-1.023,1.771h-2.207c-0.276,0-0.5,0.225-0.5,0.5c0,0.276,0.224,0.5,0.5,0.5
	h1.631l-0.844,1.459c-1.156-0.504-2.635-0.069-3.289,1.024c-0.355,0.595-0.459,1.293-0.289,1.966
	c0.17,0.674,0.592,1.241,1.188,1.596c0.402,0.242,0.862,0.369,1.33,0.369c0.91,0,1.766-0.484,2.232-1.265
	c0.356-0.597,0.459-1.296,0.289-1.97c-0.109-0.439-0.336-0.825-0.639-1.145l0.887-1.537l0.816,1.414
	c0.092,0.161,0.262,0.25,0.434,0.25c0.084,0,0.17-0.021,0.25-0.066c0.238-0.139,0.32-0.444,0.183-0.684l-1.104-1.914l1.022-1.771
	l2.21,3.827c0.092,0.16,0.262,0.25,0.434,0.25c0.084,0,0.17-0.021,0.25-0.067c0.238-0.138,0.32-0.444,0.183-0.683l-2.497-4.327
	l0.299-0.519h5.907l0.3,0.52l-2.496,4.325c-0.139,0.239-0.057,0.545,0.184,0.683c0.078,0.045,0.164,0.067,0.25,0.067
	c0.172,0,0.34-0.091,0.433-0.25l2.209-3.825l1.022,1.771l-1.104,1.912c-0.139,0.238-0.057,0.545,0.184,0.683
	c0.078,0.045,0.164,0.067,0.25,0.067c0.172,0,0.34-0.091,0.433-0.25l0.815-1.412l0.854,1.479c-0.919,0.799-1.178,2.164-0.545,3.257
	c0.463,0.803,1.326,1.301,2.252,1.301c0.453,0,0.902-0.121,1.297-0.349c0.602-0.347,1.031-0.907,1.211-1.578s0.088-1.372-0.26-1.973
	c-0.604-1.046-1.953-1.522-3.088-1.155l-0.856-1.482h1.632c0.276,0,0.5-0.225,0.5-0.5c0-0.276-0.224-0.5-0.5-0.5l-2.209-0.002
	l-1.023-1.771h4.42c0.275,0,0.5-0.224,0.5-0.5s-0.225-0.5-0.5-0.5h-4.996l-0.301-0.519l2.953-5.116h0.6l2.499,4.327
	c0.092,0.162,0.261,0.25,0.433,0.25c0.086,0,0.172-0.021,0.25-0.066c0.239-0.139,0.321-0.444,0.184-0.684l-2.211-3.827h2.05
	l1.104,1.913c0.092,0.162,0.26,0.25,0.432,0.25c0.086,0,0.172-0.021,0.25-0.066c0.24-0.139,0.322-0.443,0.184-0.684l-0.814-1.413
	h1.774c0.322,1.071,1.312,1.862,2.479,1.862h0.037c1.434-0.023,2.58-1.207,2.56-2.639C43.563,23.302,42.399,22.154,40.946,22.154z
	 M31.828,10.45c0.292-0.487,0.807-0.779,1.375-0.779c0.021,0,0.042,0.008,0.063,0.009c0.264,0.011,0.524,0.081,0.754,0.218
	c0.061,0.036,0.111,0.081,0.166,0.123c0.619,0.49,0.803,1.373,0.389,2.069c-0.391,0.652-1.233,0.928-1.936,0.673
	c-0.089-0.032-0.177-0.07-0.26-0.12c-0.223-0.133-0.395-0.315-0.523-0.521C31.546,11.628,31.51,10.984,31.828,10.45z M15.628,11.947
	c-0.355-0.618-0.246-1.373,0.211-1.874c0.107-0.118,0.229-0.226,0.373-0.31c0.143-0.082,0.297-0.134,0.456-0.169
	c0.112-0.025,0.228-0.045,0.342-0.045c0.571,0,1.103,0.306,1.388,0.799c0.213,0.37,0.271,0.801,0.158,1.214
	c-0.064,0.245-0.191,0.461-0.354,0.646c-0.111,0.125-0.239,0.239-0.39,0.325c-0.149,0.087-0.313,0.137-0.479,0.167
	C16.679,12.821,15.965,12.532,15.628,11.947z M7.446,25.459c-0.01-0.068-0.022-0.135-0.023-0.205
	c-0.004-0.271,0.064-0.529,0.188-0.762c0.07-0.134,0.154-0.262,0.264-0.374c0.297-0.307,0.695-0.479,1.146-0.486
	c0.61,0,1.141,0.352,1.408,0.86c0.114,0.216,0.188,0.457,0.19,0.715c0.002,0.097-0.009,0.191-0.023,0.285
	c-0.052,0.318-0.196,0.615-0.428,0.852C9.87,26.65,9.471,26.822,9.045,26.83l-0.022,0.498V26.83
	C8.224,26.829,7.56,26.23,7.446,25.459z M18.356,38.32c0.104,0.416,0.041,0.846-0.179,1.213c-0.297,0.494-0.866,0.766-1.431,0.757
	c-0.266-0.005-0.528-0.065-0.762-0.206c-0.06-0.036-0.111-0.08-0.166-0.123c-0.276-0.217-0.478-0.514-0.564-0.859
	c-0.104-0.414-0.041-0.844,0.18-1.209c0.285-0.481,0.812-0.779,1.375-0.779c0.19,0,0.375,0.046,0.553,0.113
	c0.09,0.033,0.181,0.062,0.264,0.112c0.219,0.13,0.395,0.312,0.525,0.521C18.239,38.001,18.313,38.154,18.356,38.32z M32.991,37.234
	c0.57,0,1.103,0.307,1.388,0.8c0.213,0.37,0.271,0.801,0.159,1.213c-0.068,0.251-0.198,0.473-0.369,0.66
	c-0.109,0.118-0.23,0.228-0.376,0.311c-0.142,0.082-0.294,0.129-0.449,0.162c-0.659,0.136-1.392-0.153-1.733-0.747
	c-0.354-0.611-0.248-1.359,0.197-1.859c0.11-0.123,0.235-0.236,0.387-0.323c0.149-0.087,0.312-0.138,0.48-0.173
	C32.778,37.256,32.884,37.234,32.991,37.234z M27.956,30.105H27.38h-4.753H22.05l-0.288-0.498l-2.377-4.115l-0.288-0.5l0.289-0.5
	l2.377-4.115l0.289-0.5h0.576l4.751,0.001h0.576l0.289,0.5l2.375,4.113l0.288,0.5l-0.287,0.5l-2.375,4.114L27.956,30.105z
	 M39.576,25.491c-0.113-0.215-0.187-0.456-0.189-0.715c-0.001-0.098,0.009-0.192,0.024-0.285c0.125-0.747,0.771-1.325,1.576-1.337
	c0.797,0,1.459,0.599,1.572,1.369c0.01,0.068,0.021,0.135,0.022,0.206c0.004,0.276-0.067,0.533-0.188,0.762
	c-0.265,0.501-0.781,0.851-1.385,0.86l-0.023,0.498v-0.498C40.375,26.352,39.846,26,39.576,25.491z"/>
</svg>
