<?xml version="1.0" encoding="utf-8"?>
<!-- Generator: Adobe Illustrator 16.0.4, SVG Export Plug-In . SVG Version: 6.00 Build 0)  -->
<!DOCTYPE svg PUBLIC "-//W3C//DTD SVG 1.1//EN" "http://www.w3.org/Graphics/SVG/1.1/DTD/svg11.dtd">
<svg version="1.1" id="Layer_1" xmlns="http://www.w3.org/2000/svg" xmlns:xlink="http://www.w3.org/1999/xlink" x="0px" y="0px"
	 width="50px" height="50px" viewBox="0 0 50 50" enable-background="new 0 0 50 50" xml:space="preserve">
<path stroke="#ddddff" d="M39.872,26.48l-7.725,2.068l-2.463-1.422l2.627-0.704c0.268-0.071,0.426-0.346,0.354-0.612
	c-0.072-0.266-0.342-0.426-0.612-0.354l-3.594,0.962L26.001,25l2.46-1.42l3.592,0.963c0.044,0.012,0.087,0.017,0.13,0.017
	c0.221,0,0.424-0.147,0.483-0.371c0.071-0.267-0.087-0.541-0.354-0.612l-2.627-0.704l2.465-1.422l7.723,2.069
	c0.043,0.012,0.086,0.017,0.129,0.017c0.221,0,0.423-0.147,0.482-0.371c0.072-0.267-0.086-0.541-0.354-0.612l-6.756-1.81l2.736-1.58
	l1.436,0.829l1.938-1.117V16.64l-1.938-1.118L35.61,16.64v1.658l-2.735,1.58l1.812-6.755c0.07-0.267-0.088-0.541-0.354-0.612
	c-0.269-0.07-0.541,0.086-0.613,0.354l-2.067,7.721l-2.467,1.423l0.705-2.626c0.071-0.267-0.087-0.541-0.354-0.612
	c-0.27-0.07-0.541,0.087-0.613,0.354l-0.963,3.592l-2.459,1.417v-2.839l2.63-2.631c0.195-0.195,0.195-0.512,0-0.707
	c-0.194-0.195-0.512-0.195-0.707,0l-1.923,1.924v-2.847l5.652-5.653c0.195-0.195,0.195-0.512,0-0.707
	c-0.195-0.195-0.512-0.195-0.707,0l-4.945,4.946v-3.159l1.438-0.83V9.395L25,8.278l-1.938,1.117v2.236l1.438,0.83v3.159
	l-4.945-4.946c-0.195-0.195-0.512-0.195-0.707,0c-0.195,0.195-0.195,0.512,0,0.707l5.652,5.653v2.847l-1.923-1.924
	c-0.195-0.195-0.513-0.195-0.707,0c-0.195,0.195-0.195,0.512,0,0.707l2.63,2.631v2.839l-2.459-1.42l-0.963-3.592
	c-0.072-0.267-0.344-0.424-0.613-0.354c-0.267,0.071-0.425,0.346-0.354,0.612l0.705,2.626l-2.467-1.423l-2.067-7.721
	c-0.072-0.267-0.345-0.424-0.613-0.354c-0.267,0.071-0.425,0.346-0.354,0.612l1.812,6.755l-2.735-1.58v-1.658l-1.937-1.118
	l-1.937,1.118v2.236l1.937,1.117l1.437-0.829l2.736,1.58l-6.756,1.81c-0.268,0.071-0.426,0.346-0.354,0.612
	C9.579,23.387,9.78,23.534,10,23.534c0.043,0,0.086-0.005,0.129-0.017l7.723-2.069l2.465,1.422l-2.627,0.704
	c-0.268,0.071-0.426,0.346-0.354,0.612c0.062,0.224,0.263,0.371,0.483,0.371c0.043,0,0.086-0.005,0.13-0.017l3.592-0.963l2.46,1.42
	l-2.459,1.42l-3.594-0.962c-0.262-0.072-0.54,0.087-0.612,0.354c-0.071,0.268,0.087,0.541,0.354,0.612l2.627,0.704l-2.465,1.422
	l-7.724-2.068c-0.263-0.069-0.539,0.088-0.612,0.354c-0.07,0.267,0.088,0.541,0.354,0.612l6.757,1.81l-2.736,1.58l-1.437-0.829
	l-1.938,1.118l0.002,2.235l1.937,1.117l1.937-1.117v-1.658l2.735-1.579l-1.812,6.755c-0.07,0.268,0.088,0.541,0.354,0.611
	c0.044,0.013,0.087,0.018,0.13,0.018c0.221,0,0.424-0.146,0.483-0.371l2.069-7.722l2.463-1.422l-0.703,2.626
	c-0.071,0.267,0.087,0.541,0.354,0.611c0.043,0.013,0.086,0.018,0.129,0.018c0.221,0,0.424-0.146,0.483-0.371l0.962-3.592
	l2.461-1.417v2.839l-2.63,2.631c-0.195,0.195-0.195,0.512,0,0.707c0.194,0.195,0.512,0.195,0.707,0l1.923-1.924v2.846l-5.652,5.654
	c-0.195,0.195-0.195,0.512,0,0.707s0.512,0.195,0.707,0l4.945-4.947v3.16l-1.438,0.83v2.236L25,41.723l1.938-1.117v-2.236
	l-1.438-0.83v-3.16l4.945,4.947c0.098,0.098,0.226,0.146,0.354,0.146s0.256-0.05,0.354-0.146c0.195-0.195,0.195-0.512,0-0.707
	l-5.652-5.654v-2.846l1.923,1.924c0.099,0.098,0.226,0.146,0.354,0.146c0.127,0,0.256-0.049,0.354-0.146
	c0.195-0.195,0.195-0.512,0-0.707l-2.631-2.631v-2.839l2.459,1.42l0.962,3.592c0.062,0.224,0.263,0.371,0.483,0.371
	c0.041,0,0.086-0.005,0.129-0.017c0.268-0.071,0.426-0.347,0.354-0.612l-0.703-2.626l2.463,1.422l2.069,7.723
	c0.062,0.223,0.263,0.37,0.483,0.37c0.043,0,0.086-0.005,0.13-0.017c0.267-0.071,0.425-0.346,0.354-0.612l-1.812-6.755l2.733,1.579
	v1.66l1.938,1.116l1.937-1.116l0.002-2.236l-1.938-1.118l-1.437,0.829l-2.736-1.58l6.757-1.81c0.269-0.071,0.427-0.346,0.354-0.612
	C40.412,26.568,40.138,26.41,39.872,26.48z"/>
</svg>
