<?xml version="1.0" encoding="utf-8"?>
<!-- Generator: Adobe Illustrator 16.0.4, SVG Export Plug-In . SVG Version: 6.00 Build 0)  -->
<!DOCTYPE svg PUBLIC "-//W3C//DTD SVG 1.1//EN" "http://www.w3.org/Graphics/SVG/1.1/DTD/svg11.dtd">
<svg version="1.1" id="Layer_1" xmlns="http://www.w3.org/2000/svg" xmlns:xlink="http://www.w3.org/1999/xlink" x="0px" y="0px"
	 width="50px" height="50px" viewBox="0 0 50 50" enable-background="new 0 0 50 50" xml:space="preserve">
<path stroke="#ddddff" d="M40.004,24.25h-6.992l3.119-3.118c0.293-0.293,0.293-0.768,0-1.062c-0.293-0.293-0.769-0.293-1.062,0l-3.471,3.473
	c-0.58-2.624-2.687-4.678-5.339-5.179l3.843-3.845c0.293-0.293,0.293-0.768,0-1.061s-0.769-0.293-1.062,0l-3.289,3.29v-6.75
	c0-0.414-0.336-0.75-0.75-0.75s-0.75,0.336-0.75,0.75v6.75l-3.29-3.29c-0.293-0.293-0.768-0.293-1.061,0s-0.293,0.768,0,1.061
	l3.843,3.845c-2.652,0.501-4.759,2.555-5.339,5.179l-3.471-3.473c-0.293-0.293-0.768-0.293-1.061,0
	c-0.293,0.294-0.293,0.769,0,1.062l3.118,3.118H10c-0.414,0-0.75,0.336-0.75,0.75s0.336,0.75,0.75,0.75h6.991l-3.118,3.118
	c-0.293,0.293-0.293,0.768,0,1.062c0.146,0.146,0.338,0.219,0.53,0.219s0.384-0.072,0.53-0.219l3.471-3.473
	c0.58,2.624,2.687,4.678,5.339,5.179l-3.843,3.845c-0.293,0.293-0.293,0.768,0,1.061s0.768,0.293,1.061,0l3.29-3.29v6.75
	c0,0.414,0.336,0.75,0.75,0.75s0.75-0.336,0.75-0.75v-6.75l3.291,3.29c0.146,0.146,0.338,0.22,0.529,0.22s0.385-0.073,0.53-0.22
	c0.293-0.293,0.293-0.768,0-1.061l-3.843-3.845c2.651-0.501,4.759-2.555,5.338-5.179l3.472,3.473
	c0.146,0.146,0.338,0.219,0.53,0.219c0.191,0,0.384-0.072,0.529-0.219c0.293-0.294,0.293-0.769,0-1.062L33.01,25.75H40
	c0.414,0,0.75-0.336,0.75-0.75S40.418,24.25,40.004,24.25z M25.754,30.182c-0.248,0.036-0.494,0.076-0.75,0.076
	s-0.503-0.04-0.75-0.076c-2.295-0.332-4.101-2.137-4.433-4.432c-0.03-0.211-0.06-0.423-0.064-0.641
	c-0.001-0.037-0.011-0.072-0.011-0.109s0.01-0.072,0.011-0.109c0.004-0.218,0.034-0.43,0.064-0.641
	c0.332-2.295,2.137-4.1,4.433-4.432c0.247-0.036,0.493-0.076,0.75-0.076s0.502,0.04,0.75,0.076c2.295,0.332,4.101,2.137,4.433,4.432
	c0.03,0.211,0.06,0.423,0.063,0.641c0.002,0.037,0.012,0.072,0.012,0.109s-0.01,0.072-0.012,0.109
	c-0.004,0.218-0.033,0.43-0.063,0.641C29.854,28.045,28.049,29.85,25.754,30.182z M36.545,35.479c0.293,0.293,0.293,0.769,0,1.062
	c-0.146,0.146-0.338,0.22-0.531,0.22c-0.191,0-0.383-0.072-0.529-0.22l-2.611-2.61c-0.293-0.293-0.293-0.769,0-1.062
	s0.768-0.293,1.061,0L36.545,35.479z M17.548,32.868c0.293,0.293,0.293,0.768,0,1.062l-2.612,2.61
	c-0.146,0.146-0.338,0.22-0.53,0.22c-0.192,0-0.384-0.072-0.53-0.22c-0.293-0.293-0.293-0.769,0-1.062l2.612-2.61
	C16.781,32.575,17.255,32.575,17.548,32.868z M13.876,15.212c-0.292-0.293-0.292-0.769,0.001-1.062c0.292-0.293,0.768-0.293,1.061,0
	l2.611,2.615c0.292,0.293,0.292,0.769-0.001,1.061c-0.146,0.146-0.338,0.22-0.53,0.22s-0.384-0.073-0.531-0.22L13.876,15.212z
	 M32.869,17.832c-0.291-0.293-0.291-0.77,0-1.061l2.615-2.611c0.292-0.293,0.768-0.293,1.061,0s0.293,0.77,0,1.061l-2.615,2.611
	c-0.145,0.146-0.338,0.22-0.529,0.22S33.017,17.979,32.869,17.832z"/>
</svg>
