<?xml version="1.0" encoding="utf-8"?>
<!-- Generator: Adobe Illustrator 16.0.4, SVG Export Plug-In . SVG Version: 6.00 Build 0)  -->
<!DOCTYPE svg PUBLIC "-//W3C//DTD SVG 1.1//EN" "http://www.w3.org/Graphics/SVG/1.1/DTD/svg11.dtd">
<svg version="1.1" id="Layer_1" xmlns="http://www.w3.org/2000/svg" xmlns:xlink="http://www.w3.org/1999/xlink" x="0px" y="0px"
	 width="50px" height="50px" viewBox="0 0 50 50" enable-background="new 0 0 50 50" xml:space="preserve">
<path stroke="#ddddff" d="M40,24.5h-0.749l-2.202-2.2c-0.195-0.194-0.512-0.194-0.707,0c-0.195,0.195-0.195,0.513,0,0.707l1.495,1.493h-2.494
	l-4.567-4.568l5.186-5.185c0.195-0.195,0.195-0.513,0-0.707s-0.512-0.194-0.707,0l-5.186,5.185L25.5,14.657v-2.493l1.495,1.494
	c0.098,0.098,0.226,0.146,0.354,0.146c0.127,0,0.256-0.05,0.354-0.146c0.195-0.195,0.195-0.512,0-0.707L25.5,10.75V10
	c0-0.275-0.225-0.5-0.5-0.5s-0.5,0.225-0.5,0.5v0.749l-2.2,2.202c-0.194,0.195-0.194,0.512,0,0.707c0.195,0.195,0.513,0.195,0.707,0
	l1.493-1.495v2.494l-4.568,4.567l-5.185-5.186c-0.195-0.195-0.513-0.195-0.707,0s-0.194,0.512,0,0.707l5.185,5.186L14.657,24.5
	h-2.493l1.494-1.495c0.195-0.194,0.195-0.512,0-0.707c-0.195-0.194-0.512-0.194-0.707,0L10.75,24.5H10c-0.275,0-0.5,0.225-0.5,0.5
	s0.225,0.5,0.5,0.5h0.749l2.202,2.2c0.098,0.098,0.226,0.146,0.354,0.146c0.129,0,0.256-0.049,0.354-0.146
	c0.194-0.195,0.194-0.513,0-0.707L12.163,25.5h2.494l4.567,4.568l-5.186,5.185c-0.195,0.195-0.195,0.513,0,0.707
	c0.098,0.099,0.227,0.146,0.354,0.146c0.129,0,0.256-0.049,0.354-0.146l5.185-5.185l4.568,4.567v2.493l-1.495-1.494
	c-0.194-0.195-0.512-0.195-0.707,0c-0.194,0.195-0.194,0.512,0,0.707L24.5,39.25V40c0,0.275,0.225,0.5,0.5,0.5s0.5-0.225,0.5-0.5
	v-0.749l2.2-2.202c0.194-0.195,0.194-0.512,0-0.707c-0.195-0.195-0.513-0.195-0.707,0L25.5,37.837v-2.494l4.568-4.567l5.185,5.186
	c0.099,0.098,0.226,0.146,0.354,0.146c0.127,0,0.256-0.049,0.354-0.146c0.195-0.195,0.195-0.512,0-0.707l-5.186-5.186l4.567-4.568
	h2.493l-1.494,1.495c-0.195,0.194-0.195,0.512,0,0.707c0.098,0.098,0.227,0.146,0.354,0.146c0.129,0,0.257-0.049,0.354-0.146
	l2.2-2.202H40c0.275,0,0.5-0.225,0.5-0.5S40.275,24.5,40,24.5z M33.93,24.5h-7.723l3.861-3.861L33.93,24.5z M29.361,19.932
	L25.5,23.793V16.07L29.361,19.932z M24.5,16.07v7.723l-3.861-3.861L24.5,16.07z M19.932,20.639l3.861,3.861H16.07L19.932,20.639z
	 M16.07,25.5h7.723l-3.861,3.861L16.07,25.5z M20.639,30.068l3.861-3.861v7.723L20.639,30.068z M25.5,33.93v-7.723l3.861,3.861
	L25.5,33.93z M30.068,29.361L26.207,25.5h7.723L30.068,29.361z"/>
</svg>
