<?xml version="1.0" encoding="utf-8"?>
<!-- Generator: Adobe Illustrator 16.0.4, SVG Export Plug-In . SVG Version: 6.00 Build 0)  -->
<!DOCTYPE svg PUBLIC "-//W3C//DTD SVG 1.1//EN" "http://www.w3.org/Graphics/SVG/1.1/DTD/svg11.dtd">
<svg version="1.1" id="Layer_1" xmlns="http://www.w3.org/2000/svg" xmlns:xlink="http://www.w3.org/1999/xlink" x="0px" y="0px"
	 width="50px" height="50px" viewBox="0 0 50 50" enable-background="new 0 0 50 50" xml:space="preserve">
<path stroke="#ddddff" d="M39.812,33.429l-2.206-1.273l-0.414-1.751c-0.064-0.268-0.331-0.439-0.603-0.371c-0.269,0.063-0.435,0.334-0.372,0.603
	l0.197,0.833l-5.906-3.41l-2.176-2.538l2.402-2.802l6.036-3.485l-0.404,1.507c-0.072,0.268,0.087,0.541,0.354,0.613
	c0.043,0.011,0.087,0.018,0.13,0.018c0.221,0,0.422-0.147,0.481-0.371l0.663-2.474l1.815-1.048c0.238-0.139,0.32-0.443,0.183-0.684
	c-0.139-0.238-0.445-0.322-0.683-0.183l-1.915,1.104l-2.316-0.62c-0.265-0.063-0.541,0.088-0.612,0.354
	c-0.07,0.268,0.088,0.541,0.354,0.612l1.35,0.36l-6.222,3.594l-3.285,0.615L25.5,19.316V15.34l2.98,2.979
	c0.098,0.099,0.226,0.146,0.354,0.146s0.256-0.049,0.354-0.146c0.194-0.194,0.194-0.512,0-0.707L25.5,13.926V9.146l1.451,1.451
	c0.098,0.098,0.226,0.146,0.354,0.146c0.128,0,0.256-0.05,0.354-0.146c0.195-0.195,0.195-0.512,0-0.707l-2.658-2.658l-2.658,2.658
	c-0.195,0.195-0.195,0.512,0,0.707c0.195,0.195,0.512,0.195,0.707,0l1.451-1.451v4.779l-3.688,3.688
	c-0.195,0.195-0.195,0.512,0,0.707s0.512,0.195,0.707,0l2.98-2.98v3.979l-1.168,3.314l-3.283-0.614l-6.565-3.791l1.918-0.453
	c0.269-0.063,0.436-0.332,0.372-0.603c-0.064-0.268-0.334-0.438-0.602-0.37l-2.953,0.696l-1.533-0.886
	c-0.24-0.141-0.545-0.057-0.683,0.183c-0.138,0.24-0.056,0.545,0.183,0.684l2.167,1.251l0.45,1.903
	c0.055,0.229,0.26,0.386,0.486,0.386c0.038,0,0.077-0.004,0.116-0.015c0.269-0.062,0.435-0.332,0.372-0.602l-0.233-0.986
	l5.719,3.303l2.402,2.802l-2.176,2.538l-6.22,3.592l0.362-1.354c0.071-0.267-0.087-0.539-0.354-0.611
	c-0.266-0.064-0.541,0.088-0.612,0.354l-0.621,2.317l-1.857,1.072c-0.239,0.138-0.321,0.442-0.183,0.683
	c0.093,0.16,0.261,0.25,0.434,0.25c0.085,0,0.171-0.021,0.25-0.066l1.757-1.016l2.474,0.663c0.043,0.011,0.087,0.017,0.13,0.017
	c0.221,0,0.423-0.146,0.482-0.369c0.071-0.269-0.087-0.541-0.354-0.613l-1.507-0.402l6.039-3.486l3.624-0.68l1.168,3.314v3.979
	l-2.98-2.98c-0.195-0.195-0.512-0.195-0.707,0s-0.195,0.512,0,0.707l3.686,3.686v5.154c0,0.275,0.224,0.5,0.5,0.5s0.5-0.225,0.5-0.5
	v-5.154l3.688-3.688c0.194-0.195,0.194-0.512,0-0.707c-0.195-0.195-0.513-0.195-0.707,0l-2.98,2.98v-3.978l1.167-3.316l3.625,0.681
	l6.386,3.687l-2.083,0.493c-0.27,0.062-0.436,0.333-0.371,0.602c0.054,0.229,0.259,0.385,0.485,0.385
	c0.038,0,0.077-0.004,0.116-0.014l3.101-0.734l-0.003-0.012l1.391,0.803c0.079,0.045,0.165,0.066,0.25,0.066
	c0.173,0,0.341-0.09,0.434-0.25C40.134,33.873,40.052,33.566,39.812,33.429z M27.685,27.58l-1.678-0.313l-0.507,1.44L25,30.131
	l-0.5-1.418l-0.51-1.447l-1.674,0.312l-1.31,0.246l1.092-1.272l0.885-1.032l-1.11-1.295l-0.866-1.012l1.492,0.281l0.159,0.028
	l0.39,0.073l0.943,0.177l0.51-1.446l0.5-1.418l0.5,1.422l0.507,1.442l0.946-0.178l0.39-0.072l0.158-0.03l1.492-0.279l-0.866,1.012
	l-1.109,1.295l0.885,1.032l1.092,1.272L27.685,27.58z"/>
</svg>
