<?xml version="1.0" encoding="utf-8"?>
<!-- Generator: Adobe Illustrator 16.0.4, SVG Export Plug-In . SVG Version: 6.00 Build 0)  -->
<!DOCTYPE svg PUBLIC "-//W3C//DTD SVG 1.1//EN" "http://www.w3.org/Graphics/SVG/1.1/DTD/svg11.dtd">
<svg version="1.1" id="Layer_1" xmlns="http://www.w3.org/2000/svg" xmlns:xlink="http://www.w3.org/1999/xlink" x="0px" y="0px"
	 width="50px" height="50px" viewBox="0 0 50 50" enable-background="new 0 0 50 50" xml:space="preserve">
<path stroke="#ddddff" d="M40.314,33.264l-2.205-1.272v-5.015h-1v4.437l-6.178-3.567l4.024-1.078c0.269-0.07,0.426-0.346,0.354-0.611
	c-0.072-0.268-0.348-0.426-0.612-0.354l-4.992,1.337L26,25l3.71-2.142l4.989,1.336c0.043,0.012,0.086,0.017,0.129,0.017
	c0.221,0,0.423-0.147,0.482-0.371c0.071-0.267-0.086-0.541-0.354-0.612l-4.023-1.078l6.176-3.565v4.392l1-0.001v-4.968l2.205-1.273
	c0.238-0.138,0.32-0.444,0.183-0.683c-0.138-0.241-0.442-0.321-0.683-0.183l-2.203,1.271l-4.346-2.507L32.768,15.5l3.846,2.218
	l-6.18,3.568l1.08-4.026c0.07-0.267-0.088-0.541-0.354-0.612c-0.269-0.07-0.541,0.087-0.613,0.354l-1.338,4.992l-3.708,2.14v-4.282
	l3.652-3.652c0.195-0.195,0.195-0.512,0-0.707c-0.195-0.195-0.512-0.195-0.707,0L25.5,18.438v-7.13l3.805,2.195l0.498-0.867
	L25.5,10.152V7.603c0-0.276-0.224-0.5-0.5-0.5s-0.5,0.224-0.5,0.5v2.549l-4.343,2.506l0.502,0.865l3.841-2.216v7.13l-2.945-2.945
	c-0.195-0.195-0.512-0.195-0.707,0c-0.195,0.195-0.195,0.512,0,0.707l3.652,3.653v4.282l-3.708-2.141l-1.338-4.992
	c-0.072-0.267-0.343-0.424-0.613-0.354c-0.267,0.071-0.425,0.346-0.354,0.612l1.08,4.026l-6.18-3.568l3.807-2.196l-0.502-0.865
	l-4.305,2.484l-2.201-1.271c-0.238-0.136-0.545-0.056-0.684,0.183c-0.139,0.239-0.057,0.545,0.184,0.683l2.205,1.273v5.015l1-0.001
	v-4.436l6.174,3.565l-4.022,1.078c-0.267,0.071-0.425,0.346-0.354,0.612c0.062,0.224,0.264,0.371,0.483,0.371
	c0.043,0,0.086-0.005,0.129-0.017l4.989-1.336L24,25.001l-3.707,2.14L15.3,25.805c-0.264-0.072-0.538,0.088-0.612,0.354
	c-0.07,0.267,0.088,0.541,0.354,0.612l4.024,1.078l-6.178,3.566v-4.393l-1,0.002v4.968l-2.205,1.272
	c-0.238,0.139-0.32,0.444-0.183,0.684c0.092,0.16,0.261,0.25,0.433,0.25c0.086,0,0.172-0.021,0.25-0.067l2.205-1.272l4.344,2.508
	l0.498-0.867l-3.842-2.218l6.176-3.566l-1.076,4.022c-0.071,0.267,0.087,0.541,0.354,0.611c0.043,0.012,0.086,0.018,0.129,0.018
	c0.221,0,0.424-0.147,0.483-0.371l1.335-4.988l3.711-2.142v4.28l-3.652,3.652c-0.195,0.195-0.195,0.512,0,0.707s0.512,0.195,0.707,0
	l2.945-2.945v7.133l-3.805-2.195l-0.497,0.867l4.302,2.482v2.549c0,0.276,0.225,0.5,0.5,0.5s0.5-0.224,0.5-0.5v-2.549l4.343-2.507
	l-0.502-0.864L25.5,38.693v-7.133l2.945,2.947c0.098,0.098,0.226,0.146,0.354,0.146s0.256-0.049,0.354-0.146
	c0.195-0.195,0.195-0.512,0-0.707L25.5,30.146v-4.28l3.709,2.141l1.335,4.988c0.062,0.223,0.263,0.371,0.483,0.371
	c0.041,0,0.086-0.005,0.129-0.017c0.268-0.072,0.426-0.347,0.354-0.613l-1.076-4.021l6.176,3.566l-3.805,2.195l0.502,0.865
	l4.303-2.482l2.205,1.271c0.078,0.045,0.164,0.067,0.25,0.067c0.172,0,0.34-0.091,0.433-0.25
	C40.637,33.708,40.555,33.402,40.314,33.264z"/>
</svg>
