<?xml version="1.0" encoding="utf-8"?>
<!-- Generator: Adobe Illustrator 16.0.4, SVG Export Plug-In . SVG Version: 6.00 Build 0)  -->
<!DOCTYPE svg PUBLIC "-//W3C//DTD SVG 1.1//EN" "http://www.w3.org/Graphics/SVG/1.1/DTD/svg11.dtd">
<svg version="1.1" id="Layer_1" xmlns="http://www.w3.org/2000/svg" xmlns:xlink="http://www.w3.org/1999/xlink" x="0px" y="0px"
	 width="50px" height="50px" viewBox="0 0 50 50" enable-background="new 0 0 50 50" xml:space="preserve">
<path stroke="#ddddff" d="M42.938,22.774h-2.57L39.371,24.5h-6.057l4.193-4.19c0.195-0.195,0.195-0.513,0-0.707c-0.195-0.195-0.512-0.195-0.707,0
	L31.9,24.5h-2.196l2.807-3.837l-4.726,0.514l1.101-1.906l6.689-1.791c0.267-0.072,0.425-0.347,0.354-0.613
	c-0.072-0.266-0.345-0.418-0.613-0.354l-5.724,1.534l3.025-5.238h1.993l1.285-2.228l-1.285-2.228h-2.57l-1.284,2.228l0.996,1.726
	l-3.026,5.241l-1.535-5.728c-0.07-0.267-0.342-0.418-0.611-0.354c-0.268,0.072-0.426,0.347-0.354,0.613l1.793,6.692l-1.102,1.905
	l-1.919-4.351l-1.918,4.349l-1.099-1.903l1.792-6.689c0.071-0.268-0.087-0.54-0.354-0.612c-0.267-0.063-0.541,0.089-0.612,0.354
	l-1.534,5.724l-3.026-5.241l0.996-1.727l-1.285-2.227h-2.57l-1.285,2.227l1.285,2.225l1.994,0.002l3.026,5.24l-5.724-1.534
	c-0.264-0.063-0.541,0.089-0.612,0.354c-0.071,0.268,0.087,0.541,0.354,0.613l6.69,1.791l1.101,1.907l-4.728-0.514l2.807,3.835
	h-2.199L13.2,19.601c-0.195-0.195-0.512-0.195-0.707,0c-0.195,0.195-0.195,0.512,0,0.707l4.191,4.191h-6.053l-0.996-1.725
	l-2.57-0.002L5.78,25.001l1.285,2.225h2.57l0.998-1.727h6.051l-4.191,4.189c-0.195,0.195-0.195,0.513,0,0.707
	c0.098,0.099,0.226,0.146,0.354,0.146c0.128,0,0.256-0.049,0.354-0.146l4.898-4.896H20.3l-2.81,3.839l4.727-0.515l-1.098,1.902
	l-6.693,1.793c-0.267,0.072-0.425,0.346-0.354,0.613c0.072,0.268,0.346,0.42,0.612,0.354l5.728-1.535l-3.028,5.244h-1.992
	l-1.286,2.228l1.287,2.224h2.569l1.285-2.225l-0.997-1.729l3.025-5.239l1.535,5.723c0.06,0.224,0.262,0.37,0.482,0.37
	c0.043,0,0.086-0.006,0.13-0.018c0.267-0.071,0.425-0.346,0.354-0.612l-1.794-6.688l1.1-1.904L25,33.675l1.92-4.352l1.098,1.902
	l-1.791,6.69c-0.071,0.267,0.086,0.54,0.354,0.612c0.043,0.011,0.087,0.017,0.13,0.017c0.222,0,0.423-0.147,0.481-0.371l1.533-5.725
	l3.028,5.245l-0.997,1.726l1.285,2.228l2.57-0.002l1.285-2.226l-1.285-2.228l-1.993,0.002L29.59,31.95l5.725,1.535
	c0.271,0.065,0.541-0.088,0.613-0.354c0.071-0.269-0.088-0.541-0.354-0.612l-6.691-1.793l-1.099-1.904l4.726,0.514l-2.81-3.837
	h2.203l4.895,4.897c0.098,0.099,0.227,0.146,0.354,0.146c0.129,0,0.257-0.049,0.354-0.146c0.195-0.194,0.195-0.512,0-0.707
	l-4.188-4.19h6.051l0.998,1.728h2.57L44.221,25L42.938,22.774z M26.551,27.685l-0.25,0.567l-1.3,2.944l-1.298-2.945l-0.25-0.566
	l-0.616,0.066l-3.201,0.348l1.902-2.599l0.365-0.498L21.536,24.5l-1.9-2.597l3.202,0.348l0.613,0.066l0.251-0.569l1.299-2.944
	l1.299,2.947l0.25,0.566l0.615-0.066l3.201-0.348l-1.9,2.597L28.1,25.002l0.364,0.498l1.902,2.599l-3.199-0.348L26.551,27.685z"/>
</svg>
