<?xml version="1.0" encoding="utf-8"?>
<!-- Generator: Adobe Illustrator 16.0.4, SVG Export Plug-In . SVG Version: 6.00 Build 0)  -->
<!DOCTYPE svg PUBLIC "-//W3C//DTD SVG 1.1//EN" "http://www.w3.org/Graphics/SVG/1.1/DTD/svg11.dtd">
<svg version="1.1" id="Layer_1" xmlns="http://www.w3.org/2000/svg" xmlns:xlink="http://www.w3.org/1999/xlink" x="0px" y="0px"
	 width="50px" height="50px" viewBox="0 0 50 50" enable-background="new 0 0 50 50" xml:space="preserve">
<path stroke="#ddddff" d="M39.87,26.477l-7.724,2.07l-0.122-0.07V21.52l0.122-0.071l7.725,2.067c0.043,0.012,0.086,0.018,0.129,0.018
	c0.221,0,0.423-0.146,0.483-0.371c0.07-0.268-0.088-0.54-0.354-0.612l-6.757-1.809l6.439-3.72c0.239-0.138,0.321-0.442,0.184-0.683
	c-0.138-0.239-0.443-0.321-0.684-0.183l-6.438,3.718l1.811-6.755c0.071-0.268-0.087-0.541-0.354-0.613
	c-0.27-0.064-0.541,0.088-0.613,0.354l-2.067,7.723l-0.122,0.07L25.5,17.176v-0.145l5.653-5.652c0.194-0.195,0.194-0.512,0-0.707
	c-0.195-0.195-0.513-0.195-0.707,0L25.5,15.617V8.184c0-0.276-0.224-0.5-0.5-0.5s-0.5,0.224-0.5,0.5v7.434l-4.945-4.945
	c-0.194-0.195-0.512-0.195-0.707,0c-0.194,0.195-0.194,0.512,0,0.707l5.652,5.652v0.145l-6.027,3.477l-0.122-0.069l-2.067-7.722
	c-0.072-0.266-0.342-0.418-0.613-0.354c-0.267,0.072-0.425,0.347-0.354,0.613l1.811,6.755l-6.438-3.718
	c-0.238-0.138-0.546-0.058-0.684,0.183c-0.139,0.239-0.057,0.545,0.184,0.684l6.439,3.719l-6.757,1.809
	c-0.269,0.072-0.426,0.346-0.354,0.612c0.062,0.224,0.264,0.371,0.483,0.371c0.043,0,0.086-0.007,0.129-0.017l7.724-2.068
	l0.123,0.07v6.957l-0.123,0.071l-7.723-2.069c-0.269-0.063-0.541,0.088-0.613,0.354c-0.07,0.268,0.088,0.541,0.354,0.613
	l6.758,1.811l-6.439,3.719c-0.239,0.139-0.321,0.443-0.184,0.684c0.092,0.16,0.261,0.25,0.434,0.25c0.085,0,0.171-0.021,0.25-0.067
	l6.438-3.718l-1.811,6.755c-0.071,0.269,0.087,0.541,0.354,0.613c0.044,0.011,0.087,0.017,0.13,0.017
	c0.222,0,0.423-0.146,0.483-0.369l2.067-7.723l0.126-0.072l6.023,3.479v0.144l-5.652,5.654c-0.194,0.194-0.194,0.512,0,0.707
	c0.195,0.194,0.513,0.194,0.707,0L24.5,34.38v7.437c0,0.275,0.224,0.5,0.5,0.5s0.5-0.225,0.5-0.5V34.38l4.945,4.947
	c0.098,0.098,0.226,0.146,0.354,0.146s0.256-0.049,0.354-0.146c0.194-0.195,0.194-0.513,0-0.707L25.5,32.963v-0.145l6.024-3.478
	l0.123,0.071l2.068,7.723c0.062,0.223,0.263,0.37,0.483,0.37c0.043,0,0.086-0.006,0.13-0.017c0.267-0.072,0.425-0.346,0.354-0.613
	l-1.812-6.756l6.44,3.719c0.079,0.046,0.165,0.067,0.25,0.067c0.173,0,0.342-0.091,0.434-0.25c0.139-0.239,0.057-0.546-0.184-0.683
	l-6.44-3.72l6.759-1.812c0.268-0.071,0.425-0.346,0.354-0.612C40.411,26.564,40.142,26.414,39.87,26.477z M31.024,27.898l-5.025-2.9
	l5.025-2.9V27.898z M30.526,21.23L25.5,24.133V18.33L30.526,21.23z M24.5,18.33v5.803l-5.026-2.902L24.5,18.33z M18.975,22.098
	l5.025,2.9l-5.025,2.9V22.098z M19.476,28.764l5.023-2.899v5.802L19.476,28.764z M25.5,31.665v-5.802l5.024,2.9L25.5,31.665z"/>
</svg>
