<?xml version="1.0" encoding="utf-8"?>
<!-- Generator: Adobe Illustrator 16.0.4, SVG Export Plug-In . SVG Version: 6.00 Build 0)  -->
<!DOCTYPE svg PUBLIC "-//W3C//DTD SVG 1.1//EN" "http://www.w3.org/Graphics/SVG/1.1/DTD/svg11.dtd">
<svg version="1.1" id="Layer_1" xmlns="http://www.w3.org/2000/svg" xmlns:xlink="http://www.w3.org/1999/xlink" x="0px" y="0px"
	 width="50px" height="50px" viewBox="0 0 50 50" enable-background="new 0 0 50 50" xml:space="preserve">
<path stroke="#ddddff" d="M39.688,33.191c0.121,0.068,0.162,0.223,0.092,0.342c-0.047,0.08-0.131,0.125-0.217,0.125c-0.041,0-0.084-0.012-0.125-0.033
	l-6.961-4.02l1.967,7.338c0.035,0.133-0.043,0.271-0.178,0.306c-0.021,0.006-0.043,0.009-0.064,0.009
	c-0.11,0-0.211-0.072-0.242-0.186l-2.096-7.821l-6.613-3.817v7.635l5.727,5.729c0.098,0.098,0.098,0.256,0,0.354
	c-0.05,0.05-0.113,0.074-0.178,0.074s-0.128-0.024-0.177-0.074l-5.372-5.373v8.039c0,0.138-0.112,0.25-0.25,0.25
	s-0.25-0.112-0.25-0.25v-8.039l-5.372,5.373c-0.098,0.099-0.256,0.099-0.354,0c-0.098-0.098-0.098-0.256,0-0.354l5.726-5.729v-7.635
	l-6.613,3.817l-2.096,7.821c-0.03,0.111-0.131,0.186-0.242,0.186c-0.021,0-0.043-0.003-0.065-0.009
	c-0.133-0.035-0.212-0.173-0.177-0.306l1.967-7.338l-6.962,4.02c-0.04,0.021-0.083,0.033-0.125,0.033
	c-0.086,0-0.17-0.045-0.216-0.125c-0.069-0.119-0.028-0.271,0.091-0.342l6.963-4.021l-7.34-1.966
	c-0.134-0.035-0.213-0.173-0.177-0.306c0.037-0.135,0.176-0.211,0.306-0.178l7.823,2.096L24.5,25l-6.612-3.818l-7.823,2.096
	c-0.021,0.007-0.043,0.01-0.064,0.01c-0.11,0-0.211-0.073-0.242-0.186c-0.036-0.134,0.043-0.271,0.177-0.307l7.339-1.967
	l-6.962-4.02c-0.12-0.069-0.161-0.224-0.091-0.343c0.069-0.118,0.223-0.159,0.341-0.092l6.961,4.021l-1.967-7.338
	c-0.036-0.134,0.043-0.271,0.177-0.307c0.135-0.035,0.271,0.043,0.307,0.177l2.096,7.82l6.614,3.817V16.93l-5.726-5.728
	c-0.098-0.099-0.098-0.257,0-0.354s0.256-0.098,0.354,0l5.372,5.373V8.184c0-0.139,0.112-0.25,0.25-0.25s0.25,0.111,0.25,0.25v8.037
	l5.372-5.373c0.098-0.098,0.256-0.098,0.354,0c0.099,0.098,0.099,0.256,0,0.354l-5.726,5.728v7.635l6.614-3.817l2.096-7.82
	c0.037-0.134,0.172-0.211,0.307-0.177c0.133,0.035,0.213,0.173,0.178,0.307l-1.967,7.338l6.961-4.021
	c0.119-0.067,0.271-0.028,0.34,0.092c0.07,0.119,0.029,0.272-0.09,0.343l-6.963,4.02l7.34,1.967
	c0.134,0.035,0.213,0.173,0.177,0.307c-0.03,0.111-0.132,0.186-0.242,0.186c-0.021,0-0.043-0.003-0.063-0.01l-7.823-2.096L25.5,25
	l6.611,3.816l7.824-2.094c0.131-0.035,0.271,0.043,0.306,0.176c0.036,0.134-0.043,0.271-0.177,0.307l-7.34,1.966L39.688,33.191z
	 M26.309,13.667c0.062,0.024,0.127,0.038,0.191,0.038c0.13,0,0.258-0.051,0.354-0.146l3.238-3.238c0.195-0.194,0.195-0.512,0-0.707
	c-0.195-0.194-0.512-0.194-0.707,0L27,11.999V8.188c0-0.276-0.225-0.5-0.5-0.5S26,7.911,26,8.188v5.02
	C26,13.407,26.122,13.59,26.309,13.667z M26.146,17.096l5.358-5.361c0.16-0.16,0.407-0.193,0.604-0.078l0.893,0.516
	c0.196,0.113,0.292,0.344,0.232,0.562l-1.961,7.322c-0.034,0.127-0.119,0.236-0.233,0.303l-4.29,2.477
	c-0.077,0.045-0.164,0.066-0.25,0.066s-0.173-0.021-0.25-0.066C26.096,22.747,26,22.582,26,22.402V17.45
	C26,17.316,26.053,17.189,26.146,17.096z M27,21.536l3.361-1.938l1.809-6.752l-0.229-0.133L27,17.656V21.536z M34.161,18.2
	c0.089,0.067,0.196,0.104,0.304,0.104c0.086,0,0.172-0.022,0.25-0.068l4.348-2.51c0.239-0.139,0.321-0.443,0.184-0.684
	c-0.139-0.24-0.445-0.322-0.684-0.184l-3.302,1.906l0.873-3.257c0.071-0.268-0.087-0.54-0.354-0.612
	c-0.266-0.065-0.54,0.088-0.611,0.354l-1.186,4.424C33.93,17.87,34,18.077,34.161,18.2z M35.467,20.468
	c0.026,0.2,0.172,0.365,0.366,0.418l4.426,1.187c0.043,0.011,0.087,0.017,0.13,0.017c0.221,0,0.424-0.147,0.482-0.371
	c0.07-0.267-0.087-0.54-0.354-0.612l-3.261-0.873l3.304-1.907c0.239-0.138,0.321-0.443,0.184-0.683
	c-0.139-0.24-0.446-0.324-0.684-0.184l-4.35,2.512C35.538,20.07,35.441,20.268,35.467,20.468z M39.741,24.001
	c0.219,0.06,0.37,0.257,0.37,0.483v1.031c0,0.227-0.151,0.424-0.37,0.482l-7.322,1.961c-0.042,0.012-0.086,0.018-0.129,0.018
	c-0.087,0-0.173-0.022-0.25-0.067l-4.289-2.478c-0.155-0.088-0.25-0.254-0.25-0.433s0.095-0.344,0.25-0.433l4.289-2.478
	c0.114-0.067,0.252-0.083,0.379-0.051L39.741,24.001z M39.111,24.868l-6.752-1.81L29,24.999l3.359,1.94l6.752-1.81V24.868z
	 M40.872,28.283c-0.071-0.268-0.347-0.422-0.612-0.354l-4.426,1.186c-0.195,0.053-0.34,0.218-0.366,0.418
	c-0.026,0.199,0.07,0.396,0.246,0.498l4.351,2.512c0.078,0.046,0.164,0.066,0.25,0.066c0.172,0,0.34-0.09,0.434-0.25
	c0.138-0.238,0.057-0.545-0.184-0.683l-3.304-1.907l3.261-0.873C40.785,28.823,40.943,28.55,40.872,28.283z M39.062,34.273
	l-4.351-2.512c-0.176-0.102-0.396-0.087-0.554,0.036c-0.161,0.123-0.231,0.33-0.18,0.526l1.187,4.425
	c0.06,0.224,0.262,0.37,0.481,0.37c0.043,0,0.086-0.006,0.131-0.018c0.267-0.072,0.425-0.346,0.354-0.613l-0.873-3.258l3.305,1.908
	c0.237,0.139,0.545,0.055,0.683-0.184C39.384,34.718,39.302,34.412,39.062,34.273z M33.234,37.268
	c0.06,0.219-0.036,0.448-0.231,0.562l-0.892,0.517c-0.078,0.045-0.166,0.066-0.25,0.066c-0.129,0-0.258-0.051-0.354-0.146
	l-5.36-5.361c-0.094-0.094-0.146-0.221-0.146-0.354v-4.953c0-0.179,0.095-0.344,0.25-0.433c0.153-0.09,0.347-0.09,0.5,0l4.289,2.478
	c0.114,0.064,0.199,0.174,0.233,0.303L33.234,37.268z M32.17,37.154l-1.811-6.752L27,28.464v3.88l4.941,4.943L32.17,37.154z
	 M26.854,36.439c-0.143-0.144-0.356-0.185-0.545-0.107C26.122,36.409,26,36.592,26,36.794v5.021c0,0.276,0.225,0.5,0.5,0.5
	s0.5-0.224,0.5-0.5v-3.812l2.385,2.387c0.195,0.194,0.512,0.194,0.707,0c0.195-0.195,0.195-0.513,0-0.707L26.854,36.439z
	 M23.691,36.331c-0.187-0.076-0.402-0.035-0.545,0.108l-3.238,3.24c-0.195,0.194-0.195,0.512,0,0.706
	c0.195,0.195,0.512,0.195,0.707,0L23,38v3.812c0,0.276,0.224,0.5,0.5,0.5s0.5-0.224,0.5-0.5v-5.021
	C24,36.591,23.878,36.408,23.691,36.331z M23.854,32.904l-5.359,5.361c-0.096,0.096-0.224,0.146-0.354,0.146
	c-0.086,0-0.172-0.021-0.25-0.067l-0.893-0.516c-0.196-0.113-0.292-0.344-0.233-0.562l1.963-7.322
	c0.034-0.127,0.118-0.236,0.233-0.303l4.289-2.477c0.154-0.09,0.346-0.09,0.5,0c0.155,0.089,0.25,0.254,0.25,0.434v4.952
	C24,32.684,23.947,32.811,23.854,32.904z M23,28.464l-3.36,1.938l-1.81,6.752l0.229,0.133L23,32.344V28.464z M15.841,31.799
	c-0.161-0.123-0.379-0.138-0.554-0.035l-4.35,2.512c-0.239,0.138-0.321,0.442-0.183,0.683c0.138,0.237,0.443,0.321,0.683,0.183
	l3.304-1.906l-0.873,3.258c-0.071,0.268,0.087,0.541,0.354,0.613c0.043,0.011,0.087,0.017,0.13,0.017
	c0.221,0,0.423-0.147,0.482-0.37l1.186-4.425C16.072,32.129,16.002,31.922,15.841,31.799z M14.533,29.532
	c-0.026-0.2-0.171-0.365-0.366-0.418l-4.426-1.187c-0.265-0.064-0.541,0.088-0.612,0.354c-0.071,0.266,0.087,0.54,0.354,0.612
	l3.26,0.873l-3.304,1.907c-0.239,0.138-0.321,0.443-0.183,0.683c0.093,0.16,0.261,0.25,0.434,0.25c0.085,0,0.171-0.021,0.25-0.066
	l4.35-2.512C14.462,29.93,14.559,29.732,14.533,29.532z M10.259,25.999c-0.219-0.06-0.371-0.257-0.371-0.483v-1.031
	c0-0.227,0.152-0.424,0.371-0.482l7.322-1.961c0.127-0.032,0.265-0.018,0.379,0.051l4.289,2.477c0.155,0.09,0.25,0.254,0.25,0.434
	s-0.095,0.344-0.25,0.434l-4.289,2.477c-0.077,0.045-0.163,0.066-0.25,0.066c-0.043,0-0.087-0.006-0.129-0.017L10.259,25.999z
	 M10.889,25.132l6.751,1.81l3.36-1.94l-3.36-1.94l-6.751,1.81V25.132z M9.128,21.717c0.06,0.225,0.262,0.371,0.482,0.371
	c0.043,0,0.086-0.006,0.13-0.018l4.426-1.186c0.195-0.053,0.34-0.218,0.366-0.418c0.026-0.199-0.07-0.396-0.246-0.498l-4.35-2.512
	c-0.239-0.141-0.545-0.057-0.683,0.184c-0.138,0.238-0.056,0.545,0.183,0.683l3.304,1.907l-3.26,0.873
	C9.215,21.177,9.057,21.45,9.128,21.717z M10.938,15.727l4.348,2.51c0.078,0.046,0.164,0.068,0.25,0.068
	c0.108,0,0.215-0.035,0.304-0.104c0.161-0.123,0.231-0.33,0.179-0.526l-1.186-4.424c-0.072-0.266-0.345-0.42-0.612-0.354
	c-0.267,0.071-0.425,0.346-0.354,0.612l0.873,3.257l-3.302-1.906c-0.24-0.141-0.545-0.057-0.683,0.184
	C10.616,15.282,10.698,15.588,10.938,15.727z M16.765,12.732c-0.059-0.219,0.037-0.448,0.233-0.562l0.893-0.517
	c0.196-0.114,0.443-0.081,0.604,0.08l5.359,5.361C23.948,17.189,24,17.316,24,17.449v4.953c0,0.179-0.095,0.344-0.25,0.433
	c-0.077,0.045-0.164,0.067-0.25,0.067s-0.173-0.022-0.25-0.067l-4.29-2.478c-0.115-0.064-0.199-0.174-0.233-0.303L16.765,12.732z
	 M17.83,12.846l1.809,6.752L23,21.536v-3.88l-4.941-4.943L17.83,12.846z M23.146,13.559c0.096,0.096,0.224,0.146,0.354,0.146
	c0.064,0,0.129-0.014,0.191-0.038C23.878,13.59,24,13.407,24,13.205v-5.02c0-0.276-0.224-0.5-0.5-0.5S23,7.909,23,8.186v3.812
	l-2.385-2.386c-0.195-0.194-0.512-0.194-0.707,0c-0.195,0.195-0.195,0.513,0,0.707L23.146,13.559z"/>
</svg>
