<?xml version="1.0" encoding="utf-8"?>
<!-- Generator: Adobe Illustrator 16.0.4, SVG Export Plug-In . SVG Version: 6.00 Build 0)  -->
<!DOCTYPE svg PUBLIC "-//W3C//DTD SVG 1.1//EN" "http://www.w3.org/Graphics/SVG/1.1/DTD/svg11.dtd">
<svg version="1.1" id="Layer_1" xmlns="http://www.w3.org/2000/svg" xmlns:xlink="http://www.w3.org/1999/xlink" x="0px" y="0px"
	 width="50px" height="50px" viewBox="0 0 50 50" enable-background="new 0 0 50 50" xml:space="preserve">
<path stroke="#ddddff" d="M41.394,31.818c0-0.178-0.097-0.343-0.25-0.434l-2.041-1.18c-0.153-0.089-0.345-0.089-0.5,0l-1.792,1.035l-4.361-2.518
	l5.729-1.534c0.267-0.071,0.425-0.347,0.354-0.612c-0.07-0.267-0.346-0.426-0.611-0.354l-6.426,1.721l-2.156-2.945l2.158-2.948
	l6.424,1.721c0.043,0.012,0.086,0.017,0.129,0.017c0.222,0,0.423-0.147,0.482-0.371c0.071-0.267-0.087-0.541-0.354-0.612
	l-5.723-1.534l4.354-2.514l1.792,1.034c0.078,0.044,0.164,0.067,0.25,0.067s0.172-0.022,0.25-0.067l2.043-1.177
	c0.155-0.089,0.25-0.254,0.25-0.433l-0.002-1.253l0.001-1.106c0-0.179-0.096-0.344-0.25-0.434l-2.042-1.177
	c-0.154-0.089-0.345-0.089-0.5,0l-2.04,1.177c-0.154,0.089-0.251,0.254-0.251,0.433v2.07l-4.356,2.516l1.534-5.727
	c0.071-0.267-0.087-0.541-0.354-0.612c-0.264-0.069-0.541,0.086-0.611,0.354l-1.723,6.426l-3.631,0.395l-1.474-3.342l4.703-4.703
	c0.194-0.195,0.194-0.512,0-0.707c-0.194-0.195-0.513-0.195-0.707,0L25.5,16.683v-5.033l1.792-1.033
	c0.154-0.089,0.25-0.254,0.25-0.433V7.827c0-0.178-0.096-0.343-0.25-0.433l-2.042-1.18c-0.154-0.089-0.345-0.089-0.5,0l-2.042,1.18
	c-0.154,0.089-0.25,0.254-0.25,0.433v2.357c0,0.179,0.095,0.344,0.25,0.433l1.792,1.032v5.033l-4.191-4.19
	c-0.195-0.195-0.512-0.195-0.707,0c-0.195,0.195-0.195,0.512,0,0.707l4.703,4.703l-1.474,3.342L19.2,20.849l-1.722-6.426
	c-0.072-0.267-0.344-0.423-0.612-0.354c-0.267,0.071-0.425,0.346-0.354,0.612l1.535,5.727l-4.358-2.517l0.001-0.965l-0.001-1.104
	c0-0.179-0.096-0.343-0.25-0.433l-2.041-1.177c-0.154-0.089-0.345-0.09-0.499,0L8.856,15.39c-0.155,0.089-0.25,0.254-0.25,0.433
	L8.605,18.18c0,0.179,0.095,0.344,0.25,0.433l2.042,1.18c0.078,0.044,0.164,0.067,0.25,0.067s0.172-0.022,0.25-0.067l1.79-1.035
	l4.357,2.516l-5.723,1.534c-0.267,0.071-0.425,0.346-0.354,0.612c0.06,0.224,0.262,0.371,0.482,0.371
	c0.043,0,0.086-0.005,0.13-0.017l6.424-1.721L20.662,25l-2.156,2.945l-6.426-1.721c-0.264-0.071-0.541,0.087-0.612,0.354
	c-0.071,0.268,0.087,0.541,0.354,0.612l5.728,1.534l-4.362,2.519l-1.793-1.034c-0.155-0.089-0.345-0.088-0.499,0l-2.039,1.178
	c-0.155,0.089-0.251,0.254-0.251,0.433l-0.001,1.106l0.001,0.146l-0.001,1.104c0,0.18,0.095,0.345,0.25,0.435l2.042,1.179
	c0.078,0.044,0.164,0.067,0.25,0.067s0.172-0.022,0.25-0.067l2.041-1.179c0.155-0.089,0.25-0.254,0.25-0.433l-0.001-1.254
	l0.001-0.814l4.359-2.518l-1.532,5.724c-0.071,0.267,0.087,0.541,0.354,0.612c0.043,0.012,0.087,0.017,0.13,0.017
	c0.221,0,0.423-0.147,0.482-0.371l1.719-6.422l3.632-0.396l1.473,3.342l-4.703,4.702c-0.195,0.195-0.195,0.513,0,0.707
	c0.195,0.195,0.512,0.195,0.707,0l4.191-4.191v5.036l-1.792,1.032c-0.155,0.09-0.25,0.255-0.25,0.434v2.356
	c0,0.179,0.095,0.344,0.25,0.434l2.042,1.18c0.078,0.044,0.164,0.067,0.25,0.067s0.173-0.022,0.25-0.067l2.042-1.18
	c0.154-0.089,0.25-0.254,0.25-0.434v-2.356c0-0.179-0.095-0.344-0.25-0.434L25.5,38.351v-5.036l4.191,4.192
	c0.099,0.099,0.226,0.146,0.354,0.146c0.127,0,0.256-0.049,0.354-0.146c0.195-0.194,0.195-0.512,0-0.707l-4.703-4.703l1.473-3.342
	l3.633,0.396l1.719,6.422c0.061,0.223,0.262,0.371,0.482,0.371c0.043,0,0.086-0.005,0.129-0.017
	c0.268-0.071,0.426-0.346,0.354-0.612l-1.532-5.724l4.358,2.517v2.069c0,0.179,0.095,0.344,0.25,0.433l2.042,1.179
	c0.078,0.044,0.164,0.067,0.25,0.067s0.172-0.022,0.25-0.067l2.041-1.179c0.154-0.089,0.25-0.254,0.25-0.433l0.001-1.255
	L41.394,31.818z M9.605,16.666v-0.554l0.479-0.276l1.062-0.613l1.542,0.889v1.203v0.577l-0.5,0.289l-1.041,0.602l-1.542-0.891
	V16.666z M26.541,41.885l-1.062,0.613L25,42.775l-0.479-0.277l-1.062-0.613v-1.779l1.041-0.602l0.5-0.288l0.5,0.288l1.042,0.602
	V41.885z M25.5,30.061L25,31.194l-0.5-1.134l-1.048-2.378l-2.585,0.28l-1.232,0.135l0.732-1L21.901,25l-1.535-2.098l-0.732-1
	l1.232,0.134l2.585,0.281l1.048-2.378l0.5-1.134l0.5,1.134l1.047,2.378l2.586-0.281l1.232-0.134l-0.732,1L28.098,25l1.535,2.098
	l0.732,1l-1.232-0.135l-2.586-0.28L25.5,30.061z M23.458,8.114L24.52,7.5l0.479-0.277L25.478,7.5l1.062,0.613v1.78l-1.04,0.601
	L25,10.783l-0.5-0.288l-1.042-0.601V8.114z M37.309,16.93v-0.817l1.542-0.89l1.062,0.613l0.479,0.276v0.555l0.001,1.228
	l-1.543,0.889l-1.041-0.601l-0.5-0.289v-0.577V16.93z M12.688,33.888l-1.541,0.891l-1.071-0.619l-0.47-0.271v-0.555v-0.265
	l-0.001-0.146v-0.813l1.541-0.89l1.041,0.6l0.5,0.289v0.578L12.688,33.888z M37.312,32.922v-0.236v-0.577l0.5-0.289l1.041-0.603
	l1.542,0.893v1.226v0.555l-0.471,0.271l-1.07,0.619l-1.542-0.891V32.922z"/>
</svg>
