<?xml version="1.0" encoding="utf-8"?>
<!-- Generator: Adobe Illustrator 16.0.4, SVG Export Plug-In . SVG Version: 6.00 Build 0)  -->
<!DOCTYPE svg PUBLIC "-//W3C//DTD SVG 1.1//EN" "http://www.w3.org/Graphics/SVG/1.1/DTD/svg11.dtd">
<svg version="1.1" id="Layer_1" xmlns="http://www.w3.org/2000/svg" xmlns:xlink="http://www.w3.org/1999/xlink" x="0px" y="0px"
	 width="50px" height="50px" viewBox="0 0 50 50" enable-background="new 0 0 50 50" xml:space="preserve">
<path stroke="#ddddff" d="M37.545,19.993l1.938-1.119v-2.233l-1.938-1.119l-1.936,1.119v1.658L35.5,18.361c-2.123-3.346-5.793-5.604-10-5.772v-0.127
	l1.437-0.83V9.396L25,8.279l-1.938,1.117v2.235l1.438,0.83v0.127c-4.207,0.168-7.876,2.429-9.999,5.772l-0.11-0.062v-1.658
	l-1.938-1.119l-1.936,1.119v2.233l1.936,1.119l1.438-0.829l0.104,0.061c-0.911,1.729-1.433,3.691-1.433,5.776
	s0.521,4.049,1.433,5.776l-0.104,0.061l-1.437-0.831l-1.938,1.119l0.002,2.233l1.936,1.119l1.936-1.119v-1.656l0.11-0.062
	c2.123,3.346,5.792,5.604,9.999,5.772v0.126l-1.438,0.829v2.235L25,41.721l1.936-1.117v-2.235L25.5,37.539v-0.126
	c4.208-0.168,7.875-2.429,9.999-5.772l0.108,0.062v1.657l1.938,1.119l1.936-1.119l0.002-2.233l-1.938-1.119l-1.438,0.83l-0.103-0.06
	c0.91-1.729,1.433-3.691,1.433-5.776s-0.521-4.049-1.433-5.776l0.104-0.061L37.545,19.993z M34.635,18.861l-0.86,0.496
	c-1.774-2.75-4.804-4.609-8.274-4.774v-0.994C29.338,13.756,32.687,15.814,34.635,18.861z M24.5,19.88l-1.924-1.922
	c-0.195-0.194-0.512-0.194-0.707,0c-0.195,0.194-0.195,0.513,0,0.707l2.631,2.629v2.842l-2.459-1.42l-0.964-3.595
	c-0.072-0.266-0.344-0.418-0.612-0.354c-0.267,0.071-0.425,0.347-0.354,0.612l0.705,2.627l-4.158-2.399
	c1.688-2.603,4.556-4.359,7.842-4.524V19.88z M20.315,22.873l-2.626,0.703c-0.267,0.072-0.425,0.346-0.354,0.611
	c0.06,0.225,0.262,0.371,0.482,0.371c0.043,0,0.086-0.006,0.13-0.017l3.593-0.963L24,25l-2.458,1.419l-3.595-0.963
	c-0.264-0.065-0.541,0.088-0.612,0.354c-0.071,0.266,0.087,0.539,0.354,0.611l2.629,0.703l-4.16,2.402
	c-0.699-1.36-1.102-2.896-1.102-4.528s0.402-3.168,1.102-4.528L20.315,22.873z M20.816,27.994l-0.703,2.626
	c-0.071,0.267,0.087,0.54,0.354,0.612c0.043,0.011,0.087,0.017,0.13,0.017c0.221,0,0.423-0.147,0.482-0.371l0.962-3.591l2.459-1.421
	v2.84l-2.631,2.629c-0.195,0.194-0.195,0.513,0,0.707c0.195,0.194,0.512,0.194,0.707,0l1.924-1.923v4.8
	c-3.286-0.165-6.153-1.923-7.842-4.524L20.816,27.994z M25.5,30.121l1.922,1.923c0.099,0.099,0.227,0.146,0.354,0.146
	s0.257-0.049,0.354-0.146c0.195-0.194,0.195-0.512,0-0.707l-2.629-2.631v-2.84l2.459,1.421l0.961,3.591
	c0.061,0.224,0.263,0.371,0.482,0.371c0.043,0,0.086-0.006,0.131-0.017c0.266-0.072,0.424-0.346,0.354-0.612l-0.703-2.626l4.158,2.4
	c-1.688,2.602-4.557,4.358-7.842,4.523v-4.797H25.5z M29.683,27.127l2.629-0.703c0.267-0.072,0.425-0.346,0.354-0.611
	c-0.072-0.269-0.346-0.422-0.612-0.354l-3.595,0.963L26,25.002l2.461-1.421l3.593,0.963c0.043,0.011,0.087,0.017,0.13,0.017
	c0.221,0,0.423-0.146,0.482-0.371c0.07-0.267-0.088-0.539-0.354-0.611l-2.626-0.703l4.156-2.4c0.699,1.36,1.103,2.896,1.103,4.528
	s-0.401,3.168-1.103,4.528L29.683,27.127z M29.185,22.009l0.704-2.629c0.07-0.267-0.088-0.54-0.354-0.612
	c-0.268-0.062-0.541,0.088-0.613,0.354l-0.961,3.594l-2.459,1.42v-2.842l2.629-2.629c0.195-0.194,0.195-0.513,0-0.707
	s-0.512-0.194-0.707,0L25.5,19.88v-4.797c3.287,0.165,6.153,1.923,7.842,4.524L29.185,22.009z M24.5,13.589v0.994
	c-3.47,0.165-6.499,2.024-8.274,4.774l-0.86-0.496C17.314,15.814,20.664,13.756,24.5,13.589z M13.562,25.001
	c0-1.903,0.474-3.694,1.3-5.276l0.862,0.498c-0.742,1.435-1.168,3.057-1.168,4.778s0.426,3.345,1.168,4.778l-0.862,0.498
	C14.038,28.695,13.562,26.904,13.562,25.001z M15.367,31.141l0.86-0.496c1.775,2.75,4.804,4.609,8.274,4.774v0.994
	C20.664,36.246,17.314,34.188,15.367,31.141z M25.5,36.413v-0.994c3.471-0.165,6.5-2.024,8.274-4.774l0.86,0.496
	C32.687,34.188,29.338,36.246,25.5,36.413z M36.438,25.001c0,1.903-0.474,3.694-1.3,5.276l-0.862-0.498
	c0.742-1.434,1.168-3.057,1.168-4.778s-0.426-3.345-1.168-4.778l0.862-0.498C35.963,21.307,36.438,23.098,36.438,25.001z"/>
</svg>
