<?xml version="1.0" encoding="utf-8"?>
<!-- Generator: Adobe Illustrator 16.0.4, SVG Export Plug-In . SVG Version: 6.00 Build 0)  -->
<!DOCTYPE svg PUBLIC "-//W3C//DTD SVG 1.1//EN" "http://www.w3.org/Graphics/SVG/1.1/DTD/svg11.dtd">
<svg version="1.1" id="Layer_1" xmlns="http://www.w3.org/2000/svg" xmlns:xlink="http://www.w3.org/1999/xlink" x="0px" y="0px"
	 width="50px" height="50px" viewBox="0 0 50 50" enable-background="new 0 0 50 50" xml:space="preserve">
<path stroke="#ddddff" d="M40.002,24.626l-5.924-0.05l3.754-3.691c0.197-0.192,0.199-0.51,0.006-0.707c-0.193-0.198-0.512-0.198-0.707-0.006
	l-4.467,4.394l-0.748-0.006c-0.098-1.537-0.695-2.938-1.643-4.045l5.77-5.676c0.197-0.193,0.199-0.51,0.006-0.707
	s-0.51-0.199-0.707-0.006l-5.771,5.678c-1.086-0.953-2.475-1.574-4.014-1.707l0.006-0.748l4.465-4.396
	c0.197-0.194,0.199-0.511,0.006-0.707c-0.193-0.198-0.512-0.198-0.707-0.006l-3.752,3.694l0.051-5.929
	c0.002-0.274-0.221-0.502-0.497-0.504c-0.001,0-0.003,0-0.004,0c-0.273,0-0.498,0.222-0.5,0.496l-0.05,5.925l-3.691-3.754
	c-0.192-0.197-0.51-0.197-0.707-0.006c-0.196,0.193-0.198,0.51-0.006,0.707l4.394,4.467l-0.006,0.749
	c-1.535,0.099-2.938,0.696-4.043,1.64l-5.677-5.771c-0.192-0.197-0.51-0.198-0.707-0.006c-0.196,0.192-0.198,0.51-0.006,0.706
	l5.677,5.771c-0.963,1.092-1.587,2.483-1.711,4.016l-0.744-0.006l-4.396-4.465c-0.193-0.197-0.513-0.197-0.707-0.006
	c-0.197,0.194-0.199,0.512-0.007,0.707l3.695,3.752l-5.929-0.05c-0.31,0.019-0.502,0.219-0.504,0.496
	c-0.002,0.274,0.22,0.502,0.496,0.504l5.925,0.05l-3.754,3.692c-0.197,0.193-0.199,0.51-0.006,0.707
	c0.098,0.1,0.229,0.148,0.355,0.148s0.254-0.049,0.352-0.145l4.467-4.393l0.748,0.006c0.098,1.538,0.695,2.94,1.639,4.047
	l-5.768,5.672c-0.197,0.193-0.199,0.51-0.006,0.707c0.098,0.1,0.229,0.148,0.355,0.148s0.254-0.049,0.352-0.145l5.768-5.672
	c1.09,0.961,2.482,1.584,4.02,1.707l-0.006,0.744l-4.465,4.396c-0.197,0.193-0.199,0.512-0.007,0.707
	c0.194,0.197,0.513,0.197,0.707,0.006l3.752-3.693l-0.05,5.928c-0.002,0.275,0.221,0.502,0.496,0.504c0.001,0,0.003,0,0.004,0
	c0.273,0,0.498-0.221,0.5-0.496l0.05-5.926l3.691,3.754c0.098,0.102,0.229,0.15,0.357,0.15c0.127,0,0.252-0.049,0.35-0.145
	c0.197-0.193,0.199-0.51,0.006-0.707l-4.393-4.467l0.006-0.75c1.536-0.098,2.938-0.697,4.045-1.641l5.674,5.77
	c0.098,0.102,0.229,0.15,0.357,0.15c0.127,0,0.252-0.049,0.35-0.145c0.197-0.193,0.199-0.51,0.006-0.707l-5.676-5.771
	c0.963-1.092,1.586-2.482,1.711-4.016l0.744,0.008l4.395,4.465c0.1,0.1,0.229,0.148,0.357,0.148c0.127,0,0.252-0.049,0.35-0.145
	c0.197-0.193,0.199-0.51,0.008-0.707l-3.695-3.752l5.93,0.051c0,0,0.002,0,0.004,0c0.273,0,0.498-0.221,0.5-0.497
	S40.279,24.628,40.002,24.626z M30.908,25.551c-0.117,1.258-0.629,2.402-1.41,3.311c-0.219,0.254-0.455,0.49-0.713,0.703
	c-0.92,0.766-2.074,1.256-3.334,1.354c-0.149,0.01-0.299,0.021-0.451,0.021v0.498l-0.05-0.498c-0.169-0.002-0.334-0.016-0.499-0.029
	c-1.262-0.117-2.407-0.627-3.315-1.408c-0.253-0.217-0.487-0.455-0.7-0.713c-0.766-0.92-1.256-2.074-1.352-3.335
	c-0.014-0.166-0.021-0.332-0.021-0.501c0.002-0.169,0.015-0.334,0.029-0.499c0.117-1.257,0.629-2.401,1.413-3.31
	c0.22-0.252,0.456-0.488,0.714-0.701c0.918-0.76,2.067-1.25,3.33-1.354c0.166-0.014,0.332-0.025,0.501-0.025
	c0.169,0.002,0.334,0.016,0.5,0.029c1.262,0.117,2.406,0.626,3.314,1.407c0.252,0.217,0.486,0.456,0.701,0.713
	c0.766,0.921,1.256,2.075,1.352,3.337c0.014,0.166,0.021,0.332,0.021,0.501C30.936,25.22,30.924,25.385,30.908,25.551z
	 M28.66,22.101c-0.209-0.262-0.441-0.498-0.701-0.711c-0.676-0.553-1.502-0.916-2.42-1.027c-0.18-0.021-0.354-0.057-0.541-0.059
	c-0.157,0-0.308,0.031-0.46,0.047c-0.917,0.092-1.752,0.442-2.438,0.988c-0.264,0.208-0.5,0.441-0.713,0.701
	c-0.559,0.679-0.923,1.508-1.029,2.422c-0.021,0.167-0.055,0.329-0.055,0.5c-0.002,0.171,0.029,0.334,0.045,0.5
	c0.092,0.918,0.441,1.752,0.986,2.44c0.209,0.262,0.441,0.5,0.701,0.713c0.678,0.557,1.508,0.92,2.424,1.027
	c0.167,0.02,0.329,0.053,0.5,0.055H25c0.157,0,0.308-0.031,0.46-0.047c0.917-0.092,1.752-0.443,2.44-0.988
	c0.262-0.209,0.498-0.443,0.711-0.701c0.559-0.678,0.922-1.506,1.029-2.42c0.02-0.167,0.055-0.33,0.055-0.5
	c0.002-0.171-0.029-0.334-0.047-0.5C29.559,23.623,29.209,22.788,28.66,22.101z M28.643,25.531c-0.096,0.643-0.35,1.227-0.73,1.717
	c-0.205,0.266-0.441,0.502-0.711,0.703c-0.498,0.371-1.088,0.615-1.731,0.699c-0.154,0.02-0.309,0.047-0.469,0.047v0.496
	l-0.031-0.496c-0.172-0.002-0.334-0.031-0.5-0.055c-0.644-0.096-1.229-0.35-1.72-0.729c-0.265-0.207-0.5-0.445-0.701-0.713
	c-0.372-0.498-0.616-1.086-0.698-1.731c-0.021-0.164-0.047-0.328-0.047-0.501c0.002-0.171,0.03-0.334,0.055-0.499
	c0.095-0.642,0.351-1.226,0.731-1.717c0.205-0.266,0.444-0.5,0.714-0.7c0.495-0.368,1.084-0.612,1.728-0.7
	c0.165-0.021,0.329-0.05,0.501-0.05c0.171,0.003,0.334,0.031,0.499,0.056c0.643,0.094,1.23,0.348,1.721,0.729
	c0.266,0.205,0.5,0.443,0.699,0.713c0.373,0.497,0.617,1.087,0.701,1.73c0.02,0.166,0.047,0.33,0.045,0.502
	C28.695,25.204,28.666,25.367,28.643,25.531z"/>
</svg>
