<?xml version="1.0" encoding="utf-8"?>
<!-- Generator: Adobe Illustrator 16.0.4, SVG Export Plug-In . SVG Version: 6.00 Build 0)  -->
<!DOCTYPE svg PUBLIC "-//W3C//DTD SVG 1.1//EN" "http://www.w3.org/Graphics/SVG/1.1/DTD/svg11.dtd">
<svg version="1.1" id="Layer_1" xmlns="http://www.w3.org/2000/svg" xmlns:xlink="http://www.w3.org/1999/xlink" x="0px" y="0px"
	 width="50px" height="50px" viewBox="0 0 50 50" enable-background="new 0 0 50 50" xml:space="preserve">
<path stroke="#ddddff" d="M40.499,25c0-0.275-0.224-0.5-0.5-0.5h-1.247l1.601-1.602c0.194-0.195,0.194-0.513,0-0.707
	c-0.195-0.195-0.513-0.195-0.707,0L37.338,24.5h-4.103l-3.782-1.062l-0.019-0.232l2.471-4.403l4.054-4.054
	c0.195-0.195,0.195-0.512,0-0.707c-0.194-0.195-0.512-0.195-0.707,0l-4.589,4.589l-3.74,2.101l-0.232-0.106L25.5,16.376v-3.713
	l2.309-2.311c0.194-0.195,0.194-0.513,0-0.707c-0.195-0.195-0.513-0.195-0.707,0L25.5,11.25V10c0-0.275-0.224-0.5-0.5-0.5
	s-0.5,0.225-0.5,0.5v1.246l-1.6-1.6c-0.195-0.195-0.512-0.195-0.707,0c-0.195,0.194-0.195,0.512,0,0.707L24.5,12.66v3.216
	l-1.39,4.951l-3.591-2.017l-4.771-4.771c-0.195-0.194-0.512-0.194-0.707,0s-0.195,0.512,0,0.707l3.729,3.729l2.764,4.926
	L16.622,24.5h-3.96l-2.309-2.307c-0.195-0.194-0.512-0.194-0.708,0c-0.195,0.195-0.195,0.513,0,0.707l1.601,1.6H9.999
	c-0.276,0-0.5,0.225-0.5,0.5s0.224,0.5,0.5,0.5h1.248l-1.601,1.602c-0.195,0.195-0.195,0.512,0,0.707
	c0.098,0.098,0.226,0.146,0.354,0.146s0.256-0.049,0.354-0.146l2.309-2.309h2.381l4.73,1.329l0.511,0.658l-1.948,3.471l-4.296,4.295
	c-0.195,0.195-0.195,0.514,0,0.707c0.098,0.1,0.226,0.146,0.354,0.146s0.256-0.049,0.354-0.146l3.761-3.76l3.832-2.152l0.997,0.379
	l1.162,4.143v2.77l-2.307,2.311c-0.195,0.193-0.195,0.512,0,0.707c0.098,0.098,0.226,0.145,0.354,0.145s0.256-0.049,0.354-0.145
	l1.6-1.604V40c0,0.275,0.224,0.5,0.5,0.5s0.5-0.225,0.5-0.5v-1.248l1.603,1.602c0.194,0.195,0.512,0.195,0.707,0
	c0.194-0.195,0.194-0.512,0-0.707L25.5,37.338v-3.271l1.089-3.883l0.9-0.15l4.186,2.348l3.579,3.58
	c0.099,0.098,0.227,0.146,0.354,0.146s0.256-0.049,0.354-0.146c0.195-0.195,0.195-0.512,0-0.707l-4.621-4.621l-1.893-3.373
	l0.325-0.344l5.043-1.416h2.523l2.308,2.307c0.098,0.098,0.226,0.146,0.354,0.146s0.256-0.049,0.354-0.146
	c0.194-0.195,0.194-0.512,0-0.707l-1.603-1.6h1.246C40.275,25.5,40.499,25.275,40.499,25z M31.115,25.5l-3.286,0.922l0.896,1.598
	l1.278,2.277l-0.943-0.529l-2.933-1.646l-0.629,2.244l-0.57,2.031l-0.43-1.529l-0.771-2.746l-2.607,1.465l-1.269,0.711l1.097-1.953
	l1.078-1.922L18.742,25.5l-0.991-0.277l2.569-0.723l1.708-0.479l-1.645-2.933l-0.53-0.942l2.28,1.278l1.596,0.896l0.771-2.744
	l0.43-1.53l0.57,2.031l0.629,2.243l1.921-1.077l1.955-1.099l-0.712,1.27l-1.463,2.605l1.708,0.479l2.569,0.722L31.115,25.5z"/>
</svg>
