<?xml version="1.0" encoding="utf-8"?>
<!-- Generator: Adobe Illustrator 16.0.4, SVG Export Plug-In . SVG Version: 6.00 Build 0)  -->
<!DOCTYPE svg PUBLIC "-//W3C//DTD SVG 1.1//EN" "http://www.w3.org/Graphics/SVG/1.1/DTD/svg11.dtd">
<svg version="1.1" id="Layer_1" xmlns="http://www.w3.org/2000/svg" xmlns:xlink="http://www.w3.org/1999/xlink" x="0px" y="0px"
	 width="50px" height="50px" viewBox="0 0 50 50" enable-background="new 0 0 50 50" xml:space="preserve">
<path stroke="#ddddff" d="M28.178,37.878c0.294,0.293,0.294,0.768,0,1.061c-0.146,0.146-0.339,0.221-0.53,0.221s-0.383-0.073-0.529-0.221
	l-2.116-2.116l-2.118,2.116c-0.294,0.293-0.769,0.292-1.061,0c-0.293-0.293-0.293-0.768,0-1.061l3.179-3.178L28.178,37.878z
	 M25.001,15.3l3.18-3.179c0.293-0.293,0.293-0.768,0-1.061s-0.769-0.293-1.062,0l-2.118,2.118l-2.116-2.117
	c-0.292-0.292-0.767-0.294-1.061,0c-0.294,0.292-0.294,0.768,0,1.061L25.001,15.3z M12.123,21.571c-0.293-0.293-0.769-0.293-1.062,0
	c-0.293,0.293-0.293,0.768,0,1.061l2.119,2.118l-2.119,2.12c-0.293,0.293-0.293,0.768,0,1.061c0.146,0.146,0.338,0.22,0.53,0.22
	s0.384-0.072,0.53-0.22l3.179-3.18L12.123,21.571z M36.819,24.75l2.119-2.119c0.293-0.292,0.293-0.768,0-1.061
	c-0.291-0.292-0.767-0.293-1.061,0l-3.182,3.18l3.182,3.179c0.146,0.146,0.339,0.219,0.53,0.219c0.192,0,0.384-0.072,0.53-0.22
	c0.293-0.293,0.293-0.768,0-1.061L36.819,24.75z M37.106,32.001c0,0.415-0.336,0.75-0.75,0.75h-2.545l2.325,2.325
	c0.294,0.293,0.294,0.768,0,1.061c-0.146,0.146-0.338,0.22-0.53,0.22c-0.191,0-0.383-0.072-0.529-0.22l-2.325-2.325v2.545
	c0,0.414-0.336,0.75-0.75,0.75s-0.75-0.336-0.75-0.75v-4.045l-1.351-1.351h-9.801l-1.351,1.351v4.044c0,0.414-0.336,0.75-0.75,0.75
	s-0.75-0.336-0.75-0.75v-2.544l-2.325,2.325c-0.146,0.146-0.338,0.22-0.529,0.22c-0.192,0-0.385-0.072-0.53-0.22
	c-0.294-0.293-0.294-0.768,0-1.061l2.325-2.326h-2.545c-0.414,0-0.75-0.336-0.75-0.75s0.336-0.75,0.75-0.75h4.045l1.351-1.351
	l0.001-9.8l-1.352-1.351l-4.045-0.001c-0.414,0-0.75-0.336-0.75-0.75c0-0.415,0.336-0.75,0.75-0.75h2.545l-2.325-2.325
	c-0.294-0.293-0.294-0.768,0-1.061c0.293-0.293,0.768-0.293,1.061,0l2.325,2.325v-2.545c0-0.414,0.336-0.75,0.75-0.75
	s0.75,0.336,0.75,0.75v4.045l1.352,1.352h9.799l1.353-1.352v-4.044c0-0.414,0.336-0.75,0.75-0.75s0.75,0.336,0.75,0.75v2.544
	l2.325-2.325c0.293-0.293,0.768-0.293,1.061,0c0.293,0.293,0.293,0.768,0,1.061l-2.326,2.326h2.547c0.414,0,0.75,0.336,0.75,0.75
	s-0.336,0.75-0.75,0.75h-4.047l-1.349,1.349V29.9l1.351,1.35l4.043,0.001C36.771,31.251,37.106,31.587,37.106,32.001z
	 M28.401,29.461h1.062V28.4v-6.803v-1.059h-1.062h-6.799h-1.062V21.6l-0.001,6.8v1.062h1.061H28.401z M35.537,20.772L31.31,25
	l4.228,4.228c0.146,0.146,0.338,0.221,0.53,0.221c0.191,0,0.384-0.073,0.529-0.221c0.293-0.293,0.293-0.768,0-1.061L33.431,25
	l3.166-3.167c0.293-0.293,0.293-0.768,0-1.061S35.83,20.479,35.537,20.772z M25.002,18.691l4.228-4.227
	c0.293-0.293,0.293-0.768,0-1.061c-0.293-0.293-0.769-0.293-1.062,0l-3.166,3.167l-3.167-3.167c-0.293-0.293-0.768-0.293-1.061,0
	c-0.293,0.293-0.293,0.768,0,1.061L25.002,18.691z M13.399,28.173c-0.293,0.293-0.293,0.768,0,1.061
	c0.146,0.146,0.338,0.221,0.529,0.221c0.192,0,0.385-0.073,0.53-0.221l4.228-4.227l-4.229-4.228c-0.293-0.293-0.768-0.293-1.061,0
	c-0.293,0.293-0.293,0.768,0,1.061l3.166,3.167L13.399,28.173z M24.995,31.314l-4.227,4.228c-0.293,0.293-0.293,0.768,0,1.061
	s0.768,0.293,1.061,0l3.166-3.166l3.166,3.167c0.146,0.146,0.338,0.221,0.529,0.221c0.192,0,0.385-0.073,0.531-0.221
	c0.293-0.293,0.293-0.768,0-1.061L24.995,31.314z"/>
</svg>
