<?xml version="1.0" encoding="utf-8"?>
<!-- Generator: Adobe Illustrator 16.0.4, SVG Export Plug-In . SVG Version: 6.00 Build 0)  -->
<!DOCTYPE svg PUBLIC "-//W3C//DTD SVG 1.1//EN" "http://www.w3.org/Graphics/SVG/1.1/DTD/svg11.dtd">
<svg version="1.1" id="Layer_1" xmlns="http://www.w3.org/2000/svg" xmlns:xlink="http://www.w3.org/1999/xlink" x="0px" y="0px"
	 width="50px" height="50px" viewBox="0 0 50 50" enable-background="new 0 0 50 50" xml:space="preserve">
<path stroke="#ddddff" d="M40.314,33.264l-0.981-0.566V30.23c0-0.179-0.095-0.344-0.25-0.433l-2.385-1.377c-0.154-0.089-0.346-0.089-0.5,0
	l-2.136,1.233l-1.612-0.932l5.729-1.533c0.267-0.07,0.425-0.346,0.354-0.611s-0.345-0.424-0.613-0.354l-6.426,1.721L29.337,25
	l2.159-2.949l6.423,1.722c0.043,0.012,0.087,0.017,0.13,0.017c0.222,0,0.423-0.147,0.482-0.371c0.071-0.267-0.087-0.541-0.354-0.612
	l-5.723-1.534l1.606-0.928l2.135,1.232c0.078,0.044,0.164,0.067,0.25,0.067s0.172-0.022,0.25-0.067l2.387-1.377
	c0.155-0.089,0.25-0.255,0.25-0.434l-0.002-2.463l0.983-0.568c0.238-0.138,0.32-0.444,0.183-0.683
	c-0.139-0.24-0.445-0.322-0.683-0.183l-0.983,0.568l-2.135-1.234c-0.154-0.089-0.345-0.089-0.5,0l-2.385,1.376
	c-0.155,0.089-0.25,0.254-0.25,0.433v2.467l-1.608,0.929l1.534-5.727c0.071-0.267-0.087-0.541-0.354-0.612
	c-0.264-0.07-0.541,0.087-0.611,0.354L30.8,20.849l-3.631,0.395l-1.474-3.342l4.704-4.703c0.194-0.195,0.194-0.512,0-0.707
	c-0.195-0.195-0.512-0.195-0.707,0L25.5,16.683v-1.86l2.134-1.229c0.155-0.089,0.25-0.254,0.25-0.433v-2.756
	c0-0.179-0.095-0.344-0.25-0.433L25.5,8.738V7.604c0-0.276-0.224-0.5-0.5-0.5s-0.5,0.224-0.5,0.5v1.134l-2.135,1.233
	c-0.155,0.089-0.25,0.254-0.25,0.433v2.756c0,0.179,0.096,0.344,0.25,0.433l2.135,1.23v1.86l-4.191-4.19
	c-0.195-0.195-0.512-0.195-0.707,0c-0.195,0.195-0.195,0.512,0,0.707l4.704,4.703l-1.474,3.342l-3.631-0.395l-1.721-6.426
	c-0.071-0.267-0.344-0.425-0.612-0.354c-0.267,0.071-0.425,0.346-0.354,0.612l1.534,5.727l-1.61-0.93v-2.466
	c0-0.179-0.095-0.344-0.25-0.433l-2.383-1.376c-0.154-0.089-0.346-0.089-0.5,0l-2.135,1.234l-0.983-0.568
	c-0.239-0.139-0.545-0.056-0.683,0.183c-0.138,0.239-0.056,0.545,0.183,0.683l0.983,0.568l-0.002,2.463
	c0,0.179,0.095,0.344,0.25,0.434l2.385,1.377c0.077,0.044,0.164,0.067,0.25,0.067c0.086,0,0.173-0.022,0.25-0.067l2.135-1.233
	l1.608,0.929l-5.723,1.534c-0.267,0.071-0.425,0.346-0.354,0.612c0.06,0.224,0.262,0.371,0.482,0.371
	c0.043,0,0.086-0.005,0.13-0.017l6.423-1.722l2.159,2.949l-2.156,2.944l-6.426-1.721c-0.266-0.07-0.541,0.088-0.612,0.354
	c-0.071,0.267,0.087,0.541,0.354,0.612l5.728,1.533l-1.612,0.932L13.8,28.422c-0.154-0.089-0.345-0.089-0.5,0l-2.383,1.376
	c-0.155,0.089-0.25,0.254-0.25,0.433l-0.002,2.468l-0.98,0.565c-0.239,0.139-0.321,0.444-0.183,0.684
	c0.093,0.16,0.261,0.25,0.434,0.25c0.085,0,0.171-0.021,0.25-0.067l0.983-0.567l2.134,1.233c0.077,0.044,0.164,0.067,0.25,0.067
	c0.086,0,0.173-0.022,0.25-0.067l2.385-1.379c0.154-0.089,0.25-0.254,0.25-0.433v-2.463l1.608-0.93l-1.531,5.723
	c-0.071,0.268,0.087,0.541,0.354,0.612c0.043,0.013,0.087,0.017,0.13,0.017c0.221,0,0.423-0.146,0.482-0.37l1.718-6.423l3.632-0.396
	l1.473,3.341l-4.703,4.702c-0.195,0.195-0.195,0.513,0,0.707c0.195,0.195,0.512,0.195,0.707,0l4.192-4.19v1.862l-2.134,1.229
	c-0.155,0.089-0.25,0.254-0.25,0.433v2.757c0,0.178,0.095,0.344,0.25,0.432l2.134,1.234v1.135c0,0.275,0.224,0.5,0.5,0.5
	s0.5-0.225,0.5-0.5v-1.135l2.135-1.232c0.155-0.09,0.25-0.254,0.25-0.434V36.84c0-0.179-0.096-0.344-0.25-0.433l-2.135-1.23v-1.862
	l4.191,4.193c0.098,0.098,0.226,0.146,0.354,0.146s0.256-0.049,0.354-0.146c0.194-0.195,0.194-0.512,0-0.707l-4.703-4.703
	l1.473-3.342l3.632,0.396l1.719,6.422c0.06,0.223,0.262,0.371,0.481,0.371c0.043,0,0.086-0.006,0.13-0.018
	c0.268-0.07,0.426-0.345,0.354-0.611l-1.531-5.724l1.609,0.929v2.463c0,0.179,0.095,0.343,0.25,0.433l2.385,1.379
	c0.078,0.045,0.164,0.067,0.25,0.067s0.173-0.022,0.25-0.067l2.132-1.233l0.984,0.567c0.079,0.045,0.165,0.067,0.25,0.067
	c0.173,0,0.341-0.09,0.434-0.25C40.637,33.708,40.555,33.402,40.314,33.264z M13.552,20.567l-1.885-1.088l0.001-1.598v-0.578
	l0.5-0.289l1.385-0.8l1.883,1.087v1.6v0.578l-0.5,0.289L13.552,20.567z M26.885,39.307L25.5,40.107L25,40.396l-0.5-0.289
	l-1.385-0.801v-2.178l1.385-0.798l0.5-0.288l0.5,0.288l1.385,0.798V39.307z M25.5,30.061L25,31.195l-0.5-1.135l-1.048-2.377
	l-2.585,0.28l-1.232,0.134l0.732-1L21.903,25l-1.536-2.098l-0.732-1l1.232,0.134l2.585,0.281l1.048-2.378l0.5-1.134l0.5,1.134
	l1.048,2.378l2.585-0.281l1.232-0.134l-0.732,1L28.099,25l1.535,2.098l0.732,1l-1.232-0.134l-2.585-0.28L25.5,30.061z
	 M23.115,10.693l1.385-0.8L25,9.604l0.5,0.289l1.385,0.8v2.178L25.5,13.669L25,13.957l-0.5-0.288l-1.385-0.798V10.693z
	 M34.562,17.301l1.885-1.087l1.385,0.801l0.5,0.289v0.578l0.001,1.598l-1.887,1.088l-1.385-0.799l-0.5-0.289v-0.578L34.562,17.301
	L34.562,17.301z M15.438,32.695l-1.885,1.09l-1.384-0.801l-0.502-0.289V32.12l0.001-1.601l1.883-1.088l1.387,0.799l0.5,0.289v0.578
	V32.695L15.438,32.695z M36.448,33.786l-1.885-1.091V31.1v-0.58l0.499-0.287l1.386-0.801l1.885,1.088v1.601v0.575l-0.501,0.289
	L36.448,33.786z"/>
</svg>
