<?xml version="1.0" encoding="utf-8"?>
<!-- Generator: Adobe Illustrator 16.0.4, SVG Export Plug-In . SVG Version: 6.00 Build 0)  -->
<!DOCTYPE svg PUBLIC "-//W3C//DTD SVG 1.1//EN" "http://www.w3.org/Graphics/SVG/1.1/DTD/svg11.dtd">
<svg version="1.1" id="Layer_1" xmlns="http://www.w3.org/2000/svg" xmlns:xlink="http://www.w3.org/1999/xlink" x="0px" y="0px"
	 width="50px" height="50px" viewBox="0 0 50 50" enable-background="new 0 0 50 50" xml:space="preserve">
<path stroke="#ddddff" d="M42.934,22.775l-2.57-0.002l-0.853,1.477h-5.596l3.767-3.766c0.293-0.293,0.293-0.769,0-1.062s-0.768-0.293-1.061,0
	l-4.827,4.826h-0.083c-0.213-1.918-1.234-3.591-2.711-4.683l0.048-0.084l6.59-1.766c0.4-0.107,0.637-0.519,0.53-0.919
	c-0.107-0.399-0.517-0.639-0.919-0.53l-5.141,1.377l2.796-4.841h1.703l1.286-2.227l-1.285-2.226l-2.57-0.002l-1.284,2.229
	l0.852,1.475l-2.797,4.846l-1.378-5.146c-0.106-0.399-0.516-0.637-0.919-0.53c-0.399,0.107-0.637,0.52-0.53,0.92l1.768,6.592
	l-0.043,0.076c-0.83-0.363-1.745-0.569-2.708-0.569c-0.962,0-1.876,0.204-2.706,0.569l-0.043-0.076l1.766-6.59
	c0.107-0.399-0.13-0.812-0.531-0.918c-0.396-0.105-0.811,0.131-0.918,0.529l-1.377,5.143l-2.797-4.845l0.853-1.477L17.959,8.35
	l-2.57,0.002l-1.285,2.226l1.285,2.226l1.705,0.001l2.796,4.843l-5.141-1.377c-0.398-0.105-0.812,0.131-0.918,0.53
	c-0.107,0.4,0.13,0.812,0.531,0.919l6.59,1.766l0.046,0.08c-1.479,1.093-2.499,2.767-2.712,4.685h-0.084l-4.826-4.826
	c-0.293-0.293-0.769-0.293-1.062,0s-0.293,0.769,0,1.062l3.767,3.766h-5.594l-0.853-1.475l-2.57-0.002L5.78,25.001l1.284,2.226h2.57
	l0.854-1.477h5.591l-3.765,3.764c-0.293,0.293-0.293,0.768,0,1.061c0.146,0.146,0.339,0.22,0.53,0.22c0.192,0,0.384-0.073,0.53-0.22
	l4.824-4.823h0.086c0.213,1.918,1.233,3.592,2.712,4.685l-0.044,0.075l-6.596,1.769c-0.399,0.107-0.637,0.52-0.529,0.92
	c0.106,0.4,0.521,0.639,0.919,0.529l5.145-1.379l-2.798,4.848l-1.704-0.002l-1.286,2.229l1.287,2.225h2.569l1.285-2.226
	l-0.853-1.478l2.795-4.842l1.38,5.139c0.09,0.335,0.393,0.556,0.724,0.556c0.063,0,0.13-0.008,0.195-0.024
	c0.399-0.107,0.637-0.52,0.529-0.92l-1.767-6.588l0.043-0.074c0.83,0.363,1.744,0.568,2.706,0.568c0.963,0,1.877-0.205,2.708-0.57
	l0.042,0.074l-1.767,6.592c-0.106,0.399,0.131,0.812,0.531,0.918c0.065,0.019,0.13,0.025,0.194,0.025
	c0.331,0,0.634-0.221,0.724-0.556l1.377-5.144l2.798,4.848l-0.852,1.476l1.285,2.228l2.57-0.002l1.284-2.226l-1.284-2.226h-1.705
	l-2.798-4.846l5.143,1.379c0.399,0.107,0.812-0.131,0.919-0.53c0.107-0.4-0.13-0.812-0.53-0.919l-6.591-1.768l-0.046-0.08
	c1.478-1.092,2.499-2.765,2.711-4.683H31.8l4.822,4.824c0.146,0.146,0.338,0.22,0.53,0.22c0.191,0,0.384-0.072,0.529-0.22
	c0.293-0.293,0.293-0.769,0-1.062l-3.761-3.764h5.591l0.854,1.477h2.57l1.284-2.226L42.934,22.775z M30.254,25
	c0,0.257-0.04,0.503-0.076,0.75c-0.197,1.361-0.911,2.544-1.942,3.359c-0.394,0.311-0.82,0.574-1.291,0.765
	c-0.604,0.242-1.26,0.384-1.949,0.384s-1.345-0.142-1.947-0.384c-0.471-0.188-0.898-0.453-1.291-0.763
	c-1.033-0.816-1.747-2-1.944-3.361c-0.035-0.247-0.075-0.493-0.075-0.75s0.039-0.503,0.075-0.75
	c0.197-1.361,0.911-2.545,1.944-3.361c0.393-0.31,0.82-0.574,1.291-0.763c0.604-0.242,1.258-0.384,1.947-0.384
	c0.688,0,1.345,0.142,1.949,0.384c0.471,0.188,0.897,0.454,1.291,0.765c1.031,0.815,1.745,1.998,1.942,3.359
	C30.214,24.497,30.254,24.743,30.254,25z"/>
</svg>
