<?xml version="1.0" encoding="utf-8"?>
<!-- Generator: Adobe Illustrator 16.0.4, SVG Export Plug-In . SVG Version: 6.00 Build 0)  -->
<!DOCTYPE svg PUBLIC "-//W3C//DTD SVG 1.1//EN" "http://www.w3.org/Graphics/SVG/1.1/DTD/svg11.dtd">
<svg version="1.1" id="Layer_1" xmlns="http://www.w3.org/2000/svg" xmlns:xlink="http://www.w3.org/1999/xlink" x="0px" y="0px"
	 width="50px" height="50px" viewBox="0 0 50 50" enable-background="new 0 0 50 50" xml:space="preserve">
<path stroke="#ddddff" d="M39.418,19.244l2.228-1.285v-2.57l-2.228-1.287l-2.225,1.287v1.992l-5.242,3.027l1.534-5.727
	c0.071-0.267-0.087-0.541-0.354-0.612c-0.264-0.071-0.541,0.086-0.611,0.354l-1.793,6.693l-0.113,0.066l-5.115-2.953v-0.132
	l4.898-4.897c0.195-0.195,0.195-0.512,0-0.707c-0.195-0.195-0.512-0.195-0.707,0l-4.191,4.19v-6.052l1.726-0.997V7.063l-2.226-1.284
	l-2.226,1.284v2.571l1.726,0.997v6.052l-4.191-4.19c-0.195-0.195-0.512-0.195-0.707,0c-0.195,0.195-0.195,0.512,0,0.707l4.898,4.897
	v0.132l-5.114,2.953l-0.114-0.066l-1.793-6.693c-0.072-0.267-0.344-0.425-0.612-0.354c-0.267,0.071-0.425,0.346-0.354,0.612
	l1.535,5.727l-5.243-3.027v-1.992l-2.226-1.287l-2.226,1.287v2.57l2.226,1.285l1.727-0.996l5.239,3.025l-5.723,1.534
	c-0.267,0.071-0.425,0.346-0.354,0.612c0.06,0.224,0.262,0.371,0.482,0.371c0.043,0,0.086-0.005,0.13-0.017l6.689-1.792l0.116,0.067
	v5.905l-0.112,0.064l-6.693-1.793c-0.267-0.07-0.541,0.088-0.612,0.354c-0.071,0.267,0.087,0.541,0.354,0.612l5.728,1.533
	l-5.245,3.028l-1.725-0.997l-2.227,1.287l0.002,2.568l2.225,1.285l2.226-1.285v-1.993l5.241-3.026l-1.532,5.723
	c-0.071,0.268,0.087,0.541,0.354,0.612c0.043,0.013,0.087,0.017,0.13,0.017c0.221,0,0.423-0.146,0.482-0.37l1.791-6.689l0.115-0.065
	l5.114,2.953V31.9l-4.898,4.897c-0.195,0.195-0.195,0.513,0,0.707c0.195,0.195,0.512,0.195,0.707,0l4.191-4.19v6.056l-1.726,0.996
	v2.571L25,44.221l2.226-1.283v-2.571L25.5,39.37v-6.056l4.191,4.192c0.099,0.099,0.226,0.146,0.354,0.146
	c0.127,0,0.256-0.049,0.354-0.146c0.195-0.194,0.195-0.512,0-0.707L25.5,31.9v-0.129l5.115-2.953l0.114,0.065l1.791,6.689
	c0.06,0.223,0.263,0.37,0.481,0.37c0.043,0,0.086-0.004,0.131-0.017c0.267-0.071,0.425-0.345,0.354-0.612l-1.531-5.723l5.24,3.025
	v1.994l2.227,1.285l2.225-1.285l0.002-2.569l-2.227-1.287l-1.725,0.997l-5.246-3.027l5.729-1.535
	c0.268-0.07,0.425-0.346,0.354-0.611c-0.07-0.268-0.345-0.426-0.611-0.354l-6.693,1.791l-0.111-0.063v-5.905l0.115-0.067
	l6.689,1.792c0.043,0.012,0.087,0.017,0.13,0.017c0.221,0,0.422-0.147,0.481-0.371c0.071-0.267-0.086-0.541-0.354-0.612
	l-5.723-1.534l5.238-3.025L39.418,19.244z M30.113,27.374v0.578l-0.5,0.289l-4.115,2.376l-0.5,0.289l-0.5-0.289l-4.114-2.376
	l-0.5-0.289v-0.578v-4.75v-0.578l0.5-0.289l4.114-2.376l0.5-0.289l0.5,0.289l4.115,2.376l0.5,0.289v0.578V27.374z"/>
</svg>
