<?xml version="1.0" encoding="utf-8"?>
<!-- Generator: Adobe Illustrator 16.0.4, SVG Export Plug-In . SVG Version: 6.00 Build 0)  -->
<!DOCTYPE svg PUBLIC "-//W3C//DTD SVG 1.1//EN" "http://www.w3.org/Graphics/SVG/1.1/DTD/svg11.dtd">
<svg version="1.1" id="Layer_1" xmlns="http://www.w3.org/2000/svg" xmlns:xlink="http://www.w3.org/1999/xlink" x="0px" y="0px"
	 width="50px" height="50px" viewBox="0 0 50 50" enable-background="new 0 0 50 50" xml:space="preserve">
<path stroke="#ddddff" d="M40.5,25c0-0.276-0.225-0.5-0.5-0.5h-1.248l1.602-1.602c0.195-0.195,0.195-0.512,0-0.707c-0.194-0.195-0.512-0.195-0.707,0
	L37.339,24.5h-0.887l1.151-1.152c0.194-0.195,0.194-0.512,0-0.707c-0.195-0.195-0.513-0.195-0.707,0L35.039,24.5h-3.127
	c-0.11-1.537-0.721-2.935-1.674-4.033l1.145-1.143c0.391,0.257,0.854,0.409,1.354,0.409c1.361,0,2.471-1.108,2.471-2.47
	c0-0.5-0.152-0.965-0.409-1.355l1.162-1.162c0.194-0.195,0.194-0.512,0-0.707c-0.194-0.195-0.512-0.195-0.707,0l-1.162,1.162
	c-0.39-0.256-0.854-0.408-1.354-0.408c-1.36,0-2.469,1.108-2.469,2.47c0,0.5,0.15,0.964,0.407,1.354l-1.144,1.144
	c-1.1-0.952-2.496-1.562-4.032-1.672V14.96l1.856-1.856c0.194-0.195,0.194-0.512,0-0.707c-0.195-0.195-0.513-0.195-0.707,0
	L25.5,13.545v-0.885l2.307-2.308c0.194-0.195,0.194-0.512,0-0.707c-0.195-0.195-0.513-0.195-0.707,0l-1.6,1.6V10
	c0-0.276-0.225-0.5-0.5-0.5s-0.5,0.224-0.5,0.5v1.248l-1.602-1.602c-0.194-0.195-0.512-0.195-0.707,0
	c-0.194,0.195-0.194,0.512,0,0.707l2.309,2.31v0.885l-1.15-1.151c-0.195-0.195-0.513-0.195-0.707,0
	c-0.195,0.195-0.195,0.512,0,0.707l1.857,1.858v3.126c-1.536,0.11-2.934,0.72-4.032,1.672l-1.144-1.144
	c0.257-0.389,0.408-0.854,0.408-1.354c0-1.362-1.108-2.47-2.471-2.47c-0.5,0-0.964,0.152-1.354,0.408l-1.162-1.162
	c-0.195-0.195-0.512-0.195-0.707,0c-0.195,0.195-0.195,0.512,0,0.707l1.162,1.162c-0.258,0.39-0.409,0.854-0.409,1.355
	c0,1.362,1.108,2.47,2.47,2.47c0.5,0,0.965-0.152,1.354-0.409l1.144,1.143c-0.951,1.099-1.562,2.497-1.673,4.033h-3.125
	l-1.858-1.857c-0.195-0.195-0.513-0.195-0.707,0c-0.195,0.195-0.195,0.512,0,0.707l1.15,1.15h-0.886l-2.31-2.307
	c-0.195-0.195-0.512-0.195-0.707,0c-0.194,0.195-0.194,0.512,0,0.707l1.603,1.6H10c-0.275,0-0.5,0.224-0.5,0.5s0.225,0.5,0.5,0.5
	h1.248l-1.602,1.602c-0.195,0.195-0.195,0.513,0,0.707c0.098,0.099,0.226,0.146,0.354,0.146s0.256-0.049,0.354-0.146l2.31-2.309
	h0.886l-1.15,1.15c-0.195,0.195-0.195,0.513,0,0.707c0.098,0.099,0.226,0.146,0.354,0.146s0.256-0.049,0.354-0.146l1.859-1.857
	h3.125c0.11,1.537,0.721,2.934,1.672,4.033l-1.144,1.144c-0.39-0.256-0.854-0.408-1.354-0.408c-1.361,0-2.47,1.108-2.47,2.47
	c0,0.5,0.151,0.965,0.408,1.354l-1.161,1.161c-0.195,0.195-0.195,0.512,0,0.707c0.098,0.098,0.227,0.146,0.354,0.146
	c0.129,0,0.256-0.049,0.354-0.146l1.161-1.161c0.39,0.257,0.854,0.409,1.354,0.409c1.361,0,2.471-1.108,2.471-2.471
	c0-0.5-0.152-0.965-0.409-1.354l1.144-1.143c1.1,0.951,2.496,1.562,4.033,1.673v3.125l-1.855,1.859
	c-0.195,0.195-0.195,0.513,0,0.707c0.194,0.194,0.512,0.195,0.707-0.001l1.148-1.15v0.886l-2.307,2.31
	c-0.194,0.195-0.194,0.513,0,0.707c0.099,0.098,0.227,0.146,0.354,0.146s0.257-0.049,0.354-0.147l1.599-1.601v1.248
	c0,0.275,0.224,0.5,0.5,0.5s0.5-0.225,0.5-0.5v-1.247l1.601,1.6c0.195,0.195,0.513,0.195,0.707,0c0.195-0.194,0.195-0.512,0-0.707
	L25.5,37.338v-0.886l1.15,1.15c0.099,0.099,0.227,0.146,0.354,0.146s0.257-0.049,0.354-0.146c0.195-0.194,0.195-0.512,0-0.707
	L25.5,35.038v-3.125c1.537-0.11,2.936-0.722,4.033-1.673l1.144,1.143c-0.257,0.39-0.409,0.854-0.409,1.354
	c0,1.362,1.108,2.471,2.471,2.471c0.5,0,0.965-0.152,1.354-0.409l1.161,1.161c0.099,0.098,0.226,0.146,0.354,0.146
	c0.127,0,0.256-0.049,0.354-0.146c0.195-0.195,0.195-0.512,0-0.707L34.8,34.092c0.257-0.389,0.408-0.854,0.408-1.354
	c0-1.361-1.108-2.47-2.47-2.47c-0.5,0-0.965,0.152-1.354,0.408l-1.144-1.144c0.951-1.1,1.562-2.496,1.672-4.033h3.127l1.857,1.855
	c0.098,0.099,0.226,0.146,0.354,0.146s0.256-0.049,0.354-0.146c0.195-0.194,0.195-0.512,0-0.707L36.454,25.5h0.885l2.308,2.305
	c0.099,0.097,0.227,0.146,0.354,0.146s0.256-0.05,0.354-0.146c0.194-0.195,0.194-0.512,0-0.708L38.755,25.5h1.246
	C40.275,25.5,40.5,25.275,40.5,25z M32.736,15.792c0.224,0,0.432,0.053,0.621,0.142c0.311,0.146,0.561,0.396,0.707,0.707
	c0.088,0.189,0.143,0.398,0.143,0.621c0,0.811-0.659,1.47-1.471,1.47c-0.223,0-0.432-0.054-0.62-0.143
	c-0.312-0.146-0.562-0.396-0.707-0.708c-0.089-0.189-0.142-0.397-0.142-0.62C31.268,16.452,31.927,15.792,32.736,15.792z
	 M18.591,17.882c-0.146,0.311-0.396,0.561-0.707,0.707c-0.188,0.089-0.397,0.143-0.62,0.143c-0.812,0-1.471-0.659-1.471-1.47
	c0-0.223,0.055-0.432,0.143-0.621c0.146-0.311,0.396-0.561,0.707-0.707c0.189-0.088,0.397-0.142,0.621-0.142
	c0.811,0,1.469,0.659,1.469,1.47C18.732,17.484,18.68,17.692,18.591,17.882z M17.264,34.207c-0.224,0-0.433-0.055-0.621-0.144
	c-0.312-0.146-0.562-0.396-0.707-0.708c-0.088-0.188-0.143-0.396-0.143-0.62c0-0.811,0.659-1.47,1.471-1.47
	c0.223,0,0.43,0.053,0.619,0.143c0.311,0.146,0.561,0.396,0.707,0.707c0.09,0.188,0.143,0.397,0.143,0.62
	C18.732,33.548,18.073,34.207,17.264,34.207z M31.41,32.116c0.146-0.312,0.396-0.562,0.707-0.707
	c0.189-0.089,0.396-0.143,0.619-0.143c0.812,0,1.471,0.659,1.471,1.47c0,0.223-0.053,0.432-0.143,0.62
	c-0.146,0.312-0.396,0.562-0.707,0.707c-0.188,0.089-0.397,0.144-0.621,0.144c-0.811,0-1.469-0.659-1.469-1.471
	C31.268,32.515,31.32,32.306,31.41,32.116z M30.912,25.5c-0.105,1.262-0.605,2.412-1.379,3.327
	c-0.215,0.255-0.451,0.491-0.706,0.707c-0.915,0.772-2.065,1.272-3.327,1.379c-0.165,0.014-0.331,0.024-0.5,0.024
	s-0.335-0.012-0.5-0.024c-1.262-0.106-2.412-0.606-3.327-1.379c-0.255-0.216-0.491-0.452-0.706-0.707
	c-0.773-0.915-1.273-2.064-1.379-3.327c-0.014-0.165-0.025-0.331-0.025-0.5s0.013-0.335,0.025-0.5
	c0.105-1.262,0.605-2.412,1.379-3.327c0.217-0.255,0.452-0.492,0.707-0.707c0.915-0.773,2.064-1.272,3.326-1.378
	c0.165-0.014,0.331-0.025,0.5-0.025s0.335,0.012,0.5,0.025c1.262,0.106,2.411,0.605,3.326,1.378c0.255,0.215,0.49,0.452,0.707,0.707
	c0.773,0.915,1.273,2.065,1.379,3.327c0.014,0.165,0.025,0.331,0.025,0.5S30.926,25.334,30.912,25.5z M28.639,22.066
	c-0.211-0.261-0.445-0.496-0.707-0.707c-0.683-0.55-1.515-0.907-2.432-1.006c-0.166-0.018-0.329-0.051-0.5-0.051
	s-0.334,0.033-0.5,0.051c-0.917,0.099-1.749,0.456-2.432,1.006c-0.262,0.211-0.496,0.446-0.707,0.707
	c-0.551,0.683-0.908,1.515-1.008,2.433c-0.019,0.167-0.051,0.329-0.051,0.5s0.032,0.333,0.051,0.5c0.1,0.917,0.455,1.75,1.006,2.432
	c0.211,0.261,0.447,0.496,0.707,0.707c0.684,0.551,1.516,0.908,2.434,1.007c0.166,0.019,0.329,0.052,0.5,0.052
	s0.334-0.033,0.5-0.052c0.918-0.099,1.75-0.456,2.434-1.007c0.26-0.211,0.496-0.446,0.707-0.707
	c0.551-0.683,0.906-1.515,1.006-2.432c0.019-0.167,0.051-0.329,0.051-0.5s-0.032-0.333-0.051-0.5
	C29.547,23.583,29.189,22.75,28.639,22.066z M28.646,25.5c-0.088,0.644-0.338,1.23-0.713,1.725c-0.203,0.268-0.44,0.504-0.707,0.707
	c-0.494,0.376-1.082,0.626-1.727,0.714c-0.165,0.023-0.329,0.052-0.5,0.052s-0.335-0.028-0.5-0.052
	c-0.645-0.088-1.23-0.337-1.727-0.714c-0.267-0.203-0.504-0.439-0.707-0.707c-0.375-0.494-0.625-1.081-0.713-1.725
	c-0.021-0.165-0.051-0.329-0.051-0.5s0.028-0.335,0.051-0.5c0.088-0.644,0.338-1.231,0.715-1.726
	c0.203-0.267,0.439-0.504,0.707-0.707c0.494-0.376,1.08-0.625,1.725-0.713c0.165-0.023,0.329-0.051,0.5-0.051s0.335,0.028,0.5,0.051
	c0.645,0.088,1.23,0.337,1.725,0.713c0.268,0.203,0.504,0.44,0.707,0.707c0.377,0.494,0.627,1.082,0.715,1.726
	c0.021,0.165,0.051,0.329,0.051,0.5S28.668,25.334,28.646,25.5z"/>
</svg>
