<?xml version="1.0" encoding="utf-8"?>
<!-- Generator: Adobe Illustrator 16.0.4, SVG Export Plug-In . SVG Version: 6.00 Build 0)  -->
<!DOCTYPE svg PUBLIC "-//W3C//DTD SVG 1.1//EN" "http://www.w3.org/Graphics/SVG/1.1/DTD/svg11.dtd">
<svg version="1.1" id="Layer_1" xmlns="http://www.w3.org/2000/svg" xmlns:xlink="http://www.w3.org/1999/xlink" x="0px" y="0px"
	 width="50px" height="50px" viewBox="0 0 50 50" enable-background="new 0 0 50 50" xml:space="preserve">
<path stroke="#ddddff" d="M12.78,21.191c-0.207-0.359-0.084-0.817,0.273-1.024l1.788-1.031l-0.002-2.062c0-0.415,0.335-0.751,0.749-0.751h0.001
	c0.414,0,0.75,0.335,0.75,0.749l0.002,2.93l-2.538,1.465c-0.117,0.068-0.247,0.102-0.374,0.102
	C13.171,21.566,12.919,21.431,12.78,21.191z M36.191,28.534l-2.538,1.462l0.002,2.931c0,0.414,0.336,0.749,0.75,0.749
	c0,0,0,0,0.001,0c0.414,0,0.749-0.336,0.749-0.751l-0.002-2.062l1.786-1.03c0.358-0.206,0.481-0.665,0.274-1.022
	C37.008,28.45,36.549,28.325,36.191,28.534z M22.46,13.54l2.538,1.467l2.537-1.467c0.359-0.207,0.48-0.666,0.273-1.024
	c-0.205-0.357-0.663-0.482-1.023-0.273l-1.787,1.033l-1.788-1.033c-0.359-0.209-0.816-0.083-1.023,0.273
	C21.979,12.874,22.101,13.333,22.46,13.54z M27.536,36.46l-2.538-1.465l-2.538,1.467c-0.359,0.207-0.48,0.666-0.273,1.024
	c0.139,0.24,0.391,0.375,0.649,0.375c0.127,0,0.256-0.032,0.374-0.102l1.788-1.033l1.788,1.031c0.359,0.208,0.818,0.083,1.023-0.273
	C28.019,37.125,27.895,36.667,27.536,36.46z M15.592,33.678c0.414,0,0.75-0.336,0.75-0.75l-0.001-2.93l-2.538-1.464
	c-0.359-0.209-0.816-0.083-1.023,0.274c-0.207,0.358-0.084,0.816,0.273,1.023l1.788,1.032l0.001,2.062
	C14.842,33.342,15.178,33.678,15.592,33.678z M34.403,16.324c-0.414,0-0.75,0.336-0.75,0.75v2.93l2.539,1.464
	c0.118,0.068,0.247,0.101,0.374,0.101c0.26,0,0.512-0.135,0.649-0.375c0.207-0.358,0.084-0.816-0.273-1.023l-1.789-1.031v-2.062
	C35.153,16.66,34.817,16.324,34.403,16.324z M43.142,25c0,0.414-0.336,0.75-0.75,0.75h-0.986l-1.162,2.012
	c-0.134,0.232-0.382,0.375-0.649,0.375h-2.752c-0.268,0-0.516-0.143-0.648-0.375l-0.304-0.522l-3.506,2.024l-0.001,4.051h0.603
	c0.268,0,0.516,0.144,0.648,0.375l1.379,2.386c0.135,0.231,0.135,0.519,0,0.751l-1.162,2.008l0.494,0.855
	c0.207,0.358,0.084,0.817-0.273,1.024c-0.118,0.068-0.247,0.101-0.374,0.101c-0.26,0-0.513-0.135-0.65-0.375l-0.495-0.856h-2.32
	c-0.269,0-0.517-0.144-0.649-0.375l-1.376-2.383c-0.134-0.232-0.134-0.519,0-0.75l0.302-0.522l-3.507-2.022l-3.507,2.021
	l0.302,0.521c0.134,0.231,0.134,0.518,0,0.75l-1.378,2.387c-0.134,0.231-0.382,0.375-0.648,0.375h-2.322l-0.495,0.856
	c-0.139,0.24-0.391,0.375-0.65,0.375c-0.127,0-0.256-0.031-0.374-0.101c-0.357-0.207-0.48-0.666-0.273-1.024l0.495-0.857
	l-1.158-2.009c-0.134-0.232-0.134-0.519,0-0.75l1.377-2.388c0.134-0.231,0.382-0.375,0.649-0.375h0.602v-4.047l-3.507-2.024
	l-0.301,0.521c-0.135,0.232-0.383,0.375-0.649,0.375h-2.754c-0.269,0-0.516-0.144-0.649-0.375L8.6,25.75H7.608
	c-0.414,0-0.75-0.336-0.75-0.75s0.336-0.75,0.75-0.75H8.6l1.158-2.01c0.135-0.231,0.382-0.375,0.649-0.375h0.001l2.755,0.002
	c0.269,0,0.515,0.144,0.648,0.375l0.3,0.519l3.508-2.024v-4.047h-0.603c-0.001,0-0.001,0-0.001,0c-0.269,0-0.517-0.143-0.649-0.375
	l-1.377-2.387c-0.134-0.232-0.134-0.519,0-0.75l1.161-2.01l-0.495-0.857c-0.207-0.357-0.084-0.816,0.273-1.023
	c0.36-0.209,0.818-0.083,1.024,0.273l0.496,0.859l2.318-0.002h0.001c0.269,0,0.516,0.145,0.648,0.375l1.376,2.387
	c0.134,0.232,0.134,0.52,0,0.75l-0.299,0.52l3.508,2.025l3.504-2.023l-0.301-0.521c-0.134-0.23-0.134-0.518,0-0.75l1.378-2.387
	c0.134-0.232,0.382-0.375,0.649-0.375h2.32l0.496-0.859c0.206-0.356,0.664-0.481,1.024-0.273c0.357,0.207,0.48,0.666,0.273,1.023
	l-0.495,0.859l1.159,2.01c0.135,0.232,0.135,0.52,0,0.75l-1.379,2.387c-0.134,0.232-0.382,0.375-0.648,0.375h-0.001h-0.6v4.05
	l3.509,2.024l0.3-0.52c0.134-0.232,0.381-0.375,0.647-0.375l2.755-0.002c0.001,0,0.001,0,0.001,0c0.27,0,0.517,0.144,0.649,0.375
	l1.157,2.008h0.991C42.806,24.25,43.142,24.585,43.142,25z M39.16,26.637l0.513-0.887l0.432-0.747l-0.436-0.754l-0.509-0.883
	l-1.889,0.002l-0.333,0.576l-0.177,0.305l-0.043,0.074l-0.392,0.678l0.354,0.612l0.079,0.137l0.182,0.312l0.332,0.573L39.16,26.637
	L39.16,26.637z M30.882,21.605v-4.918h-0.219L29,19.566c1.479,1.093,2.498,2.766,2.711,4.684h3.319l0.108-0.188L30.882,21.605z
	 M30.179,24.25c-0.195-1.361-0.909-2.544-1.941-3.359c-0.394-0.311-0.819-0.574-1.291-0.765c-0.604-0.242-1.259-0.384-1.948-0.384
	c-0.688,0-1.345,0.142-1.948,0.384c-0.471,0.188-0.897,0.454-1.291,0.765c-1.031,0.814-1.746,1.998-1.941,3.359
	c-0.036,0.247-0.076,0.493-0.076,0.75s0.04,0.503,0.076,0.75c0.195,1.361,0.91,2.545,1.942,3.359
	c0.394,0.312,0.819,0.576,1.291,0.765c0.604,0.242,1.259,0.384,1.947,0.384c0.689,0,1.345-0.142,1.948-0.384
	c0.471-0.188,0.897-0.454,1.291-0.765c1.032-0.814,1.746-1.998,1.941-3.359c0.036-0.247,0.076-0.494,0.076-0.75
	S30.215,24.497,30.179,24.25z M30.662,11.917l-0.944,1.637l0.323,0.56l0.188,0.325l0.082,0.144l0.351,0.604l0.715,0.002h0.151h0.36
	h0.659l0.945-1.637l-0.511-0.885l-0.434-0.75h-0.866H30.662L30.662,11.917z M20.741,15.747l-0.11,0.19l1.659,2.873
	c0.83-0.363,1.744-0.568,2.707-0.568s1.877,0.205,2.707,0.57l1.659-2.875l-0.109-0.188l-4.255,2.457L20.741,15.747z M17.012,12.667
	L16.5,13.552l0.943,1.637h0.663h0.359h0.152l0.712-0.002l0.362-0.627l0.07-0.123l0.178-0.306l0.333-0.577l-0.943-1.637l-1.021,0.001
	l-0.867,0.001L17.012,12.667z M14.855,24.06l0.108,0.189h3.318c0.213-1.918,1.233-3.591,2.712-4.684l-1.663-2.879h-0.218v4.916
	L14.855,24.06z M13.235,25.75l0.076-0.131l0.354-0.618l-0.395-0.684l-0.039-0.068l-0.175-0.302l-0.336-0.581l-1.888-0.002
	l-0.511,0.885L9.89,25l0.434,0.75l0.512,0.887h1.887l0.332-0.574L13.235,25.75z M19.114,28.398v4.914h0.218l1.663-2.881
	c-1.479-1.091-2.499-2.765-2.712-4.683h-3.315l-0.109,0.19L19.114,28.398z M19.333,38.084l0.944-1.637l-0.331-0.571l-0.182-0.313
	l-0.075-0.131l-0.357-0.619h-0.707h-0.159h-0.361h-0.657l-0.944,1.638l0.509,0.884l0.435,0.751h0.865L19.333,38.084L19.333,38.084z
	 M29.256,34.253l0.108-0.188l-1.66-2.875c-0.83,0.363-1.744,0.568-2.707,0.568s-1.877-0.205-2.706-0.568l-1.66,2.873l0.11,0.19
	l4.257-2.457L29.256,34.253z M32.983,37.334l0.513-0.885l-0.945-1.635h-0.677h-0.345h-0.141h-0.727l-0.357,0.617l-0.074,0.133
	l-0.146,0.25l-0.366,0.635l0.942,1.633h1.021h0.867L32.983,37.334z M35.138,25.939l-0.108-0.189h-3.317
	c-0.213,1.918-1.233,3.591-2.712,4.684l1.664,2.881h0.219l0.001-4.916L35.138,25.939z"/>
</svg>
