<?xml version="1.0" encoding="utf-8"?>
<!-- Generator: Adobe Illustrator 16.0.4, SVG Export Plug-In . SVG Version: 6.00 Build 0)  -->
<!DOCTYPE svg PUBLIC "-//W3C//DTD SVG 1.1//EN" "http://www.w3.org/Graphics/SVG/1.1/DTD/svg11.dtd">
<svg version="1.1" id="Layer_1" xmlns="http://www.w3.org/2000/svg" xmlns:xlink="http://www.w3.org/1999/xlink" x="0px" y="0px"
	 width="50px" height="50px" viewBox="0 0 50 50" enable-background="new 0 0 50 50" xml:space="preserve">
<path stroke="#ddddff" d="M24.35,24.637v0.078c0,0.359,0.291,0.65,0.65,0.65s0.65-0.291,0.65-0.65v-0.08l-0.651,0.651L24.35,24.637z"/>
<polygon points="24.999,24.866 24.35,24.217 24.35,25.136 24.999,25.785 25.65,25.134 25.65,24.215 "/>
<path stroke="#ddddff" d="M37.564,28.924L41.49,25l-3.926-3.924L34.29,24.35h-2.875l4.354-4.354c0.254-0.253,0.254-0.665,0-0.919
	s-0.664-0.254-0.918,0l-5.275,5.273h-3.008l7.804-7.803c0.254-0.254,0.254-0.665,0-0.919s-0.665-0.254-0.919,0l-7.803,7.803v-3.008
	l5.272-5.275c0.254-0.254,0.254-0.666,0-0.919c-0.254-0.254-0.665-0.254-0.919,0l-4.354,4.355v-2.875l3.273-3.274l-3.925-3.925
	l-3.924,3.925l3.275,3.276v2.873l-4.354-4.355c-0.254-0.254-0.665-0.254-0.919,0c-0.254,0.253-0.254,0.665,0,0.919l5.273,5.275
	v3.008l-7.803-7.803c-0.254-0.254-0.665-0.254-0.919,0s-0.254,0.666,0,0.919l7.803,7.803h-3.008l-5.275-5.274
	c-0.254-0.254-0.665-0.254-0.919,0s-0.254,0.665,0,0.919l4.355,4.355H15.71l-3.275-3.274L8.51,25l3.925,3.924l3.275-3.274h2.872
	l-4.353,4.354c-0.254,0.254-0.254,0.664,0,0.918c0.127,0.127,0.293,0.191,0.459,0.191s0.333-0.064,0.459-0.191l5.273-5.271h3.01
	l-7.803,7.803c-0.254,0.254-0.254,0.666,0,0.92c0.127,0.127,0.293,0.189,0.459,0.189s0.333-0.062,0.459-0.189l7.803-7.804v3.009
	l-5.273,5.273c-0.254,0.254-0.254,0.665,0,0.919c0.254,0.254,0.665,0.254,0.919,0l4.354-4.354v2.873l-3.275,3.276l3.924,3.925
	l3.925-3.925l-3.273-3.274v-2.875l4.354,4.354c0.127,0.127,0.293,0.19,0.459,0.19s0.333-0.063,0.459-0.19
	c0.254-0.253,0.254-0.665,0-0.919l-5.271-5.273v-3.009l7.803,7.804c0.127,0.127,0.293,0.189,0.459,0.189s0.333-0.062,0.459-0.189
	c0.254-0.254,0.254-0.666,0-0.92l-7.803-7.803h3.006l5.275,5.273c0.127,0.127,0.293,0.189,0.459,0.189s0.334-0.062,0.459-0.189
	c0.254-0.254,0.254-0.666,0-0.92l-4.354-4.354h2.875L37.564,28.924z M14.521,25l-0.65,0.65l-1.437,1.437l-1.437-1.437L10.347,25
	l0.65-0.65l1.437-1.436l1.437,1.436L14.521,25z M24.35,10.997l0.649-0.649l0.651,0.651l1.436,1.436l-1.436,1.436l-0.651,0.651
	l-0.649-0.649l-1.437-1.438L24.35,10.997z M25.65,40c0,0.358-0.292,0.649-0.65,0.649S24.35,40.358,24.35,40v-0.078v-0.92
	l-1.437-1.438l1.437-1.438l0.649-0.649l0.651,0.651l1.436,1.436L25.65,39v0.92V40L25.65,40z M35.479,25l0.65-0.65l1.438-1.436
	l1.437,1.436L39.652,25l-0.649,0.65l-1.437,1.437l-1.438-1.437L35.479,25z"/>
</svg>
