<?xml version="1.0" encoding="utf-8"?>
<!-- Generator: Adobe Illustrator 16.0.4, SVG Export Plug-In . SVG Version: 6.00 Build 0)  -->
<!DOCTYPE svg PUBLIC "-//W3C//DTD SVG 1.1//EN" "http://www.w3.org/Graphics/SVG/1.1/DTD/svg11.dtd">
<svg version="1.1" id="Layer_1" xmlns="http://www.w3.org/2000/svg" xmlns:xlink="http://www.w3.org/1999/xlink" x="0px" y="0px"
	 width="50px" height="50px" viewBox="0 0 50 50" enable-background="new 0 0 50 50" xml:space="preserve">
<path stroke="#ddddff" d="M28.64,22.068c-0.211-0.261-0.447-0.496-0.707-0.707c-0.684-0.55-1.516-0.907-2.433-1.006
	c-0.167-0.019-0.329-0.052-0.5-0.052s-0.333,0.033-0.5,0.052c-0.917,0.099-1.749,0.456-2.433,1.006
	c-0.26,0.211-0.496,0.446-0.707,0.707c-0.551,0.683-0.907,1.515-1.006,2.433c-0.02,0.167-0.051,0.329-0.051,0.5
	s0.031,0.333,0.051,0.5c0.099,0.917,0.455,1.749,1.006,2.433c0.211,0.261,0.445,0.495,0.707,0.707
	c0.683,0.551,1.515,0.907,2.433,1.007c0.167,0.018,0.329,0.051,0.5,0.051s0.333-0.033,0.5-0.051c0.918-0.1,1.75-0.456,2.433-1.007
	c0.262-0.212,0.496-0.446,0.707-0.707c0.551-0.684,0.907-1.516,1.006-2.433c0.02-0.167,0.051-0.329,0.051-0.5
	s-0.031-0.333-0.051-0.5C29.547,23.584,29.188,22.751,28.64,22.068z M28.646,25.501c-0.088,0.645-0.338,1.23-0.713,1.726
	c-0.203,0.267-0.44,0.504-0.707,0.707c-0.494,0.376-1.082,0.626-1.727,0.714c-0.165,0.022-0.329,0.051-0.5,0.051
	s-0.335-0.028-0.5-0.051c-0.645-0.088-1.23-0.337-1.727-0.714c-0.267-0.203-0.504-0.44-0.707-0.707
	c-0.375-0.494-0.625-1.081-0.713-1.726c-0.021-0.165-0.051-0.329-0.051-0.5s0.028-0.335,0.051-0.5
	c0.088-0.644,0.338-1.23,0.715-1.726c0.203-0.268,0.439-0.504,0.707-0.707c0.494-0.376,1.08-0.625,1.725-0.713
	c0.165-0.023,0.329-0.052,0.5-0.052s0.335,0.028,0.5,0.052c0.645,0.088,1.23,0.337,1.725,0.713c0.268,0.203,0.504,0.439,0.707,0.707
	c0.377,0.494,0.627,1.082,0.715,1.726c0.021,0.165,0.051,0.329,0.051,0.5S28.668,25.336,28.646,25.501z M39.999,22.532
	c-1.189,0-2.186,0.846-2.418,1.969h-1.994l1.602-1.6c0.194-0.195,0.194-0.512,0-0.707c-0.195-0.195-0.513-0.195-0.707,0
	l-2.309,2.307h-2.261c-0.11-1.537-0.722-2.935-1.673-4.033l2.102-2.102l3.266-0.002c0.276,0,0.5-0.224,0.5-0.5s-0.224-0.5-0.5-0.5
	l-2.265,0.001l2.618-2.618c0.195-0.195,0.195-0.512,0-0.707s-0.512-0.195-0.707,0l-2.617,2.617v-2.263c0-0.276-0.224-0.5-0.5-0.5
	c-0.275,0-0.5,0.224-0.5,0.5v3.263l-2.104,2.104c-1.1-0.951-2.496-1.562-4.032-1.672v-2.261l2.306-2.309
	c0.195-0.195,0.195-0.513,0-0.708c-0.195-0.194-0.512-0.195-0.707,0L25.5,14.412v-1.994c1.122-0.231,1.97-1.228,1.97-2.418
	c0-1.361-1.107-2.47-2.47-2.47S22.53,8.639,22.53,10c0,1.19,0.848,2.188,1.97,2.418v1.994l-1.601-1.601
	c-0.195-0.195-0.512-0.195-0.707,0c-0.195,0.194-0.195,0.512,0,0.707l2.308,2.309v2.261c-1.536,0.11-2.935,0.721-4.032,1.672
	l-2.107-2.107l-0.041-3.264c-0.004-0.276-0.199-0.488-0.506-0.494c-0.275,0.003-0.496,0.229-0.494,0.506l0.029,2.239l-2.602-2.601
	c-0.195-0.195-0.512-0.195-0.707,0s-0.195,0.512,0,0.707l2.633,2.633l-2.285,0.027c-0.275,0.003-0.496,0.229-0.494,0.506
	c0.004,0.274,0.228,0.494,0.5,0.494c0.002,0,0.004,0,0.006,0l3.264-0.039l2.1,2.099c-0.953,1.1-1.562,2.497-1.674,4.033h-2.261
	l-2.31-2.307c-0.195-0.194-0.513-0.195-0.707,0c-0.195,0.194-0.195,0.512,0,0.708l1.602,1.599h-1.994
	c-0.23-1.124-1.229-1.971-2.419-1.971c-1.36,0-2.47,1.107-2.47,2.47s1.107,2.47,2.47,2.47c1.188,0,2.187-0.846,2.418-1.969h1.994
	L12.812,27.1c-0.195,0.194-0.195,0.512,0,0.707c0.098,0.098,0.226,0.146,0.354,0.146s0.256-0.049,0.354-0.146l2.309-2.308h2.263
	c0.11,1.536,0.722,2.935,1.673,4.032l-2.505,2.504l-3.31,0.002c-0.276,0-0.5,0.224-0.5,0.5s0.224,0.5,0.5,0.5l2.309-0.001
	l-2.215,2.215c-0.195,0.195-0.195,0.512,0,0.707c0.098,0.099,0.227,0.146,0.354,0.146c0.129,0,0.256-0.05,0.354-0.146l2.17-2.17
	v2.219c0,0.276,0.224,0.5,0.5,0.5s0.5-0.224,0.5-0.5v-3.219l2.55-2.55c1.1,0.952,2.496,1.562,4.033,1.673v2.259l-2.309,2.312
	c-0.194,0.194-0.194,0.512,0,0.708c0.099,0.097,0.227,0.146,0.354,0.146s0.257-0.049,0.354-0.146l1.601-1.604v1.995
	C23.38,37.812,22.532,38.81,22.532,40c0,1.362,1.107,2.47,2.47,2.47s2.47-1.107,2.47-2.47c0-1.189-0.846-2.185-1.968-2.418v-1.993
	l1.599,1.6c0.195,0.194,0.513,0.194,0.707,0c0.195-0.195,0.195-0.513,0-0.707l-2.306-2.308v-2.263
	c1.537-0.11,2.935-0.721,4.033-1.673l2.706,2.706l0.041,3.333c0.004,0.273,0.227,0.494,0.5,0.494c0.002,0,0.004,0,0.006,0
	c0.275-0.003,0.497-0.23,0.494-0.506l-0.029-2.309l2.002,2.001c0.098,0.099,0.227,0.146,0.354,0.146c0.129,0,0.257-0.05,0.354-0.146
	c0.195-0.195,0.195-0.512,0-0.707l-1.966-1.966l2.218-0.026c0.276-0.003,0.497-0.229,0.494-0.506
	c-0.003-0.273-0.228-0.494-0.5-0.494c-0.002,0-0.004,0-0.006,0l-3.194,0.038l-2.766-2.765c0.951-1.099,1.562-2.496,1.672-4.032
	h2.259l2.31,2.308c0.099,0.097,0.227,0.146,0.354,0.146s0.257-0.049,0.354-0.146c0.195-0.195,0.195-0.513,0-0.708l-1.608-1.599
	h1.994c0.231,1.124,1.229,1.972,2.419,1.972c1.361,0,2.471-1.108,2.471-2.471C42.47,23.641,41.36,22.532,39.999,22.532z
	 M11.375,25.501c-0.206,0.563-0.742,0.969-1.376,0.969c-0.811,0-1.471-0.658-1.471-1.47c0-0.811,0.66-1.47,1.471-1.47
	c0.635,0,1.171,0.406,1.377,0.971c0.057,0.156,0.094,0.323,0.094,0.499C11.47,25.177,11.433,25.344,11.375,25.501z M23.53,10.001
	c0-0.811,0.658-1.47,1.47-1.47s1.47,0.659,1.47,1.47c0,0.634-0.406,1.171-0.97,1.376c-0.157,0.058-0.323,0.093-0.5,0.093
	s-0.343-0.035-0.5-0.093C23.937,11.172,23.53,10.635,23.53,10.001z M26.468,40.001c0,0.812-0.658,1.47-1.47,1.47
	s-1.47-0.658-1.47-1.47c0-0.635,0.406-1.172,0.972-1.377c0.156-0.057,0.322-0.093,0.498-0.093c0.177,0,0.345,0.036,0.502,0.094
	C26.062,38.832,26.468,39.368,26.468,40.001z M30.912,25.501c-0.104,1.262-0.604,2.411-1.378,3.326
	c-0.217,0.255-0.452,0.492-0.707,0.707c-0.915,0.773-2.064,1.273-3.327,1.379c-0.165,0.014-0.331,0.025-0.5,0.025
	s-0.335-0.013-0.5-0.025c-1.263-0.105-2.412-0.605-3.327-1.379c-0.255-0.215-0.49-0.452-0.707-0.707
	c-0.771-0.915-1.271-2.063-1.378-3.326c-0.014-0.165-0.024-0.331-0.024-0.5s0.012-0.335,0.024-0.5
	c0.104-1.262,0.604-2.412,1.379-3.327c0.216-0.255,0.452-0.491,0.708-0.707c0.914-0.772,2.062-1.271,3.325-1.378
	c0.165-0.014,0.331-0.024,0.5-0.024s0.335,0.012,0.5,0.024c1.263,0.106,2.411,0.605,3.325,1.378
	c0.256,0.216,0.492,0.452,0.708,0.707c0.772,0.915,1.272,2.065,1.379,3.327c0.014,0.165,0.024,0.331,0.024,0.5
	S30.926,25.336,30.912,25.501z M39.999,26.473c-0.635,0-1.171-0.406-1.377-0.972c-0.057-0.156-0.094-0.323-0.094-0.499
	c0-0.177,0.037-0.344,0.095-0.501c0.206-0.562,0.742-0.969,1.376-0.969c0.811,0,1.471,0.659,1.471,1.47
	C41.47,25.813,40.81,26.473,39.999,26.473z"/>
</svg>
