<?xml version="1.0" encoding="utf-8"?>
<!-- Generator: Adobe Illustrator 16.0.4, SVG Export Plug-In . SVG Version: 6.00 Build 0)  -->
<!DOCTYPE svg PUBLIC "-//W3C//DTD SVG 1.1//EN" "http://www.w3.org/Graphics/SVG/1.1/DTD/svg11.dtd">
<svg version="1.1" id="Layer_1" xmlns="http://www.w3.org/2000/svg" xmlns:xlink="http://www.w3.org/1999/xlink" x="0px" y="0px"
	 width="50px" height="50px" viewBox="0 0 50 50" enable-background="new 0 0 50 50" xml:space="preserve">
<path stroke="#ddddff" d="M19.724,29.145l-3.851,3.853l-0.707-0.707l3.383-3.383l-0.851-2.106h-2.444l-2.445,2.446l-2.446-2.446H9.2v-1h3.377
	l-0.9,0.9l1.131,1.132l2.031-2.032h3.533L19.724,29.145z M11.677,23.303l1.132-1.131l2.03,2.028h3.5l1.409-3.321l-3.875-3.875
	l-0.707,0.707l3.398,3.398L17.676,23.2h-2.424l-2.444-2.442L10.365,23.2H9.2v1h3.374L11.677,23.303z M24.2,18.372v-3.533
	l-2.031-2.03l1.131-1.131l0.899,0.898V9.2h-1v1.163l-2.445,2.445l2.445,2.443v2.445l-2.105,0.85l-3.384-3.382l-0.707,0.707
	l3.852,3.851L24.2,18.372z M32.996,15.872l-0.707-0.707l-3.398,3.399L26.8,17.676v-2.424l2.442-2.443L26.8,10.365V9.2h-1v3.374
	l0.897-0.897l1.131,1.132l-2.028,2.03v3.5l3.321,1.409L32.996,15.872z M25.8,31.628v3.533l2.031,2.03L26.7,38.322l-0.899-0.898V40.8
	h1v-1.163l2.445-2.445l-2.445-2.443v-2.445l2.105-0.85l3.384,3.382l0.707-0.707l-3.853-3.851L25.8,31.628z M39.637,23.2
	l-2.445-2.446L34.746,23.2h-2.444l-0.852-2.106l3.384-3.383l-0.707-0.707l-3.852,3.852l1.352,3.346h3.533l2.031-2.032l1.131,1.132
	l-0.9,0.9h3.377v-1L39.637,23.2L39.637,23.2z M17.004,34.127l0.707,0.707l3.397-3.396l2.092,0.888v2.423l-2.442,2.443l2.442,2.443
	V40.8h1v-3.374l-0.897,0.897l-1.131-1.132l2.028-2.03v-3.499l-3.322-1.408L17.004,34.127z M38.323,26.697l-1.132,1.131l-2.03-2.028
	h-3.5l-1.409,3.321l3.875,3.875l0.707-0.707l-3.398-3.398l0.889-2.091h2.424l2.443,2.442l2.443-2.442H40.8v-1h-3.374L38.323,26.697z
	 M28.676,28.739l-3.722,1.504l-3.695-1.566l-1.503-3.722l1.567-3.693l3.722-1.505l3.693,1.566l1.504,3.722L28.676,28.739z
	 M27.917,27.968l1.244-2.933l-1.194-2.952l-2.932-1.244l-2.954,1.193l-1.244,2.933l1.193,2.952l2.932,1.244L27.917,27.968z"/>
</svg>
