<?xml version="1.0" encoding="utf-8"?>
<!-- Generator: Adobe Illustrator 16.0.4, SVG Export Plug-In . SVG Version: 6.00 Build 0)  -->
<!DOCTYPE svg PUBLIC "-//W3C//DTD SVG 1.1//EN" "http://www.w3.org/Graphics/SVG/1.1/DTD/svg11.dtd">
<svg version="1.1" id="Layer_1" xmlns="http://www.w3.org/2000/svg" xmlns:xlink="http://www.w3.org/1999/xlink" x="0px" y="0px"
	 width="50px" height="50px" viewBox="0 0 50 50" enable-background="new 0 0 50 50" xml:space="preserve">
<path stroke="#ddddff" d="M40,24.5h-5.925l3.722-3.723c0.195-0.195,0.195-0.512,0-0.707c-0.195-0.195-0.512-0.195-0.707,0l-4.43,4.43h-6.453
	l9.753-9.753c0.195-0.195,0.195-0.512,0-0.707c-0.194-0.195-0.512-0.195-0.707,0L25.5,23.793v-6.449l4.428-4.434
	c0.195-0.196,0.195-0.512,0-0.708c-0.195-0.194-0.512-0.195-0.707,0L25.5,15.928V10c0-0.276-0.224-0.5-0.5-0.5s-0.5,0.224-0.5,0.5
	v5.925l-3.723-3.722c-0.195-0.195-0.512-0.195-0.707,0c-0.195,0.195-0.195,0.512,0,0.707l4.43,4.43v6.453l-9.753-9.753
	c-0.195-0.195-0.512-0.195-0.707,0c-0.195,0.195-0.195,0.512,0,0.707l9.753,9.753h-6.449l-4.434-4.428
	c-0.195-0.194-0.512-0.195-0.708,0c-0.195,0.196-0.195,0.512,0,0.708l3.726,3.72H9.999c-0.276,0-0.5,0.224-0.5,0.5
	s0.224,0.5,0.5,0.5h5.925l-3.722,3.723c-0.195,0.195-0.195,0.512,0,0.707c0.098,0.098,0.226,0.146,0.354,0.146
	c0.128,0,0.256-0.049,0.354-0.146l4.43-4.43h6.453l-9.753,9.753c-0.195,0.195-0.195,0.513,0,0.707
	c0.098,0.099,0.226,0.146,0.354,0.146s0.256-0.049,0.354-0.146l9.752-9.753v6.449l-4.428,4.434c-0.195,0.196-0.195,0.512,0,0.708
	c0.195,0.194,0.512,0.195,0.708,0l3.72-3.726V40c0,0.275,0.224,0.5,0.5,0.5s0.5-0.225,0.5-0.5v-5.925l3.723,3.722
	c0.098,0.098,0.227,0.146,0.354,0.146s0.256-0.049,0.354-0.146c0.194-0.195,0.194-0.512,0-0.707L25.5,32.66v-6.453l9.753,9.753
	c0.099,0.099,0.226,0.146,0.354,0.146c0.127,0,0.256-0.049,0.354-0.146c0.195-0.194,0.195-0.512,0-0.707L26.207,25.5h6.449
	l4.434,4.428c0.098,0.098,0.227,0.146,0.354,0.146c0.129,0,0.257-0.049,0.354-0.146c0.195-0.195,0.195-0.512,0-0.707L34.072,25.5
	h5.929c0.276,0,0.5-0.224,0.5-0.5S40.275,24.5,40,24.5z"/>
</svg>
