<?xml version="1.0" encoding="utf-8"?>
<!-- Generator: Adobe Illustrator 16.0.4, SVG Export Plug-In . SVG Version: 6.00 Build 0)  -->
<!DOCTYPE svg PUBLIC "-//W3C//DTD SVG 1.1//EN" "http://www.w3.org/Graphics/SVG/1.1/DTD/svg11.dtd">
<svg version="1.1" id="Layer_1" xmlns="http://www.w3.org/2000/svg" xmlns:xlink="http://www.w3.org/1999/xlink" x="0px" y="0px"
	 width="50px" height="50px" viewBox="0 0 50 50" enable-background="new 0 0 50 50" xml:space="preserve">
<path stroke="#ddddff" d="M21.315,34.562c-0.359,0-0.65-0.291-0.65-0.649v-3.66l-3.785,3.785c-0.127,0.127-0.293,0.19-0.459,0.19
	s-0.333-0.063-0.459-0.19c-0.254-0.254-0.254-0.665,0-0.919l3.785-3.785h-3.66c-0.359,0-0.65-0.291-0.65-0.65
	c0-0.358,0.291-0.649,0.65-0.649h5.229h0.65v0.649v5.229C21.965,34.271,21.674,34.562,21.315,34.562z M28.034,16.088v5.229v0.65
	h0.649h5.229c0.358,0,0.649-0.291,0.649-0.65s-0.291-0.65-0.649-0.65h-3.66l3.785-3.785c0.254-0.254,0.254-0.665,0-0.919
	s-0.665-0.254-0.919,0l-3.785,3.785v-3.66c0-0.359-0.291-0.65-0.65-0.65C28.325,15.438,28.034,15.729,28.034,16.088z M15.771,21.455
	c0,0.359,0.291,0.65,0.65,0.65l5.682-0.001v-5.682c0-0.359-0.291-0.65-0.65-0.65s-0.65,0.291-0.65,0.65v3.463l-3.923-3.923
	c-0.254-0.254-0.665-0.254-0.919,0s-0.254,0.665,0,0.919l3.923,3.923l-3.463,0.001C16.062,20.805,15.771,21.096,15.771,21.455z
	 M34.229,28.546c0-0.358-0.291-0.649-0.65-0.649h-5.033h-0.65v0.649v5.033c0,0.358,0.291,0.649,0.65,0.649s0.65-0.291,0.65-0.649
	v-3.464l3.924,3.924c0.127,0.127,0.293,0.189,0.459,0.189s0.333-0.062,0.459-0.189c0.254-0.254,0.254-0.665,0-0.919l-3.924-3.925
	h3.464C33.938,29.195,34.229,28.905,34.229,28.546z M41.49,25l-3.926,3.925L34.29,25.65h-8.64v8.641l3.273,3.273l-3.925,3.926
	l-3.924-3.926l3.275-3.275V25.65h-8.64l-3.275,3.274L8.51,25l3.925-3.924l3.275,3.274h8.64v-8.639l-3.275-3.276l3.924-3.925
	l3.925,3.925l-3.273,3.274v8.641h8.64l3.274-3.274L41.49,25z M14.52,25l-0.65-0.65l-1.437-1.436l-1.437,1.436L10.346,25l0.65,0.65
	l1.437,1.437l1.437-1.437L14.52,25z M25.648,36.13l-0.65-0.651l-0.649,0.649l-1.437,1.438l1.437,1.438l0.649,0.648l0.65-0.65
	l1.437-1.436L25.648,36.13z M25.648,13.87l1.437-1.436l-1.437-1.436l-0.65-0.651l-0.649,0.649l-1.437,1.438l1.437,1.438l0.649,0.649
	L25.648,13.87z M39.001,25.65L39.65,25l-0.649-0.65l-1.437-1.436l-1.438,1.436L35.477,25l0.65,0.65l1.438,1.437L39.001,25.65z"/>
</svg>
