<?xml version="1.0" encoding="utf-8"?>
<!-- Generator: Adobe Illustrator 16.0.4, SVG Export Plug-In . SVG Version: 6.00 Build 0)  -->
<!DOCTYPE svg PUBLIC "-//W3C//DTD SVG 1.1//EN" "http://www.w3.org/Graphics/SVG/1.1/DTD/svg11.dtd">
<svg version="1.1" id="Layer_1" xmlns="http://www.w3.org/2000/svg" xmlns:xlink="http://www.w3.org/1999/xlink" x="0px" y="0px"
	 width="50px" height="50px" viewBox="0 0 50 50" enable-background="new 0 0 50 50" xml:space="preserve">
<path stroke="#ddddff" d="M40.354,27.099L38.753,25.5H40c0.276,0,0.5-0.224,0.5-0.5s-0.224-0.5-0.5-0.5h-1.247l1.602-1.603
	c0.194-0.194,0.194-0.512,0-0.707c-0.195-0.194-0.513-0.194-0.707,0l-2.309,2.31h-0.488c-0.122-2.896-1.28-5.522-3.121-7.522
	l2.23-2.23c0.195-0.195,0.195-0.512,0-0.707c-0.194-0.195-0.512-0.195-0.707,0l-2.23,2.23c-2-1.84-4.626-2.998-7.522-3.119v-0.487
	l2.309-2.31c0.194-0.195,0.194-0.513,0-0.707c-0.195-0.195-0.513-0.195-0.707,0L25.5,11.249v-1.248c0-0.275-0.224-0.5-0.5-0.5
	s-0.5,0.225-0.5,0.5v1.247l-1.601-1.601c-0.195-0.195-0.512-0.195-0.707,0c-0.195,0.194-0.195,0.512,0,0.707l2.308,2.308v0.489
	c-2.896,0.121-5.522,1.279-7.522,3.119l-2.231-2.23c-0.195-0.195-0.512-0.195-0.707,0s-0.195,0.512,0,0.707l2.231,2.23
	c-1.84,2-2.999,4.627-3.121,7.522h-0.489l-2.308-2.308c-0.195-0.194-0.512-0.194-0.707,0c-0.195,0.195-0.195,0.513,0,0.707
	l1.601,1.601H10c-0.276,0-0.5,0.224-0.5,0.5s0.224,0.5,0.5,0.5h1.247l-1.601,1.603c-0.195,0.194-0.195,0.512,0,0.707
	c0.098,0.098,0.226,0.146,0.354,0.146s0.256-0.049,0.354-0.146l2.308-2.31h0.489c0.122,2.896,1.28,5.521,3.12,7.522l-2.23,2.229
	c-0.195,0.195-0.195,0.512,0,0.707c0.098,0.098,0.226,0.146,0.354,0.146s0.256-0.049,0.354-0.146l2.23-2.229
	c2,1.84,4.626,2.998,7.523,3.119v0.487l-2.308,2.31c-0.195,0.195-0.195,0.513,0,0.707c0.098,0.099,0.226,0.146,0.354,0.146
	s0.256-0.049,0.354-0.146l1.601-1.602v1.248c0,0.275,0.224,0.5,0.5,0.5s0.5-0.225,0.5-0.5v-1.247l1.602,1.601
	c0.194,0.195,0.512,0.195,0.707,0c0.194-0.194,0.194-0.512,0-0.707l-2.312-2.307v-0.488c2.896-0.121,5.523-1.281,7.523-3.121
	l2.229,2.229c0.099,0.099,0.227,0.146,0.354,0.146s0.256-0.049,0.354-0.146c0.195-0.194,0.195-0.512,0-0.707l-2.229-2.229
	c1.84-2,2.998-4.625,3.12-7.521h0.489l2.308,2.305c0.098,0.098,0.226,0.146,0.354,0.146s0.256-0.049,0.354-0.146
	C40.548,27.608,40.548,27.293,40.354,27.099z M25.499,14.149c2.621,0.121,4.997,1.168,6.815,2.826l-0.646,0.646
	c-1.651-1.494-3.801-2.44-6.17-2.56V14.149z M33.237,24.5l-3.914-1.099l2.581-4.602l0.119-0.119
	c1.405,1.562,2.296,3.586,2.413,5.818L33.237,24.5L33.237,24.5z M34.432,25.606c-0.141,2.188-1.024,4.175-2.407,5.711l-0.688-0.688
	l-2.014-3.589L34.432,25.606z M25.499,15.562c2.231,0.117,4.256,1.008,5.817,2.412l-0.653,0.653l-3.917,2.199l-1.248-4.447
	L25.499,15.562L25.499,15.562z M24.499,14.149v0.912c-2.369,0.119-4.519,1.064-6.17,2.56l-0.645-0.646
	C19.502,15.317,21.878,14.271,24.499,14.149z M15.561,24.5c0.116-2.202,0.984-4.204,2.357-5.757l2.613,4.658L16.617,24.5H15.561z
	 M20.532,27.042l-2.197,3.913l-0.362,0.362c-1.374-1.526-2.257-3.496-2.405-5.67L20.532,27.042z M18.682,17.976
	c1.561-1.404,3.586-2.295,5.817-2.412v0.31l-1.391,4.955l-3.591-2.017L18.682,17.976z M16.977,17.685l0.645,0.645
	c-1.495,1.652-2.441,3.803-2.56,6.172H14.15C14.27,21.879,15.317,19.502,16.977,17.685z M16.976,32.315
	c-1.659-1.818-2.706-4.195-2.826-6.815h0.896l0.017,0.005c0.12,2.367,1.065,4.516,2.559,6.166L16.976,32.315z M24.499,35.851
	c-2.621-0.121-4.998-1.168-6.816-2.828l0.645-0.645c1.652,1.495,3.802,2.441,6.172,2.561L24.499,35.851L24.499,35.851z
	 M18.733,32.071l4.375-2.455l1.353,4.818C22.269,34.312,20.277,33.442,18.733,32.071z M24.928,32.397l-0.429-1.527l-0.771-2.748
	l-2.608,1.463l-1.268,0.712l1.098-1.955l1.077-1.919L18.744,25.5l-0.994-0.278l2.568-0.722l1.708-0.479l-1.646-2.934l-0.528-0.941
	l2.282,1.281l1.594,0.896l0.771-2.748l0.429-1.527l0.571,2.035l0.629,2.24l1.919-1.077l1.957-1.1l-0.711,1.268l-1.464,2.607
	l1.708,0.479l2.568,0.722L31.111,25.5l-3.283,0.923l0.896,1.594l1.279,2.28l-0.942-0.528l-2.934-1.646l-0.629,2.24L24.928,32.397z
	 M31.211,32.121c-1.546,1.351-3.53,2.201-5.712,2.315v-0.373l1.248-4.447L31.211,32.121z M25.499,35.851v-0.912
	c2.369-0.119,4.52-1.064,6.171-2.56l0.004,0.002l0.643,0.642C30.497,34.683,28.12,35.729,25.499,35.851z M33.022,32.315
	l-0.646-0.646c1.495-1.651,2.441-3.802,2.56-6.171h0.912C35.729,28.12,34.683,30.497,33.022,32.315z M34.938,24.5
	c-0.118-2.369-1.064-4.521-2.561-6.172l0.646-0.646c1.66,1.818,2.707,4.195,2.827,6.816L34.938,24.5L34.938,24.5z"/>
</svg>
