<?xml version="1.0" encoding="utf-8"?>
<!-- Generator: Adobe Illustrator 16.0.4, SVG Export Plug-In . SVG Version: 6.00 Build 0)  -->
<!DOCTYPE svg PUBLIC "-//W3C//DTD SVG 1.1//EN" "http://www.w3.org/Graphics/SVG/1.1/DTD/svg11.dtd">
<svg version="1.1" id="Layer_1" xmlns="http://www.w3.org/2000/svg" xmlns:xlink="http://www.w3.org/1999/xlink" x="0px" y="0px"
	 width="50px" height="50px" viewBox="0 0 50 50" enable-background="new 0 0 50 50" xml:space="preserve">
<path stroke="#ddddff" d="M40.943,22.153L40.943,22.153c-0.695,0.011-1.344,0.291-1.827,0.789c-0.413,0.425-0.651,0.968-0.709,1.548h-5.093
	l4.192-4.191c0.195-0.194,0.195-0.512,0-0.707c-0.194-0.194-0.512-0.194-0.707,0L31.9,24.49h-2.197l2.807-3.839l-4.726,0.515
	l1.1-1.905l6.689-1.792c0.267-0.071,0.425-0.346,0.354-0.612c-0.071-0.267-0.346-0.42-0.612-0.354l-5.725,1.534l2.552-4.418
	c0.333,0.15,0.687,0.25,1.053,0.25c0.91,0,1.766-0.485,2.233-1.266c0.733-1.229,0.33-2.828-0.899-3.565
	c-1.187-0.709-2.857-0.282-3.564,0.899c-0.354,0.596-0.458,1.295-0.287,1.969c0.109,0.438,0.337,0.824,0.639,1.143l-2.592,4.489
	l-1.535-5.728c-0.071-0.267-0.345-0.418-0.612-0.354c-0.267,0.071-0.425,0.346-0.354,0.612l1.793,6.692l-1.101,1.905l-1.918-4.352
	l-1.919,4.352l-1.099-1.904l1.793-6.689c0.072-0.268-0.087-0.54-0.354-0.612c-0.265-0.065-0.54,0.088-0.612,0.354l-1.534,5.725
	l-2.559-4.434c0.917-0.799,1.175-2.164,0.544-3.258c-0.689-1.193-2.349-1.646-3.55-0.949c-1.241,0.715-1.667,2.309-0.952,3.549
	c0.463,0.803,1.327,1.301,2.254,1.301c0.284,0,0.561-0.062,0.83-0.154l2.566,4.444l-5.724-1.534
	c-0.265-0.064-0.541,0.088-0.612,0.354c-0.071,0.269,0.087,0.541,0.354,0.613l6.69,1.792l1.1,1.906l-4.726-0.515l2.807,3.836h-2.2
	l-4.898-4.897c-0.195-0.194-0.512-0.194-0.707,0c-0.195,0.195-0.195,0.513,0,0.707l4.191,4.19h-5.186
	c-0.324-1.069-1.318-1.858-2.517-1.858c0,0,0,0-0.001,0c-1.431,0.021-2.579,1.205-2.559,2.64c0.021,1.41,1.187,2.559,2.598,2.559
	h0.04c1.33-0.02,2.402-1.045,2.534-2.338h5.091l-4.191,4.189c-0.195,0.195-0.195,0.512,0,0.707c0.098,0.098,0.226,0.146,0.354,0.146
	c0.128,0,0.256-0.049,0.354-0.146l4.898-4.896h2.201l-2.809,3.838l4.727-0.514l-1.098,1.901l-6.693,1.794
	c-0.267,0.072-0.425,0.346-0.354,0.613c0.072,0.268,0.348,0.422,0.612,0.354l5.728-1.535l-2.548,4.414
	c-1.16-0.506-2.636-0.07-3.291,1.023c-0.356,0.596-0.459,1.294-0.289,1.969c0.17,0.672,0.591,1.238,1.188,1.596
	c0.403,0.24,0.863,0.367,1.33,0.367c0.91,0,1.766-0.484,2.233-1.266c0.356-0.598,0.458-1.295,0.289-1.969
	c-0.111-0.438-0.337-0.824-0.639-1.145l2.592-4.488l1.534,5.723c0.06,0.223,0.262,0.37,0.482,0.37c0.043,0,0.086-0.007,0.13-0.017
	c0.267-0.072,0.425-0.347,0.354-0.613l-1.793-6.688l1.1-1.905L25,33.665l1.918-4.35l1.1,1.901l-1.793,6.688
	c-0.071,0.269,0.087,0.541,0.354,0.613c0.043,0.012,0.087,0.018,0.13,0.018c0.222,0,0.422-0.147,0.482-0.37l1.534-5.726l2.56,4.435
	c-0.917,0.8-1.175,2.163-0.544,3.257c0.463,0.803,1.327,1.3,2.253,1.3c0.454,0,0.903-0.12,1.297-0.349
	c0.603-0.348,1.032-0.907,1.211-1.578c0.181-0.671,0.088-1.372-0.259-1.973c-0.604-1.047-1.956-1.521-3.09-1.153L29.59,31.94
	l5.727,1.537c0.268,0.067,0.541-0.088,0.612-0.354c0.071-0.269-0.088-0.541-0.354-0.613l-6.692-1.794l-1.099-1.904l4.729,0.514
	l-2.81-3.836h2.202l4.895,4.898c0.099,0.098,0.227,0.146,0.354,0.146s0.256-0.049,0.354-0.146c0.195-0.195,0.195-0.512,0-0.707
	l-4.188-4.191h5.185c0.323,1.07,1.312,1.861,2.479,1.861h0.04c1.433-0.023,2.58-1.207,2.559-2.639
	C43.559,23.302,42.396,22.153,40.943,22.153z M31.647,11.661c-0.104-0.415-0.042-0.846,0.177-1.212
	C32.116,9.962,32.63,9.67,33.2,9.67c0.021,0,0.041,0.008,0.062,0.009c0.265,0.01,0.525,0.08,0.755,0.217
	c0.06,0.037,0.111,0.082,0.166,0.125c0.621,0.489,0.803,1.373,0.388,2.068c-0.39,0.65-1.23,0.93-1.933,0.674
	c-0.09-0.033-0.178-0.072-0.262-0.121c-0.218-0.131-0.393-0.312-0.524-0.521C31.764,11.979,31.689,11.828,31.647,11.661z
	 M15.624,11.946c-0.356-0.616-0.246-1.371,0.21-1.872c0.108-0.118,0.229-0.228,0.375-0.312c0.142-0.082,0.295-0.134,0.454-0.169
	c0.113-0.024,0.228-0.046,0.343-0.046c0.571,0,1.103,0.307,1.387,0.799c0.354,0.612,0.249,1.358-0.197,1.859
	c-0.111,0.125-0.236,0.236-0.388,0.325c-0.151,0.087-0.315,0.138-0.482,0.169C16.674,12.819,15.961,12.53,15.624,11.946z
	 M7.442,25.457c-0.01-0.065-0.022-0.133-0.023-0.202c-0.004-0.277,0.069-0.535,0.191-0.766c0.266-0.5,0.786-0.85,1.406-0.858
	c0.61,0,1.14,0.353,1.409,0.858c0.115,0.217,0.188,0.457,0.191,0.717c0.001,0.097-0.009,0.191-0.024,0.283
	c-0.124,0.748-0.767,1.326-1.551,1.339l-0.024,0.497v-0.497C8.218,26.828,7.556,26.229,7.442,25.457z M18.352,38.321
	c0.105,0.414,0.042,0.845-0.177,1.211c-0.292,0.486-0.807,0.777-1.375,0.777c-0.021,0-0.041-0.008-0.062-0.009
	c-0.265-0.01-0.525-0.079-0.755-0.217c-0.06-0.036-0.112-0.08-0.166-0.122c-0.277-0.218-0.478-0.514-0.565-0.859
	c-0.104-0.414-0.042-0.844,0.178-1.211c0.292-0.488,0.806-0.779,1.375-0.779c0.191,0,0.375,0.048,0.554,0.113
	c0.089,0.034,0.181,0.063,0.264,0.113c0.219,0.131,0.393,0.312,0.525,0.521C18.236,38.002,18.31,38.153,18.352,38.321z
	 M32.989,37.233c0.571,0,1.102,0.307,1.386,0.8c0.214,0.37,0.271,0.801,0.16,1.213c-0.068,0.253-0.199,0.476-0.371,0.662
	c-0.108,0.118-0.23,0.227-0.375,0.31c-0.142,0.082-0.295,0.131-0.451,0.162c-0.658,0.135-1.39-0.154-1.731-0.747
	c-0.354-0.61-0.249-1.356,0.196-1.858c0.11-0.125,0.236-0.237,0.389-0.325c0.148-0.087,0.312-0.138,0.478-0.173
	C32.774,37.255,32.881,37.233,32.989,37.233z M26.55,27.674l-0.251,0.569L25,31.187l-1.298-2.947l-0.25-0.566l-0.616,0.066
	l-3.201,0.349l1.902-2.599l0.365-0.498l-0.367-0.502l-1.901-2.598l3.2,0.348l0.615,0.066l0.25-0.566l1.3-2.946l1.298,2.946
	l0.25,0.568l0.616-0.068l3.2-0.348l-1.901,2.598l-0.367,0.502l0.365,0.498l1.902,2.599l-3.201-0.349L26.55,27.674z M39.572,25.49
	c-0.114-0.216-0.186-0.456-0.19-0.716c-0.001-0.096,0.009-0.19,0.023-0.284c0.052-0.319,0.198-0.614,0.428-0.853
	c0.297-0.307,0.696-0.479,1.152-0.484c0.795,0,1.457,0.6,1.57,1.369c0.01,0.067,0.022,0.136,0.023,0.205
	c0.004,0.275-0.069,0.533-0.188,0.763c-0.265,0.501-0.78,0.851-1.386,0.86l-0.023,0.496v-0.496
	C40.371,26.351,39.842,25.999,39.572,25.49z"/>
</svg>
