<?xml version="1.0" encoding="utf-8"?>
<!-- Generator: Adobe Illustrator 16.0.4, SVG Export Plug-In . SVG Version: 6.00 Build 0)  -->
<!DOCTYPE svg PUBLIC "-//W3C//DTD SVG 1.1//EN" "http://www.w3.org/Graphics/SVG/1.1/DTD/svg11.dtd">
<svg version="1.1" id="Layer_1" xmlns="http://www.w3.org/2000/svg" xmlns:xlink="http://www.w3.org/1999/xlink" x="0px" y="0px"
	 width="50px" height="50px" viewBox="0 0 50 50" enable-background="new 0 0 50 50" xml:space="preserve">
<path stroke="#ddddff" d="M36.441,31.947H33.5l-2.205-2.205h4.41c0.414,0,0.75-0.336,0.75-0.75s-0.336-0.75-0.75-0.75h-4.779
	c0.529-0.963,0.832-2.067,0.832-3.242c0-1.585-0.553-3.042-1.471-4.195h5.832c0.414,0,0.75-0.336,0.75-0.75s-0.336-0.75-0.75-0.75
	h-4.654l1.25-1.25h3.551c0.414,0,0.75-0.337,0.75-0.75c0-0.414-0.336-0.75-0.75-0.75h-2.051l2.021-2.021
	c0.293-0.293,0.293-0.768,0-1.061s-0.768-0.293-1.061,0l-1.906,1.906v-1.82c0-0.414-0.336-0.75-0.75-0.75s-0.75,0.336-0.75,0.75
	v3.32l-1.365,1.365l0.002-4.652c0-0.414-0.336-0.75-0.75-0.75s-0.75,0.336-0.75,0.75l-0.002,5.902
	c-1.105-0.785-2.449-1.252-3.905-1.252c-1.295,0-2.502,0.373-3.531,1.007v-5.244c0-0.414-0.336-0.75-0.75-0.75
	s-0.75,0.336-0.75,0.75v4.411l-1.738-1.738v-2.943c0-0.414-0.336-0.75-0.75-0.75s-0.75,0.336-0.75,0.75v1.443l-1.705-1.705
	c-0.293-0.293-0.769-0.293-1.062,0s-0.293,0.768,0,1.061l2.197,2.197h-2.425c-0.414,0-0.75,0.336-0.75,0.75s0.336,0.75,0.75,0.75
	h3.925l1.246,1.246h-4.409c-0.414,0-0.75,0.336-0.75,0.75s0.336,0.75,0.75,0.75h5.086c-0.839,1.125-1.342,2.516-1.342,4.023
	c0,1.245,0.345,2.409,0.935,3.412h-5.091c-0.414,0-0.75,0.336-0.75,0.75s0.336,0.75,0.75,0.75h4.65l-1.857,1.857h-3.32
	c-0.414,0-0.75,0.336-0.75,0.75s0.336,0.75,0.75,0.75h1.82l-1.415,1.414c-0.293,0.293-0.293,0.769,0,1.062
	c0.146,0.146,0.338,0.22,0.53,0.22c0.191,0,0.384-0.072,0.529-0.22l1.531-1.53v2.051c0,0.414,0.336,0.75,0.75,0.75
	c0.413,0,0.75-0.336,0.75-0.75v-3.551l1.741-1.742v4.652c0,0.414,0.336,0.75,0.75,0.75s0.75-0.336,0.75-0.75v-4.979
	c1.063,0.699,2.336,1.11,3.703,1.11c1.38,0,2.664-0.418,3.734-1.131v4.586c0,0.414,0.336,0.75,0.75,0.75s0.75-0.336,0.75-0.75v-4.41
	l1.713,1.714v3.926c0,0.414,0.336,0.75,0.75,0.75s0.75-0.336,0.75-0.75v-2.426l1.729,1.729c0.146,0.146,0.34,0.22,0.531,0.22
	s0.383-0.073,0.529-0.22c0.293-0.293,0.293-0.768,0-1.061l-1.236-1.238h1.441c0.414,0,0.75-0.336,0.75-0.75
	C37.189,32.282,36.855,31.947,36.441,31.947z M25,30.258c-1.254,0-2.391-0.459-3.295-1.193c-0.137-0.11-0.283-0.213-0.408-0.338
	c-0.098-0.096-0.175-0.211-0.264-0.313c-0.123-0.144-0.254-0.28-0.36-0.437c-0.585-0.848-0.931-1.871-0.931-2.977
	c0-1.305,0.494-2.484,1.283-3.404c0.328-0.383,0.697-0.726,1.121-1c0.824-0.535,1.801-0.854,2.854-0.854
	c1.106,0,2.129,0.346,2.977,0.931c0.414,0.286,0.77,0.644,1.088,1.032c0.734,0.904,1.193,2.041,1.193,3.295
	c0,1.053-0.318,2.029-0.854,2.854c-0.09,0.138-0.195,0.261-0.297,0.39c-0.121,0.153-0.236,0.313-0.373,0.452
	c-0.104,0.103-0.221,0.185-0.33,0.279C27.484,29.764,26.305,30.258,25,30.258z M25.852,36.484v3.695c0,0.413-0.336,0.75-0.75,0.75
	c-0.414,0-0.75-0.337-0.75-0.75v-3.695c0-0.414,0.336-0.75,0.75-0.75C25.516,35.734,25.852,36.07,25.852,36.484z M13.517,25.65
	H9.823c-0.414,0-0.75-0.336-0.75-0.75s0.336-0.75,0.75-0.75h3.694c0.414,0,0.75,0.336,0.75,0.75S13.931,25.65,13.517,25.65z
	 M24.152,13.514l0.002-3.693c0-0.413,0.336-0.75,0.75-0.75s0.75,0.337,0.75,0.75l-0.002,3.693c0,0.414-0.336,0.75-0.75,0.75
	C24.486,14.264,24.152,13.928,24.152,13.514z M40.928,25.105c0,0.414-0.336,0.75-0.75,0.75l-3.695-0.002
	c-0.414,0-0.75-0.336-0.75-0.75s0.336-0.75,0.75-0.75l3.695,0.002C40.592,24.355,40.928,24.691,40.928,25.105z"/>
</svg>
