<?xml version="1.0" encoding="utf-8"?>
<!-- Generator: Adobe Illustrator 16.0.4, SVG Export Plug-In . SVG Version: 6.00 Build 0)  -->
<!DOCTYPE svg PUBLIC "-//W3C//DTD SVG 1.1//EN" "http://www.w3.org/Graphics/SVG/1.1/DTD/svg11.dtd">
<svg version="1.1" id="Layer_1" xmlns="http://www.w3.org/2000/svg" xmlns:xlink="http://www.w3.org/1999/xlink" x="0px" y="0px"
	 width="50px" height="50px" viewBox="0 0 50 50" enable-background="new 0 0 50 50" xml:space="preserve">
<path stroke="#ddddff" d="M39.491,31.139l1.192,0.689l-1.929,3.342l-1.19-0.688l-3.051,0.814l-0.816-3.049l-0.334-0.191l0.506,1.889
	c0.07,0.267-0.087,0.539-0.354,0.611c-0.267,0.065-0.541-0.086-0.613-0.354l-1.131-4.221l2.783,1.607l0.666,2.482l1.803-0.481
	l-0.166-0.667l1.531,0.879l0.93-1.609l-1.66-0.959l0.781-0.156l-0.473-1.764l-2.482,0.668l-2.782-1.608l4.218-1.13
	c0.268-0.062,0.541,0.087,0.612,0.354c0.071,0.268-0.087,0.541-0.354,0.612l-1.887,0.505l0.333,0.192l3.048-0.817L39.491,31.139z
	 M25.93,19.271l5.629-5.631l-2.06,7.688l-3.569,2.062V19.271z M26.93,21.658l1.711-0.986l0.986-3.684l-2.697,2.697V21.658z
	 M21.69,12.85c-0.195-0.195-0.512-0.195-0.707,0c-0.195,0.194-0.195,0.512,0,0.707l3.089,3.088v-3.213l-1.818-1.816l1.313-1.314
	l0.505,0.506V9.006h1.858l0.004,1.795l0.5-0.5l1.313,1.314l-1.817,1.816v3.213l3.088-3.088c0.195-0.195,0.195-0.513,0-0.707
	c-0.194-0.195-0.512-0.195-0.707,0L26.93,14.23v-0.385l2.231-2.23L26.93,9.382V8.006h-3.857v1.376l-2.232,2.233l2.232,2.23v0.385
	L21.69,12.85z M30.427,22.941l7.688,2.06l-7.69,2.06l-3.565-2.06L30.427,22.941z M30.568,24.014l-1.709,0.987l1.709,0.985
	l3.683-0.985L30.568,24.014z M35.221,15.93l1.907,0.51v0.487l1.263-0.729l0.928,1.609l-1.58,0.916l0.709,0.176l-0.479,1.789
	l-2.485-0.666l-2.781,1.604l4.22,1.131c0.043,0.011,0.087,0.017,0.13,0.017c0.221,0,0.422-0.146,0.482-0.369
	c0.07-0.268-0.088-0.541-0.354-0.613l-1.888-0.506l0.332-0.191l3.051,0.818l0.817-3.053l1.19-0.686l-1.929-3.344l-1.192,0.689
	l-3.048-0.818l-0.817,3.05l-0.332,0.19l0.505-1.885c0.071-0.269-0.087-0.541-0.354-0.613c-0.264-0.063-0.541,0.088-0.611,0.354
	l-1.131,4.221l2.781-1.607L35.221,15.93z M14.781,34.072l-1.803-0.481l0.168-0.675l-1.534,0.887l-0.929-1.609l1.655-0.961
	l-0.776-0.154l0.472-1.764l2.483,0.668l2.782-1.608l-4.218-1.13c-0.265-0.062-0.541,0.088-0.612,0.354
	c-0.071,0.266,0.087,0.541,0.354,0.612l1.887,0.505l-0.333,0.192l-3.048-0.817l-0.816,3.049l-1.192,0.689l1.928,3.342l1.19-0.688
	l3.051,0.814l0.817-3.049l0.333-0.191l-0.506,1.887c-0.072,0.268,0.086,0.541,0.354,0.613c0.265,0.072,0.541-0.086,0.612-0.354
	l1.132-4.219l-2.783,1.604L14.781,34.072z M24.072,30.729l-5.629,5.631l2.062-7.688l3.568-2.062L24.072,30.729L24.072,30.729z
	 M23.072,28.342l-1.709,0.986l-0.987,3.684l2.697-2.697v-1.973H23.072z M28.312,37.152c0.194,0.195,0.512,0.195,0.707,0
	c0.194-0.194,0.194-0.512,0-0.707l-3.09-3.088v3.211l1.818,1.818L26.436,39.7l-0.506-0.505v1.799h-1.857L24.068,39.2l-0.5,0.5
	l-1.313-1.313l1.818-1.818v-3.213l-3.089,3.09c-0.195,0.195-0.195,0.512,0,0.707s0.512,0.195,0.707,0l1.382-1.383v0.386
	l-2.232,2.231l2.232,2.232v1.375h3.857v-1.375l2.232-2.232l-2.232-2.231v-0.384L28.312,37.152z M11.326,21.912l3.051-0.818
	l0.332,0.191l-1.888,0.506c-0.267,0.072-0.425,0.346-0.354,0.613c0.06,0.223,0.262,0.369,0.482,0.369
	c0.043,0,0.086-0.006,0.13-0.017l4.22-1.131l-2.781-1.604l-2.486,0.666l-0.479-1.789l0.717-0.178l-1.587-0.914l0.929-1.608
	l1.261,0.724v-0.482l1.906-0.512l0.667,2.482l2.782,1.609l-1.131-4.223c-0.071-0.266-0.345-0.418-0.612-0.354
	c-0.267,0.072-0.425,0.346-0.354,0.613l0.505,1.885l-0.332-0.19l-0.818-3.049l-3.048,0.817l-1.192-0.689l-1.929,3.344l1.191,0.686
	L11.326,21.912z M29.497,28.67l2.06,7.686l-5.627-5.627v-4.119L29.497,28.67z M29.624,33.01l-0.985-3.682l-1.709-0.986v1.973
	L29.624,33.01z M19.576,22.941l3.567,2.06l-3.567,2.06l-7.689-2.06L19.576,22.941z M21.143,25.001l-1.708-0.987l-3.682,0.987
	l3.682,0.985L21.143,25.001z M20.504,21.331l-2.062-7.688l5.629,5.631v4.119L20.504,21.331z M20.376,16.989l0.987,3.684l1.709,0.986
	v-1.974L20.376,16.989z"/>
</svg>
