<?xml version="1.0" encoding="utf-8"?>
<!-- Generator: Adobe Illustrator 16.0.4, SVG Export Plug-In . SVG Version: 6.00 Build 0)  -->
<!DOCTYPE svg PUBLIC "-//W3C//DTD SVG 1.1//EN" "http://www.w3.org/Graphics/SVG/1.1/DTD/svg11.dtd">
<svg version="1.1" id="Layer_1" xmlns="http://www.w3.org/2000/svg" xmlns:xlink="http://www.w3.org/1999/xlink" x="0px" y="0px"
	 width="50px" height="50px" viewBox="0 0 50 50" enable-background="new 0 0 50 50" xml:space="preserve">
<path stroke="#ddddff" d="M43.784,24.749l-1.18-2.041c-0.089-0.154-0.254-0.25-0.433-0.25h-2.357c-0.178,0-0.343,0.096-0.433,0.25l-1.033,1.791
	h-5.037l4.194-4.191c0.195-0.195,0.195-0.512,0-0.707s-0.512-0.195-0.707,0l-4.901,4.898h-2.194l2.807-3.836l-4.727,0.514
	l1.101-1.906l6.69-1.793c0.267-0.072,0.425-0.346,0.354-0.613c-0.071-0.266-0.344-0.418-0.612-0.354l-5.724,1.535l2.515-4.355
	l0.81-0.002l0.148,0.002c0.002,0,0.005,0,0.008,0l1.104-0.002c0.178,0,0.343-0.096,0.432-0.25l1.182-2.041
	c0.089-0.153,0.089-0.346,0-0.5l-1.182-2.041c-0.089-0.153-0.254-0.25-0.433-0.25h-2.356c-0.179,0-0.344,0.097-0.433,0.25
	l-1.178,2.041c-0.09,0.154-0.09,0.347,0,0.5l1.034,1.791l-2.517,4.359l-1.534-5.729c-0.07-0.269-0.344-0.418-0.611-0.354
	c-0.268,0.072-0.425,0.347-0.354,0.611l1.792,6.694l-1.099,1.904L25,16.325l-1.919,4.35l-1.1-1.906l1.793-6.688
	c0.072-0.268-0.087-0.541-0.354-0.613c-0.264-0.064-0.541,0.088-0.612,0.354l-1.534,5.724l-2.517-4.358l1.034-1.789
	c0.089-0.154,0.089-0.345,0-0.5l-1.178-2.041c-0.089-0.154-0.254-0.25-0.432-0.25h-2.358c-0.179,0-0.344,0.096-0.433,0.25
	l-1.179,2.043c-0.089,0.153-0.088,0.344,0,0.498l1.179,2.041c0.089,0.153,0.254,0.25,0.433,0.25h1.104c0.001,0,0.002,0,0.003,0
	l0.961-0.002l2.517,4.36l-5.725-1.535c-0.267-0.063-0.541,0.089-0.612,0.354c-0.071,0.268,0.087,0.541,0.354,0.613l6.691,1.793
	l1.101,1.905l-4.727-0.514l2.807,3.834h-2.2L13.2,19.601c-0.195-0.195-0.512-0.195-0.707,0c-0.195,0.194-0.195,0.512,0,0.706
	l4.191,4.191H11.65l-1.034-1.791c-0.089-0.154-0.254-0.25-0.433-0.25H7.828c-0.178,0-0.343,0.096-0.433,0.25l-1.179,2.041
	c-0.089,0.155-0.089,0.346,0,0.5l1.178,2.041c0.089,0.153,0.254,0.25,0.433,0.25l1.248,0.002c0.002,0,0.005,0,0.007,0l1.104-0.002
	c0.178,0,0.343-0.097,0.432-0.25l1.033-1.791h5.032l-4.19,4.19c-0.195,0.195-0.195,0.512,0,0.707
	c0.098,0.099,0.226,0.146,0.354,0.146s0.256-0.049,0.354-0.146l4.897-4.897h2.202l-2.81,3.84l4.726-0.515l-1.098,1.9l-6.692,1.795
	c-0.267,0.072-0.425,0.346-0.354,0.613c0.072,0.266,0.346,0.42,0.612,0.354l5.727-1.537l-2.518,4.361l-0.966-0.002l-1.104,0.004
	c-0.178,0.002-0.342,0.096-0.431,0.25l-1.178,2.039c-0.09,0.154-0.09,0.346,0,0.5l1.179,2.041c0.089,0.154,0.254,0.25,0.433,0.25
	l1.247,0.002c0.002,0,0.005,0,0.007,0l1.104-0.002c0.178,0,0.343-0.096,0.432-0.25l1.178-2.041c0.089-0.154,0.089-0.346,0-0.5
	L18.76,36.81l2.517-4.359l1.536,5.726c0.06,0.224,0.262,0.369,0.482,0.369c0.043,0,0.086-0.006,0.13-0.017
	c0.267-0.071,0.425-0.348,0.354-0.612l-1.794-6.688l1.101-1.904l1.919,4.352l1.919-4.35l1.098,1.9l-1.793,6.69
	c-0.07,0.269,0.087,0.541,0.354,0.612c0.043,0.011,0.087,0.017,0.13,0.017c0.221,0,0.422-0.146,0.481-0.369l1.534-5.728l2.519,4.361
	l-1.036,1.791c-0.089,0.156-0.089,0.346,0,0.5l1.179,2.041c0.089,0.154,0.254,0.25,0.433,0.25l1.104,0.002c0.002,0,0.005,0,0.007,0
	l1.247-0.002c0.179,0,0.344-0.096,0.434-0.25l1.179-2.041c0.089-0.154,0.089-0.346,0-0.5l-1.179-2.041
	c-0.09-0.154-0.255-0.25-0.434-0.25h-2.066l-2.519-4.359l5.725,1.535c0.271,0.066,0.541-0.088,0.612-0.354
	c0.072-0.268-0.087-0.541-0.354-0.613l-6.691-1.793l-1.099-1.904l4.727,0.515l-2.81-3.838h2.201l4.896,4.897
	c0.098,0.099,0.226,0.146,0.354,0.146c0.128,0,0.256-0.049,0.354-0.146c0.195-0.195,0.195-0.512,0-0.707l-4.189-4.19h5.033
	l1.035,1.793c0.089,0.153,0.254,0.25,0.434,0.25h2.356c0.179,0,0.344-0.097,0.433-0.25l1.179-2.043
	C43.873,25.095,43.873,24.903,43.784,24.749z M31.215,11.147l0.89-1.541h1.227h0.553l0.277,0.479l0.614,1.062l-0.892,1.543h-0.812
	l-0.153-0.002h-0.236l-0.577,0.002l-0.289-0.502L31.215,11.147z M16.109,9.606l0.553-0.002h0.41l0.816,0.002l0.89,1.541
	l-0.601,1.039l-0.289,0.5l-0.577,0.002h-1.202l-0.89-1.541l0.614-1.062L16.109,9.606z M7.223,24.999L7.5,24.521l0.613-1.062h1.78
	l0.601,1.041l0.288,0.5l-0.288,0.5l-0.601,1.043L8.112,26.54l-0.613-1.061L7.223,24.999z M18.779,38.853l-0.889,1.543l-1.238-0.002
	h-0.542l-0.277-0.479l-0.613-1.061l0.89-1.541l1.201-0.002h0.578l0.289,0.5L18.779,38.853z M33.885,40.394l-0.542,0.002h-0.425
	h-0.812l-0.891-1.543l0.603-1.041l0.289-0.5h0.578h1.202l0.89,1.541l-0.612,1.062L33.885,40.394z M26.549,27.685l-0.251,0.568
	l-1.3,2.943l-1.299-2.947l-0.25-0.566l-0.618,0.068l-3.199,0.348l1.902-2.6l0.365-0.498l-0.367-0.502l-1.9-2.596l3.201,0.348
	l0.614,0.066l0.251-0.568l1.3-2.945l1.299,2.945l0.251,0.568l0.614-0.066l3.202-0.348l-1.9,2.596l-0.367,0.502l0.365,0.498
	l1.902,2.6l-3.2-0.348L26.549,27.685z M39.214,25.001l0.289-0.502l0.6-1.041h1.781l0.613,1.062l0.275,0.479l-0.274,0.479
	l-0.613,1.064h-1.78l-0.602-1.043L39.214,25.001z"/>
</svg>
