<?xml version="1.0" encoding="utf-8"?>
<!-- Generator: Adobe Illustrator 16.0.4, SVG Export Plug-In . SVG Version: 6.00 Build 0)  -->
<!DOCTYPE svg PUBLIC "-//W3C//DTD SVG 1.1//EN" "http://www.w3.org/Graphics/SVG/1.1/DTD/svg11.dtd">
<svg version="1.1" id="Layer_1" xmlns="http://www.w3.org/2000/svg" xmlns:xlink="http://www.w3.org/1999/xlink" x="0px" y="0px"
	 width="50px" height="50px" viewBox="0 0 50 50" enable-background="new 0 0 50 50" xml:space="preserve">
<path stroke="#ddddff" d="M37.695,31.752l-5.244-3.027l5.726-1.533c0.267-0.071,0.425-0.346,0.354-0.612c-0.071-0.266-0.344-0.425-0.612-0.354
	l-6.424,1.721l-2.157-2.947l2.157-2.946l6.423,1.723c0.043,0.012,0.087,0.017,0.13,0.017c0.222,0,0.423-0.146,0.482-0.371
	c0.071-0.267-0.087-0.541-0.354-0.611l-5.723-1.536l5.24-3.025l1.728,0.997l2.228-1.285l-0.002-2.569l-2.225-1.286l-2.227,1.285
	v1.991l-5.244,3.028l1.535-5.727c0.07-0.268-0.088-0.541-0.354-0.612c-0.267-0.072-0.541,0.086-0.612,0.354l-1.722,6.426
	l-3.63,0.395L25.693,17.9l4.703-4.702c0.195-0.195,0.195-0.512,0-0.707c-0.194-0.195-0.512-0.195-0.707,0l-4.188,4.189v-6.05
	l1.726-0.996v-2.57l-2.226-1.285l-2.228,1.285l0.002,2.569l1.726,0.996v6.055l-4.193-4.193c-0.195-0.195-0.512-0.195-0.707,0
	s-0.195,0.512,0,0.707l4.705,4.705l-1.474,3.342l-3.631-0.395l-1.721-6.424c-0.071-0.267-0.345-0.425-0.612-0.354
	c-0.267,0.071-0.425,0.346-0.354,0.612l1.533,5.724l-5.241-3.026l-0.001-1.992l-2.227-1.286l-2.226,1.286v2.569l2.226,1.285
	l1.727-0.997l5.242,3.026l-5.725,1.534c-0.267,0.07-0.425,0.346-0.354,0.611c0.06,0.225,0.262,0.371,0.482,0.371
	c0.043,0,0.086-0.005,0.13-0.017l6.424-1.722l2.157,2.946l-2.158,2.948l-6.425-1.722c-0.266-0.071-0.54,0.086-0.612,0.354
	c-0.071,0.268,0.087,0.541,0.354,0.612l5.726,1.535l-5.242,3.025l-1.726-0.996L8.351,32.04l0.001,2.571l2.226,1.285l2.227-1.285
	v-1.993l5.239-3.025l-1.534,5.724c-0.071,0.267,0.087,0.541,0.354,0.612c0.043,0.012,0.087,0.017,0.13,0.017
	c0.221,0,0.422-0.147,0.482-0.371l1.722-6.424l3.633-0.396l1.473,3.341L19.6,36.8c-0.195,0.195-0.195,0.513,0,0.707
	c0.098,0.099,0.226,0.146,0.354,0.146s0.256-0.049,0.354-0.146l4.192-4.193v6.057l-1.726,0.995l0.001,2.572l2.227,1.283l2.227-1.285
	v-2.569L25.5,39.369v-6.051l4.189,4.188c0.195,0.195,0.513,0.195,0.707,0c0.195-0.194,0.195-0.512,0-0.707L25.693,32.1l1.475-3.344
	l3.63,0.396l1.722,6.424c0.061,0.224,0.263,0.371,0.482,0.371c0.043,0,0.086-0.005,0.13-0.017c0.267-0.071,0.425-0.347,0.354-0.612
	l-1.534-5.726l5.245,3.028v1.992l2.226,1.286l2.226-1.286v-2.57l-2.226-1.285L37.695,31.752z M25.5,30.06L25,31.194l-0.5-1.134
	l-1.049-2.379l-2.583,0.28l-1.234,0.135l0.731-0.999l1.537-2.1L20.367,22.9l-0.732-1l1.232,0.134l2.585,0.281l1.049-2.38l0.5-1.134
	l0.5,1.137l1.048,2.377l2.586-0.282l1.231-0.134L29.633,22.9l-1.535,2.097l1.536,2.099l0.732,1l-1.233-0.135l-2.584-0.28L25.5,30.06
	z"/>
</svg>
