<?xml version="1.0" encoding="utf-8"?>
<!-- Generator: Adobe Illustrator 16.0.4, SVG Export Plug-In . SVG Version: 6.00 Build 0)  -->
<!DOCTYPE svg PUBLIC "-//W3C//DTD SVG 1.1//EN" "http://www.w3.org/Graphics/SVG/1.1/DTD/svg11.dtd">
<svg version="1.1" id="Layer_1" xmlns="http://www.w3.org/2000/svg" xmlns:xlink="http://www.w3.org/1999/xlink" x="0px" y="0px"
	 width="50px" height="50px" viewBox="0 0 50 50" enable-background="new 0 0 50 50" xml:space="preserve">
<path stroke="#ddddff" d="M40,24.5h-1.729l-1.532-1.531c-0.195-0.195-0.513-0.195-0.707,0c-0.195,0.195-0.195,0.512,0,0.707l0.825,0.824h-0.51
	l-1.906-1.906c-0.195-0.195-0.512-0.195-0.707,0s-0.195,0.512,0,0.707l1.199,1.199h-8.726l9.752-9.753
	c0.194-0.195,0.194-0.513,0-0.707s-0.512-0.194-0.707,0L25.5,23.793v-8.725l1.198,1.199c0.194,0.194,0.512,0.194,0.706,0
	c0.195-0.195,0.195-0.513,0-0.707L25.5,13.654v-0.51l0.823,0.821c0.194,0.195,0.512,0.195,0.708,0c0.195-0.194,0.195-0.512,0-0.707
	L25.5,11.73V10c0-0.275-0.224-0.5-0.5-0.5s-0.5,0.225-0.5,0.5v1.729l-1.53,1.53c-0.195,0.195-0.195,0.513,0,0.707
	c0.098,0.099,0.226,0.146,0.354,0.146c0.128,0,0.256-0.049,0.354-0.146l0.822-0.821v0.51l-1.905,1.906
	c-0.195,0.195-0.195,0.513,0,0.707c0.098,0.099,0.226,0.146,0.354,0.146c0.128,0,0.256-0.049,0.354-0.146l1.197-1.199v8.725
	l-9.753-9.753c-0.195-0.194-0.512-0.194-0.707,0s-0.195,0.512,0,0.707l9.752,9.753h-8.723l1.197-1.197
	c0.195-0.195,0.195-0.512,0-0.707c-0.195-0.195-0.512-0.195-0.707,0L13.655,24.5h-0.509l0.822-0.822
	c0.195-0.195,0.195-0.512,0-0.707c-0.195-0.195-0.512-0.195-0.707,0l-1.53,1.529H10c-0.276,0-0.5,0.225-0.5,0.5s0.224,0.5,0.5,0.5
	h1.728l1.533,1.531c0.098,0.098,0.226,0.146,0.354,0.146c0.128,0,0.256-0.049,0.354-0.146c0.195-0.195,0.195-0.512,0-0.707
	L13.143,25.5h0.509l1.908,1.906c0.098,0.098,0.226,0.146,0.354,0.146s0.256-0.049,0.354-0.146c0.195-0.195,0.195-0.512,0-0.707
	l-1.2-1.199h8.727l-9.753,9.754c-0.195,0.195-0.195,0.512,0,0.707c0.098,0.098,0.226,0.146,0.354,0.146s0.256-0.049,0.354-0.146
	l9.75-9.753v8.724l-1.198-1.199c-0.195-0.194-0.512-0.194-0.707,0c-0.195,0.195-0.195,0.513,0,0.707l1.905,1.906v0.51l-0.823-0.821
	c-0.195-0.195-0.512-0.195-0.708,0c-0.195,0.194-0.195,0.512,0,0.707L24.5,38.27V40c0,0.275,0.224,0.5,0.5,0.5s0.5-0.225,0.5-0.5
	v-1.729l1.529-1.53c0.195-0.195,0.195-0.513,0-0.707c-0.194-0.195-0.512-0.195-0.706,0L25.5,36.855v-0.51l1.904-1.906
	c0.195-0.195,0.195-0.513,0-0.707c-0.194-0.195-0.512-0.195-0.706,0L25.5,34.932v-8.724l9.753,9.753
	c0.099,0.098,0.226,0.146,0.354,0.146c0.127,0,0.256-0.049,0.354-0.146c0.195-0.195,0.195-0.512,0-0.707L26.207,25.5h8.725
	l-1.197,1.197c-0.195,0.195-0.195,0.512,0,0.707c0.098,0.098,0.226,0.146,0.354,0.146s0.256-0.049,0.354-0.146l1.904-1.904h0.51
	l-0.823,0.822c-0.195,0.195-0.195,0.512,0,0.707c0.098,0.098,0.226,0.146,0.354,0.146s0.257-0.049,0.354-0.146L38.27,25.5H40
	c0.275,0,0.5-0.225,0.5-0.5S40.275,24.5,40,24.5z"/>
</svg>
