<?xml version="1.0" encoding="utf-8"?>
<!-- Generator: Adobe Illustrator 16.0.4, SVG Export Plug-In . SVG Version: 6.00 Build 0)  -->
<!DOCTYPE svg PUBLIC "-//W3C//DTD SVG 1.1//EN" "http://www.w3.org/Graphics/SVG/1.1/DTD/svg11.dtd">
<svg version="1.1" id="Layer_1" xmlns="http://www.w3.org/2000/svg" xmlns:xlink="http://www.w3.org/1999/xlink" x="0px" y="0px"
	 width="50px" height="50px" viewBox="0 0 50 50" enable-background="new 0 0 50 50" xml:space="preserve">
<path stroke="#ddddff" d="M41.643,31.815c0-0.269-0.145-0.516-0.375-0.648l-2.041-1.18c-0.232-0.135-0.519-0.135-0.75,0l-1.666,0.963l-0.905-0.521
	l1.036-0.6c0.358-0.207,0.481-0.666,0.274-1.023c-0.206-0.357-0.663-0.483-1.024-0.274l-1.786,1.03l-1.271-0.733l3.449-1.992
	c0.357-0.207,0.48-0.666,0.273-1.024c-0.207-0.356-0.664-0.482-1.023-0.273l-3.998,2.309c0.367-0.877,0.571-1.839,0.571-2.847
	c0-1.008-0.204-1.97-0.57-2.848l3.998,2.31c0.118,0.068,0.247,0.101,0.374,0.101c0.26,0,0.512-0.135,0.65-0.375
	c0.207-0.357,0.084-0.816-0.274-1.023l-3.453-1.993l1.272-0.733l1.787,1.031c0.119,0.068,0.248,0.102,0.375,0.102
	c0.26,0,0.512-0.135,0.649-0.375c0.207-0.358,0.084-0.817-0.274-1.024l-1.037-0.6l0.902-0.521l1.666,0.962
	c0.116,0.067,0.246,0.102,0.377,0.102c0.129,0,0.258-0.033,0.375-0.102l2.043-1.178c0.231-0.134,0.375-0.382,0.375-0.648
	l-0.002-1.254l0.002-1.104c0-0.269-0.144-0.517-0.375-0.649l-2.043-1.179c-0.232-0.135-0.52-0.135-0.752,0l-2.037,1.177
	c-0.233,0.135-0.377,0.383-0.377,0.65v1.926l-0.904,0.521v-1.198c0-0.414-0.336-0.75-0.75-0.75c-0.413,0-0.75,0.336-0.75,0.75v2.063
	l-1.271,0.734v-3.984c0-0.414-0.336-0.75-0.75-0.75c-0.413,0-0.75,0.336-0.75,0.75v4.631c-1.173-1.535-2.929-2.6-4.938-2.857
	l4.006-2.312c0.357-0.207,0.48-0.666,0.273-1.023c-0.205-0.357-0.664-0.482-1.023-0.273l-3.452,1.991v-1.468l1.789-1.034
	c0.358-0.208,0.479-0.666,0.272-1.024c-0.207-0.357-0.662-0.482-1.024-0.273l-1.037,0.602v-1.049l1.666-0.961
	c0.231-0.134,0.375-0.382,0.375-0.648V7.831c0-0.269-0.144-0.515-0.374-0.647l-2.042-1.181c-0.231-0.135-0.519-0.135-0.749,0
	l-2.044,1.179c-0.231,0.135-0.374,0.383-0.374,0.649v2.356c0,0.268,0.143,0.516,0.375,0.648l1.667,0.961v1.047l-1.035-0.6
	c-0.36-0.209-0.817-0.085-1.024,0.273s-0.084,0.817,0.274,1.024l1.785,1.032v1.468L20.8,14.052c-0.36-0.209-0.817-0.084-1.024,0.273
	c-0.207,0.359-0.084,0.816,0.274,1.023l4.005,2.312c-2.01,0.257-3.766,1.32-4.938,2.857l-0.001-4.631c0-0.414-0.336-0.75-0.75-0.75
	s-0.75,0.336-0.75,0.75l0.001,3.984l-1.272-0.734v-2.063c0-0.414-0.337-0.75-0.75-0.75c-0.414,0-0.75,0.336-0.75,0.75v1.196
	l-0.904-0.521l0.002-0.821l-0.002-1.104c0-0.269-0.145-0.515-0.375-0.647l-2.041-1.179c-0.23-0.134-0.519-0.136-0.75,0l-2.041,1.179
	C8.5,15.31,8.357,15.558,8.357,15.826v2.357c0,0.269,0.144,0.516,0.375,0.648l2.041,1.18c0.115,0.067,0.244,0.102,0.375,0.102
	c0.129,0,0.259-0.033,0.375-0.102l1.666-0.963l0.904,0.522l-1.037,0.6c-0.358,0.207-0.48,0.666-0.273,1.024
	c0.139,0.24,0.391,0.375,0.65,0.375c0.127,0,0.256-0.032,0.373-0.102l1.787-1.031l1.273,0.734l-3.452,1.992
	c-0.358,0.207-0.481,0.666-0.274,1.023c0.14,0.24,0.392,0.375,0.65,0.375c0.127,0,0.256-0.031,0.374-0.101l3.997-2.308
	c-0.366,0.877-0.57,1.838-0.57,2.846c0,1.008,0.204,1.97,0.571,2.847l-3.997-2.309c-0.359-0.208-0.818-0.083-1.023,0.273
	c-0.207,0.358-0.084,0.817,0.273,1.024l3.45,1.992l-1.271,0.733l-1.789-1.03c-0.358-0.209-0.817-0.083-1.023,0.274
	c-0.207,0.358-0.084,0.816,0.273,1.023l1.037,0.6l-0.906,0.522l-1.668-0.962c-0.231-0.133-0.517-0.133-0.748,0.001l-2.039,1.176
	c-0.231,0.134-0.375,0.381-0.375,0.649l-0.002,1.113l0.002,0.141l-0.002,1.104c0,0.27,0.143,0.518,0.375,0.65l2.043,1.18
	c0.115,0.067,0.244,0.102,0.375,0.102c0.129,0,0.26-0.033,0.375-0.102l2.039-1.18c0.232-0.135,0.375-0.383,0.375-0.649v-1.253V32.25
	l0.908-0.524v1.201c0,0.413,0.336,0.75,0.75,0.75c0.413,0,0.75-0.337,0.75-0.75V30.86l1.271-0.733v3.985
	c0,0.414,0.336,0.75,0.75,0.75c0.413,0,0.75-0.336,0.75-0.75v-4.631c1.174,1.535,2.93,2.601,4.938,2.856l-4.005,2.312
	c-0.358,0.207-0.481,0.666-0.274,1.024c0.14,0.24,0.392,0.375,0.65,0.375c0.127,0,0.256-0.032,0.374-0.101l3.449-1.99v1.469
	l-1.785,1.031c-0.358,0.207-0.481,0.666-0.274,1.023c0.14,0.242,0.392,0.375,0.65,0.375c0.127,0,0.256-0.031,0.374-0.101
	l1.035-0.599v1.046l-1.667,0.961c-0.232,0.134-0.375,0.382-0.375,0.649v2.355c0,0.268,0.143,0.516,0.374,0.648l2.044,1.18
	c0.115,0.066,0.245,0.102,0.374,0.102s0.259-0.033,0.375-0.102l2.042-1.18c0.23-0.135,0.374-0.381,0.374-0.648v-2.355
	c0-0.269-0.144-0.516-0.374-0.649l-1.667-0.961v-1.048l1.037,0.601c0.362,0.208,0.817,0.085,1.024-0.272
	c0.207-0.359,0.086-0.817-0.272-1.025l-1.789-1.034v-1.468l3.452,1.992c0.359,0.209,0.818,0.083,1.023-0.274
	c0.207-0.358,0.084-0.817-0.273-1.024l-4.006-2.312c2.01-0.258,3.765-1.321,4.938-2.856v4.631c0,0.414,0.336,0.75,0.75,0.75
	s0.75-0.336,0.75-0.75v-3.985l1.271,0.733v2.066c0,0.413,0.336,0.75,0.75,0.75s0.75-0.337,0.75-0.75v-1.199l0.906,0.521v1.925
	c0,0.269,0.143,0.517,0.375,0.649l2.039,1.18c0.116,0.067,0.246,0.102,0.377,0.102c0.129,0,0.258-0.033,0.375-0.102l2.041-1.18
	c0.231-0.135,0.375-0.383,0.375-0.649l0.002-1.255L41.643,31.815z M37.559,16.88v-0.625l1.291-0.746l0.543,0.312l0.748,0.432
	l0.002,0.867v0.627l-1.293,0.744l-0.541-0.312l-0.75-0.434V16.88L37.559,16.88z M11.145,18.492l-1.291-0.747v-0.624v-0.867
	l0.75-0.433l0.541-0.312l1.293,0.745v0.625l-0.002,0.865l-0.75,0.434L11.145,18.492z M12.436,33.741l-1.289,0.746l-0.543-0.313
	l-0.75-0.433l0.002-0.682l-0.002-0.14v-0.046V32.25l1.291-0.746l0.541,0.312l0.75,0.434v0.866V33.741L12.436,33.741z M25.748,30.853
	c-0.246,0.03-0.495,0.053-0.75,0.053s-0.504-0.021-0.75-0.053c-1.604-0.205-3.006-1.055-3.941-2.28
	c-0.304-0.396-0.562-0.829-0.758-1.296c-0.295-0.701-0.459-1.473-0.459-2.279c0-0.807,0.164-1.578,0.459-2.279
	c0.195-0.467,0.454-0.898,0.758-1.296c0.937-1.227,2.338-2.075,3.941-2.28c0.246-0.03,0.495-0.053,0.75-0.053
	s0.504,0.021,0.75,0.053c1.604,0.205,3.006,1.055,3.941,2.28c0.304,0.396,0.562,0.829,0.758,1.296
	c0.295,0.701,0.459,1.473,0.459,2.279c0,0.806-0.164,1.578-0.459,2.279c-0.195,0.467-0.454,0.898-0.758,1.296
	C28.754,29.799,27.352,30.647,25.748,30.853z M23.706,8.256l0.542-0.313l0.75-0.432l0.75,0.432l0.541,0.312v1.492l-0.541,0.312
	l-0.75,0.433l-0.75-0.433l-0.542-0.312V8.256z M26.289,41.738l-0.541,0.312l-0.75,0.434l-0.75-0.432l-0.542-0.313v-1.491
	l0.542-0.312l0.75-0.432l0.75,0.434l0.541,0.312V41.738z M37.561,33.115v-0.196l-0.002-0.669l0.75-0.435l0.541-0.312l1.293,0.747
	v0.624l-0.002,0.867l-0.748,0.433l-0.543,0.313l-1.291-0.746L37.561,33.115z"/>
</svg>
