<?xml version="1.0" encoding="utf-8"?>
<!-- Generator: Adobe Illustrator 16.0.4, SVG Export Plug-In . SVG Version: 6.00 Build 0)  -->
<!DOCTYPE svg PUBLIC "-//W3C//DTD SVG 1.1//EN" "http://www.w3.org/Graphics/SVG/1.1/DTD/svg11.dtd">
<svg version="1.1" id="Layer_1" xmlns="http://www.w3.org/2000/svg" xmlns:xlink="http://www.w3.org/1999/xlink" x="0px" y="0px"
	 width="50px" height="50px" viewBox="0 0 50 50" enable-background="new 0 0 50 50" xml:space="preserve">
<path stroke="#ddddff" d="M39.993,24.998l1.01-3.764l-2.463-0.66l1.694-0.979c0.238-0.138,0.32-0.442,0.183-0.683
	c-0.138-0.239-0.442-0.322-0.683-0.184l-2.188,1.264l-0.937-0.541l-1.939,1.121l5.107,1.367l-0.194,0.726l-6.856-1.838l3.407-1.968
	c0.119-0.068,0.16-0.223,0.093-0.342c-0.07-0.121-0.227-0.158-0.343-0.092l-3.405,1.967l1.836-6.854l0.726,0.194l-1.369,5.105
	l1.94-1.119v-1.082l2.186-1.263c0.239-0.138,0.321-0.442,0.184-0.683c-0.139-0.239-0.444-0.322-0.684-0.184l-1.691,0.977l0.66-2.461
	l-3.768-1.009L29.74,9.257l-1.803,1.802V9.105c0-0.276-0.224-0.5-0.5-0.5c-0.275,0-0.5,0.224-0.5,0.5v2.522l-0.937,0.541v2.239
	l3.737-3.737l0.531,0.53l-5.02,5.02v-3.936c0-0.139-0.111-0.25-0.25-0.25s-0.25,0.111-0.25,0.25v3.936l-5.02-5.02l0.53-0.53
	l3.738,3.737v-2.239l-0.937-0.541V9.105c0-0.276-0.225-0.5-0.5-0.5c-0.276,0-0.5,0.224-0.5,0.5v1.953L20.26,9.257l-2.758,2.758
	l-3.768,1.009l0.66,2.461l-1.692-0.977c-0.237-0.138-0.546-0.056-0.683,0.184c-0.14,0.238-0.058,0.545,0.183,0.683l2.187,1.263
	v1.082l1.94,1.119l-1.369-5.105l0.726-0.194l1.836,6.854l-3.405-1.967c-0.117-0.066-0.272-0.029-0.343,0.092
	c-0.067,0.119-0.026,0.272,0.093,0.342l3.407,1.968l-6.856,1.838l-0.194-0.726l5.107-1.367l-1.939-1.121l-0.938,0.541l-2.188-1.264
	c-0.238-0.138-0.545-0.057-0.683,0.184c-0.14,0.238-0.058,0.545,0.183,0.683l1.694,0.979l-2.463,0.66l1.01,3.764l-1.009,3.768
	l2.462,0.66l-1.694,0.979c-0.238,0.138-0.32,0.443-0.183,0.683c0.092,0.16,0.26,0.25,0.433,0.25c0.086,0,0.172-0.021,0.25-0.067
	l2.188-1.262l0.937,0.541l1.94-1.121l-5.106-1.367l0.192-0.726l6.856,1.837l-3.407,1.969c-0.119,0.068-0.16,0.223-0.093,0.342
	c0.047,0.08,0.131,0.125,0.218,0.125c0.043,0,0.086-0.012,0.125-0.033l3.407-1.967l-1.838,6.854l-0.725-0.194l1.37-5.107
	l-1.94,1.122v1.079l-2.188,1.265c-0.239,0.138-0.321,0.442-0.184,0.683c0.137,0.239,0.442,0.32,0.684,0.184l1.693-0.979l-0.66,2.463
	l3.766,1.008l2.758,2.759l1.803-1.802v1.953c0,0.276,0.224,0.5,0.5,0.5c0.275,0,0.5-0.224,0.5-0.5v-2.522l0.937-0.541V35.59
	l-3.738,3.739l-0.53-0.53l5.02-5.021v3.937c0,0.139,0.111,0.25,0.25,0.25c0.138,0,0.25-0.111,0.25-0.25v-3.937l5.02,5.021
	l-0.531,0.53l-3.737-3.739v2.241l0.937,0.541v2.522c0,0.276,0.225,0.5,0.5,0.5c0.276,0,0.5-0.224,0.5-0.5v-1.953l1.803,1.802
	l2.758-2.759l3.766-1.008l-0.66-2.463l1.693,0.979c0.239,0.139,0.546,0.058,0.684-0.184c0.139-0.238,0.057-0.545-0.184-0.683
	l-2.188-1.265v-1.082l-1.94-1.119l1.37,5.107l-0.725,0.194l-1.838-6.854l3.407,1.967c0.039,0.021,0.082,0.033,0.125,0.033
	c0.086,0,0.17-0.045,0.218-0.125c0.067-0.119,0.026-0.272-0.093-0.342l-3.407-1.969l6.856-1.837l0.192,0.726l-5.106,1.367
	l1.94,1.121l0.937-0.541l2.188,1.262c0.078,0.047,0.164,0.067,0.25,0.067c0.172,0,0.34-0.09,0.433-0.25
	c0.139-0.239,0.058-0.545-0.183-0.683l-1.694-0.979l2.462-0.66L39.993,24.998z M30.624,11.559l0.53,0.529l-5.152,5.153v6.026
	l5.221-3.014l1.885-7.039l0.727,0.194l-1.969,7.338l-6.612,3.817V16.93L30.624,11.559z M32.304,12.354l-1.94,7.244l-3.36,1.938
	v-3.882L32.304,12.354z M16.171,13.41l0.726-0.194l1.887,7.039l5.22,3.015v-6.027l-5.151-5.153l0.529-0.53l5.372,5.373v7.637
	l-6.612-3.818L16.171,13.41z M17.7,12.354l5.302,5.303v3.881l-3.359-1.939L17.7,12.354z M10.55,26.852l0.193-0.724l7.04,1.886
	L23.002,25l-5.221-3.014l-7.037,1.886l-0.194-0.724l7.339-1.967L24.502,25l-6.611,3.816L10.55,26.852z M10.398,25l7.244-1.939
	L21.002,25l-3.359,1.939L10.398,25z M19.38,38.441l-0.53-0.529l5.152-5.154v-6.025l-5.219,3.014l-1.887,7.039l-0.726-0.194
	l1.968-7.339l6.612-3.816v7.635L19.38,38.441z M17.702,37.646l1.94-7.242l3.358-1.939v3.881L17.702,37.646z M33.832,36.59
	l-0.727,0.194l-1.886-7.039l-5.219-3.015v6.026l5.151,5.154l-0.529,0.53l-5.372-5.375v-7.635l6.612,3.817L33.832,36.59z
	 M32.302,37.646l-5.3-5.303v-3.88l3.359,1.938L32.302,37.646z M32.113,28.816L25.502,25l6.613-3.816l7.339,1.965l-0.194,0.725
	l-7.037-1.885l-5.221,3.013l5.219,3.013l7.04-1.885l0.193,0.725L32.113,28.816z M39.605,25l-7.244,1.939L29.002,25l3.359-1.939
	L39.605,25z"/>
</svg>
