<?xml version="1.0" encoding="utf-8"?>
<!-- Generator: Adobe Illustrator 16.0.4, SVG Export Plug-In . SVG Version: 6.00 Build 0)  -->
<!DOCTYPE svg PUBLIC "-//W3C//DTD SVG 1.1//EN" "http://www.w3.org/Graphics/SVG/1.1/DTD/svg11.dtd">
<svg version="1.1" id="Layer_1" xmlns="http://www.w3.org/2000/svg" xmlns:xlink="http://www.w3.org/1999/xlink" x="0px" y="0px"
	 width="50px" height="50px" viewBox="0 0 50 50" enable-background="new 0 0 50 50" xml:space="preserve">
<path stroke='#ddddff' d="M40.24,31.325c0-0.18-0.097-0.344-0.25-0.434l-1.894-1.094c-0.154-0.089-0.345-0.089-0.5,0l-1.7,0.98l-6.215-3.588
	l2.628-0.704c0.267-0.07,0.425-0.346,0.354-0.611c-0.072-0.268-0.347-0.425-0.613-0.354l-3.594,0.962L26,25.064l2.459-1.42
	l3.592,0.962c0.043,0.012,0.088,0.017,0.131,0.017c0.221,0,0.423-0.147,0.482-0.371c0.07-0.267-0.088-0.541-0.354-0.612
	l-2.626-0.703l6.322-3.65l1.586,0.916c0.078,0.044,0.164,0.067,0.25,0.067s0.173-0.022,0.25-0.067l1.896-1.092
	c0.155-0.089,0.25-0.254,0.25-0.433l-0.002-1.162l0.001-1.025c0-0.179-0.095-0.344-0.25-0.434l-1.895-1.092
	c-0.153-0.089-0.344-0.089-0.5,0l-1.891,1.091c-0.156,0.089-0.252,0.254-0.252,0.433v1.962l-6.268,3.619l0.703-2.627
	c0.072-0.267-0.086-0.541-0.354-0.612c-0.266-0.069-0.539,0.087-0.611,0.354l-0.963,3.593l-2.459,1.42v-2.839l2.629-2.631
	c0.195-0.195,0.195-0.512,0-0.707c-0.194-0.195-0.512-0.195-0.707,0l-1.92,1.925v-7.305l1.644-0.948
	c0.155-0.089,0.25-0.254,0.25-0.433V9.074c0-0.178-0.095-0.343-0.249-0.433L25.25,7.547c-0.154-0.089-0.345-0.089-0.5,0
	l-1.894,1.094c-0.154,0.089-0.25,0.254-0.25,0.433v2.186c0,0.179,0.095,0.344,0.25,0.433l1.644,0.948v7.305l-1.923-1.924
	c-0.195-0.195-0.512-0.195-0.707,0c-0.195,0.195-0.195,0.512,0,0.707l2.63,2.631v2.839l-2.459-1.42l-0.963-3.593
	c-0.071-0.267-0.346-0.423-0.612-0.354c-0.267,0.071-0.425,0.346-0.354,0.612l0.704,2.627l-6.269-3.619l0.001-0.939l-0.001-1.023
	c0-0.179-0.096-0.343-0.25-0.433l-1.893-1.092c-0.154-0.089-0.345-0.09-0.499,0l-1.894,1.092c-0.155,0.089-0.25,0.254-0.25,0.433
	L9.76,18.676c0,0.179,0.095,0.344,0.25,0.433l1.894,1.094c0.078,0.044,0.164,0.067,0.25,0.067c0.086,0,0.172-0.022,0.25-0.067
	l1.586-0.917l6.324,3.651l-2.626,0.703c-0.267,0.071-0.425,0.346-0.354,0.612c0.06,0.223,0.262,0.371,0.482,0.371
	c0.043,0,0.086-0.005,0.13-0.017l3.592-0.962l2.46,1.42l-2.458,1.418l-3.594-0.962c-0.265-0.07-0.541,0.087-0.612,0.354
	c-0.071,0.267,0.087,0.541,0.354,0.611l2.628,0.704l-6.216,3.589L12.4,29.8c-0.155-0.089-0.345-0.088-0.499,0l-1.891,1.091
	c-0.155,0.089-0.251,0.254-0.251,0.434l-0.001,1.026l0.001,0.135l-0.001,1.023c0,0.179,0.095,0.344,0.25,0.434l1.894,1.095
	c0.078,0.044,0.164,0.066,0.25,0.066s0.172-0.021,0.25-0.066l1.893-1.095c0.155-0.089,0.25-0.254,0.25-0.433l-0.001-1.162v-0.67
	l6.27-3.62l-0.703,2.625c-0.071,0.268,0.087,0.541,0.354,0.612c0.043,0.012,0.087,0.017,0.13,0.017c0.221,0,0.423-0.146,0.482-0.371
	l0.961-3.591l2.46-1.42v2.839l-2.63,2.631c-0.195,0.195-0.195,0.513,0,0.707c0.195,0.195,0.512,0.195,0.707,0l1.923-1.924v7.176
	l-1.644,0.948c-0.155,0.089-0.25,0.254-0.25,0.434v2.186c0,0.178,0.095,0.343,0.25,0.433l1.894,1.095
	c0.078,0.044,0.164,0.066,0.25,0.066s0.173-0.021,0.25-0.066l1.893-1.095c0.153-0.089,0.25-0.254,0.25-0.433V38.74
	c0-0.18-0.095-0.345-0.25-0.434L25.5,37.359v-7.176l1.924,1.924c0.098,0.099,0.226,0.146,0.354,0.146s0.256-0.049,0.354-0.146
	c0.195-0.194,0.195-0.512,0-0.707l-2.631-2.63v-2.839l2.461,1.42l0.961,3.591c0.06,0.224,0.262,0.371,0.481,0.371
	c0.043,0,0.087-0.005,0.13-0.017c0.268-0.071,0.426-0.346,0.354-0.612l-0.703-2.625l6.269,3.62v1.833
	c0,0.179,0.096,0.344,0.25,0.433l1.895,1.095c0.078,0.044,0.164,0.066,0.25,0.066s0.172-0.021,0.25-0.066l1.893-1.095
	c0.155-0.089,0.25-0.254,0.25-0.433l0.002-1.163L40.24,31.325z M36.453,16.781l1.394-0.804l1.394,0.803v1.61l-1.395,0.803
	l-1.393-0.804l-0.002-0.873L36.453,16.781z M12.154,19.193l-1.394-0.805l0.001-1.608l1.392-0.803l1.394,0.804v1.608L12.154,19.193z
	 M12.153,34.026l-1.393-0.805v-0.738l-0.001-0.135v-0.733l1.393-0.805l1.385,0.799c0.003,0.008,0.004,0.015,0.007,0.021v1.592
	L12.153,34.026z M23.606,10.972V9.363L25,8.558l1.393,0.805v1.609L25,11.775L23.606,10.972z M26.394,39.029v1.609L25,41.443
	l-1.394-0.805v-1.609l1.33-0.766c0.022,0.003,0.042,0.013,0.064,0.013s0.042-0.01,0.064-0.013L26.394,39.029z M39.24,33.222
	l-1.394,0.805l-1.394-0.805v-0.874v-0.715c0.004-0.008,0.006-0.016,0.008-0.024l1.385-0.8l1.395,0.807V33.222z"/>
</svg>
