<?xml version="1.0" encoding="utf-8"?>
<!-- Generator: Adobe Illustrator 16.0.4, SVG Export Plug-In . SVG Version: 6.00 Build 0)  -->
<!DOCTYPE svg PUBLIC "-//W3C//DTD SVG 1.1//EN" "http://www.w3.org/Graphics/SVG/1.1/DTD/svg11.dtd">
<svg version="1.1" id="Layer_1" xmlns="http://www.w3.org/2000/svg" xmlns:xlink="http://www.w3.org/1999/xlink" x="0px" y="0px"
	 width="50px" height="50px" viewBox="0 0 50 50" enable-background="new 0 0 50 50" xml:space="preserve">
<path stroke="#ddddff" d="M40.5,25c0-0.275-0.225-0.5-0.5-0.5h-1.248l1.602-1.602c0.195-0.195,0.195-0.513,0-0.707c-0.195-0.195-0.512-0.195-0.707,0
	L37.338,24.5h-0.887l1.152-1.152c0.193-0.195,0.193-0.512,0-0.707c-0.195-0.195-0.514-0.195-0.707,0L35.039,24.5h-3.127
	c-0.111-1.537-0.721-2.936-1.674-4.033l5.721-5.721c0.195-0.195,0.195-0.512,0-0.707c-0.193-0.195-0.512-0.195-0.707,0l-5.721,5.721
	c-1.098-0.951-2.496-1.562-4.032-1.672V14.96l1.856-1.856c0.195-0.194,0.195-0.512,0-0.707c-0.195-0.194-0.512-0.194-0.707,0
	L25.5,13.546v-0.885l2.307-2.308c0.193-0.195,0.193-0.513,0-0.707c-0.195-0.195-0.514-0.195-0.707,0l-1.6,1.6V10
	c0-0.275-0.225-0.5-0.5-0.5s-0.5,0.225-0.5,0.5v1.248l-1.602-1.602c-0.194-0.195-0.512-0.195-0.707,0
	c-0.194,0.194-0.194,0.512,0,0.707l2.309,2.31v0.885l-1.15-1.151c-0.195-0.194-0.513-0.194-0.707,0
	c-0.195,0.195-0.195,0.513,0,0.707l1.857,1.858v3.126c-1.536,0.11-2.934,0.721-4.032,1.672l-5.721-5.721
	c-0.195-0.195-0.513-0.195-0.707,0c-0.195,0.195-0.195,0.512,0,0.707l5.721,5.721c-0.952,1.1-1.562,2.496-1.673,4.033h-3.125
	l-1.859-1.857c-0.194-0.194-0.512-0.194-0.707,0c-0.194,0.195-0.194,0.512,0,0.707l1.151,1.15h-0.886l-2.309-2.307
	c-0.195-0.195-0.513-0.195-0.707,0c-0.195,0.195-0.195,0.512,0,0.707l1.602,1.6H10c-0.275,0-0.5,0.225-0.5,0.5s0.225,0.5,0.5,0.5
	h1.248l-1.602,1.602c-0.195,0.195-0.195,0.513,0,0.707c0.098,0.099,0.226,0.146,0.354,0.146s0.256-0.049,0.354-0.146l2.309-2.309
	h0.886l-1.151,1.15c-0.194,0.195-0.194,0.512,0,0.707c0.099,0.098,0.227,0.146,0.354,0.146s0.256-0.049,0.354-0.146l1.857-1.857
	h3.125c0.11,1.536,0.721,2.934,1.672,4.032l-5.72,5.72c-0.194,0.195-0.194,0.512,0,0.707c0.099,0.098,0.226,0.146,0.354,0.146
	c0.127,0,0.256-0.049,0.354-0.146l5.72-5.72c1.099,0.952,2.496,1.562,4.033,1.673v3.125l-1.856,1.859
	c-0.194,0.194-0.194,0.513,0,0.707c0.195,0.194,0.513,0.194,0.707,0l1.148-1.152v0.887l-2.307,2.309
	c-0.194,0.195-0.194,0.514,0,0.707c0.099,0.099,0.227,0.146,0.354,0.146s0.257-0.049,0.354-0.146l1.598-1.602V40
	c0,0.275,0.225,0.5,0.5,0.5s0.5-0.225,0.5-0.5v-1.247l1.602,1.601c0.193,0.195,0.512,0.195,0.707,0c0.193-0.194,0.193-0.512,0-0.707
	L25.5,37.339v-0.887l1.151,1.151c0.098,0.098,0.227,0.146,0.354,0.146c0.129,0,0.258-0.049,0.355-0.146
	c0.195-0.195,0.195-0.513,0-0.707l-1.86-1.858v-3.126c1.538-0.11,2.936-0.721,4.034-1.673l5.719,5.72
	c0.1,0.098,0.227,0.146,0.355,0.146c0.127,0,0.256-0.049,0.354-0.146c0.195-0.195,0.195-0.512,0-0.707l-5.721-5.72
	c0.951-1.099,1.562-2.496,1.672-4.032h3.127l1.857,1.855c0.098,0.098,0.227,0.146,0.354,0.146c0.129,0,0.256-0.049,0.355-0.146
	c0.193-0.195,0.193-0.513,0-0.707L36.453,25.5h0.887l2.307,2.305c0.098,0.098,0.227,0.146,0.354,0.146
	c0.129,0,0.256-0.049,0.355-0.146c0.193-0.195,0.193-0.512,0-0.707L38.754,25.5H40C40.275,25.5,40.5,25.275,40.5,25z M30.912,25.5
	c-0.105,1.262-0.605,2.411-1.379,3.326c-0.215,0.255-0.451,0.49-0.707,0.707c-0.914,0.773-2.064,1.273-3.327,1.379
	c-0.165,0.014-0.331,0.025-0.5,0.025s-0.335-0.013-0.5-0.025c-1.262-0.105-2.412-0.605-3.327-1.379
	c-0.255-0.217-0.491-0.452-0.707-0.707c-0.772-0.915-1.272-2.064-1.378-3.326c-0.014-0.165-0.025-0.331-0.025-0.5
	s0.013-0.335,0.025-0.5c0.105-1.262,0.605-2.412,1.379-3.327c0.217-0.255,0.452-0.491,0.707-0.707
	c0.915-0.772,2.064-1.272,3.326-1.378c0.165-0.014,0.331-0.025,0.5-0.025s0.335,0.013,0.5,0.025
	c1.262,0.105,2.411,0.605,3.327,1.378c0.254,0.216,0.49,0.452,0.707,0.707c0.773,0.915,1.273,2.065,1.379,3.327
	c0.014,0.165,0.025,0.331,0.025,0.5S30.926,25.335,30.912,25.5z M28.639,22.066c-0.211-0.26-0.445-0.496-0.707-0.707
	c-0.682-0.551-1.516-0.907-2.432-1.006c-0.166-0.02-0.329-0.052-0.5-0.052s-0.334,0.032-0.5,0.052
	c-0.917,0.099-1.75,0.455-2.432,1.006c-0.262,0.211-0.496,0.447-0.707,0.707c-0.551,0.684-0.908,1.516-1.008,2.434
	c-0.019,0.166-0.051,0.329-0.051,0.5s0.032,0.334,0.051,0.5c0.1,0.917,0.457,1.749,1.008,2.432c0.209,0.262,0.445,0.496,0.707,0.707
	c0.682,0.551,1.514,0.907,2.432,1.006c0.166,0.02,0.329,0.051,0.5,0.051s0.334-0.031,0.5-0.051c0.918-0.099,1.75-0.455,2.432-1.006
	c0.262-0.211,0.498-0.445,0.707-0.707c0.551-0.683,0.908-1.515,1.008-2.432c0.018-0.166,0.051-0.329,0.051-0.5
	s-0.033-0.334-0.051-0.5C29.547,23.582,29.189,22.75,28.639,22.066z M28.646,25.5c-0.088,0.645-0.338,1.23-0.713,1.725
	c-0.203,0.268-0.441,0.504-0.707,0.707c-0.494,0.377-1.082,0.625-1.727,0.713c-0.165,0.022-0.329,0.051-0.5,0.051
	s-0.335-0.027-0.5-0.051c-0.645-0.088-1.23-0.336-1.727-0.713c-0.267-0.203-0.504-0.439-0.707-0.707
	c-0.375-0.494-0.625-1.08-0.713-1.725c-0.021-0.165-0.051-0.329-0.051-0.5s0.028-0.335,0.051-0.5
	c0.088-0.645,0.338-1.23,0.715-1.727c0.203-0.268,0.438-0.504,0.707-0.707c0.494-0.377,1.08-0.625,1.725-0.713
	c0.165-0.022,0.329-0.052,0.5-0.052s0.335,0.028,0.5,0.052c0.645,0.088,1.231,0.336,1.725,0.713
	c0.268,0.203,0.504,0.439,0.707,0.707c0.377,0.494,0.627,1.082,0.715,1.727c0.021,0.165,0.051,0.329,0.051,0.5
	S28.668,25.335,28.646,25.5z"/>
</svg>
