<?xml version="1.0" encoding="utf-8"?>
<!-- Generator: Adobe Illustrator 16.0.4, SVG Export Plug-In . SVG Version: 6.00 Build 0)  -->
<!DOCTYPE svg PUBLIC "-//W3C//DTD SVG 1.1//EN" "http://www.w3.org/Graphics/SVG/1.1/DTD/svg11.dtd">
<svg version="1.1" id="Layer_1" xmlns="http://www.w3.org/2000/svg" xmlns:xlink="http://www.w3.org/1999/xlink" x="0px" y="0px"
	 width="50px" height="50px" viewBox="0 0 50 50" enable-background="new 0 0 50 50" xml:space="preserve">
<path stroke="#ddddff" d="M40.313,33.266l-0.98-0.566v-2.467c0-0.18-0.096-0.344-0.25-0.434l-2.385-1.377c-0.154-0.088-0.347-0.088-0.5,0
	l-2.137,1.233l-1.611-0.931l5.728-1.534c0.267-0.071,0.425-0.347,0.354-0.612c-0.071-0.267-0.346-0.425-0.612-0.354l-6.693,1.792
	l-0.111-0.063v-5.906l0.115-0.067l6.689,1.792c0.043,0.012,0.087,0.017,0.13,0.017c0.221,0,0.422-0.147,0.482-0.371
	c0.07-0.267-0.088-0.541-0.354-0.612l-5.723-1.534l1.605-0.928l2.135,1.232c0.078,0.044,0.164,0.067,0.25,0.067
	c0.087,0,0.173-0.022,0.25-0.067l2.388-1.377c0.154-0.089,0.25-0.255,0.25-0.434l-0.002-2.463l0.982-0.568
	c0.239-0.138,0.321-0.444,0.184-0.683c-0.14-0.24-0.445-0.321-0.684-0.183l-0.982,0.568l-2.136-1.234
	c-0.153-0.089-0.345-0.089-0.5,0l-2.385,1.376c-0.154,0.089-0.25,0.254-0.25,0.433v2.467l-1.608,0.929l1.534-5.727
	c0.071-0.267-0.087-0.541-0.354-0.612c-0.264-0.071-0.541,0.086-0.612,0.354l-1.793,6.693l-0.114,0.066L25.5,18.23v-0.132
	l4.897-4.897c0.195-0.195,0.195-0.512,0-0.707c-0.194-0.195-0.512-0.195-0.707,0l-4.19,4.19v-1.86l2.134-1.229
	c0.155-0.089,0.25-0.254,0.25-0.433v-2.756c0-0.179-0.095-0.344-0.25-0.433L25.5,8.74V7.605c0-0.276-0.224-0.5-0.5-0.5
	s-0.5,0.224-0.5,0.5V8.74l-2.135,1.233c-0.155,0.089-0.25,0.254-0.25,0.433v2.756c0,0.179,0.096,0.344,0.25,0.433l2.134,1.229v1.86
	l-4.191-4.19c-0.195-0.195-0.512-0.195-0.707,0c-0.195,0.195-0.195,0.512,0,0.707l4.898,4.897v0.132l-5.114,2.953l-0.114-0.066
	l-1.793-6.693c-0.071-0.267-0.346-0.425-0.612-0.354c-0.267,0.071-0.425,0.346-0.354,0.612l1.535,5.727l-1.611-0.93v-2.466
	c0-0.179-0.095-0.344-0.25-0.433l-2.383-1.376c-0.154-0.089-0.346-0.089-0.5,0l-2.135,1.234l-0.983-0.568
	c-0.239-0.138-0.545-0.056-0.683,0.183c-0.138,0.239-0.056,0.545,0.183,0.683l0.983,0.568l-0.002,2.463
	c0,0.179,0.095,0.344,0.25,0.434l2.385,1.377c0.077,0.044,0.164,0.067,0.25,0.067c0.086,0,0.173-0.022,0.25-0.067l2.135-1.233
	l1.608,0.929l-5.723,1.534c-0.267,0.071-0.425,0.346-0.354,0.612c0.06,0.224,0.262,0.371,0.482,0.371
	c0.043,0,0.086-0.005,0.13-0.017l6.689-1.792l0.116,0.067v5.905l-0.112,0.064l-6.693-1.792c-0.266-0.07-0.541,0.087-0.612,0.354
	c-0.071,0.266,0.087,0.541,0.354,0.611l5.728,1.534l-1.612,0.93l-2.136-1.231c-0.155-0.09-0.346-0.09-0.5,0l-2.384,1.375
	c-0.155,0.09-0.25,0.254-0.25,0.434l-0.001,2.467l-0.981,0.565c-0.239,0.138-0.321,0.444-0.183,0.683
	c0.093,0.161,0.261,0.25,0.434,0.25c0.085,0,0.171-0.021,0.25-0.066l0.983-0.568l2.133,1.234c0.078,0.043,0.164,0.066,0.25,0.066
	c0.086,0,0.173-0.021,0.25-0.066l2.385-1.379c0.154-0.09,0.25-0.254,0.25-0.434v-2.463l1.609-0.93l-1.532,5.724
	c-0.071,0.267,0.087,0.541,0.354,0.612c0.043,0.012,0.087,0.017,0.13,0.017c0.221,0,0.423-0.147,0.482-0.37l1.791-6.689l0.115-0.066
	l5.114,2.953V31.9l-4.898,4.898c-0.195,0.195-0.195,0.512,0,0.707s0.512,0.195,0.707,0l4.191-4.191v1.861l-2.134,1.23
	c-0.155,0.088-0.25,0.254-0.25,0.432v2.756c0,0.18,0.095,0.345,0.25,0.434l2.135,1.232v1.135c0,0.275,0.224,0.5,0.5,0.5
	s0.5-0.225,0.5-0.5V41.26l2.135-1.232c0.155-0.089,0.25-0.254,0.25-0.434v-2.756c0-0.178-0.096-0.344-0.25-0.432L25.5,35.178v-1.861
	l4.19,4.193c0.099,0.098,0.227,0.146,0.354,0.146s0.256-0.049,0.354-0.146c0.195-0.195,0.195-0.512,0-0.707l-4.897-4.9v-0.129
	l5.114-2.953l0.114,0.066l1.791,6.689c0.061,0.223,0.263,0.37,0.482,0.37c0.043,0,0.086-0.005,0.13-0.017
	c0.267-0.071,0.425-0.346,0.354-0.612l-1.531-5.724l1.609,0.931v2.462c0,0.18,0.096,0.344,0.25,0.434l2.386,1.379
	c0.077,0.045,0.163,0.066,0.25,0.066c0.086,0,0.173-0.021,0.25-0.066l2.132-1.233l0.982,0.567c0.079,0.045,0.165,0.068,0.25,0.068
	c0.173,0,0.342-0.091,0.435-0.25C40.636,33.709,40.554,33.403,40.313,33.266z M34.562,17.302l1.885-1.087l1.386,0.801l0.5,0.289
	v0.578l0.001,1.598l-1.888,1.088l-1.385-0.799l-0.5-0.289v-0.578L34.562,17.302L34.562,17.302z M13.552,20.568l-1.885-1.088
	l0.001-1.598v-0.578l0.5-0.289l1.385-0.8l1.883,1.087v1.6v0.578l-0.5,0.289L13.552,20.568z M15.437,32.696l-1.885,1.091
	l-1.384-0.801l-0.502-0.29v-0.575v-1.6l1.884-1.087l1.386,0.8l0.5,0.288v0.578L15.437,32.696L15.437,32.696z M25.5,30.619L25,30.908
	l-0.5-0.289l-4.114-2.377l-0.5-0.289v-0.578v-4.75v-0.578l0.5-0.289l4.114-2.376l0.5-0.289l0.5,0.289l4.113,2.376l0.5,0.289v0.578
	v4.75v0.578l-0.5,0.289L25.5,30.619z M23.115,10.694l1.385-0.8L25,9.605l0.5,0.289l1.385,0.8v2.178L25.5,13.67L25,13.958l-0.5-0.288
	l-1.385-0.798V10.694z M26.885,39.309l-1.385,0.8L25,40.397l-0.5-0.289l-1.385-0.8v-2.178l1.385-0.799l0.5-0.287l0.5,0.287
	l1.385,0.799V39.309z M36.448,33.787l-1.886-1.09v-1.597v-0.579l0.499-0.288l1.387-0.8l1.885,1.088v1.6v0.575l-0.501,0.29
	L36.448,33.787z"/>
</svg>
