<?xml version="1.0" encoding="utf-8"?>
<!-- Generator: Adobe Illustrator 16.0.4, SVG Export Plug-In . SVG Version: 6.00 Build 0)  -->
<!DOCTYPE svg PUBLIC "-//W3C//DTD SVG 1.1//EN" "http://www.w3.org/Graphics/SVG/1.1/DTD/svg11.dtd">
<svg version="1.1" id="Layer_1" xmlns="http://www.w3.org/2000/svg" xmlns:xlink="http://www.w3.org/1999/xlink" x="0px" y="0px"
	 width="50px" height="50px" viewBox="0 0 50 50" enable-background="new 0 0 50 50" xml:space="preserve">
<path stroke="#ddddff" d="M39.484,19.237l2.236-1.286v-2.572l-2.236-1.289l-2.234,1.289v1.995l-2.418,1.391V17.05c0-0.276-0.225-0.5-0.5-0.5
	s-0.5,0.224-0.5,0.5v2.289l-1.771,1.021v-4.494c0-0.276-0.224-0.5-0.5-0.5c-0.275,0-0.5,0.224-0.5,0.5v5.068l-2.236,1.289
	l0.514-4.736l-3.837,2.81v-2.729l4.254-2.457c0.239-0.139,0.321-0.443,0.183-0.684c-0.138-0.238-0.443-0.322-0.683-0.183
	L25.5,16.411v-2.047l1.84-1.062c0.239-0.138,0.321-0.443,0.184-0.683c-0.139-0.239-0.444-0.322-0.684-0.183l-1.34,0.772v-2.595
	l1.736-1V7.042L25,5.755l-2.236,1.286v2.572l1.736,1v2.678l-1.484-0.855c-0.238-0.139-0.545-0.058-0.683,0.183
	c-0.14,0.239-0.058,0.545,0.183,0.683l1.984,1.146v2.047l-3.898-2.251c-0.236-0.138-0.545-0.058-0.683,0.183
	c-0.14,0.239-0.058,0.545,0.183,0.684l4.398,2.539v2.647l-3.837-2.809l0.514,4.735l-2.384-1.373l-0.002-4.984
	c0-0.276-0.225-0.5-0.5-0.5s-0.5,0.224-0.5,0.5l0.002,4.41l-1.773-1.021v-2.203c0-0.277-0.224-0.5-0.5-0.5
	c-0.275,0-0.5,0.223-0.5,0.5v1.629l-2.27-1.307v-1.995l-2.234-1.289l-2.236,1.289v2.572l2.236,1.286l1.734-0.997l2.271,1.307
	l-1.414,0.817c-0.239,0.138-0.321,0.443-0.184,0.683c0.092,0.16,0.26,0.25,0.434,0.25c0.084,0,0.17-0.021,0.25-0.067l1.916-1.104
	l1.775,1.021l-3.833,2.213c-0.239,0.139-0.321,0.443-0.183,0.684c0.092,0.16,0.261,0.25,0.433,0.25c0.085,0,0.171-0.021,0.25-0.066
	l4.335-2.502l2.367,1.361L16.324,25l4.344,1.915l-2.332,1.342l-4.37-2.52c-0.237-0.139-0.545-0.059-0.683,0.182
	c-0.139,0.24-0.057,0.545,0.183,0.684l3.867,2.232l-1.774,1.021l-1.951-1.127c-0.238-0.137-0.545-0.057-0.684,0.184
	s-0.057,0.545,0.184,0.684l1.449,0.838l-2.309,1.328l-1.732-0.998l-2.236,1.287l0.002,2.572l2.234,1.287l2.235-1.287v-1.998
	l2.271-1.305v1.588c0,0.275,0.224,0.5,0.5,0.5c0.275,0,0.5-0.225,0.5-0.5v-2.164l1.771-1.02v4.369c0,0.277,0.224,0.5,0.5,0.5
	s0.5-0.223,0.5-0.5V29.15l2.384-1.373l-0.514,4.736l3.837-2.809v2.604l-4.397,2.541c-0.24,0.139-0.322,0.443-0.184,0.684
	c0.139,0.236,0.443,0.32,0.684,0.182l3.897-2.25v2.047l-1.983,1.146c-0.24,0.137-0.322,0.441-0.184,0.682
	c0.137,0.238,0.441,0.322,0.684,0.184l1.483-0.855v2.719l-1.735,1v2.572l2.235,1.285l2.235-1.285v-2.572L25.5,39.383v-2.637
	l1.34,0.773c0.079,0.045,0.165,0.066,0.25,0.066c0.172,0,0.342-0.09,0.434-0.25c0.139-0.238,0.057-0.545-0.184-0.684l-1.84-1.061
	v-2.047l3.754,2.168c0.079,0.045,0.165,0.066,0.25,0.066c0.172,0,0.342-0.09,0.434-0.25c0.139-0.238,0.057-0.545-0.184-0.684
	L25.5,32.391v-2.689l3.838,2.811l-0.515-4.736l2.237,1.289v5.029c0,0.275,0.224,0.5,0.5,0.5c0.275,0,0.5-0.225,0.5-0.5v-4.455
	l1.771,1.021v2.248c0,0.275,0.224,0.5,0.5,0.5s0.5-0.225,0.5-0.5v-1.674l2.416,1.391v1.998l2.235,1.285l2.234-1.285l0.002-2.572
	l-2.236-1.289L37.75,31.76l-2.383-1.371l1.376-0.795c0.239-0.137,0.321-0.443,0.183-0.682c-0.139-0.24-0.443-0.322-0.683-0.184
	l-1.878,1.084l-1.774-1.021l3.796-2.191c0.238-0.137,0.32-0.441,0.182-0.682c-0.137-0.24-0.443-0.322-0.682-0.184l-4.298,2.479
	l-2.258-1.299l4.344-1.916l-4.345-1.915l2.294-1.32l4.263,2.46c0.078,0.047,0.164,0.067,0.25,0.067c0.172,0,0.34-0.091,0.432-0.25
	c0.14-0.239,0.058-0.545-0.182-0.683l-3.761-2.172l1.774-1.021l1.843,1.063c0.079,0.045,0.165,0.066,0.25,0.066
	c0.172,0,0.341-0.09,0.433-0.25c0.139-0.239,0.057-0.545-0.183-0.684l-1.341-0.773l2.347-1.35L39.484,19.237z M27.684,26.549
	l0.065,0.607l0.349,3.207l-2.598-1.9l-0.499-0.365L24.5,28.463l-2.6,1.902l0.351-3.209l0.065-0.609l-0.572-0.252l-2.939-1.296
	l2.939-1.296l0.572-0.253l-0.065-0.609l-0.349-3.207l2.598,1.9l0.5,0.365l0.5-0.365l2.598-1.901l-0.349,3.208l-0.065,0.609
	l0.572,0.253l2.941,1.296l-2.94,1.296L27.684,26.549z"/>
</svg>
