<?xml version="1.0" encoding="utf-8"?>
<!-- Generator: Adobe Illustrator 16.0.4, SVG Export Plug-In . SVG Version: 6.00 Build 0)  -->
<!DOCTYPE svg PUBLIC "-//W3C//DTD SVG 1.1//EN" "http://www.w3.org/Graphics/SVG/1.1/DTD/svg11.dtd">
<svg version="1.1" id="Layer_1" xmlns="http://www.w3.org/2000/svg" xmlns:xlink="http://www.w3.org/1999/xlink" x="0px" y="0px"
	 width="50px" height="50px" viewBox="0 0 50 50" enable-background="new 0 0 50 50" xml:space="preserve">
<path stroke="#ddddff" d="M41.459,32.072c-0.189-0.668-0.628-1.221-1.232-1.557c-0.388-0.217-0.824-0.33-1.266-0.33c-0.839,0-1.604,0.42-2.09,1.09
	l-1.465-0.846l1.412-0.814c0.238-0.139,0.32-0.443,0.183-0.684c-0.138-0.238-0.442-0.322-0.683-0.183l-1.912,1.104l-1.771-1.022
	l3.825-2.21c0.239-0.139,0.321-0.443,0.183-0.684c-0.138-0.238-0.443-0.32-0.683-0.183l-4.326,2.497l-2.311-1.334l4.352-1.919
	l-4.352-1.919l2.31-1.334l4.328,2.498c0.079,0.046,0.165,0.066,0.25,0.066c0.172,0,0.341-0.09,0.434-0.25
	c0.139-0.238,0.057-0.545-0.184-0.683l-3.827-2.21l1.771-1.023l1.914,1.104c0.078,0.046,0.164,0.067,0.25,0.067
	c0.172,0,0.34-0.09,0.433-0.25c0.14-0.24,0.058-0.545-0.183-0.684l-1.412-0.816l1.465-0.846c0.484,0.67,1.252,1.092,2.092,1.092
	c0.439,0,0.877-0.113,1.264-0.328c1.252-0.699,1.701-2.285,1.004-3.535c-0.672-1.207-2.314-1.684-3.537-1.006
	c-1.036,0.58-1.512,1.769-1.25,2.871l-1.536,0.887V17.07c0-0.276-0.224-0.5-0.5-0.5s-0.5,0.224-0.5,0.5v2.209l-1.771,1.021v-4.418
	c0-0.275-0.224-0.5-0.5-0.5s-0.5,0.225-0.5,0.5v4.995l-2.31,1.334l0.513-4.728L25.5,20.297v-2.668l4.327-2.498
	c0.239-0.138,0.321-0.443,0.183-0.683c-0.138-0.24-0.443-0.322-0.683-0.183L25.5,16.475V14.43l1.913-1.106
	c0.239-0.138,0.321-0.444,0.183-0.683c-0.139-0.24-0.447-0.322-0.683-0.184L25.5,13.273v-1.709c1.195-0.233,2.1-1.287,2.1-2.549
	c0-1.434-1.166-2.6-2.6-2.6s-2.598,1.166-2.598,2.6c0,1.262,0.904,2.314,2.098,2.549v1.707l-1.41-0.814
	c-0.234-0.139-0.544-0.057-0.683,0.184c-0.14,0.238-0.058,0.545,0.183,0.683l1.91,1.104v2.045l-3.824-2.207
	c-0.24-0.141-0.547-0.057-0.683,0.184c-0.14,0.238-0.058,0.545,0.183,0.683l4.324,2.494v2.671l-3.837-2.809l0.514,4.728
	l-2.311-1.334l-0.001-4.996c0-0.276-0.225-0.5-0.5-0.5c-0.276,0-0.5,0.224-0.5,0.5l0.001,4.419l-1.773-1.023v-2.208
	c0-0.276-0.224-0.5-0.5-0.5s-0.5,0.224-0.5,0.5v1.631l-1.536-0.888c0.262-1.103-0.214-2.291-1.252-2.871
	c-1.216-0.678-2.863-0.2-3.533,1.007c-0.698,1.251-0.248,2.837,1.004,3.534c0.386,0.216,0.82,0.33,1.262,0.33
	c0.841,0,1.607-0.422,2.093-1.092l1.466,0.846l-1.412,0.816c-0.24,0.137-0.322,0.442-0.184,0.682c0.093,0.16,0.262,0.25,0.434,0.25
	c0.084,0,0.172-0.021,0.25-0.066l1.912-1.104l1.772,1.022l-3.827,2.21c-0.239,0.139-0.32,0.443-0.184,0.684
	c0.093,0.16,0.262,0.25,0.434,0.25c0.085,0,0.171-0.021,0.25-0.067l4.327-2.497l2.312,1.334l-4.354,1.918l4.354,1.918l-2.312,1.335
	l-4.325-2.497c-0.237-0.138-0.545-0.057-0.683,0.184c-0.139,0.238-0.058,0.545,0.183,0.683l3.824,2.21l-1.771,1.021l-1.914-1.104
	c-0.24-0.14-0.545-0.057-0.683,0.184c-0.14,0.238-0.058,0.545,0.183,0.683l1.412,0.815l-1.465,0.846
	c-0.484-0.67-1.251-1.092-2.091-1.092c-0.44,0-0.878,0.115-1.265,0.33c-0.604,0.336-1.043,0.891-1.232,1.558
	c-0.189,0.669-0.109,1.37,0.229,1.978c0.457,0.821,1.328,1.334,2.271,1.334c0.001,0,0.001,0,0.001,0
	c0.438,0,0.875-0.113,1.261-0.328c0.607-0.338,1.047-0.894,1.236-1.562c0.123-0.436,0.12-0.882,0.018-1.311l1.537-0.887v1.633
	c0,0.275,0.225,0.5,0.5,0.5c0.276,0,0.5-0.225,0.5-0.5v-2.211l1.771-1.022v4.419c0,0.275,0.224,0.5,0.5,0.5
	c0.275,0,0.5-0.225,0.5-0.5v-4.996l2.311-1.334l-0.514,4.729l3.838-2.812v2.67l-4.324,2.495c-0.238,0.138-0.32,0.443-0.183,0.684
	c0.136,0.237,0.44,0.32,0.683,0.182l3.824-2.207v2.046l-1.91,1.104c-0.238,0.137-0.32,0.442-0.183,0.682
	c0.138,0.24,0.444,0.32,0.683,0.184l1.41-0.814v1.707c-1.193,0.233-2.1,1.287-2.1,2.549c0,1.434,1.164,2.6,2.598,2.6
	s2.6-1.166,2.6-2.6c0-1.262-0.902-2.313-2.098-2.549v-1.709l1.413,0.816c0.078,0.046,0.165,0.066,0.25,0.066
	c0.172,0,0.34-0.09,0.433-0.25c0.139-0.237,0.057-0.545-0.183-0.682L25.5,35.57v-2.045l3.827,2.209
	c0.079,0.046,0.165,0.066,0.25,0.066c0.172,0,0.341-0.09,0.433-0.25c0.139-0.238,0.057-0.545-0.183-0.683L25.5,32.371v-2.668
	l3.838,2.809l-0.514-4.728l2.31,1.334v4.996c0,0.276,0.224,0.5,0.5,0.5s0.5-0.224,0.5-0.5v-4.419l1.772,1.022v2.21
	c0,0.276,0.224,0.5,0.5,0.5c0.275,0,0.5-0.224,0.5-0.5v-1.633l1.535,0.889c-0.103,0.428-0.104,0.875,0.019,1.311
	c0.188,0.668,0.628,1.223,1.235,1.562c0.386,0.213,0.822,0.326,1.261,0.326c0.942,0,1.813-0.511,2.272-1.334
	C41.568,33.441,41.648,32.741,41.459,32.072z M38.956,15.617c0.31,0,0.604,0.095,0.854,0.255c0.223,0.14,0.414,0.329,0.545,0.565
	c0.035,0.062,0.058,0.125,0.082,0.188c0.293,0.733,0.01,1.591-0.698,1.985c-0.664,0.367-1.532,0.18-2.011-0.385
	c-0.062-0.072-0.119-0.148-0.166-0.233c-0.125-0.226-0.185-0.47-0.193-0.712c-0.023-0.583,0.268-1.159,0.811-1.463
	C38.418,15.688,38.688,15.617,38.956,15.617z M12.438,17.994c-0.047,0.085-0.104,0.16-0.166,0.232
	c-0.479,0.563-1.347,0.754-2.01,0.387c-0.709-0.396-0.992-1.252-0.699-1.986c0.024-0.062,0.047-0.128,0.082-0.189
	c0.131-0.235,0.321-0.426,0.543-0.565c0.252-0.159,0.545-0.254,0.854-0.254c0.271,0,0.538,0.069,0.774,0.2
	c0.545,0.305,0.836,0.882,0.813,1.464C12.621,17.523,12.562,17.77,12.438,17.994z M11.816,34.182
	c-0.236,0.133-0.504,0.201-0.773,0.201c-0.311,0-0.604-0.095-0.855-0.254c-0.222-0.141-0.412-0.33-0.543-0.566
	c-0.035-0.061-0.058-0.125-0.082-0.188c-0.131-0.326-0.158-0.684-0.061-1.027c0.117-0.41,0.387-0.75,0.76-0.957
	c0.237-0.134,0.506-0.203,0.776-0.203c0.481,0,0.925,0.227,1.228,0.59c0.061,0.074,0.123,0.146,0.172,0.229
	c0.123,0.222,0.185,0.466,0.193,0.712c0.008,0.168-0.006,0.338-0.053,0.504C12.461,33.632,12.189,33.975,11.816,34.182z
	 M28.098,30.365L25.5,28.463l-0.499-0.365L24.5,28.465l-2.598,1.901l0.349-3.202l0.067-0.615l-0.567-0.25L18.805,25l2.946-1.299
	l0.567-0.25l-0.066-0.615l-0.35-3.201l2.598,1.9L25,21.9l0.5-0.365l2.6-1.901l-0.349,3.201l-0.067,0.616l0.566,0.25L31.195,25
	l-2.945,1.3l-0.566,0.25l0.065,0.614L28.098,30.365z M24.521,7.499C24.673,7.45,24.832,7.417,25,7.417s0.326,0.033,0.479,0.081
	c0.647,0.205,1.121,0.805,1.121,1.52c0,0.705-0.463,1.299-1.1,1.51c-0.158,0.054-0.324,0.089-0.5,0.089s-0.342-0.035-0.5-0.089
	c-0.635-0.211-1.098-0.805-1.098-1.51C23.402,8.303,23.875,7.704,24.521,7.499z M25.479,42.501
	c-0.151,0.049-0.312,0.082-0.479,0.082c-0.167,0-0.325-0.033-0.478-0.081c-0.646-0.204-1.121-0.804-1.121-1.52
	c0-0.707,0.465-1.301,1.101-1.51c0.158-0.054,0.323-0.089,0.498-0.089c0.177,0,0.343,0.035,0.502,0.089
	c0.636,0.211,1.099,0.805,1.099,1.51C26.598,41.695,26.125,42.295,25.479,42.501z M38.182,34.182
	c-0.373-0.207-0.643-0.549-0.76-0.961c-0.047-0.166-0.061-0.334-0.053-0.503c0.01-0.247,0.07-0.489,0.193-0.712
	c0.049-0.085,0.111-0.156,0.172-0.229c0.303-0.364,0.744-0.592,1.227-0.592c0.271,0,0.54,0.07,0.777,0.203
	c0.373,0.207,0.643,0.547,0.76,0.959c0.098,0.344,0.07,0.7-0.061,1.026c-0.024,0.063-0.047,0.128-0.082,0.188
	c-0.131,0.235-0.33,0.422-0.557,0.559C39.316,34.412,38.689,34.465,38.182,34.182z"/>
</svg>
