<?xml version="1.0" encoding="utf-8"?>
<!-- Generator: Adobe Illustrator 16.0.4, SVG Export Plug-In . SVG Version: 6.00 Build 0)  -->
<!DOCTYPE svg PUBLIC "-//W3C//DTD SVG 1.1//EN" "http://www.w3.org/Graphics/SVG/1.1/DTD/svg11.dtd">
<svg version="1.1" id="Layer_1" xmlns="http://www.w3.org/2000/svg" xmlns:xlink="http://www.w3.org/1999/xlink" x="0px" y="0px"
	 width="50px" height="50px" viewBox="0 0 50 50" enable-background="new 0 0 50 50" xml:space="preserve">
<path stroke="#ddddff" d="M40.75,25c0,0.414-0.336,0.75-0.75,0.75h-5.778l3.979,3.979c0.293,0.293,0.293,0.769,0,1.062
	c-0.146,0.146-0.339,0.219-0.531,0.219c-0.191,0-0.383-0.072-0.529-0.219l-5.039-5.041h-5.291l7.632,7.633
	c0.293,0.293,0.293,0.768,0,1.061c-0.146,0.146-0.338,0.221-0.53,0.221c-0.191,0-0.384-0.074-0.529-0.221l-7.633-7.632v5.578
	l5.244,5.245c0.293,0.293,0.293,0.769,0,1.062c-0.146,0.145-0.338,0.219-0.529,0.219c-0.192,0-0.385-0.072-0.53-0.219l-4.185-4.186
	v5.49c0,0.414-0.335,0.75-0.75,0.75s-0.75-0.336-0.75-0.75V34.51l-4.184,4.186c-0.293,0.293-0.768,0.293-1.061,0
	s-0.293-0.768,0-1.061l5.244-5.245v-5.578l-7.632,7.632c-0.146,0.146-0.338,0.221-0.53,0.221s-0.384-0.074-0.53-0.221
	c-0.293-0.293-0.293-0.768,0-1.061l7.632-7.633h-5.291l-5.039,5.041c-0.146,0.146-0.338,0.219-0.53,0.219s-0.384-0.072-0.53-0.219
	c-0.293-0.293-0.293-0.769,0-1.062l3.979-3.979H10c-0.414,0-0.75-0.335-0.75-0.75s0.336-0.75,0.75-0.75h5.778l-3.979-3.979
	c-0.293-0.293-0.293-0.768,0-1.061s0.768-0.293,1.061,0l5.039,5.04h5.291l-7.632-7.632c-0.293-0.293-0.293-0.768,0-1.061
	s0.768-0.293,1.061,0l7.632,7.632V17.61l-5.244-5.245c-0.293-0.293-0.293-0.768,0-1.062c0.293-0.293,0.768-0.293,1.061,0
	l4.184,4.184v-5.49c0-0.414,0.336-0.75,0.75-0.75s0.75,0.336,0.75,0.75v5.49l4.185-4.184c0.293-0.293,0.769-0.293,1.062,0
	c0.293,0.293,0.293,0.769,0,1.062l-5.244,5.245v5.579l7.632-7.632c0.293-0.293,0.769-0.293,1.062,0s0.293,0.768,0,1.061
	l-7.633,7.632h5.291l5.039-5.04c0.293-0.293,0.768-0.293,1.061,0s0.293,0.768,0,1.061l-3.979,3.979h5.777
	C40.414,24.25,40.75,24.586,40.75,25z"/>
</svg>
