<?xml version="1.0" encoding="utf-8"?>
<!-- Generator: Adobe Illustrator 16.0.4, SVG Export Plug-In . SVG Version: 6.00 Build 0)  -->
<!DOCTYPE svg PUBLIC "-//W3C//DTD SVG 1.1//EN" "http://www.w3.org/Graphics/SVG/1.1/DTD/svg11.dtd">
<svg version="1.1" id="Layer_1" xmlns="http://www.w3.org/2000/svg" xmlns:xlink="http://www.w3.org/1999/xlink" x="0px" y="0px"
	 width="50px" height="50px" viewBox="0 0 50 50" enable-background="new 0 0 50 50" xml:space="preserve">
<path stroke="#ddddff" d="M35.883,31.572c0.039,0.021,0.082,0.033,0.125,0.033c0.086,0,0.17-0.045,0.217-0.125c0.068-0.119,0.027-0.272-0.092-0.342
	l-3.406-1.969l7.338-1.966c0.135-0.035,0.213-0.173,0.178-0.306c-0.035-0.135-0.172-0.213-0.307-0.178l-7.822,2.096l-3.41-1.969
	V23.15l3.412-1.971l7.82,2.096c0.021,0.007,0.043,0.01,0.064,0.01c0.109,0,0.212-0.073,0.241-0.186
	c0.036-0.134-0.043-0.271-0.177-0.307l-7.338-1.967l3.405-1.967c0.119-0.069,0.16-0.224,0.093-0.342
	c-0.072-0.121-0.226-0.16-0.343-0.093l-3.405,1.968l1.965-7.34c0.037-0.133-0.043-0.271-0.176-0.306
	c-0.132-0.033-0.271,0.043-0.307,0.177l-2.098,7.822l-3.409,1.969l-3.203-1.848v-3.939l5.725-5.727c0.099-0.098,0.099-0.256,0-0.354
	c-0.098-0.099-0.256-0.099-0.354,0L25.25,16.22v-3.936c0-0.138-0.112-0.25-0.25-0.25s-0.25,0.112-0.25,0.25v3.936l-5.372-5.372
	c-0.098-0.099-0.256-0.099-0.354,0c-0.099,0.098-0.099,0.256,0,0.354l5.726,5.727v3.939l-3.203,1.848l-3.41-1.969l-2.097-7.822
	c-0.035-0.134-0.176-0.211-0.307-0.177c-0.133,0.035-0.213,0.173-0.176,0.306l1.965,7.34l-3.405-1.968
	c-0.118-0.067-0.271-0.028-0.343,0.093c-0.067,0.118-0.026,0.271,0.093,0.342l3.405,1.967l-7.338,1.967
	C9.8,22.828,9.721,22.966,9.757,23.1c0.029,0.111,0.132,0.186,0.241,0.186c0.021,0,0.043-0.003,0.064-0.01l7.82-2.096l3.412,1.971
	v3.697l-3.41,1.969l-7.822-2.096c-0.131-0.033-0.271,0.043-0.307,0.178c-0.035,0.133,0.043,0.271,0.178,0.306l7.338,1.966
	l-3.406,1.969c-0.119,0.068-0.16,0.223-0.092,0.342c0.047,0.08,0.131,0.125,0.217,0.125c0.043,0,0.086-0.012,0.125-0.033
	l3.406-1.967l-1.965,7.338c-0.037,0.134,0.043,0.271,0.176,0.307c0.021,0.006,0.043,0.009,0.064,0.009
	c0.11,0,0.212-0.073,0.241-0.187l2.097-7.821l3.412-1.97l3.2,1.849v3.938l-5.726,5.727c-0.099,0.098-0.099,0.256,0,0.354
	c0.098,0.099,0.256,0.099,0.354,0l5.372-5.373v3.938c0,0.139,0.112,0.25,0.25,0.25s0.25-0.111,0.25-0.25v-3.938l5.372,5.375
	c0.049,0.049,0.111,0.072,0.177,0.072s0.128-0.023,0.177-0.072c0.098-0.099,0.098-0.256,0-0.354l-5.725-5.728V29.13l3.2-1.849
	l3.412,1.97l2.097,7.821c0.028,0.113,0.131,0.187,0.241,0.187c0.021,0,0.043-0.003,0.063-0.009c0.134-0.035,0.214-0.173,0.177-0.307
	l-1.965-7.338L35.883,31.572z M27.702,26.271L25.5,25l2.202-1.271V26.271z M27.452,23.295l-2.202,1.271v-2.543L27.452,23.295z
	 M24.75,22.023v2.543l-2.202-1.271L24.75,22.023z M22.298,23.729L24.5,25l-2.202,1.271V23.729z M22.549,26.704l2.201-1.271v2.541
	L22.549,26.704z M25.25,27.977v-2.543l2.201,1.271L25.25,27.977z M20.297,21.13L24,18.994v-1.752l-5.777-5.779l-1.557,0.898
	l2.113,7.894L20.297,21.13z M18.059,12.713L23,17.656v0.76l-2.703,1.561l-0.656-0.379l-1.811-6.752L18.059,12.713z M9.128,21.718
	c-0.071-0.268,0.087-0.541,0.354-0.612l1.979-0.53l-1.944-1.124v-3.391l2.938-1.693l1.941,1.121l-0.529-1.979
	c-0.071-0.267,0.087-0.54,0.354-0.612c0.264-0.064,0.541,0.088,0.612,0.354l1.498,5.593l-1.94-1.123v-1.08l-1.937-1.119
	l-1.937,1.119v2.234l1.937,1.119l0.937-0.541l1.94,1.121l-5.59,1.498c-0.044,0.011-0.087,0.017-0.13,0.017
	C9.391,22.088,9.188,21.939,9.128,21.718z M26,18.994l3.703,2.136l1.518-0.875l2.113-7.894l-1.557-0.898L26,17.242V18.994z
	 M27,17.656l4.941-4.943l0.229,0.133l-1.811,6.752l-0.656,0.379L27,18.416V17.656z M33.669,18.843l1.498-5.593
	c0.072-0.268,0.349-0.419,0.612-0.354c0.268,0.071,0.426,0.346,0.354,0.611l-0.529,1.979l1.941-1.12l2.938,1.694v3.39l-1.944,1.124
	l1.979,0.529c0.268,0.072,0.426,0.347,0.354,0.613c-0.062,0.223-0.263,0.37-0.483,0.37c-0.043,0-0.086-0.006-0.13-0.017l-5.59-1.498
	l1.94-1.121l0.937,0.541l1.937-1.119v-2.234l-1.937-1.119l-1.937,1.119v1.08L33.669,18.843z M19.909,10.32
	c-0.195-0.195-0.195-0.512,0-0.707s0.512-0.195,0.707,0l1.447,1.447V8.818L25,7.124l2.937,1.694v2.242l1.447-1.447
	c0.195-0.195,0.512-0.195,0.707,0s0.195,0.512,0,0.707L26,14.412v-2.24l0.938-0.541V9.396L25,8.279l-1.938,1.117v2.234L24,12.172
	v2.24L19.909,10.32z M40.872,28.282c0.071,0.268-0.087,0.541-0.354,0.612l-1.979,0.53l1.944,1.121l-0.002,3.392l-2.937,1.695
	L35.6,34.51l0.531,1.979c0.071,0.268-0.087,0.541-0.354,0.612c-0.045,0.012-0.088,0.018-0.131,0.018
	c-0.221,0-0.422-0.146-0.482-0.37l-1.498-5.591l1.941,1.122v1.079l1.937,1.119l1.937-1.119l0.002-2.234l-1.938-1.118l-0.937,0.541
	l-1.938-1.121l5.589-1.497C40.527,27.861,40.8,28.018,40.872,28.282z M29.701,28.868L26,31.007v1.751l5.777,5.779l1.557-0.898
	l-2.115-7.894L29.701,28.868z M31.941,37.287L27,32.344v-0.761l2.701-1.562l0.658,0.381l1.811,6.753L31.941,37.287z M16.333,31.158
	l-1.498,5.591c-0.062,0.224-0.263,0.37-0.483,0.37c-0.043,0-0.086-0.006-0.129-0.018c-0.268-0.072-0.426-0.346-0.354-0.613
	l0.53-1.979l-1.943,1.123L9.52,33.938l-0.002-3.392l1.943-1.121l-1.98-0.53c-0.267-0.072-0.424-0.346-0.354-0.613
	c0.072-0.266,0.346-0.418,0.613-0.354l5.589,1.498l-1.938,1.121l-0.937-0.541l-1.938,1.118l0.002,2.233l1.937,1.121l1.937-1.119
	v-1.08L16.333,31.158z M30.702,22.861v4.277l1.517,0.873l7.893-2.113V24.1l-7.891-2.113L30.702,22.861z M39.111,24.868v0.264
	l-6.752,1.81l-0.657-0.381v-3.121l0.657-0.379L39.111,24.868z M19.298,27.139v-4.277l-1.519-0.873l-7.891,2.113V25.9l7.893,2.113
	L19.298,27.139z M10.889,25.132v-0.264l6.752-1.81l0.657,0.381v3.121l-0.657,0.379L10.889,25.132z M24,31.007l-3.701-2.139
	l-1.518,0.877l-2.115,7.894l1.557,0.898L24,32.758V31.007z M23,32.344l-4.941,4.943l-0.229-0.133l1.811-6.752l0.658-0.381L23,31.583
	V32.344z M30.092,39.68c0.195,0.195,0.195,0.512,0,0.707s-0.512,0.195-0.707,0l-1.447-1.449v2.244L25,42.876l-2.938-1.694v-2.244
	l-1.447,1.449c-0.195,0.195-0.512,0.195-0.707,0s-0.195-0.512,0-0.707L24,35.585v2.243l-0.938,0.541v2.234L25,41.721l1.937-1.117
	v-2.234L26,37.828v-2.243L30.092,39.68z"/>
</svg>
